<svg width="127" height="104" viewBox="0 0 127 104" fill="none" xmlns="http://www.w3.org/2000/svg">
<g clip-path="url(#clip0_183_817)">
<path d="M74.9417 22.136L65.0161 16.4055C62.9903 15.2359 60.4943 15.2359 58.4685 16.4055L28.7191 33.5811C26.6932 34.7507 25.4453 36.9123 25.4453 39.2516V73.6031C25.4453 75.9423 26.6934 78.104 28.7191 79.2735L58.4683 96.4493C60.4942 97.619 62.9901 97.619 65.016 96.4493L94.7652 79.2737C96.7911 78.1041 98.0389 75.9425 98.0389 73.6032V39.2517C98.0389 36.9125 96.7909 34.7508 94.7652 33.5813L79.9348 25.019" stroke="#9F9F9F" stroke-width="2.84349" stroke-miterlimit="10" stroke-linecap="round" stroke-linejoin="round"/>
<path d="M96.704 35.2908L61.7422 30.5469" stroke="#9F9F9F" stroke-width="2.84349" stroke-miterlimit="10" stroke-linecap="round" stroke-linejoin="round"/>
<path d="M97.2816 76.6558L84.541 64.4425L97.4953 36.6416" stroke="#9F9F9F" stroke-width="2.84349" stroke-miterlimit="10" stroke-linecap="round" stroke-linejoin="round"/>
<path d="M25.9902 36.6416L38.9443 64.4425L26.2039 76.6558" stroke="#9F9F9F" stroke-width="2.84349" stroke-miterlimit="10" stroke-linecap="round" stroke-linejoin="round"/>
<path d="M61.7411 15.5283V30.5463L26.7793 35.2903" stroke="#9F9F9F" stroke-width="2.84349" stroke-miterlimit="10" stroke-linecap="round" stroke-linejoin="round"/>
<path d="M81.6992 39.5439H83.9912V50.2669" stroke="#9F9F9F" stroke-width="2.84349" stroke-miterlimit="10" stroke-linecap="round" stroke-linejoin="round"/>
<path d="M38.6426 39.5439H44.5418L39.8279 50.2669" stroke="#9F9F9F" stroke-width="2.84349" stroke-miterlimit="10" stroke-linecap="round" stroke-linejoin="round"/>
<path d="M59.0491 75.2481C59.2968 73.9873 60.408 73.0361 61.7413 73.0361C63.2567 73.0361 64.4851 74.2646 64.4851 75.7799C64.4851 77.2952 63.2567 78.5237 61.7413 78.5237" stroke="#9F9F9F" stroke-width="2.84349" stroke-miterlimit="10" stroke-linecap="round" stroke-linejoin="round"/>
<path d="M61.7438 78.5234C63.2591 78.5234 64.4876 79.7519 64.4876 81.2672C64.4876 82.7825 63.2591 84.011 61.7438 84.011C60.3583 84.011 59.2126 82.9842 59.0265 81.6499C59.0091 81.5248 59 81.3971 59 81.2672" stroke="#9F9F9F" stroke-width="2.84349" stroke-miterlimit="10" stroke-linecap="round" stroke-linejoin="round"/>
<path d="M62.4905 46.3037C62.4905 46.3037 59.2056 48.747 58.6758 53.3608" stroke="#9F9F9F" stroke-width="2.84349" stroke-miterlimit="10" stroke-linecap="round" stroke-linejoin="round"/>
<path d="M61.7433 56.9115C63.4558 56.9115 64.8441 55.5232 64.8441 53.8107C64.8441 52.0982 63.4558 50.71 61.7433 50.71C60.0308 50.71 58.6426 52.0982 58.6426 53.8107C58.6426 55.5232 60.0308 56.9115 61.7433 56.9115Z" stroke="#9F9F9F" stroke-width="2.84349" stroke-miterlimit="10" stroke-linecap="round" stroke-linejoin="round"/>
<path d="M54.687 64.4433H84.5383L61.7409 30.5469L38.9434 64.4433H48.9265" stroke="#9F9F9F" stroke-width="2.84349" stroke-miterlimit="10" stroke-linecap="round" stroke-linejoin="round"/>
<path d="M62.4531 97.2855L84.5415 64.4434" stroke="#9F9F9F" stroke-width="2.84349" stroke-miterlimit="10" stroke-linecap="round" stroke-linejoin="round"/>
<path d="M38.9434 64.4434L61.0317 97.2855" stroke="#9F9F9F" stroke-width="2.84349" stroke-miterlimit="10" stroke-linecap="round" stroke-linejoin="round"/>
</g>
<path d="M102.344 13.5426C105.678 13.5426 108.39 11.0108 108.39 7.89972C108.39 4.78868 105.678 2.25684 102.344 2.25684C99.04 2.25684 96.3516 4.78868 96.3516 7.89972C96.3516 11.0108 99.04 13.5426 102.344 13.5426ZM102.344 4.13078C104.57 4.13078 106.382 5.82173 106.382 7.89972C106.382 9.97772 104.57 11.6687 102.344 11.6687C100.148 11.6687 98.3596 9.97772 98.3596 7.89972C98.3596 5.82173 100.148 4.13078 102.344 4.13078Z" fill="#9F9F9F"/>
<path d="M76.2454 5.09833H78.4621V7.31602C78.4621 7.84676 78.8916 8.27623 79.4223 8.27623C79.9531 8.27623 80.3826 7.84676 80.3826 7.31602V5.09833H82.6012C83.1319 5.09833 83.5614 4.66886 83.5614 4.13812C83.5614 3.60737 83.1319 3.1779 82.6012 3.1779H80.3826V0.960216C80.3826 0.429471 79.9531 0 79.4223 0C78.8916 0 78.4621 0.429471 78.4621 0.960216V3.1779H76.2454C75.7146 3.1779 75.2852 3.60737 75.2852 4.13812C75.2852 4.66886 75.7146 5.09833 76.2454 5.09833Z" fill="#9F9F9F"/>
<path d="M7.28409 26.3667L9.76407 25.5807C10.3572 25.3928 10.6853 24.7603 10.4973 24.1672C10.3093 23.5742 9.6766 23.2459 9.08349 23.4338L6.60387 24.2197L5.81838 21.7399C5.63037 21.1469 4.99766 20.8186 4.40454 21.0065C3.81142 21.1943 3.48328 21.8268 3.67129 22.4199L4.4569 24.9L1.97692 25.686C1.3838 25.8738 1.05566 26.5064 1.24367 27.0994C1.43168 27.6925 2.06439 28.0207 2.65751 27.8329L5.13712 27.047L5.92261 29.5267C6.11062 30.1198 6.74333 30.448 7.33645 30.2602C7.92956 30.0724 8.25772 29.4399 8.0697 28.8468L7.28409 26.3667Z" fill="#9F9F9F"/>
<path d="M19.4691 13.5107L20.7683 11.0063L23.2737 12.3061C23.8733 12.6171 24.6102 12.3836 24.9213 11.784C25.2324 11.1844 24.9989 10.4475 24.3993 10.1365L21.8938 8.8367L23.1941 6.3302C23.5052 5.7306 23.2717 4.99369 22.6721 4.68263C22.0725 4.37157 21.3356 4.60506 21.0245 5.20467L19.7242 7.71116L17.2188 6.4114C16.6192 6.10034 15.8823 6.33383 15.5712 6.93344C15.2602 7.53305 15.4937 8.26995 16.0933 8.58101L18.5987 9.88077L17.2995 12.3851C16.9884 12.9847 17.2219 13.7217 17.8215 14.0327C18.4211 14.3438 19.158 14.1103 19.4691 13.5107Z" fill="#9F9F9F"/>
<path d="M18.6208 90.5967L16.9686 92.249L15.3163 90.5967C14.9213 90.2016 14.2813 90.2016 13.8863 90.5967C13.4913 90.9917 13.4913 91.6317 13.8863 92.0267L15.5385 93.679L13.8863 95.3313C13.4913 95.7264 13.4913 96.3663 13.8863 96.7614C14.2813 97.1564 14.9213 97.1564 15.3163 96.7614L16.9686 95.1091L18.6208 96.7614C19.0158 97.1564 19.6558 97.1564 20.0508 96.7614C20.4459 96.3663 20.4459 95.7264 20.0508 95.3313L18.3986 93.679L20.0508 92.0267C20.9973 91.0803 19.5667 89.6508 18.6208 90.5967Z" fill="#9F9F9F"/>
<path d="M123.488 83.9351L121.812 82.4834L123.264 80.8081C123.612 80.407 123.568 79.8012 123.167 79.4536C122.766 79.1061 122.16 79.1494 121.813 79.5505L120.361 81.2258L118.684 79.773C118.283 79.4254 117.677 79.4688 117.33 79.8699C116.982 80.271 117.026 80.8768 117.427 81.2244L119.103 82.6772L117.651 84.354C117.303 84.7551 117.346 85.3609 117.748 85.7085C118.149 86.056 118.754 86.0127 119.102 85.6116L120.555 83.9348L122.23 85.3864C122.631 85.734 123.237 85.6907 123.585 85.2895C123.932 84.8884 123.889 84.2826 123.488 83.9351Z" fill="#9F9F9F"/>
<path d="M108.271 91.433C105.774 89.2693 102.085 89.4219 100.047 91.7735C98.0094 94.1251 98.3836 97.7987 100.881 99.9624C103.4 102.145 107.107 102.008 109.145 99.6566C111.183 97.305 110.791 93.616 108.271 91.433ZM102.108 98.5459C100.448 97.1077 100.204 94.6584 101.565 93.0884C102.925 91.5184 105.384 91.4113 107.044 92.8495C108.726 94.307 108.988 96.7717 107.627 98.3417C106.267 99.9117 103.79 100.003 102.108 98.5459Z" fill="#9F9F9F"/>
<defs>
<clipPath id="clip0_183_817">
<rect width="84.2671" height="84.2671" fill="white" transform="translate(19.6094 14.2959)"/>
</clipPath>
</defs>
</svg>
