<svg width="107" height="107" viewBox="0 0 107 107" fill="none" xmlns="http://www.w3.org/2000/svg">
<path d="M8.16733 19.7323C10.2965 20.1983 11.9566 21.8821 12.3969 24.0165L13.7467 30.5702C13.9177 31.4029 14.651 32 15.5 32C16.349 32 17.0812 31.4029 17.2533 30.5702L18.602 24.0175C19.0424 21.8821 20.7035 20.1983 22.8337 19.7313L29.5939 18.2483C30.4142 18.068 31 17.3409 31 16.5C31 15.6591 30.4142 14.932 29.5939 14.7517L22.8337 13.2687C22.8316 13.2687 22.8316 13.2687 22.8316 13.2687C20.7035 12.8017 19.0424 11.1179 18.602 8.98454L17.2533 2.42976C17.0812 1.59812 16.349 1 15.5 1C14.651 1 13.9177 1.59812 13.7467 2.42976L12.3969 8.98249C11.9566 11.1189 10.2965 12.8017 8.1663 13.2687L1.40509 14.7517C0.58477 14.932 0 15.6591 0 16.5C0 17.3409 0.585795 18.068 1.40509 18.2483L8.16733 19.7323ZM15.499 11.0933C16.4627 13.6354 18.5232 15.6294 21.1122 16.5C18.5232 17.3706 16.4627 19.3646 15.499 21.9067C14.5363 19.3646 12.4758 17.3706 9.88682 16.5C12.4758 15.6274 14.5363 13.6354 15.499 11.0933Z" fill="white"/>
<path d="M21.5808 94.2347L17.0493 93.2385H17.0472C15.8535 92.9778 14.9216 92.0354 14.6764 90.8365L13.7703 86.442C13.5976 85.6021 12.858 85 12.0005 85C11.142 85 10.4024 85.6021 10.2297 86.442L9.32357 90.8385C9.07842 92.0354 8.14646 92.9778 6.95176 93.2385L2.42019 94.2347C1.59166 94.4167 1 95.1512 1 96.0005C1 96.8488 1.59166 97.5833 2.42019 97.7653L6.9528 98.7615C8.14646 99.0222 9.07842 99.9656 9.32357 101.164L10.2297 105.558C10.4024 106.398 11.142 107 12.0005 107C12.858 107 13.5976 106.398 13.7703 105.558L14.6764 101.161C14.9216 99.9656 15.8535 99.0222 17.0493 98.7615L21.5808 97.7653C22.4083 97.5833 23 96.8488 23 96.0005C23 95.1512 22.4083 94.4167 21.5808 94.2347ZM11.9995 98.2577C11.4254 97.3308 10.6331 96.554 9.69077 96.0005C10.6331 95.445 11.4264 94.6692 11.9995 93.7423C12.5736 94.6692 13.3659 95.446 14.3082 96.0005C13.3659 96.555 12.5736 97.3308 11.9995 98.2577Z" fill="white"/>
<path d="M105.581 9.23528L101.049 8.23914H101.047C99.8542 7.97743 98.9222 7.03508 98.676 5.83619L97.7709 1.44198C97.5982 0.602031 96.8575 0 96 0C95.1425 0 94.4029 0.602031 94.2291 1.44198L93.324 5.83825C93.0778 7.03508 92.1468 7.97743 90.951 8.23914L86.4192 9.23528C85.5917 9.41631 85 10.1507 85 11C85 11.8493 85.5917 12.5837 86.4192 12.7658L90.9531 13.7609C92.1468 14.0226 93.0778 14.9649 93.324 16.1638L94.2291 20.558C94.4029 21.398 95.1425 22 96 22C96.8575 22 97.5982 21.398 97.7709 20.558L98.676 16.1617C98.9222 14.9649 99.8542 14.0226 101.049 13.7609L105.581 12.7658C106.408 12.5837 107 11.8493 107 11C107 10.1507 106.408 9.41631 105.581 9.23528ZM96 13.2581C95.4259 12.3313 94.6335 11.5544 93.6901 11C94.6335 10.4456 95.4259 9.6687 96 8.74187C96.5741 9.6687 97.3654 10.4456 98.3088 11C97.3665 11.5544 96.5741 12.3313 96 13.2581Z" fill="white"/>
<path d="M58.2319 42.8707C61.4744 42.1908 63.551 39.0106 62.8711 35.7681C62.1911 32.5256 59.0099 30.449 55.7684 31.1289C52.5259 31.8099 50.4483 34.9901 51.1292 38.2316C51.8092 41.4751 54.9894 43.5517 58.2319 42.8707Z" fill="white"/>
<path d="M67.4106 49.946C68.4912 49.663 69.1835 48.3374 68.9571 46.9864C68.7308 45.6353 67.6704 44.7699 66.5897 45.054C65.5082 45.337 64.8159 46.6626 65.0432 48.0136C65.2695 49.3647 66.3299 50.2301 67.4106 49.946Z" fill="white"/>
<path d="M40.7814 40.0646C38.8901 40.4051 37.6782 41.9951 38.0754 43.6161C38.4715 45.2371 40.3266 46.2758 42.2179 45.9354C44.1091 45.5949 45.3211 44.0049 44.925 42.3839C44.5278 40.7629 42.6726 39.7242 40.7814 40.0646Z" fill="white"/>
<path d="M87.2598 39.5393C86.2639 39.5486 85.465 40.3667 85.4743 41.3649C85.4846 42.3652 86.3309 43.2475 87.2917 43.1584C99.2178 42.9979 102.208 45.187 102.383 46.0196C102.551 46.8211 100.727 49.8924 90.4225 54.4249C88.8473 55.1187 87.1629 55.8042 85.3939 56.4794C85.4238 54.0708 85.1991 51.6425 84.6939 49.2276C82.893 40.6028 77.8552 33.1977 70.5102 28.3805C63.1674 23.5632 54.3916 21.9033 45.8055 23.7144C37.2184 25.5245 29.8476 30.5841 25.052 37.9632C20.2544 45.3413 18.605 54.1547 20.408 62.7795C20.8667 64.9759 21.5419 67.0728 22.3924 69.0589C21.9007 69.0662 21.41 69.0734 20.9317 69.0745C20.9059 69.0745 20.8791 69.0745 20.8533 69.0745C9.66841 69.0745 6.78301 67.0086 6.61601 66.2092C6.47685 65.5413 7.85099 62.9628 15.7815 59.0962C16.6763 58.6592 17.0494 57.5781 16.6154 56.6782C16.1814 55.7784 15.1052 55.4056 14.2084 55.8405C6.00059 59.8417 2.36471 63.4764 3.09045 66.9516C3.89658 70.8152 9.70655 72.6936 20.8482 72.6936H20.9358C21.9862 72.6926 23.0769 72.6698 24.1902 72.6346C30.0208 82.6512 40.8274 89.001 52.5443 89C54.772 89 57.0327 88.7701 59.2964 88.2938C67.8836 86.4837 75.2543 81.422 80.0499 74.0439C82.7621 69.8718 84.4671 65.241 85.1125 60.4455C87.5164 59.5622 89.7833 58.6581 91.8677 57.7407C102.126 53.2268 106.718 49.15 105.909 45.2771C105.08 41.308 98.9137 39.3922 87.2598 39.5393ZM23.9336 62.0371C22.3295 54.3576 23.7985 46.5115 28.0684 39.9421C32.3403 33.3727 38.9007 28.8682 46.5446 27.257C48.5651 26.8303 50.5949 26.6201 52.6092 26.6201C58.2274 26.6201 63.7292 28.2531 68.5402 31.4115C75.0801 35.7006 79.5643 42.2927 81.1694 49.9701C81.7209 52.6117 81.891 55.244 81.7322 57.8163C74.2822 60.4216 65.5518 62.8168 56.308 64.7657C45.4684 67.049 35.0308 68.4873 26.2819 68.9285C25.2304 66.7642 24.4387 64.455 23.9336 62.0371ZM58.5583 84.7523C50.9114 86.3615 43.1025 84.8859 36.5627 80.5967C33.2413 78.417 30.4538 75.6428 28.3003 72.4358C36.8452 71.888 46.7797 70.4714 57.0461 68.3071C65.7394 66.4743 73.9966 64.2469 81.2096 61.8175C78.953 72.9629 70.3236 82.2712 58.5583 84.7523Z" fill="white"/>
</svg>
