<svg width="78" height="80" viewBox="0 0 78 80" fill="none" xmlns="http://www.w3.org/2000/svg">
<path d="M70.7192 8.67794C70.5557 8.6713 70.3921 8.67019 70.2285 8.6748H64.0597V3.37354C64.0599 1.25304 62.0357 0 59.9152 0H54.2286C52.1081 0 50.5659 1.25304 50.5659 3.37354V8.67462H27.4334V3.37354C27.4334 1.25304 25.8912 0 23.7707 0H18.0839C15.9636 0 13.9394 1.25304 13.9394 3.37354V8.67462H7.77085C3.83314 8.56485 0.552025 11.6681 0.442255 15.6056C0.437643 15.7691 0.43875 15.9329 0.445391 16.0964V71.8071C0.445391 76.0481 3.52966 79.9998 7.77066 79.9998H70.2286C74.4697 79.9998 77.5539 76.0481 77.5539 71.8071V16.0964C77.7152 12.1605 74.6551 8.83918 70.7192 8.67794ZM54.2286 3.85543H60.2045V14.4578H54.2286V3.85543ZM18.0841 3.85543H23.5781V14.4578H18.0841V3.85543ZM73.6985 71.8071C73.6985 73.9276 72.3491 76.1444 70.2286 76.1444H7.77085C5.65035 76.1444 4.301 73.9276 4.301 71.8071V30.8434H73.6985V71.8071ZM73.6985 16.0964V26.988H4.30082V16.0964C4.13755 14.2939 5.46641 12.7003 7.26886 12.5371C7.43563 12.5219 7.60352 12.5197 7.77066 12.5302H13.9394V14.6507C13.9394 16.7712 15.9634 18.3134 18.0839 18.3134H23.7707C25.7396 18.3674 27.3793 16.815 27.4334 14.8461C27.4352 14.781 27.4352 14.7159 27.4334 14.6507V12.53H50.5659V14.6505C50.5119 16.6194 52.0643 18.2591 54.0332 18.3132C54.0983 18.315 54.1634 18.315 54.2286 18.3132H59.9154C62.0359 18.3132 64.0599 16.771 64.0599 14.6505V12.53H70.2286C72.035 12.4162 73.5915 13.7883 73.7053 15.5946C73.7158 15.7617 73.7136 15.9296 73.6985 16.0964Z" fill="white"/>
</svg>
