<svg width="78" height="80" viewBox="0 0 78 80" fill="none" xmlns="http://www.w3.org/2000/svg">
<path d="M31.9916 71.667C28.0483 71.667 24.7533 68.0187 23.81 62.807C18.0933 61.8703 13.7916 55.117 13.7916 46.667C13.7916 38.217 18.0933 31.4637 23.81 30.527C24.7533 25.3153 28.0483 21.667 31.9916 21.667C36.74 21.667 40.4583 26.8803 40.4583 33.5337V39.4337C40.4583 39.9837 40.1866 40.5003 39.7316 40.8087C38.49 41.6587 37.2466 42.702 36.035 43.9103C35.1316 44.8153 34.32 45.7403 33.6133 46.6653C34.32 47.5937 35.1316 48.5153 36.0366 49.4203C37.2466 50.6303 38.49 51.6737 39.7316 52.522C40.1866 52.8337 40.4583 53.3503 40.4583 53.9003V59.8003C40.4583 66.4537 36.74 71.667 31.9916 71.667ZM25.275 59.567C26.135 59.567 26.8533 60.222 26.9333 61.077C27.3166 65.147 29.5383 68.3337 31.9916 68.3337C34.775 68.3337 37.125 64.4253 37.125 59.8003V54.762C35.96 53.902 34.8033 52.9037 33.68 51.782C32.325 50.4237 31.1466 49.0203 30.1833 47.6087C29.795 47.0403 29.795 46.2953 30.1833 45.727C31.1466 44.3153 32.3233 42.9137 33.6783 41.5553C33.68 41.5553 33.68 41.5553 33.68 41.5537C34.805 40.432 35.96 39.4337 37.125 38.5737V33.5337C37.125 28.9087 34.775 25.0003 31.9916 25.0003C29.5383 25.0003 27.3166 28.187 26.9333 32.257C26.8533 33.1137 26.135 33.767 25.275 33.767C25.2116 33.767 25.135 33.762 25.06 33.752C20.7466 33.8553 17.125 39.727 17.125 46.667C17.125 53.607 20.7466 59.4803 25.0616 59.582C25.1366 59.572 25.2116 59.567 25.275 59.567Z" fill="white"/>
<path d="M31.5584 48.3337C31.0117 48.3337 30.4984 48.0654 30.1884 47.6137C26.8334 42.7621 26.1801 38.5321 28.4367 36.2987C30.6551 34.0571 34.8867 34.7104 39.7384 38.0637C40.1901 38.3754 40.4601 38.8887 40.4584 39.4387C40.4567 39.9871 40.1851 40.5004 39.7317 40.8087C38.4901 41.6587 37.2467 42.7021 36.0351 43.9121C34.8251 45.1221 33.7817 46.3654 32.9334 47.6071C32.6251 48.0604 32.1117 48.3321 31.5634 48.3337C31.5617 48.3337 31.5601 48.3337 31.5584 48.3337ZM31.9017 38.3337C31.3701 38.3337 30.9934 38.4537 30.7934 38.6554C30.2384 39.2054 30.2784 41.0387 31.7034 43.7171C32.3084 42.9871 32.9701 42.2654 33.6784 41.5537C34.3901 40.8437 35.1134 40.1837 35.8434 39.5771C34.1567 38.6821 32.8067 38.3337 31.9017 38.3337Z" fill="white"/>
<path d="M45.6835 58.3467C43.5035 58.3467 40.7885 57.3067 37.8451 55.27C37.3935 54.9583 37.1235 54.445 37.1251 53.895C37.1268 53.3467 37.3985 52.8333 37.8518 52.525C39.0935 51.675 40.3368 50.6317 41.5485 49.4217C42.7585 48.2117 43.8018 46.9683 44.6501 45.7267C44.9601 45.275 45.4718 45.0017 46.0201 45H46.0251C46.5718 45 47.0851 45.2683 47.3951 45.72C50.7468 50.5667 51.4018 54.7933 49.1535 57.0283C48.2751 57.9117 47.0901 58.3467 45.6835 58.3467ZM41.7418 53.755C44.4201 55.1783 46.2501 55.2233 46.7901 54.6783C46.7951 54.6733 46.7985 54.67 46.8035 54.665C47.3485 54.1267 47.3051 52.295 45.8801 49.6167C45.2751 50.3467 44.6135 51.0683 43.9051 51.78C43.1951 52.4883 42.4701 53.15 41.7418 53.755Z" fill="white"/>
<path d="M38.7917 55.5666C38.4633 55.5666 38.1333 55.4683 37.8517 55.2749C36.44 54.3116 35.0383 53.1349 33.68 51.7799C32.325 50.4216 31.1467 49.0183 30.1833 47.6066C29.795 47.0383 29.795 46.2933 30.1833 45.7249C31.1467 44.3133 32.3233 42.9116 33.6783 41.5533C35.0367 40.1983 36.44 39.0199 37.8517 38.0566C38.4183 37.6699 39.1667 37.6699 39.7333 38.0566C41.145 39.0199 42.5467 40.1966 43.905 41.5516C45.26 42.9099 46.4383 44.3133 47.4017 45.7249C47.79 46.2933 47.79 47.0383 47.4017 47.6066C46.4383 49.0183 45.2617 50.4199 43.9067 51.7783C42.5483 53.1333 41.145 54.3116 39.7333 55.2749C39.45 55.4683 39.12 55.5666 38.7917 55.5666ZM33.615 46.6666C34.3217 47.5949 35.1333 48.5166 36.0383 49.4216C36.9417 50.3249 37.8667 51.1366 38.7917 51.8433C39.72 51.1366 40.6417 50.3249 41.5467 49.4199C42.45 48.5166 43.2617 47.5916 43.9683 46.6666C43.2617 45.7383 42.45 44.8166 41.545 43.9116C40.6417 43.0083 39.7167 42.1966 38.7917 41.4899C37.8633 42.1966 36.9417 43.0083 36.0367 43.9133C35.1333 44.8166 34.32 45.7399 33.615 46.6666Z" fill="white"/>
<path d="M31.9001 58.3467C30.4884 58.3467 29.3001 57.91 28.4234 57.0217C26.1784 54.8017 26.8334 50.5717 30.1884 45.72C30.4984 45.2683 31.0118 45 31.5584 45H31.5634C32.1118 45.0017 32.6251 45.2733 32.9334 45.7267C33.7834 46.9683 34.8268 48.2117 36.0351 49.4233C37.2468 50.6333 38.4901 51.6767 39.7318 52.525C40.1834 52.835 40.4568 53.3467 40.4584 53.895C40.4601 54.445 40.1918 54.96 39.7384 55.27C36.7951 57.3067 34.0801 58.3467 31.9001 58.3467ZM31.7034 49.6167C30.2801 52.295 30.2351 54.1267 30.7801 54.665C31.3284 55.2183 33.1634 55.1783 35.8418 53.755C35.1118 53.15 34.3901 52.4883 33.6784 51.78C33.6784 51.7783 33.6784 51.7783 33.6768 51.7783C32.9701 51.0683 32.3084 50.345 31.7034 49.6167Z" fill="white"/>
<path d="M46.0251 48.3331C46.0235 48.3331 46.0218 48.3331 46.0201 48.3331C45.4718 48.3315 44.9585 48.0598 44.6501 47.6065C43.8001 46.3648 42.7568 45.1215 41.5468 43.9098C40.3368 42.6998 39.0935 41.6565 37.8518 40.8081C37.3985 40.4998 37.1268 39.9865 37.1251 39.4381C37.1235 38.8881 37.3918 38.3731 37.8451 38.0631C42.6951 34.7081 46.9268 34.0498 49.1601 36.3115C51.4051 38.5315 50.7501 42.7615 47.3951 47.6131C47.0851 48.0648 46.5718 48.3331 46.0251 48.3331ZM41.7418 39.5781C42.4718 40.1831 43.1935 40.8448 43.9051 41.5531C44.6151 42.2648 45.2751 42.9881 45.8818 43.7181C47.3051 41.0398 47.3501 39.2081 46.8051 38.6698C46.2551 38.1148 44.4201 38.1565 41.7418 39.5781Z" fill="white"/>
<path d="M45.5918 71.6668C40.8435 71.6668 37.1251 66.4534 37.1251 59.8001V53.9001C37.1251 53.3501 37.3968 52.8334 37.8518 52.5251C39.0935 51.6751 40.3368 50.6318 41.5485 49.4218C42.4518 48.5184 43.2635 47.5934 43.9701 46.6684C43.2635 45.7401 42.4518 44.8184 41.5468 43.9134C40.3368 42.7034 39.0935 41.6601 37.8518 40.8118C37.3968 40.5001 37.1251 39.9834 37.1251 39.4334V33.5334C37.1251 29.4368 38.5801 25.6934 41.0168 23.5218C43.8218 20.9934 47.7818 21.1168 50.4868 23.8218C52.1051 25.4068 53.2701 27.8034 53.7718 30.5268C59.4885 31.4601 63.7918 38.2151 63.7918 46.6668C63.7918 55.1168 59.4901 61.8701 53.7735 62.8068C52.8301 68.0184 49.5351 71.6668 45.5918 71.6668ZM40.4585 54.7601V59.7984C40.4585 64.4234 42.8085 68.3318 45.5918 68.3318C48.0451 68.3318 50.2668 65.1451 50.6501 61.0751C50.7301 60.2184 51.4485 59.5651 52.3085 59.5651C52.3718 59.5651 52.4485 59.5701 52.5235 59.5801C56.8368 59.4801 60.4585 53.6068 60.4585 46.6668C60.4585 39.7268 56.8368 33.8534 52.5218 33.7518C52.4468 33.7618 52.3718 33.7668 52.3085 33.7668C51.4485 33.7668 50.7318 33.1134 50.6501 32.2584C50.4068 29.7268 49.4935 27.5168 48.1401 26.1901C47.5918 25.6418 46.7151 25.0001 45.5918 25.0001C44.7718 25.0001 43.9801 25.3384 43.2418 26.0051C41.5218 27.5368 40.4585 30.4201 40.4585 33.5334V38.5718C41.6235 39.4318 42.7801 40.4301 43.9035 41.5518C45.2585 42.9101 46.4368 44.3134 47.4001 45.7251C47.7885 46.2934 47.7885 47.0384 47.4001 47.6068C46.4368 49.0184 45.2601 50.4201 43.9051 51.7784C42.7801 52.9018 41.6235 53.9018 40.4585 54.7601Z" fill="white"/>
<path d="M58.7917 30C57.87 30 57.125 29.255 57.125 28.3333C57.125 27.4133 56.3784 26.6667 55.4584 26.6667H49.3084C48.865 26.6667 48.4417 26.4917 48.13 26.1783C47.5917 25.6417 46.715 25 45.5917 25C44.7717 25 43.98 25.3383 43.2417 26.005C42.7517 26.4467 42.05 26.5567 41.4484 26.2917C40.845 26.0217 40.4584 25.4267 40.4584 24.7667V1.66667C40.4584 0.745 41.2034 0 42.125 0H55.4584C58.215 0 60.4584 2.24333 60.4584 5V28.3333C60.4584 29.255 59.7134 30 58.7917 30ZM49.955 23.3333H55.4584C56.0434 23.3333 56.6034 23.435 57.125 23.6183V5C57.125 4.08 56.3784 3.33333 55.4584 3.33333H43.7917V21.9283C45.8817 21.3117 48.155 21.8167 49.955 23.3333Z" fill="white"/>
<path d="M58.7918 30C57.8701 30 57.1251 29.255 57.1251 28.3333V5C57.1251 2.24333 59.3685 0 62.1251 0H75.4585C76.3801 0 77.1251 0.745 77.1251 1.66667V25C77.1251 25.9217 76.3801 26.6667 75.4585 26.6667H62.1251C61.2051 26.6667 60.4585 27.4133 60.4585 28.3333C60.4585 29.255 59.7135 30 58.7918 30ZM62.1251 3.33333C61.2051 3.33333 60.4585 4.08 60.4585 5V23.6183C60.9785 23.435 61.5401 23.3333 62.1251 23.3333H73.7918V3.33333H62.1251Z" fill="white"/>
<path d="M8.79179 68.3333C7.87012 68.3333 7.12512 67.5883 7.12512 66.6667V41.6667C7.12512 40.745 7.87012 40 8.79179 40C9.71346 40 10.4585 40.745 10.4585 41.6667V66.6667C10.4585 67.5883 9.71346 68.3333 8.79179 68.3333Z" fill="white"/>
<path d="M15.4584 68.3333H2.12504C1.20337 68.3333 0.458374 67.5883 0.458374 66.6667C0.458374 65.745 1.20337 65 2.12504 65H15.4584C16.38 65 17.125 65.745 17.125 66.6667C17.125 67.5883 16.38 68.3333 15.4584 68.3333Z" fill="white"/>
<path d="M8.79171 79.9997C8.19504 79.9997 7.64337 79.6797 7.34504 79.1597L0.676707 67.4913C0.533374 67.2413 0.458374 66.9563 0.458374 66.6663V34.9997C0.458374 34.078 1.20337 33.333 2.12504 33.333H15.4584C16.38 33.333 17.125 34.078 17.125 34.9997V66.6663C17.125 66.9563 17.05 67.2413 16.9067 67.4913L10.2384 79.1597C9.94004 79.6797 9.38837 79.9997 8.79171 79.9997ZM3.79171 66.2247L8.79171 74.9763L13.7917 66.2247V36.6663H3.79171V66.2247Z" fill="white"/>
<path d="M15.4584 43.3333H2.12504C1.20337 43.3333 0.458374 42.5883 0.458374 41.6667C0.458374 40.745 1.20337 40 2.12504 40H15.4584C16.38 40 17.125 40.745 17.125 41.6667C17.125 42.5883 16.38 43.3333 15.4584 43.3333Z" fill="white"/>
</svg>
