<svg width="67" height="34" viewBox="0 0 67 34" fill="none" xmlns="http://www.w3.org/2000/svg">
<path d="M65.8858 17.6914L50.8416 32.7358C50.3011 33.3669 49.3514 33.4404 48.7203 32.8999C48.0893 32.3595 48.0157 31.4097 48.5563 30.7787C48.6067 30.7198 48.6615 30.6649 48.7203 30.6146L61.1921 18.1278H1.63134C0.800541 18.1278 0.126953 17.4542 0.126953 16.6232C0.126953 15.7923 0.800541 15.1188 1.63134 15.1188H61.1921L48.7203 2.64712C48.0893 2.1067 48.0157 1.15695 48.5563 0.525894C49.0968 -0.105156 50.0464 -0.178719 50.6775 0.361832C50.7363 0.412254 50.7913 0.467068 50.8416 0.525894L65.886 15.5703C66.4692 16.1569 66.4692 17.1046 65.8858 17.6914Z" fill="white"/>
</svg>
