<svg width="60" height="100" viewBox="0 0 60 100" fill="none" xmlns="http://www.w3.org/2000/svg">
<path d="M28.9893 8.79038H38.9285C40.0361 8.79038 40.9324 9.68662 40.9324 10.7942C40.9324 11.9019 40.0361 12.7981 38.9285 12.7981H28.9893C27.8817 12.7981 26.9854 11.9019 26.9854 10.7942C26.9854 9.68662 27.8817 8.79038 28.9893 8.79038Z" fill="#EC4400" stroke="#EC4400" stroke-width="0.961856"/>
<path d="M9.93919 0.507784H49.6959C54.9101 0.507784 59.1542 4.7519 59.1542 9.96604V89.4795C59.1542 94.6937 54.9101 98.9378 49.6959 98.9378H9.93919C4.72504 98.9378 0.480928 94.6937 0.480928 89.4795V9.96604C0.480928 4.7519 4.72504 0.507784 9.93919 0.507784ZM49.6959 94.9301C52.7065 94.9301 55.1465 92.4901 55.1465 89.4795V9.96604C55.1465 6.95551 52.7065 4.51552 49.6959 4.51552H9.93919C6.92866 4.51552 4.48867 6.95551 4.48867 9.96604V89.4795C4.48867 92.4901 6.92866 94.9301 9.93919 94.9301H49.6959Z" fill="#EC4400" stroke="#EC4400" stroke-width="0.961856"/>
<path d="M34.306 86.1663C34.306 88.6453 32.2964 90.655 29.8174 90.655C27.3384 90.655 25.3287 88.6453 25.3287 86.1663C25.3287 83.6873 27.3384 81.6776 29.8174 81.6776C32.2964 81.6776 34.306 83.6873 34.306 86.1663Z" fill="#EC4400" stroke="#EC4400" stroke-width="0.961856"/>
<path d="M22.7107 10.7942C22.7107 11.901 21.8136 12.7981 20.7068 12.7981C19.6001 12.7981 18.703 11.901 18.703 10.7942C18.703 9.68754 19.6001 8.79038 20.7068 8.79038C21.8136 8.79038 22.7107 9.68754 22.7107 10.7942Z" fill="#EC4400" stroke="#EC4400" stroke-width="0.961856"/>
</svg>
