<svg width="19" height="22" viewBox="0 0 19 22" fill="none" xmlns="http://www.w3.org/2000/svg">
<path d="M15.2606 21.0799H9.50062C9.10271 21.0799 8.78062 20.7578 8.78062 20.3599C8.78062 19.962 9.10271 19.6399 9.50062 19.6399H15.2606C16.4517 19.6399 17.4206 18.671 17.4206 17.4799V4.51992C17.4206 3.3288 16.4517 2.35992 15.2606 2.35992H9.50062C9.10271 2.35992 8.78062 2.03784 8.78062 1.63992C8.78062 1.242 9.10271 0.919922 9.50062 0.919922H15.2606C17.2457 0.919922 18.8606 2.53488 18.8606 4.51992V17.4799C18.8606 19.465 17.2457 21.0799 15.2606 21.0799ZM12.8897 10.4909L9.28966 6.89088C9.00838 6.6096 8.55287 6.6096 8.27159 6.89088C7.99031 7.17216 7.99031 7.62768 8.27159 7.90896L10.6425 10.2799H0.860625C0.462705 10.2799 0.140625 10.602 0.140625 10.9999C0.140625 11.3978 0.462705 11.7199 0.860625 11.7199H10.6425L8.27159 14.0909C7.99031 14.3722 7.99031 14.8277 8.27159 15.109C8.41222 15.2496 8.5963 15.3199 8.78062 15.3199C8.96494 15.3199 9.14902 15.2496 9.28966 15.109L12.8897 11.509C13.1709 11.2277 13.1709 10.7722 12.8897 10.4909Z" fill="white"/>
</svg>
