<svg width="50" height="61" viewBox="0 0 50 61" fill="none" xmlns="http://www.w3.org/2000/svg">
<path d="M38 15V17H40C41.3261 17 42.5979 16.4732 43.5356 15.5356C44.4732 14.5979 45 13.3261 45 12V11C45 10.7348 44.8947 10.4804 44.7071 10.2929C44.5196 10.1054 44.2652 10 44 10H43C41.6739 10 40.4022 10.5268 39.4645 11.4645C38.5268 12.4022 38 13.6739 38 15Z" fill="#B78F3F"/>
<path d="M38 19V21C38 22.3261 38.5268 23.5979 39.4645 24.5356C40.4022 25.4732 41.6739 26 43 26H44C44.2652 26 44.5196 25.8947 44.7071 25.7071C44.8947 25.5196 45 25.2652 45 25V24C45 22.6739 44.4732 21.4022 43.5356 20.4645C42.5979 19.5268 41.3261 19 40 19H38Z" fill="#B78F3F"/>
<path d="M10 17H12V15C12 13.6739 11.4732 12.4022 10.5356 11.4645C9.59787 10.5268 8.3261 10 7.00001 10H6C5.73479 10 5.48043 10.1054 5.29289 10.2929C5.10536 10.4804 5 10.7348 5 11V12C5 13.3261 5.52679 14.5979 6.46447 15.5356C7.40216 16.4732 8.67393 17 10 17Z" fill="#B78F3F"/>
<path d="M5 24V25C5 25.2652 5.10536 25.5196 5.29289 25.7071C5.48043 25.8947 5.73479 26 6 26H7.00001C8.3261 26 9.59787 25.4732 10.5356 24.5356C11.4732 23.5979 12 22.3261 12 21V19H10C8.67393 19 7.40216 19.5268 6.46447 20.4645C5.52679 21.4022 5 22.6739 5 24Z" fill="#B78F3F"/>
<path d="M14.0003 14.9999V15.9829C17.7767 15.8938 21.4203 14.5719 24.3753 12.2189C24.5527 12.0769 24.7731 11.9995 25.0003 11.9995C25.2275 11.9995 25.448 12.0769 25.6253 12.2189C28.5804 14.5719 32.224 15.8938 36.0004 15.9829V14.9999C36.0021 13.658 36.3895 12.3449 37.1164 11.217C37.8433 10.089 38.8791 9.1938 40.1004 8.63788C38.5544 6.00778 36.3481 3.82719 33.7001 2.3121C31.052 0.797015 28.0541 0 25.0033 0C21.9525 0 18.9546 0.797015 16.3066 2.3121C13.6585 3.82719 11.4522 6.00778 9.90625 8.63788C11.1264 9.19468 12.161 10.0903 12.8868 11.2182C13.6126 12.346 13.9991 13.6587 14.0003 14.9999Z" fill="#B78F3F"/>
<path d="M14.0001 17.9998V23.8258C13.9912 26.3996 14.7037 28.9243 16.0567 31.1137C17.4098 33.3031 19.3492 35.0696 21.6551 36.2129L21.6801 36.2259C22.7145 36.728 23.8493 36.9889 24.9991 36.9889C26.1489 36.9889 27.2838 36.728 28.3181 36.2259L28.3431 36.2129C30.65 35.0696 32.5903 33.3026 33.9437 31.1124C35.2972 28.9222 36.0096 26.3964 36.0002 23.8218V17.9998C32.0368 17.9102 28.1967 16.6046 25.0001 14.2598C21.8035 16.6046 17.9635 17.9102 14.0001 17.9998ZM19.0001 23.9998C18.4658 23.9942 17.9396 23.869 17.46 23.6333C16.9805 23.3976 16.5599 23.0574 16.2291 22.6378C16.1453 22.5366 16.0823 22.4198 16.0436 22.2942C16.005 22.1686 15.9914 22.0366 16.0038 21.9058C16.0161 21.7749 16.0541 21.6478 16.1156 21.5316C16.1771 21.4155 16.2608 21.3126 16.3621 21.2288C16.4633 21.145 16.5801 21.082 16.7057 21.0433C16.8313 21.0047 16.9633 20.9911 17.0941 21.0035C17.225 21.0158 17.3521 21.0538 17.4683 21.1153C17.5844 21.1768 17.6873 21.2605 17.7711 21.3618C17.9137 21.5534 18.099 21.709 18.3124 21.8161C18.5258 21.9233 18.7613 21.9792 19.0001 21.9792C19.2389 21.9792 19.4744 21.9233 19.6878 21.8161C19.9012 21.709 20.0865 21.5534 20.2291 21.3618C20.3983 21.1573 20.6418 21.0284 20.9061 21.0035C21.1703 20.9785 21.4336 21.0596 21.6381 21.2288C21.8426 21.398 21.9715 21.6415 21.9964 21.9058C22.0214 22.17 21.9403 22.4333 21.7711 22.6378C21.4403 23.0574 21.0197 23.3976 20.5402 23.6333C20.0607 23.869 19.5344 23.9942 19.0001 23.9998ZM28.3621 21.2298C28.4633 21.1459 28.58 21.0827 28.7056 21.0439C28.8312 21.0051 28.9632 20.9914 29.094 21.0037C29.2249 21.016 29.352 21.0539 29.4682 21.1153C29.5844 21.1768 29.6874 21.2605 29.7712 21.3618C29.9137 21.5534 30.0991 21.709 30.3125 21.8161C30.5259 21.9233 30.7614 21.9792 31.0002 21.9792C31.239 21.9792 31.4744 21.9233 31.6878 21.8161C31.9012 21.709 32.0866 21.5534 32.2292 21.3618C32.3984 21.1573 32.6419 21.0284 32.9061 21.0035C33.1704 20.9785 33.4337 21.0596 33.6382 21.2288C33.8427 21.398 33.9715 21.6415 33.9965 21.9058C34.0214 22.17 33.9404 22.4333 33.7712 22.6378C33.4442 23.0616 33.0243 23.4047 32.544 23.6408C32.0636 23.8769 31.5354 23.9997 31.0002 23.9997C30.4649 23.9997 29.9368 23.8769 29.4564 23.6408C28.976 23.4047 28.5561 23.0616 28.2291 22.6378C28.1454 22.5366 28.0825 22.4199 28.0438 22.2944C28.0052 22.1689 27.9917 22.037 28.004 21.9063C28.0164 21.7755 28.0544 21.6485 28.1158 21.5324C28.1773 21.4163 28.261 21.3135 28.3621 21.2298ZM27.8281 30.4138C28.0156 30.6014 28.1209 30.8557 28.1209 31.1208C28.1209 31.386 28.0156 31.6403 27.8281 31.8278C27.078 32.5777 26.0608 32.999 25.0001 32.999C23.9395 32.999 22.9222 32.5777 22.1721 31.8278C22.0766 31.7356 22.0004 31.6253 21.948 31.5032C21.8956 31.3812 21.868 31.25 21.8669 31.1172C21.8657 30.9845 21.891 30.8528 21.9413 30.7299C21.9916 30.607 22.0658 30.4953 22.1597 30.4014C22.2536 30.3076 22.3653 30.2333 22.4882 30.183C22.6111 30.1327 22.7427 30.1074 22.8755 30.1086C23.0083 30.1097 23.1395 30.1373 23.2615 30.1897C23.3835 30.2421 23.4939 30.3183 23.5861 30.4138C23.9672 30.7772 24.4736 30.9799 25.0001 30.9799C25.5267 30.9799 26.0331 30.7772 26.4141 30.4138C26.6017 30.2264 26.856 30.1211 27.1211 30.1211C27.3863 30.1211 27.6406 30.2264 27.8281 30.4138Z" fill="#B78F3F"/>
<path d="M46.5201 39.0395C46.5195 38.7051 46.4971 38.3711 46.4531 38.0395C47.3745 37.5424 48.1677 36.8378 48.7701 35.9815C49.3724 35.1252 49.7675 34.1405 49.924 33.1053C50.0806 32.0701 49.9943 31.0127 49.672 30.0165C49.3497 29.0204 48.8003 28.1128 48.0671 27.3655C48.9304 25.5564 49.0752 23.4872 48.4724 21.5755C47.8695 19.6638 46.5639 18.052 44.8191 17.0654C44.444 17.4211 44.0308 17.7343 43.5871 17.9994C44.6259 18.6194 45.4864 19.4979 46.0846 20.5495C46.6827 21.6011 46.9981 22.7897 47.0001 23.9995V24.9995C47.0001 25.7951 46.684 26.5582 46.1214 27.1208C45.5588 27.6834 44.7957 27.9995 44.0001 27.9995H43.0001C42.0371 27.9989 41.0847 27.799 40.2029 27.4123C39.321 27.0255 38.5288 26.4604 37.876 25.7525C37.3838 29.8882 35.2704 33.6596 32 36.2385V38.2915L40.138 39.6475C42.2302 39.9963 44.2051 40.8523 45.8901 42.1405C46.3066 41.1598 46.5209 40.1051 46.5201 39.0395Z" fill="#B78F3F"/>
<path d="M3.54688 38.0414C3.50286 38.3729 3.48047 38.7069 3.47988 39.0414C3.47923 40.1066 3.6935 41.1609 4.10988 42.1414C5.79486 40.8531 7.76975 39.9972 9.86191 39.6484L17.9999 38.2924V36.2384C14.7293 33.66 12.6159 29.8889 12.1239 25.7533C11.4712 26.4613 10.679 27.0264 9.79709 27.4131C8.91522 27.7998 7.96283 27.9998 6.9999 28.0003H5.99989C5.20424 28.0003 4.44117 27.6842 3.87856 27.1216C3.31595 26.559 2.99988 25.796 2.99988 25.0003V24.0003C3.0018 22.7905 3.31722 21.6019 3.91538 20.5503C4.51354 19.4988 5.37402 18.6202 6.4129 18.0003C5.96905 17.7345 5.55588 17.4206 5.18089 17.0643C3.43602 18.0509 2.1304 19.6627 1.52757 21.5744C0.92474 23.4861 1.06959 25.5553 1.93287 27.3643C1.19965 28.1117 0.650204 29.0192 0.327931 30.0154C0.00565824 31.0115 -0.0806184 32.069 0.0759136 33.1042C0.232446 34.1394 0.6275 35.124 1.22988 35.9803C1.83226 36.8367 2.62547 37.5412 3.54688 38.0384V38.0414Z" fill="#B78F3F"/>
<path d="M33.5712 40.581L30.8352 40.125C30.6018 40.086 30.3899 39.9655 30.237 39.785C30.0842 39.6044 30.0002 39.3756 30.0002 39.139V37.584C29.7502 37.727 29.5002 37.868 29.2382 37.999C27.9247 38.6453 26.4808 38.9826 25.0169 38.9852C23.553 38.9878 22.1079 38.6556 20.7921 38.014L20.6991 37.965C20.4611 37.846 20.2311 37.714 19.9991 37.584V39.139C19.999 39.3756 19.9151 39.6044 19.7622 39.785C19.6094 39.9655 19.3974 40.086 19.1641 40.125L10.1901 41.625C7.6196 42.0467 5.28319 43.3696 3.59928 45.357C1.91537 47.3443 0.993945 49.8662 1.00003 52.4711V60.0001C1.00003 60.2653 1.10539 60.5197 1.29292 60.7072C1.48046 60.8947 1.73482 61.0001 2.00003 61.0001H8.81107C8.34038 57.9449 8.41113 54.8307 9.02007 51.8C9.04184 51.6676 9.09006 51.5409 9.16184 51.4275C9.23362 51.3141 9.3275 51.2163 9.43788 51.1399C9.54826 51.0636 9.67288 51.0102 9.80432 50.983C9.93576 50.9558 10.0713 50.9554 10.2029 50.9817C10.3345 51.008 10.4595 51.0606 10.5704 51.1362C10.6813 51.2119 10.7758 51.3091 10.8483 51.422C10.9208 51.5349 10.9699 51.6613 10.9925 51.7936C11.0151 51.9259 11.0109 52.0614 10.9801 52.1921C10.4905 54.6683 10.3893 57.2057 10.6801 59.7131L14.1001 58.5791C22.9261 55.5411 29.3152 49.639 33.5712 40.581Z" fill="#B78F3F"/>
<path d="M35.6133 40.9219C31.1242 50.7799 24.2842 57.188 14.7412 60.473L13.1602 61H39.9993V41.6619C39.9343 41.6499 39.8733 41.6319 39.8083 41.6209L35.6133 40.9219Z" fill="#B78F3F"/>
<path d="M42 42.2305V61.0006H48C48.2652 61.0006 48.5196 60.8952 48.7071 60.7077C48.8947 60.5201 49 60.2658 49 60.0005V52.4715C49.0051 50.257 48.3388 48.093 47.0892 46.2648C45.8395 44.4365 44.0652 43.0299 42 42.2305Z" fill="#B78F3F"/>
</svg>
