<svg width="72" height="66" viewBox="0 0 72 66" fill="none" xmlns="http://www.w3.org/2000/svg">
<path d="M68.1097 43.9177L60.669 20.7225H58.7835V19.4535C62.4712 18.5445 62.5342 14.9085 62.5342 14.9085C62.5342 14.9085 61.137 16.5487 58.7835 17.1855V16.182H57.312V17.4307C57.2513 17.433 57.195 17.4487 57.132 17.451C53.7795 17.532 52.2675 11.97 48.0487 11.97C44.1203 11.97 39.7327 14.3078 36.8955 14.6318V8.3025C38.9025 7.98975 40.437 6.27525 40.437 4.18275C40.4415 1.87425 38.565 0 36.2543 0C33.9458 0 32.0715 1.87425 32.0715 4.18275C32.0715 6.38775 33.786 8.1765 35.9528 8.3385V14.5845C33.1155 14.1367 28.9058 11.97 25.1168 11.97C20.898 11.97 19.3905 17.532 16.0357 17.451C15.7635 17.442 15.5138 17.3993 15.2572 17.3655V16.182H13.7857V17.0212C11.79 16.2968 10.6358 14.9108 10.6358 14.9108C10.6358 14.9108 10.6987 18.1305 13.7857 19.2622V20.7225H11.9025L4.33125 43.92H0C0 43.92 3.10725 49.8577 14.2358 49.8577C25.3643 49.8577 28.4715 43.92 28.4715 43.92H24.5813L17.145 20.7247H15.2572V19.6087C15.5543 19.6402 15.8647 19.6582 16.2 19.6582C21.6833 19.6582 22.5 16.182 25.5285 16.182C28.2533 16.182 31.446 19.566 35.3813 20.25C35.55 20.2973 36.3757 20.241 36.1283 20.3018L36 33.3L33.5003 38.3625L33.5858 53.613H26.7143V56.3108L21.1905 65.394H52.6073L45.8573 56.187V53.6085H39.8452V38.4975L37.314 33.1785L37.3118 20.2703C37.539 20.268 37.53 20.3175 37.791 20.2477C41.7262 19.5637 44.919 16.1798 47.6437 16.1798C50.6745 16.1798 51.489 19.656 56.9722 19.656C57.0982 19.656 57.2017 19.6425 57.3142 19.638V20.718H55.4332L47.862 43.9132H43.5285C43.5285 43.9132 46.6357 49.851 57.7643 49.851C68.8928 49.851 72 43.9177 72 43.9177H68.1097ZM13.7857 43.9177H5.8815L12.969 22.1985H13.7857V43.9177ZM16.0718 22.1962L23.0378 43.9132H15.2572V22.1962H16.0718ZM57.3142 43.9177H49.4077L56.4952 22.1985H57.312L57.3142 43.9177ZM58.7858 43.9177V22.1962H59.598L66.564 43.9132L58.7858 43.9177Z" fill="#B78F3F"/>
</svg>
