<svg width="64" height="60" viewBox="0 0 64 60" fill="none" xmlns="http://www.w3.org/2000/svg">
<path d="M59.6691 24.3431C59.6691 23.5281 60.0401 22.9044 60.1038 22.5843C60.3013 21.3004 59.7679 20.2138 58.4836 19.7195C57.0414 19.1861 55.52 18.6924 53.9986 18.4951C46.0433 17.4825 38.2049 20.2895 38.3901 28.354C38.524 35.5442 39.9116 39.1822 38.1727 44.101C38.1727 44.101 37.7972 45.9381 36.5723 47.2816C35.842 48.0555 35.2017 48.2277 34.2608 47.5978C33.7865 47.1636 33.7668 46.6103 33.747 46.4517C33.7272 46.0963 33.2926 45.9778 33.0753 46.2539C33.0357 46.2936 32.9962 46.3332 32.9764 46.3729C32.7986 46.6103 31.7713 51.1348 34.1817 52.379C34.4386 52.5178 34.9522 52.6958 35.7228 52.6358C35.0089 53.1913 34.6497 53.8951 35.1894 54.6118C35.9797 56.0146 38.2912 56.6075 41.1561 56.0935C41.571 56.0146 41.8082 56.5679 41.4525 56.8048C40.2794 57.5485 39.0656 57.9009 37.5998 57.773C37.2243 57.7333 36.9872 58.1879 37.264 58.465C39.0233 60.2238 41.023 60.1228 43.211 59.7881C45.0918 59.4994 46.8327 58.7787 48.4072 57.6545C46.2734 55.5606 44.7125 52.9719 43.8629 50.2058C43.7642 49.8895 44.2185 49.7319 44.3568 50.0283C45.5424 52.6755 47.4194 54.9677 49.6519 56.6665C49.6717 56.6472 49.6717 56.6472 49.6914 56.6269C51.8093 57.769 54.0573 56.772 54.2555 56.7652C55.9898 56.0552 57.7092 54.0927 58.6812 52.498C59.0565 51.8853 58.5627 51.0753 57.8316 51.1541C57.6735 51.1541 57.4958 51.1744 57.3179 51.1744C54.0646 51.029 53.5608 48.8252 53.8998 45.4836C54.0778 43.5081 54.7297 41.6115 55.8164 39.7932C56.7365 38.2604 57.8875 38.9603 60.8151 38.6278C62.4154 38.4498 62.8106 37.7191 62.3166 36.2176C62.2179 35.9018 62.3166 35.3679 62.534 35.1503C63.1069 34.6169 62.9883 34.3408 62.534 34.1033C62.3759 34.0245 62.3562 33.8069 62.5142 33.7281C62.6723 33.6488 62.8106 33.5501 62.8698 33.4316C62.9883 33.1748 63.0477 32.6414 62.9094 32.5225C61.7426 31.6304 63.3836 31.3804 63.3836 30.725C63.4033 30.4479 63.1465 30.2109 62.9686 30.0726C61.9017 29.1838 61.388 28.9072 60.9731 28.472C60.3837 27.8523 59.6691 26.2239 59.6691 24.3431ZM49.6519 46.7288C49.7508 47.1041 49.2371 47.3019 49.0394 46.9856C48.3282 45.7012 48.0319 44.1402 48.0911 42.6783C48.2854 37.1338 52.9891 32.891 53.5047 27.3065C53.5244 26.8921 54.1172 26.8524 54.1963 27.2674C55.3917 34.239 47.8843 39.9663 49.6519 46.7288Z" fill="#B78F3F"/>
<path d="M0.475167 32.5225C0.336861 32.6415 0.3961 33.1749 0.534406 33.4316C0.593766 33.5501 0.712245 33.6488 0.870257 33.7281C1.02827 33.8069 1.02827 34.0245 0.870257 34.1033C0.415806 34.3408 0.297328 34.6169 0.850551 35.1503C1.08763 35.3679 1.1667 35.9018 1.06792 36.2176C0.573939 37.7191 0.96915 38.4498 2.58929 38.6278C5.48159 38.9627 6.64963 38.2631 7.56805 39.7932C8.65479 41.6115 9.32662 43.5081 9.50445 45.4836C9.79296 48.8031 9.37654 51.0274 6.08634 51.1744C5.9085 51.1744 5.73067 51.1541 5.55295 51.1541C4.84159 51.0753 4.32778 51.8853 4.72299 52.498C5.72588 54.1432 7.36525 56.0349 9.14866 56.7652C9.34727 56.772 11.5917 57.7713 13.7127 56.6269C13.7325 56.6472 13.7325 56.6472 13.7523 56.6665C16.0047 54.9479 17.8619 52.6755 19.0473 50.0283C19.1659 49.7319 19.6204 49.8895 19.5215 50.2058C18.6719 52.9719 17.1112 55.5606 14.997 57.6545C16.5265 58.7467 18.2121 59.4872 20.1736 59.7881C21.6158 60.0057 23.1768 60.2426 24.7574 59.4525C25.3106 59.1759 25.7649 58.8402 26.1206 58.465C26.3972 58.1879 26.18 57.7333 25.7848 57.773C24.3252 57.9003 23.0836 57.5471 21.9517 56.8048C21.5962 56.5679 21.8134 56.0146 22.2481 56.0935C25.0932 56.6075 27.4246 56.0146 28.2149 54.6118C28.2544 54.5329 28.452 54.2955 28.4718 53.9599C28.4915 53.2684 27.8395 52.7741 27.6814 52.6358C28.452 52.6958 28.946 52.5178 29.2226 52.379C31.633 51.1348 30.5859 46.6103 30.4278 46.3729C30.3883 46.3332 30.3487 46.2936 30.329 46.2539C30.1117 45.9778 29.6572 46.0963 29.6375 46.4517C29.6375 47.3965 28.7916 48.0502 27.9977 47.9731C25.4894 47.7717 24.2226 40.8181 24.3819 37.8966C24.5598 34.716 24.9352 31.535 25.0142 28.354C25.1624 20.2803 17.3309 17.4839 9.38585 18.4951C7.86449 18.6924 6.36295 19.1861 4.90083 19.7195C3.61655 20.2138 3.08315 21.3004 3.28069 22.5843C3.35276 22.9446 3.71532 23.4238 3.71532 24.3431C3.71532 25.1531 3.61655 26.1014 3.20175 27.0894C2.55384 28.7638 2.29099 28.527 0.435633 30.0726C0.257794 30.2109 -0.0188172 30.4479 0.00100989 30.725C0.067807 31.3954 1.63699 31.6342 0.475167 32.5225ZM9.20802 27.2674C9.26726 26.8524 9.86013 26.8921 9.89954 27.3065C10.319 32.7539 15.1479 37.155 15.2935 42.6783C15.3724 44.1402 15.076 45.7012 14.345 46.9856C14.1672 47.3019 13.6535 47.1041 13.7325 46.7288C15.5175 39.902 7.92664 34.1665 9.20802 27.2674Z" fill="#B78F3F"/>
<path d="M44.86 3.59346C44.86 3.06586 44.8233 2.54891 44.7582 2.04066C44.6663 1.32495 43.6789 1.16247 43.3694 1.81386C41.0164 6.76579 36.0139 10.2036 30.1653 10.2036C24.3167 10.2036 19.3144 6.76579 16.9614 1.81386C16.6519 1.16247 15.6644 1.32495 15.5726 2.04066C15.5073 2.54891 15.4707 3.06586 15.4707 3.59346C15.4707 11.7085 22.0497 18.2882 30.1653 18.2882C38.281 18.2882 44.86 11.7085 44.86 3.59346Z" fill="#B78F3F"/>
<path d="M7.35408 7.72738C7.22871 7.40337 6.77704 7.40337 6.65167 7.72738C6.14088 9.04805 5.54607 9.64286 4.22551 10.1535C3.90139 10.2788 3.90139 10.7305 4.22551 10.8562C5.54607 11.3669 6.14088 11.9617 6.65167 13.2823C6.77704 13.6063 7.22871 13.6063 7.35408 13.2823C7.86499 11.9617 8.4598 11.3669 9.78035 10.8562C10.1044 10.7305 10.1044 10.2788 9.78035 10.1535C8.4598 9.64286 7.86499 9.04805 7.35408 7.72738Z" fill="#B78F3F"/>
<path d="M51.4525 5.79796C51.5777 6.12196 52.0295 6.12196 52.1549 5.79796C52.6657 4.47729 53.2605 3.88247 54.581 3.37181C54.905 3.24656 54.905 2.7944 54.581 2.66964C53.2605 2.15849 52.6657 1.56368 52.1549 0.243002C52.0295 -0.0810008 51.5777 -0.0810008 51.4525 0.243002C50.9416 1.56368 50.3468 2.15849 49.0262 2.66964C48.7022 2.7944 48.7022 3.24656 49.0262 3.37181C50.3468 3.88247 50.9416 4.47729 51.4525 5.79796Z" fill="#B78F3F"/>
</svg>
