<svg width="67" height="78" viewBox="0 0 67 78" fill="none" xmlns="http://www.w3.org/2000/svg">
<path d="M60.8888 13.0508L61.469 14.3718L55.3363 17.0522C54.7872 14.8178 56.7987 14.1153 54.7513 9.85737C52.4976 5.15831 44.4613 8.46683 41.3158 0.5C41.3014 0.579117 41.2918 0.643849 41.2774 0.718171L41.2295 0.53836L38.4748 10.778L36.727 11.1304L36.6239 9.53371L35.2214 11.2095L34.1617 9.64399L33.2818 11.6555L31.395 10.0588L32.016 12.262L29.6377 12.1494L30.9802 13.4608C30.9802 13.4608 28.6883 14.1033 28.5732 14.1321C28.4581 14.1656 30.062 15.2181 30.062 15.2181L28.5108 16.496L30.0213 17.0426L28.1392 18.5362L30.309 19.0205L29.1797 20.682L30.7932 20.7347L30.8172 23.0603L32.8719 21.8304C33.6199 22.4561 34.3535 22.8086 34.248 23.113C34.1881 23.2905 35.1567 25.0526 33.711 25.0622C32.2677 25.0718 31.7474 24.8848 31.4022 25.7958L31.3878 25.8006L31.3974 25.8054C31.3782 25.8629 31.3447 25.8941 31.3279 25.9564C30.9515 27.7018 34.3439 37.1647 33.4904 38.4257C33.0828 39.0251 31.359 38.6104 25.9887 38.536C20.6183 38.4593 17.0437 39.9218 16.0487 38.7063C16.0487 38.7063 14.8548 35.098 9.77693 36.491C4.69666 37.8839 9.82727 50.4683 0 48.3345C11.1315 60.5761 11.9706 40.7777 15.0969 43.2974C18.2256 45.822 16.2789 48.2243 15.3103 48.9747C14.3417 49.7227 13.0423 50.6817 12.0521 51.7246C11.0644 52.7747 11.4456 60.8877 10.8942 62.0265C10.3427 63.1654 8.99055 63.6137 8.99055 63.6137C8.99055 63.6137 9.29263 64.7932 9.6091 67.0109C12.4213 68.6196 12.9104 65.7906 12.9848 64.8963C13.0543 64.0021 13.855 54.6279 14.7853 53.5778C15.7131 52.5325 18.6692 52.5277 18.6692 52.5277C18.6692 52.5277 19.9207 56.0736 19.5443 57.5504C19.1631 59.0321 15.9241 65.0785 17.1971 67.0828C18.4726 69.0871 18.1537 75.7689 18.6116 75.7689C19.0696 75.7689 21.0595 75.836 22.8959 75.836C23.632 74.0883 21.3088 72.832 21.3088 72.832C21.3088 72.832 20.4745 66.7376 20.158 65.7355C19.5515 63.839 22.5411 57.0542 23.3778 55.4598C24.2146 53.8679 32.1766 54.3091 35.2789 54.5704C38.3837 54.8269 41.0569 64.1603 41.0569 64.1603C41.0569 64.1603 37.8826 75.872 38.5203 77.2194C38.9806 77.2194 41.9679 77.1019 43.1235 77.2194C44.0273 75.5699 41.5867 73.9732 41.5867 73.9732L43.929 64.2754C43.929 64.2754 43.5071 57.21 41.9247 54.8389C44.7442 56.8384 49.9875 53.9063 51.6489 54.3426C53.2984 54.779 53.0898 61.8947 52.5552 62.3526C52.0205 62.8105 51.2701 64.074 51.2701 64.074C51.2701 64.074 52.4305 66.378 53.073 67.6702C55.5856 67.301 54.466 64.098 54.466 64.098C54.466 64.098 55.425 54.8653 55.0797 53.3884C54.7297 51.9092 46.4536 50.7728 46.4536 50.7728C46.4536 50.7728 46.7101 41.4562 44.9767 40.0608C44.0537 39.32 43.4112 35.5272 43.4735 31.8782L58.6999 40.2191L58.1149 38.7374C55.9932 32.0149 62.7469 28.5313 60.9559 24.0025C59.0356 19.1548 56.9474 20.881 55.6959 18.0088C55.6863 17.9992 55.6815 17.9872 55.6767 17.9776L55.6863 17.9752C55.6767 17.9489 55.6599 17.9177 55.6455 17.8889L61.8334 15.1846L62.663 17.0786L67 12.4395L60.8888 13.0508ZM41.45 4.81307C43.1834 9.15011 50.3615 8.02329 51.74 11.176C53.2552 14.6403 52.0133 15.4771 52.8093 18.155L52.711 18.2006C49.3162 19.4185 39.779 23.3624 39.4769 23.3887C39.4769 23.3887 40.0619 23.2065 39.4769 23.384C38.8919 23.5638 39.2444 22.1516 39.3594 22.0342C41.5052 21.5019 42.0278 21.2406 41.0928 19.9124C41.1432 19.8333 41.4524 19.4785 41.486 19.2819C41.5196 19.0829 41.3182 19.0901 41.3182 19.0901C41.3182 19.0901 41.462 19.0565 41.5148 18.8647C41.5699 18.6777 41.112 18.1215 41.112 18.1215C41.112 18.1215 41.7785 17.7715 41.86 17.4622C41.9391 17.1529 40.0907 15.9206 40.0595 15.6137C40.0235 15.3092 40.2201 15.1007 40.2705 15.0096C40.316 14.9184 40.2249 14.1249 39.1221 13.1419L41.45 4.81307ZM57.9279 25.3259C59.3257 28.517 53.459 33.089 55.6839 37.3589L43.5143 30.6699C43.6917 27.8792 44.339 25.3906 45.6624 24.7433C48.8822 23.1778 51.8167 20.6436 53.7036 21.1687C53.9529 21.1327 54.1591 21.044 54.3461 20.9169C55.5089 22.2116 56.698 22.5137 57.9279 25.3259Z" fill="#B78F3F"/>
</svg>
