<svg width="76" height="78" viewBox="0 0 76 78" fill="none" xmlns="http://www.w3.org/2000/svg">
<path d="M35.7473 35.9063C35.7473 35.9063 36.1227 36.6619 36.4716 36.7461C39.0031 37.3429 50.2815 39.908 53.5252 37.8795C55.2578 36.7268 48.9099 31.303 48.9099 31.303C48.9099 31.303 56.4032 34.7633 57.6809 33.4976C62.3203 26.0283 50.3633 13.7416 47.3241 10.842C46.5613 9.98295 45.9982 10.6278 45.9982 10.6278L31.8105 20.4577L35.7473 35.9063ZM48.8521 21.9568C50.0962 21.9568 51.1021 22.9651 51.1021 24.2067C51.1021 25.4508 50.0962 26.4591 48.8521 26.4591C47.6105 26.4591 46.6022 25.4508 46.6022 24.2067C46.6046 22.9651 47.6129 21.9568 48.8521 21.9568Z" fill="#B78F3F"/>
<path d="M32.1092 35.2496C33.6637 35.3362 33.2161 33.6109 33.2161 33.6109L29.6427 19.4232L44.8146 9.49227C44.8146 9.49227 45.8252 8.82331 44.8651 8.21932C42.4492 6.15951 35.3746 0.312136 32.9923 0.504642C30.1071 0.73565 30.8001 8.34926 28.7235 7.88725C7.03287 8.92197 -0.664964 46.3427 0.343286 47.5675C1.35154 48.7948 2.1745 49.6586 4.03218 48.263C5.92596 52.3754 1.54645 61.6951 0.0858097 65.5067C-0.29439 66.6593 0.672953 66.3561 1.33951 65.7858C4.68911 62.4386 7.06175 61.2499 8.40448 61.3799C9.7448 61.5122 12.8417 62.6865 14.6393 63.6899C15.4983 64.3228 16.4945 64.1471 15.5849 62.8501C1.5657 33.3389 25.5207 34.571 32.1092 35.2496Z" fill="#B78F3F"/>
<path d="M39.8312 42.088C39.8312 42.088 39.4606 41.3348 39.1069 41.2458C36.5803 40.649 25.3018 38.0863 22.0557 40.11C20.3255 41.2626 26.6686 46.6841 26.6686 46.6841C26.6686 46.6841 19.1729 43.2286 17.9024 44.4967C13.2582 51.966 25.2176 64.2527 28.2568 67.1523C29.0196 68.0089 29.5827 67.3665 29.5827 67.3665L43.7704 57.5342L39.8312 42.088ZM26.7264 56.0375C25.4847 56.0375 24.4764 55.0292 24.4764 53.7852C24.4764 52.5411 25.4847 51.5304 26.7264 51.5304C27.9704 51.5304 28.9763 52.5411 28.9763 53.7852C28.9763 55.0292 27.9704 56.0375 26.7264 56.0375Z" fill="#B78F3F"/>
<path d="M74.2439 12.209C70.8943 15.5562 68.5193 16.7449 67.1766 16.6149C65.8314 16.485 62.7393 15.3083 60.9442 14.3049C60.0827 13.672 59.0889 13.8477 59.9937 15.1447C74.0081 44.6583 50.0532 43.4262 43.4646 42.7452C41.9102 42.661 42.3601 44.3887 42.3601 44.3887L45.9311 58.5764L30.7617 68.5073C30.7617 68.5073 29.751 69.1763 30.7111 69.7803C33.1271 71.8353 40.2041 77.6875 42.5863 77.4974C45.4643 77.2591 44.7737 69.6455 46.8503 70.1148C68.541 69.0752 76.2388 31.6617 75.2281 30.4321C74.2175 29.2072 73.3945 28.3434 71.5392 29.739C69.6455 25.6266 74.025 16.3045 75.4928 12.4953C75.873 11.3379 74.9081 11.6459 74.2439 12.209Z" fill="#B78F3F"/>
</svg>
