<svg width="75" height="58" viewBox="0 0 75 58" fill="none" xmlns="http://www.w3.org/2000/svg">
<path d="M66.801 3.21632C65.478 5.38722 63.8899 8.44748 63.9451 10.6598C61.6361 9.28436 63.6579 5.01712 65.2681 2.30211C65.2101 2.27449 65.1687 2.24134 65.1162 2.21096C63.5142 1.39618 62.0145 0.829978 60.5755 0.459874C59.9154 2.93736 59.2083 6.54449 59.943 8.73473C57.2611 8.07738 58.0511 3.17489 58.8299 0.114629C56.8109 -0.153282 54.9162 0.0538656 53.0795 0.747119C53.5518 3.26603 54.4633 6.7903 56.0542 8.44196C53.4607 8.97502 52.0742 4.60282 51.4223 1.51495C50.1629 2.20268 48.92 3.10584 47.6661 4.2631C48.7543 6.55277 50.4363 9.51913 52.3007 10.6764C50.0552 11.7701 47.7572 8.35081 46.3376 5.58056C44.2909 7.72109 42.1836 10.472 39.9215 13.8665C39.2697 13.767 38.2616 13.767 37.5297 13.7864C36.7867 13.767 35.7537 13.7643 35.0936 13.8665C32.826 10.472 30.7214 7.72109 28.672 5.58056C27.2468 8.34805 24.9599 11.7674 22.7062 10.6736C24.5705 9.51913 26.2525 6.55001 27.3408 4.26034C26.0813 3.10308 24.8356 2.19991 23.579 1.51218C22.9271 4.60559 21.5406 8.97502 18.9416 8.44196C20.5353 6.78754 21.4467 3.26051 21.919 0.744357C20.0851 0.0511038 18.1904 -0.153282 16.1686 0.111867C16.9419 3.17213 17.7291 8.07462 15.0555 8.73197C15.7874 6.54173 15.0804 2.9346 14.4203 0.457113C12.984 0.829978 11.4871 1.39618 9.88512 2.21096C9.83264 2.23858 9.78569 2.27725 9.73321 2.30211C11.349 5.01712 13.368 9.28436 11.0562 10.6598C11.1142 8.44472 9.52883 5.38722 8.20308 3.21632C-0.510922 9.1214 -2.08801 22.8843 2.54934 29.1843C4.01594 31.0984 9.53988 37.2548 15.0638 32.5871C20.5877 27.9249 15.4532 21.8044 13.0752 21.2823C12.0892 24.0277 14.8898 26.7234 12.2135 26.4666C5.65379 25.5164 5.56817 18.9568 13.078 13.4328C19.8116 8.77063 25.2472 18.6115 25.2472 18.6115C25.2472 18.6115 16.9613 13.6041 13.9397 15.2447C10.9181 16.8853 14.1109 17.6614 15.3207 19.8157C16.5277 21.9728 22.3968 24.5663 21.7947 26.4638C20.759 35.3518 27.6639 41.1381 28.6996 43.5548C29.7354 45.9716 30.4259 56.9255 36.98 57.0194H36.9855C37.0021 57.0194 37.5904 57.0194 38.0158 57.0194H38.0213C44.5754 56.9255 45.2659 45.9716 46.3017 43.5548C47.3374 41.1381 54.2423 35.349 53.2066 26.4638C52.6017 24.5636 58.4709 21.9756 59.6806 19.8185C60.8904 17.6642 64.0887 16.8853 61.0616 15.2474C58.04 13.6068 49.7541 18.6143 49.7541 18.6143C49.7541 18.6143 55.1924 8.77339 61.9233 13.4356C69.4331 18.9595 69.3475 25.5192 62.7851 26.4693C60.1115 26.7289 62.9121 24.0305 61.9233 21.2906C59.5508 21.8099 54.4136 27.9359 59.9375 32.5954C65.4614 37.2576 70.9854 31.1122 72.4464 29.1926C77.0893 22.887 75.5122 9.11864 66.801 3.21632ZM22.5211 23.3538C21.5682 23.1522 17.0055 19.929 16.3868 18.9015C15.7709 17.8796 14.8788 16.7334 14.9506 16.5235C15.4035 15.2419 24.0651 18.6806 24.0651 20.5035C24.0651 21.7767 23.8745 23.6383 22.5211 23.3538ZM27.6639 39.7571C26.9154 40.1134 24.3578 35.7854 23.7253 34.1752C23.0928 32.565 24.3164 30.847 25.4875 30.8139C26.2166 31.3746 29.3045 38.981 27.6639 39.7571ZM36.1404 55.539C35.1323 55.7517 33.2458 54.3707 33.279 53.5145C33.3121 52.6583 34.7732 52.8654 35.1295 53.0477C35.4858 53.2355 37.1485 55.3264 36.1404 55.539ZM38.8582 55.539C37.8556 55.3264 39.5127 53.2355 39.869 53.0477C40.2253 52.8654 41.6864 52.6555 41.7196 53.5145C41.7555 54.3735 39.869 55.7517 38.8582 55.539ZM60.0507 16.5207C60.117 16.7306 59.2249 17.8768 58.6117 18.8988C57.9958 19.9262 53.4303 23.1494 52.4774 23.3483C51.1241 23.6355 50.9279 21.774 50.9279 20.5007C50.9335 18.6806 59.5978 15.2392 60.0507 16.5207ZM51.2732 34.1752C50.6407 35.7882 48.0914 40.1134 47.3346 39.7571C45.694 38.981 48.7819 31.3746 49.5111 30.8139C50.6849 30.8443 51.9084 32.5622 51.2732 34.1752Z" fill="#B78F3F"/>
</svg>
