<svg width="69" height="57" viewBox="0 0 69 57" fill="none" xmlns="http://www.w3.org/2000/svg">
<path d="M7.39285 43.1249H9.85713V46.8214C8.39448 46.8031 6.95478 46.4552 5.64521 45.8035C4.89475 45.4279 4.20138 44.9478 3.58584 44.3774C1.58423 42.5243 9.30178e-07 39.3768 9.30178e-07 36.6329C-0.000878116 34.7149 0.621308 32.8485 1.7729 31.3147L5.16668 26.7895L7.21511 32.9348L4.05775 36.0922C3.87484 36.275 3.7541 36.5108 3.71263 36.7661C3.67117 37.0214 3.71108 37.2832 3.82672 37.5145L6.29101 42.4431C6.39322 42.6479 6.55045 42.8201 6.74506 42.9406C6.93968 43.061 7.16399 43.1248 7.39285 43.1249ZM46.0767 35.7321H43.1727C43.3388 37.5283 43.9243 39.2604 44.8822 40.789C45.84 42.3175 47.1433 43.5998 48.6873 44.5327C48.8523 44.6316 48.9918 44.7678 49.0947 44.9304C49.1976 45.0929 49.261 45.2773 49.2798 45.4688C49.2986 45.6603 49.2723 45.8535 49.2031 46.033C49.1338 46.2125 49.0235 46.3732 48.8809 46.5024L41.9101 52.8185C41.8913 52.8354 41.872 52.8518 41.8523 52.8676C40.6533 53.822 39.8351 55.1737 39.5456 56.6785H44.9299L47.0284 53.5307C47.0909 53.4368 47.166 53.352 47.2517 53.2787L55.4464 46.2546V44.1261C51.4626 42.4699 48.1592 39.5105 46.0767 35.7321ZM3.69642 22.1785H4.92857V19.7143H4.3125C3.49582 19.7133 2.71287 19.3885 2.13539 18.811C1.55792 18.2335 1.23308 17.4506 1.23214 16.6339C1.2321 16.5391 1.21016 16.4455 1.16804 16.3605C1.12591 16.2755 1.06472 16.2014 0.989256 16.144C1.15092 16.6675 1.2328 17.2123 1.23214 17.7602V19.7143C1.23292 20.3676 1.49279 20.9939 1.95477 21.4559C2.41674 21.9179 3.04309 22.1778 3.69642 22.1785ZM65.1462 27.5476C65.2028 27.6363 65.2591 27.7272 65.3157 27.8221C66.2799 29.4305 66.8782 31.2315 67.0679 33.0972L67.319 35.6095C67.3498 35.9195 67.3981 36.2471 67.4616 36.5852C67.6375 36.8344 67.8292 37.0851 68.0353 37.3333L68.9999 38.489V35.364C69.0068 33.2838 68.5959 31.2233 67.7914 29.3049C66.9869 27.3865 65.8053 25.6493 64.3167 24.1962C64.7111 25.2808 64.9892 26.4042 65.1462 27.5476ZM68.9999 42.3395V50.0081L65.6643 53.3436C65.607 53.4009 65.5554 53.4638 65.5103 53.5313L63.412 56.6785H58.0742C58.1271 56.4834 58.1924 56.292 58.2698 56.1052C58.5061 55.5329 58.8534 55.0131 59.2917 54.5758L64.9426 48.9248C65.057 48.8104 65.1478 48.6745 65.2097 48.525C65.2716 48.3755 65.3035 48.2153 65.3035 48.0535V44.3571C65.3035 44.0303 65.1737 43.7169 64.9426 43.4858C64.7115 43.2548 64.3981 43.1249 64.0713 43.1249H62.7699C60.8358 43.1262 58.9165 42.788 57.0993 42.1257C53.3814 40.7722 49.4809 37.724 47.9411 33.9823C46.6655 30.883 46.3584 27.2004 46.3555 27.1635L43.8987 27.3582C44.0887 29.3624 44.4805 31.3423 45.0682 33.2678H32.6291C33.8459 31.6262 34.5019 29.6364 34.5 27.593V27.1071H32.0357V27.593C32.0369 28.757 31.7501 29.9032 31.2009 30.9295C30.6517 31.9557 29.857 32.8302 28.8879 33.4748C28.6329 33.6448 28.4504 33.9038 28.3761 34.2012L27.1439 39.1297C27.0921 39.3362 27.0947 39.5525 27.1514 39.7576C27.2081 39.9627 27.3169 40.1497 27.4674 40.3003L32.3959 45.2288C32.5103 45.3432 32.6462 45.434 32.7957 45.4959C32.9452 45.5579 33.1054 45.5897 33.2672 45.5897C33.429 45.5897 33.5892 45.5579 33.7387 45.4959C33.8882 45.434 34.0241 45.3432 34.1385 45.2288L35.5983 43.7692L37.6605 46.519L37.2125 46.8178C35.7968 47.7617 34.0977 48.1859 32.4045 48.0182C30.7112 47.8506 29.1284 47.1014 27.9252 45.8982L25.5669 43.5382C24.8813 42.8563 24.3376 42.0453 23.9675 41.152C23.5974 40.2586 23.4081 39.3007 23.4107 38.3338V29.5714H20.9464V32.1872L18.4821 31.2015V30.0816L20.5855 27.9784C20.7 27.864 20.7907 27.7281 20.8526 27.5786C20.9145 27.4291 20.9464 27.2689 20.9464 27.1071V24.6428H22.1785C23.4852 24.6414 24.738 24.1216 25.6619 23.1977C26.5859 22.2737 27.1056 21.0209 27.1071 19.7143V17.7602C27.106 17.3695 27.1825 16.9824 27.3321 16.6213C27.4816 16.2603 27.7013 15.9325 27.9784 15.657C28.1507 15.4847 28.2681 15.2651 28.3156 15.0261C28.3632 14.7871 28.3388 14.5393 28.2455 14.3142C28.1522 14.089 27.9943 13.8966 27.7917 13.7612C27.589 13.6258 27.3508 13.5535 27.1071 13.5536H25.2589C24.4422 13.5545 23.6593 13.8793 23.0818 14.4568C22.5043 15.0343 22.1795 15.8172 22.1785 16.6339C22.1785 16.7973 22.1136 16.954 21.9981 17.0695C21.8826 17.1851 21.7259 17.25 21.5625 17.25H18.4821C17.5018 17.25 16.5616 17.6394 15.8684 18.3326C15.1751 19.0258 14.7857 19.966 14.7857 20.9464C14.7857 21.9268 15.1751 22.867 15.8684 23.5602C16.5616 24.2534 17.5018 24.6428 18.4821 24.6428V26.5968L16.3787 28.7001C16.2643 28.8145 16.1735 28.9504 16.1116 29.0999C16.0497 29.2494 16.0178 29.4096 16.0178 29.5714V34.5C16.0175 34.8266 15.8875 35.1398 15.6565 35.3708C15.4256 35.6018 15.1124 35.7317 14.7857 35.7321H10.7454L7.39285 25.6747V18.8927L17.4842 5.43682C18.754 3.75232 20.3966 2.38482 22.2834 1.44155C24.1702 0.498272 26.2498 0.0048612 28.3593 0C31.9566 0.0365681 35.4005 1.4631 37.97 3.98105L47.0355 13.0464C49.0398 15.0506 51.7418 15.9131 54.3006 16.9788C58.5068 18.7304 61.8376 22.81 62.6197 27.3304C63.2703 31.0908 63.0796 34.4306 65.31 37.7394C66.4061 39.3644 67.7514 40.8407 68.9999 42.3395ZM30.1259 21.6275L27.9183 22.7225C27.9277 22.7421 28.8518 24.696 27.9217 26.556L30.1259 27.6582C31.6163 24.6772 30.1875 21.7507 30.1259 21.6275ZM40.6607 27.1071H38.1964V29.5714H40.6607V27.1071ZM40.6607 24.6428C40.6607 17.9431 35.4606 13.966 35.2392 13.8L33.7607 15.7714C33.805 15.8047 38.1964 19.1616 38.1964 24.6428H40.6607ZM45.5892 24.6428C45.5892 16.682 41.5175 13.8761 41.3442 13.7606L39.9771 15.8108C40.0079 15.8319 43.1249 18.0926 43.1249 24.6428H45.5892ZM52.8519 31.4846C52.1897 30.1148 51.8147 28.624 51.7499 27.1039L49.2857 27.1071C49.3486 29.0092 49.8129 30.8766 50.6479 32.5868L52.8519 31.4846ZM24.6428 19.7143V17.7602C24.6422 17.2123 24.724 16.6675 24.8857 16.144C24.8102 16.2014 24.7491 16.2755 24.7069 16.3605C24.6648 16.4455 24.6429 16.5391 24.6428 16.6339C24.6419 17.4506 24.317 18.2335 23.7396 18.811C23.1621 19.3885 22.3791 19.7133 21.5625 19.7143H18.4821C18.1553 19.7143 17.8419 19.8441 17.6109 20.0751C17.3798 20.3062 17.25 20.6196 17.25 20.9464C17.25 21.2732 17.3798 21.5866 17.6109 21.8177C17.8419 22.0487 18.1553 22.1785 18.4821 22.1785H22.1785C22.8319 22.1778 23.4582 21.9179 23.9202 21.4559C24.3822 20.9939 24.642 20.3676 24.6428 19.7143Z" fill="#B78F3F"/>
</svg>
