<svg width="16" height="16" viewBox="0 0 16 16" fill="none" xmlns="http://www.w3.org/2000/svg">
<path d="M4.59898 1.64592C4.55176 1.69236 4.5143 1.74754 4.48875 1.80828C4.46319 1.86903 4.45003 1.93415 4.45003 1.99992C4.45003 2.06568 4.46319 2.13081 4.48875 2.19155C4.5143 2.2523 4.55176 2.30747 4.59898 2.35392L10.325 7.99992L4.59898 13.6459C4.50378 13.7398 4.4503 13.8671 4.4503 13.9999C4.4503 14.1327 4.50378 14.26 4.59898 14.3539C4.69418 14.4478 4.8233 14.5005 4.95793 14.5005C5.09257 14.5005 5.22169 14.4478 5.31689 14.3539L11.4009 8.35392C11.4481 8.30747 11.4855 8.2523 11.5111 8.19155C11.5366 8.13081 11.5498 8.06568 11.5498 7.99992C11.5498 7.93415 11.5366 7.86903 11.5111 7.80828C11.4855 7.74754 11.4481 7.69236 11.4009 7.64592L5.31689 1.64592C5.26979 1.59935 5.21384 1.56241 5.15225 1.5372C5.09065 1.512 5.02462 1.49902 4.95793 1.49902C4.89125 1.49902 4.82521 1.512 4.76362 1.5372C4.70202 1.56241 4.64607 1.59935 4.59898 1.64592Z" fill="#BA9A63"/>
</svg>
