<svg width="40" height="40" viewBox="0 0 40 40" fill="none" xmlns="http://www.w3.org/2000/svg">
<g clip-path="url(#clip0_962_17297)">
<path fill-rule="evenodd" clip-rule="evenodd" d="M29.9705 37.7045H4.68641C4.35835 37.7045 4.10059 37.4467 4.10059 37.1187V5.36707C4.10059 5.03901 4.35835 4.78125 4.68641 4.78125H24.0186C24.3466 4.78125 24.6044 5.03901 24.6044 5.36707C24.6044 5.69513 24.3466 5.9529 24.0186 5.9529H5.22537V36.6032H29.4081V32.1509C29.4081 31.8228 29.6659 31.5651 29.994 31.5651C30.322 31.5651 30.5798 31.8228 30.5798 32.1509V37.1655C30.5329 37.4467 30.2752 37.7045 29.9705 37.7045ZM29.9705 18.8176C29.6425 18.8176 29.3847 18.5598 29.3847 18.2317V11.3425C29.3847 11.0378 29.6425 10.7801 29.9705 10.7801C30.2752 10.7801 30.5329 11.0378 30.5329 11.3425V18.2786C30.5329 18.5598 30.2752 18.8176 29.9705 18.8176Z" fill="black"/>
<path fill-rule="evenodd" clip-rule="evenodd" d="M29.9704 11.9039H24.0184C23.6904 11.9039 23.4326 11.6461 23.4326 11.3181V5.3661C23.4326 5.1552 23.5498 4.94431 23.7841 4.85058C24.0184 4.75684 24.2293 4.82714 24.3934 4.99117L30.3922 10.9666C30.5328 11.1306 30.6031 11.3884 30.5094 11.5758C30.4156 11.7867 30.2282 11.9039 29.9704 11.9039ZM24.5574 10.7791H28.5879L24.5574 6.74864V10.7791Z" fill="black"/>
<path fill-rule="evenodd" clip-rule="evenodd" d="M4.68658 31.9861H0.585823C0.257762 31.9861 0 31.7283 0 31.4003V1.31239C0 0.984325 0.257762 0.726562 0.585823 0.726562H21.9332C22.2613 0.726562 22.519 0.984325 22.519 1.31239V5.36628C22.519 5.69434 22.2613 5.9521 21.9332 5.9521C21.6052 5.9521 21.3474 5.69434 21.3474 5.36628V1.87478H1.17165V30.8144H4.68658C5.01465 30.8144 5.27241 31.0722 5.27241 31.4003C5.27241 31.7283 4.96778 31.9861 4.68658 31.9861Z" fill="black"/>
<path fill-rule="evenodd" clip-rule="evenodd" d="M23.222 31.0025C20.949 31.0025 18.8166 30.1355 17.1997 28.5186C15.5594 26.8783 14.6924 24.7459 14.6924 22.4729C14.6924 20.1999 15.5594 18.0441 17.1997 16.4272C20.5037 13.0998 25.9402 13.0998 29.2442 16.4272C32.5951 19.7782 32.5951 25.1912 29.2442 28.5186C27.6508 30.1355 25.5184 31.0025 23.222 31.0025ZM23.222 15.0916C21.3473 15.0916 19.4727 15.7946 17.9964 17.224C15.1142 20.1296 15.1142 24.8162 17.9964 27.6985C19.4024 29.1045 21.2536 29.8777 23.222 29.8777C25.2138 29.8777 27.065 29.1045 28.4709 27.6985C31.3532 24.8162 31.3532 20.1296 28.4709 17.224C26.9947 15.7946 25.12 15.0916 23.222 15.0916Z" fill="black"/>
<path fill-rule="evenodd" clip-rule="evenodd" d="M36.8832 39.2732C36.4849 39.2732 36.1334 39.1092 35.8756 38.8515L29.4784 32.4308C29.2207 32.1731 29.0566 31.8216 29.0566 31.4232C29.0566 31.0483 29.2207 30.6968 29.4784 30.4156L31.189 28.705C31.7514 28.1426 32.6653 28.1426 33.1808 28.705L39.578 35.1022C40.1404 35.6646 40.1404 36.5785 39.578 37.094L37.844 38.8046C37.6331 39.1326 37.2816 39.2732 36.8832 39.2732ZM32.1967 29.4548C32.1264 29.4548 32.0795 29.4783 32.0092 29.5251L30.2752 31.2358C30.1814 31.3295 30.1814 31.5404 30.2752 31.6341L36.6958 38.0313C36.7895 38.125 36.977 38.125 37.0707 38.0313L38.8047 36.2973C38.8985 36.2035 38.8985 36.0161 38.8047 35.9223L32.4075 29.5251C32.3372 29.4783 32.267 29.4548 32.1967 29.4548Z" fill="black"/>
<path fill-rule="evenodd" clip-rule="evenodd" d="M30.7437 30.556C30.6031 30.556 30.439 30.4857 30.3453 30.392L28.4707 28.5174C28.2363 28.2831 28.2363 27.9316 28.4707 27.6972C28.6816 27.4629 29.0565 27.4629 29.2674 27.6972L31.1655 29.5719C31.3998 29.8062 31.3998 30.1577 31.1655 30.392C31.0014 30.4857 30.8608 30.556 30.7437 30.556Z" fill="black"/>
<path fill-rule="evenodd" clip-rule="evenodd" d="M23.2225 28.2829C21.6759 28.2829 20.2465 27.6736 19.1452 26.5489C16.8956 24.3227 16.8956 20.6438 19.1452 18.3708C21.4182 16.1212 25.0971 16.1212 27.3233 18.3708C28.4246 19.4721 29.0573 20.9484 29.0573 22.495C29.0573 24.0181 28.4246 25.4944 27.3233 26.5489C26.2219 27.6736 24.7925 28.2829 23.2225 28.2829ZM19.9185 19.1909C18.0907 20.9953 18.0907 23.9712 19.9185 25.7756C20.7855 26.666 21.9571 27.1347 23.2225 27.1347C24.4645 27.1347 25.6361 26.666 26.5265 25.7756C27.3936 24.9085 27.8857 23.7369 27.8857 22.495C27.8857 21.253 27.3936 20.0579 26.5265 19.1909C24.6988 17.3631 21.7462 17.3631 19.9185 19.1909Z" fill="black"/>
<path fill-rule="evenodd" clip-rule="evenodd" d="M23.9714 33.8611H8.13074C7.80268 33.8611 7.54492 33.6033 7.54492 33.2753C7.54492 32.9707 7.80268 32.7129 8.13074 32.7129H23.9714C24.2995 32.7129 24.5572 32.9707 24.5572 33.2753C24.5572 33.6033 24.2995 33.8611 23.9714 33.8611Z" fill="black"/>
<path fill-rule="evenodd" clip-rule="evenodd" d="M13.45 29.5486H8.13074C7.80268 29.5486 7.54492 29.2908 7.54492 28.9628C7.54492 28.6347 7.80268 28.377 8.13074 28.377H13.4266C13.7546 28.377 14.0124 28.6347 14.0124 28.9628C14.0124 29.2908 13.7546 29.5486 13.45 29.5486Z" fill="black"/>
<path fill-rule="evenodd" clip-rule="evenodd" d="M13.45 25.2381H8.13074C7.80268 25.2381 7.54492 24.9569 7.54492 24.6522C7.54492 24.3242 7.80268 24.0664 8.13074 24.0664H13.4266C13.7546 24.0664 14.0124 24.3242 14.0124 24.6522C14.0124 24.9569 13.7546 25.2381 13.45 25.2381Z" fill="black"/>
<path fill-rule="evenodd" clip-rule="evenodd" d="M13.45 20.9021H8.13074C7.80268 20.9021 7.54492 20.6444 7.54492 20.3163C7.54492 19.9882 7.80268 19.7305 8.13074 19.7305H13.4266C13.7546 19.7305 14.0124 19.9882 14.0124 20.3163C14.0124 20.6444 13.7546 20.9021 13.45 20.9021Z" fill="black"/>
<path fill-rule="evenodd" clip-rule="evenodd" d="M13.45 16.5447H8.13074C7.80268 16.5447 7.54492 16.2869 7.54492 15.9589C7.54492 15.6542 7.80268 15.373 8.13074 15.373H13.4266C13.7546 15.373 14.0124 15.6542 14.0124 15.9589C14.0124 16.2869 13.7546 16.5447 13.45 16.5447Z" fill="black"/>
<path fill-rule="evenodd" clip-rule="evenodd" d="M20.9017 12.1619H8.13074C7.80268 12.1619 7.54492 11.9041 7.54492 11.5761C7.54492 11.248 7.80268 10.9902 8.13074 10.9902H20.9017C21.2297 10.9902 21.4875 11.248 21.4875 11.5761C21.4875 11.9041 21.2297 12.1619 20.9017 12.1619Z" fill="black"/>
</g>
<defs>
<clipPath id="clip0_962_17297">
<rect width="40" height="40" fill="white"/>
</clipPath>
</defs>
</svg>
