<svg width="41" height="41" viewBox="0 0 41 41" fill="none" xmlns="http://www.w3.org/2000/svg">
<g clip-path="url(#clip0_963_17506)">
<path fill-rule="evenodd" clip-rule="evenodd" d="M30.6199 38.1733H5.33582C5.00776 38.1733 4.75 37.9155 4.75 37.5874V5.83582C4.75 5.50776 5.00776 5.25 5.33582 5.25H24.668C24.996 5.25 25.2538 5.50776 25.2538 5.83582C25.2538 6.16388 24.996 6.42165 24.668 6.42165H5.87478V37.0719H30.0576V32.6197C30.0576 32.2916 30.3153 32.0338 30.6434 32.0338C30.9714 32.0338 31.2292 32.2916 31.2292 32.6197V37.6343C31.1823 37.9155 30.9246 38.1733 30.6199 38.1733ZM30.6199 19.2863C30.2919 19.2863 30.0341 19.0286 30.0341 18.7005V11.8112C30.0341 11.5066 30.2919 11.2488 30.6199 11.2488C30.9246 11.2488 31.1823 11.5066 31.1823 11.8112V18.7474C31.1823 19.0286 30.9246 19.2863 30.6199 19.2863Z" fill="white"/>
<path fill-rule="evenodd" clip-rule="evenodd" d="M30.6198 12.3726H24.6679C24.3398 12.3726 24.082 12.1149 24.082 11.7868V5.83485C24.082 5.62395 24.1992 5.41306 24.4335 5.31933C24.6679 5.22559 24.8788 5.29589 25.0428 5.45992L31.0416 11.4353C31.1822 11.5993 31.2525 11.8571 31.1588 12.0446C31.065 12.2555 30.8776 12.3726 30.6198 12.3726ZM25.2068 11.2479H29.2373L25.2068 7.21739V11.2479Z" fill="white"/>
<path fill-rule="evenodd" clip-rule="evenodd" d="M5.336 32.4548H1.23524C0.907176 32.4548 0.649414 32.1971 0.649414 31.869V1.78114C0.649414 1.45307 0.907176 1.19531 1.23524 1.19531H22.5826C22.9107 1.19531 23.1685 1.45307 23.1685 1.78114V5.83503C23.1685 6.16309 22.9107 6.42085 22.5826 6.42085C22.2546 6.42085 21.9968 6.16309 21.9968 5.83503V2.34353H1.82106V31.2832H5.336C5.66406 31.2832 5.92182 31.5409 5.92182 31.869C5.92182 32.1971 5.61719 32.4548 5.336 32.4548Z" fill="white"/>
<path fill-rule="evenodd" clip-rule="evenodd" d="M23.8714 31.4713C21.5984 31.4713 19.466 30.6043 17.8491 28.9874C16.2088 27.3471 15.3418 25.2147 15.3418 22.9417C15.3418 20.6687 16.2088 18.5129 17.8491 16.896C21.1532 13.5685 26.5896 13.5685 29.8936 16.896C33.2446 20.2469 33.2446 25.6599 29.8936 28.9874C28.3002 30.6043 26.1678 31.4713 23.8714 31.4713ZM23.8714 15.5603C21.9967 15.5603 20.1221 16.2633 18.6458 17.6927C15.7636 20.5984 15.7636 25.285 18.6458 28.1672C20.0518 29.5732 21.903 30.3465 23.8714 30.3465C25.8632 30.3465 27.7144 29.5732 29.1204 28.1672C32.0026 25.285 32.0026 20.5984 29.1204 17.6927C27.6441 16.2633 25.7694 15.5603 23.8714 15.5603Z" fill="white"/>
<path fill-rule="evenodd" clip-rule="evenodd" d="M37.5327 39.742C37.1343 39.742 36.7828 39.578 36.525 39.3202L30.1278 32.8996C29.8701 32.6418 29.7061 32.2903 29.7061 31.892C29.7061 31.517 29.8701 31.1655 30.1278 30.8843L31.8385 29.1737C32.4008 28.6114 33.3147 28.6114 33.8302 29.1737L40.2274 35.5709C40.7898 36.1333 40.7898 37.0472 40.2274 37.5627L38.4934 39.2733C38.2825 39.6014 37.931 39.742 37.5327 39.742ZM32.8461 29.9236C32.7758 29.9236 32.7289 29.947 32.6586 29.9939L30.9246 31.7045C30.8308 31.7982 30.8308 32.0091 30.9246 32.1029L37.3452 38.5001C37.4389 38.5938 37.6264 38.5938 37.7201 38.5001L39.4542 36.766C39.5479 36.6723 39.5479 36.4848 39.4542 36.3911L33.057 29.9939C32.9867 29.947 32.9164 29.9236 32.8461 29.9236Z" fill="white"/>
<path fill-rule="evenodd" clip-rule="evenodd" d="M31.3931 31.0248C31.2525 31.0248 31.0884 30.9545 30.9947 30.8608L29.1201 28.9861C28.8858 28.7518 28.8858 28.4003 29.1201 28.166C29.331 27.9317 29.7059 27.9317 29.9168 28.166L31.8149 30.0406C32.0492 30.2749 32.0492 30.6264 31.8149 30.8608C31.6508 30.9545 31.5102 31.0248 31.3931 31.0248Z" fill="white"/>
<path fill-rule="evenodd" clip-rule="evenodd" d="M23.8719 28.7516C22.3253 28.7516 20.8959 28.1424 19.7946 27.0176C17.545 24.7915 17.545 21.1125 19.7946 18.8395C22.0676 16.59 25.7466 16.59 27.9727 18.8395C29.074 19.9409 29.7067 21.4171 29.7067 22.9637C29.7067 24.4868 29.074 25.9631 27.9727 27.0176C26.8713 28.1424 25.4419 28.7516 23.8719 28.7516ZM20.5679 19.6597C18.7401 21.464 18.7401 24.44 20.5679 26.2443C21.4349 27.1348 22.6065 27.6034 23.8719 27.6034C25.1139 27.6034 26.2855 27.1348 27.176 26.2443C28.043 25.3773 28.5351 24.2057 28.5351 22.9637C28.5351 21.7218 28.043 20.5267 27.176 19.6597C25.3482 17.8319 22.3956 17.8319 20.5679 19.6597Z" fill="white"/>
<path fill-rule="evenodd" clip-rule="evenodd" d="M24.6208 34.3299H8.78016C8.4521 34.3299 8.19434 34.0721 8.19434 33.744C8.19434 33.4394 8.4521 33.1816 8.78016 33.1816H24.6208C24.9489 33.1816 25.2066 33.4394 25.2066 33.744C25.2066 34.0721 24.9489 34.3299 24.6208 34.3299Z" fill="white"/>
<path fill-rule="evenodd" clip-rule="evenodd" d="M14.0994 30.0173H8.78016C8.4521 30.0173 8.19434 29.7596 8.19434 29.4315C8.19434 29.1035 8.4521 28.8457 8.78016 28.8457H14.076C14.4041 28.8457 14.6618 29.1035 14.6618 29.4315C14.6618 29.7596 14.4041 30.0173 14.0994 30.0173Z" fill="white"/>
<path fill-rule="evenodd" clip-rule="evenodd" d="M14.0994 25.7068H8.78016C8.4521 25.7068 8.19434 25.4256 8.19434 25.121C8.19434 24.7929 8.4521 24.5352 8.78016 24.5352H14.076C14.4041 24.5352 14.6618 24.7929 14.6618 25.121C14.6618 25.4256 14.4041 25.7068 14.0994 25.7068Z" fill="white"/>
<path fill-rule="evenodd" clip-rule="evenodd" d="M14.0994 21.3709H8.78016C8.4521 21.3709 8.19434 21.1131 8.19434 20.785C8.19434 20.457 8.4521 20.1992 8.78016 20.1992H14.076C14.4041 20.1992 14.6618 20.457 14.6618 20.785C14.6618 21.1131 14.4041 21.3709 14.0994 21.3709Z" fill="white"/>
<path fill-rule="evenodd" clip-rule="evenodd" d="M14.0994 17.0134H8.78016C8.4521 17.0134 8.19434 16.7557 8.19434 16.4276C8.19434 16.123 8.4521 15.8418 8.78016 15.8418H14.076C14.4041 15.8418 14.6618 16.123 14.6618 16.4276C14.6618 16.7557 14.4041 17.0134 14.0994 17.0134Z" fill="white"/>
<path fill-rule="evenodd" clip-rule="evenodd" d="M21.5511 12.6306H8.78016C8.4521 12.6306 8.19434 12.3729 8.19434 12.0448C8.19434 11.7167 8.4521 11.459 8.78016 11.459H21.5511C21.8792 11.459 22.1369 11.7167 22.1369 12.0448C22.1369 12.3729 21.8792 12.6306 21.5511 12.6306Z" fill="white"/>
</g>
<defs>
<clipPath id="clip0_963_17506">
<rect width="40" height="40" fill="white" transform="translate(0.649414 0.46875)"/>
</clipPath>
</defs>
</svg>
