<svg width="35" height="35" viewBox="0 0 30 31" fill="none" xmlns="http://www.w3.org/2000/svg">
<g clip-path="url(#clip0_844_60)">
<path d="M7.20213 23.8223H1.15186C0.666465 23.8223 0.272949 24.2158 0.272949 24.7012V30.0168C0.272949 30.5022 0.666465 30.8957 1.15186 30.8957H8.08109V24.7012C8.08103 24.2158 7.68758 23.8223 7.20213 23.8223Z" fill="#BA9A63"/>
<path d="M15.8892 18.9004H10.7178C10.2324 18.9004 9.83887 19.2939 9.83887 19.7793V30.8957H16.7681V19.7793C16.7681 19.2939 16.3746 18.9004 15.8892 18.9004Z" fill="#BA9A63"/>
<path d="M27.9963 5.64316L29.7676 3.7207C30.0043 3.46406 30.0664 3.09199 29.9264 2.77266C29.7864 2.45273 29.4705 2.24648 29.1213 2.24648H23.4554V1.77539C23.4554 1.29023 23.0622 0.896484 22.5765 0.896484C22.0913 0.896484 21.6976 1.29023 21.6976 1.77539V12.0293H19.4048C18.9194 12.0293 18.5259 12.4228 18.5259 12.9082V30.8965H25.6045C26.0903 30.8965 26.4834 30.5027 26.4834 30.0176V12.9082C26.4834 12.423 26.0903 12.0293 25.6045 12.0293H23.4554V8.88457H29.1213C29.477 8.88457 29.7975 8.67012 29.9334 8.34141C30.0694 8.0127 29.9938 7.63418 29.7418 7.3834L27.9963 5.64316Z" fill="#BA9A63"/>
<path d="M14.9153 8.4433C15.1309 8.87819 15.6582 9.05584 16.0931 8.84022C16.528 8.62453 16.7057 8.09719 16.49 7.66231C14.8966 4.4492 15.0578 4.77311 15.0347 4.72945C14.8695 4.41738 14.5297 4.22895 14.1677 4.26645C14.1653 4.26668 14.1627 4.26721 14.1602 4.2675C14.0883 4.27559 14.2803 4.23791 10.9514 4.93846C10.4764 5.03842 10.1724 5.50453 10.2723 5.97955C10.3594 6.39352 10.7246 6.67764 11.1314 6.67764C11.2538 6.67764 11.175 6.68778 12.7207 6.36246C11.5682 8.62477 10.0681 10.6864 8.24653 12.5082C6.01393 14.7408 3.41998 16.4912 0.536762 17.7107C0.0896915 17.8998 -0.11943 18.4154 0.0696524 18.8625C0.258852 19.31 0.77477 19.5186 1.22149 19.3297C4.31424 18.0216 7.09598 16.1447 9.48942 13.7511C11.4402 11.8004 13.0475 9.59227 14.2831 7.16883L14.9153 8.4433Z" fill="#BA9A63"/>
</g>
<defs>
<clipPath id="clip0_844_60">
<rect width="30" height="30" fill="white" transform="translate(0 0.896484)"/>
</clipPath>
</defs>
</svg>
