<svg width="40" height="40" viewBox="0 0 40 41" fill="none" xmlns="http://www.w3.org/2000/svg">
<path d="M6.51562 14.8965L8.32031 15.6387L14.7422 9.2168L13.9922 7.41992L6.51562 14.8965Z" fill="white"/>
<path d="M10.8828 20.9043C10.8828 25.1699 13.8359 28.7637 17.8047 29.7481C17.7344 29.5371 17.6484 29.3262 17.5703 29.1074C17.1016 27.8809 16.625 26.6074 17.1719 24.4746C17.7188 22.334 18.75 21.459 19.75 20.6074C20.6953 19.7949 21.5938 19.0371 22.0781 17.1387C22.5625 15.2402 22.1484 14.1387 21.7031 12.9746C21.5703 12.6231 21.4375 12.2637 21.3281 11.8887C20.8984 11.8262 20.4531 11.7949 20.0078 11.7949C14.9766 11.7871 10.8828 15.8731 10.8828 20.9043ZM17.9687 18.1934C16.8672 18.1934 15.9687 17.2949 15.9687 16.1934C15.9687 15.0918 16.8672 14.1934 17.9687 14.1934C19.0703 14.1934 19.9688 15.0918 19.9688 16.1934C19.9688 17.2949 19.0703 18.1934 17.9687 18.1934Z" fill="white"/>
<path d="M6.21875 26.1855L8.02344 25.4434V16.3574L6.21875 15.6152V26.1855Z" fill="white"/>
<path d="M15.3594 9.70117L8.79688 16.2637V25.5449L15.3594 32.1074H24.6406L31.2031 25.5449V16.2637L24.6406 9.70117H15.3594ZM29.8984 20.9043C29.8984 26.3574 25.4609 30.7949 20 30.7949C19.4219 30.7949 18.8594 30.748 18.3047 30.6465C13.6563 29.8418 10.1016 25.7793 10.1016 20.8965C10.1016 15.4434 14.5391 10.998 20 10.998C25.4609 10.998 29.8984 15.4434 29.8984 20.9043Z" fill="white"/>
<path d="M3.9375 13.8262L5.73438 14.5684L9.44531 10.8574L8.17969 9.58398L3.9375 13.8262Z" fill="white"/>
<path d="M8.13281 32.1699L9.40625 30.8965L5.73438 27.2324L3.9375 27.9746L8.13281 32.1699Z" fill="white"/>
<path d="M33.7812 15.6152L31.9844 16.3574V25.4355L33.7812 26.1777V20.959C33.7734 20.9277 33.7656 20.8887 33.7656 20.8496C33.7656 20.8105 33.7734 20.7793 33.7812 20.7402V15.6152Z" fill="white"/>
<path d="M17.9688 14.9746C17.2969 14.9746 16.75 15.5215 16.75 16.1934C16.75 16.8652 17.2969 17.4121 17.9688 17.4121C18.6406 17.4121 19.1875 16.8652 19.1875 16.1934C19.1875 15.5215 18.6406 14.9746 17.9688 14.9746Z" fill="white"/>
<path d="M19.6094 6.3418V4.53711H13.6484L14.3906 6.3418H19.6094Z" fill="white"/>
<path d="M14.7422 32.584L8.32031 26.1621L6.51562 26.9043L13.9922 34.3809L14.7422 32.584Z" fill="white"/>
<path d="M26.3516 4.53711H20.3906V6.3418H25.6094L26.3516 4.53711Z" fill="white"/>
<path d="M22.8283 17.3262C22.2814 19.459 21.2501 20.3418 20.2501 21.1934C19.3048 22.0059 18.4064 22.7637 17.922 24.6621C17.4376 26.5605 17.8517 27.6621 18.297 28.8262C18.4298 29.1699 18.5626 29.5371 18.672 29.9121C19.1017 29.9746 19.547 30.0059 19.9923 30.0059C25.0158 30.0059 29.1095 25.9199 29.1095 20.8965C29.1095 16.6309 26.1564 13.0371 22.1876 12.0527C22.2579 12.2637 22.3439 12.4746 22.422 12.6934C22.8986 13.9199 23.3751 15.1934 22.8283 17.3262ZM23.9923 25.1074C23.9923 26.1543 23.1408 27.0059 22.0939 27.0059C21.047 27.0059 20.1954 26.1543 20.1954 25.1074C20.1954 24.0605 21.047 23.209 22.0939 23.209C23.1408 23.209 23.9923 24.0605 23.9923 25.1074Z" fill="white"/>
<path d="M20.9844 25.1074C20.9844 25.7246 21.4844 26.2246 22.1016 26.2246C22.7187 26.2246 23.2188 25.7246 23.2188 25.1074C23.2188 24.4902 22.7187 23.9902 22.1016 23.9902C21.4844 23.9902 20.9844 24.4902 20.9844 25.1074Z" fill="white"/>
<path d="M25.2578 9.2168L31.6797 15.6387L33.4844 14.8965L26.0078 7.41992L25.2578 9.2168Z" fill="white"/>
<path d="M3.64062 20.4668H5.4375V15.2949L3.64062 14.5449V20.4668Z" fill="white"/>
<path d="M13.6719 35.1621L9.95313 31.4512L8.6875 32.7246L12.9219 36.9668L13.6719 35.1621Z" fill="white"/>
<path d="M5.4375 21.248H3.64062V27.2559L5.4375 26.5137V21.248Z" fill="white"/>
<path d="M8.72656 9.0293L10 10.3027L13.6719 6.63867L12.9219 4.83398L8.72656 9.0293Z" fill="white"/>
<path d="M19.6094 35.459H14.3906L13.6484 37.2637H19.6094V35.459Z" fill="white"/>
<path d="M20.3906 35.459V37.2637H26.3516L25.6094 35.459H20.3906Z" fill="white"/>
<path d="M34.5625 20.4668H36.3594V14.5449L34.5625 15.2949V20.4668Z" fill="white"/>
<path d="M31.3125 32.7246L30.0391 31.4512L26.3281 35.1621L27.0781 36.9668L31.3125 32.7246Z" fill="white"/>
<path d="M36.0625 27.9746L34.2656 27.2324L30.5938 30.8965L31.8672 32.1699L36.0625 27.9746Z" fill="white"/>
<path d="M26.3281 6.63867L30 10.3027L31.2734 9.0293L27.0781 4.83398L26.3281 6.63867Z" fill="white"/>
<path d="M36.3594 21.248H34.5625V26.5137L36.3594 27.2559V21.248Z" fill="white"/>
<path d="M31.8203 9.58398L30.5547 10.8574L34.2656 14.5684L36.0625 13.8262L31.8203 9.58398Z" fill="white"/>
<path d="M33.4844 26.9043L31.6797 26.1621L25.2578 32.584L26.0078 34.3809L33.4844 26.9043Z" fill="white"/>
<path d="M24.5391 32.8809H15.4609L14.7109 34.6777H25.2891L24.5391 32.8809Z" fill="white"/>
<path d="M15.4609 8.91992H24.5391L25.2891 7.12305H14.7109L15.4609 8.91992Z" fill="white"/>
</svg>
