<svg width="64" height="64" viewBox="0 0 64 64" fill="none" xmlns="http://www.w3.org/2000/svg">
<g clip-path="url(#clip0_801_107)">
<path d="M32 64C25.671 64 19.4841 62.1232 14.2218 58.607C8.95939 55.0908 4.85787 50.0931 2.43587 44.2459C0.013865 38.3986 -0.619842 31.9645 0.614885 25.7571C1.84961 19.5497 4.89732 13.8479 9.3726 9.3726C13.8479 4.89732 19.5497 1.84961 25.7571 0.614885C31.9645 -0.619842 38.3986 0.013865 44.2459 2.43587C50.0931 4.85787 55.0908 8.95939 58.607 14.2218C62.1232 19.4841 64 25.671 64 32C64 40.4869 60.6286 48.6263 54.6274 54.6274C48.6263 60.6286 40.4869 64 32 64Z" fill="url(#paint0_linear_801_107)"/>
<g opacity="0.4">
<path d="M32 2.5C37.8346 2.5 43.5381 4.23014 48.3893 7.47165C53.2406 10.7131 57.0217 15.3204 59.2545 20.7108C61.4872 26.1013 62.0714 32.0327 60.9332 37.7552C59.7949 43.4776 56.9853 48.734 52.8597 52.8596C48.734 56.9853 43.4776 59.7949 37.7552 60.9332C32.0327 62.0714 26.1013 61.4872 20.7109 59.2544C15.3204 57.0217 10.7132 53.2406 7.47166 48.3893C4.23016 43.5381 2.50001 37.8345 2.50001 32C2.50796 24.1786 5.61853 16.6797 11.1491 11.1491C16.6797 5.61852 24.1786 2.50794 32 2.5ZM32 0C25.671 0 19.4841 1.87677 14.2218 5.39297C8.95939 8.90918 4.85787 13.9069 2.43587 19.7541C0.013865 25.6014 -0.619842 32.0355 0.614885 38.2429C1.84961 44.4503 4.89732 50.1521 9.3726 54.6274C13.8479 59.1027 19.5497 62.1504 25.7571 63.3851C31.9645 64.6199 38.3986 63.9861 44.2459 61.5641C50.0931 59.1421 55.0908 55.0406 58.607 49.7782C62.1232 44.5159 64 38.329 64 32C64 23.5131 60.6286 15.3737 54.6274 9.37258C48.6263 3.37142 40.4869 0 32 0Z" fill="#BA9A63"/>
</g>
<path d="M39.4781 28.6176C39.6681 28.5796 40.0671 28.5606 40.6751 28.5606C41.3211 28.5606 42.0051 28.9216 42.7271 29.6436C43.4491 30.3276 43.8101 31.0686 43.8101 31.8666C43.8101 32.6266 43.4491 33.2156 42.7271 33.6336C41.8911 34.0516 40.5991 34.5646 38.8511 35.1726L37.9961 43.2096C37.8441 44.7296 37.7681 46.9906 37.7681 49.9926C37.7681 50.4486 37.6731 50.9046 37.4831 51.3606C37.2931 51.7786 37.0461 51.9876 36.7421 51.9876C36.4381 51.9876 36.1911 51.9306 36.0011 51.8166C35.8491 51.7026 35.6781 51.5506 35.4881 51.3606C35.3361 51.1326 35.1841 50.9236 35.0321 50.7336C34.9181 50.5056 34.7851 50.2396 34.6331 49.9356C34.5191 49.6316 34.4051 49.3846 34.2911 49.1946C34.2151 49.0046 34.1201 48.7766 34.0061 48.5106C33.9301 48.2066 33.8731 48.0166 33.8351 47.9406C33.1891 46.3826 32.8661 44.7106 32.8661 42.9246C32.8661 42.8866 32.9801 40.9296 33.2081 37.0536C30.8141 37.8516 29.1041 38.2506 28.0781 38.2506C24.8861 38.2506 22.9291 36.7496 22.2071 33.7476C21.3331 30.2516 20.8961 27.3826 20.8961 25.1406C20.8961 20.0486 26.0451 14.7856 36.3431 9.35158C36.8751 9.12358 37.3881 9.00958 37.8821 9.00958C38.4141 9.00958 38.8131 9.27558 39.0791 9.80758C39.4211 10.3396 39.7251 11.4226 39.9911 13.0566C40.2951 14.6906 40.4471 15.8496 40.4471 16.5336C40.4471 18.6236 40.1241 22.6516 39.4781 28.6176ZM33.9491 19.8966C33.1511 19.8966 31.6311 21.3026 29.3891 24.1146C27.1471 26.9266 26.0261 28.7696 26.0261 29.6436C26.0261 30.0996 26.4251 30.3276 27.2231 30.3276C27.5651 30.3276 28.0211 30.2896 28.5911 30.2136C30.8711 29.9096 32.6191 29.6816 33.8351 29.5296C33.9111 28.6556 34.0251 27.4016 34.1771 25.7676C34.4811 23.1076 34.6331 21.4736 34.6331 20.8656C34.6331 20.2196 34.4051 19.8966 33.9491 19.8966Z" fill="white"/>
</g>
<defs>
<linearGradient id="paint0_linear_801_107" x1="9.38001" y1="54.62" x2="54.62" y2="9.38001" gradientUnits="userSpaceOnUse">
<stop stop-color="#BA9A63"/>
<stop offset="1" stop-color="#F1EBE0"/>
</linearGradient>
<clipPath id="clip0_801_107">
<rect width="64" height="64" fill="white"/>
</clipPath>
</defs>
</svg>
