<svg width="64" height="64" viewBox="0 0 64 64" fill="none" xmlns="http://www.w3.org/2000/svg">
<g clip-path="url(#clip0_801_141)">
<path d="M32 64C25.671 64 19.4841 62.1232 14.2218 58.607C8.95939 55.0908 4.85787 50.0931 2.43587 44.2459C0.013865 38.3986 -0.619842 31.9645 0.614885 25.7571C1.84961 19.5497 4.89732 13.8479 9.3726 9.3726C13.8479 4.89732 19.5497 1.84961 25.7571 0.614885C31.9645 -0.619842 38.3986 0.013865 44.2459 2.43587C50.0931 4.85787 55.0908 8.95939 58.607 14.2218C62.1232 19.4841 64 25.671 64 32C64 40.4869 60.6286 48.6263 54.6274 54.6274C48.6263 60.6286 40.4869 64 32 64Z" fill="url(#paint0_linear_801_141)"/>
<g opacity="0.4">
<path d="M32 2.5C37.8346 2.5 43.5381 4.23014 48.3893 7.47165C53.2406 10.7131 57.0217 15.3204 59.2545 20.7108C61.4872 26.1013 62.0714 32.0327 60.9332 37.7552C59.7949 43.4776 56.9853 48.734 52.8597 52.8596C48.734 56.9853 43.4776 59.7949 37.7552 60.9332C32.0327 62.0714 26.1013 61.4872 20.7109 59.2544C15.3204 57.0217 10.7132 53.2406 7.47166 48.3893C4.23016 43.5381 2.50001 37.8345 2.50001 32C2.50796 24.1786 5.61853 16.6797 11.1491 11.1491C16.6797 5.61852 24.1786 2.50794 32 2.5ZM32 0C25.671 0 19.4841 1.87677 14.2218 5.39297C8.95939 8.90918 4.85787 13.9069 2.43587 19.7541C0.013865 25.6014 -0.619842 32.0355 0.614885 38.2429C1.84961 44.4503 4.89732 50.1521 9.3726 54.6274C13.8479 59.1027 19.5497 62.1504 25.7571 63.3851C31.9645 64.6199 38.3986 63.9861 44.2459 61.5641C50.0931 59.1421 55.0908 55.0406 58.607 49.7782C62.1232 44.5159 64 38.329 64 32C64 23.5131 60.6286 15.3737 54.6274 9.37258C48.6263 3.37142 40.4869 0 32 0Z" fill="#BA9A63"/>
</g>
<path d="M26.5239 19.0986C25.9159 19.0986 25.4599 19.3076 25.1559 19.7256C24.8519 20.1056 24.5479 20.2956 24.2439 20.2956C23.4839 20.2956 22.9329 19.5736 22.5909 18.1296C22.2489 16.6856 22.0779 15.3746 22.0779 14.1966C22.0779 11.5746 22.3819 10.2636 22.9899 10.2636C23.2179 10.2636 23.4079 10.4346 23.5599 10.7766C23.7119 11.1186 23.8829 11.3656 24.0729 11.5176C24.2629 11.6316 24.4339 11.7266 24.5859 11.8026C24.7759 11.8786 25.0229 11.9356 25.3269 11.9736C25.6689 12.0116 25.9159 12.0306 26.0679 12.0306C26.5619 12.0306 27.1509 12.0306 27.8349 12.0306C28.5569 12.0306 31.0649 11.9356 35.3589 11.7456C35.9289 11.7076 36.5179 11.5366 37.1259 11.2326C37.7339 10.9286 38.1329 10.7766 38.3229 10.7766C38.9309 10.7766 39.6719 11.2896 40.5459 12.3156C41.4199 13.3416 41.8569 14.1776 41.8569 14.8236C41.8569 15.4316 41.6289 15.9636 41.1729 16.4196C40.7169 16.8376 40.3559 17.3316 40.0899 17.9016C39.8619 18.4716 39.0259 20.3526 37.5819 23.5446C33.9719 31.5246 32.1669 35.6856 32.1669 36.0276C32.1669 36.3696 32.4139 36.8446 32.9079 37.4526C33.4019 38.0226 33.6489 38.5926 33.6489 39.1626C33.6489 39.6946 33.2309 41.3096 32.3949 44.0076C31.5589 46.6676 30.9699 48.4536 30.6279 49.3656C30.2859 50.2776 29.7539 50.7336 29.0319 50.7336C28.3099 50.7336 27.8159 50.3916 27.5499 49.7076C26.8279 47.6936 26.4669 45.5086 26.4669 43.1526C26.4669 40.7586 26.6949 38.4216 27.1509 36.1416C27.6069 33.8616 28.0629 31.9996 28.5189 30.5556C28.9749 29.0736 29.6779 26.9836 30.6279 24.2856C31.6159 21.5496 32.2809 19.6876 32.6229 18.6996C31.3689 19.1176 30.1339 19.3266 28.9179 19.3266L26.5239 19.0986Z" fill="white"/>
</g>
<defs>
<linearGradient id="paint0_linear_801_141" x1="9.38001" y1="54.62" x2="54.62" y2="9.38001" gradientUnits="userSpaceOnUse">
<stop stop-color="#BA9A63"/>
<stop offset="1" stop-color="#F1EBE0"/>
</linearGradient>
<clipPath id="clip0_801_141">
<rect width="64" height="64" fill="white"/>
</clipPath>
</defs>
</svg>
