<svg width="65" height="64" viewBox="0 0 65 64" fill="none" xmlns="http://www.w3.org/2000/svg">
<g clip-path="url(#clip0_801_117)">
<path d="M32.5361 64C26.2071 64 20.0203 62.1232 14.7579 58.607C9.49553 55.0908 5.39401 50.0931 2.972 44.2459C0.549998 38.3986 -0.0837088 31.9645 1.15102 25.7571C2.38575 19.5497 5.43345 13.8479 9.90873 9.3726C14.384 4.89732 20.0859 1.84961 26.2933 0.614885C32.5007 -0.619842 38.9348 0.013865 44.782 2.43587C50.6293 4.85787 55.627 8.95939 59.1432 14.2218C62.6594 19.4841 64.5361 25.671 64.5361 32C64.5361 40.4869 61.1647 48.6263 55.1636 54.6274C49.1624 60.6286 41.0231 64 32.5361 64Z" fill="url(#paint0_linear_801_117)"/>
<g opacity="0.4">
<path d="M32.5361 2.5C38.3707 2.5 44.0742 4.23014 48.9255 7.47165C53.7767 10.7131 57.5578 15.3204 59.7906 20.7108C62.0234 26.1013 62.6076 32.0327 61.4693 37.7552C60.3311 43.4776 57.5214 48.734 53.3958 52.8596C49.2701 56.9853 44.0138 59.7949 38.2913 60.9332C32.5689 62.0714 26.6374 61.4872 21.247 59.2544C15.8566 57.0217 11.2493 53.2406 8.00779 48.3893C4.76629 43.5381 3.03615 37.8345 3.03615 32C3.04409 24.1786 6.15467 16.6797 11.6853 11.1491C17.2159 5.61852 24.7147 2.50794 32.5361 2.5ZM32.5361 0C26.2071 0 20.0203 1.87677 14.7579 5.39297C9.49553 8.90918 5.39401 13.9069 2.972 19.7541C0.549998 25.6014 -0.0837088 32.0355 1.15102 38.2429C2.38575 44.4503 5.43345 50.1521 9.90873 54.6274C14.384 59.1027 20.0859 62.1504 26.2933 63.3851C32.5007 64.6199 38.9348 63.9861 44.782 61.5641C50.6293 59.1421 55.627 55.0406 59.1432 49.7782C62.6594 44.5159 64.5361 38.329 64.5361 32C64.5361 23.5131 61.1647 15.3737 55.1636 9.37258C49.1624 3.37142 41.0231 0 32.5361 0Z" fill="#BA9A63"/>
</g>
<path d="M31.2763 10.0356C33.1763 10.0356 34.7153 9.94058 35.8933 9.75058C37.1093 9.52258 37.7363 9.40857 37.7743 9.40857C38.6103 9.40857 39.3893 9.78858 40.1113 10.5486C40.8713 11.3086 41.2513 12.0306 41.2513 12.7146C41.2513 13.3986 41.0043 13.9306 40.5103 14.3106C38.1923 16.2866 35.5323 17.3126 32.5303 17.3886C32.0743 17.9206 31.5233 18.9086 30.8773 20.3526C34.5633 21.3406 37.2993 23.3166 39.0853 26.2806C40.8713 29.2066 41.7643 32.5506 41.7643 36.3126C41.7643 40.0746 40.8523 43.2476 39.0283 45.8316C36.3303 49.6696 33.6133 51.5886 30.8773 51.5886C28.6733 51.5886 27.2103 50.2016 26.4883 47.4276C25.9183 45.2996 25.6333 43.7796 25.6333 42.8676C25.6333 41.9176 26.1653 41.1386 27.2293 40.5306C28.9013 39.5046 30.7823 37.9466 32.8723 35.8566C33.1003 35.6286 33.3093 35.5146 33.4993 35.5146C33.8413 35.5146 34.0123 35.8756 34.0123 36.5976C34.0123 37.2816 33.7083 38.3076 33.1003 39.6756C32.5303 41.0056 32.2453 41.7846 32.2453 42.0126C32.2453 42.2026 32.2833 42.2976 32.3593 42.2976C32.5113 42.2976 32.8153 42.1266 33.2713 41.7846C36.0453 39.4666 37.4323 36.4266 37.4323 32.6646C37.4323 30.9166 36.9193 29.5486 35.8933 28.5606C34.9053 27.5726 33.4993 27.0786 31.6753 27.0786C29.8513 27.0786 28.1983 27.9716 26.7163 29.7576C25.3483 26.5276 24.6643 24.0386 24.6643 22.2906C24.6643 20.5426 25.7283 16.9326 27.8563 11.4606C28.0843 10.7386 28.2553 10.3016 28.3693 10.1496C28.5213 9.99758 28.7113 9.92157 28.9393 9.92157L31.2763 10.0356Z" fill="white"/>
</g>
<defs>
<linearGradient id="paint0_linear_801_117" x1="9.91615" y1="54.62" x2="55.1561" y2="9.38001" gradientUnits="userSpaceOnUse">
<stop stop-color="#BA9A63"/>
<stop offset="1" stop-color="#F1EBE0"/>
</linearGradient>
<clipPath id="clip0_801_117">
<rect width="64" height="64" fill="white" transform="translate(0.536133)"/>
</clipPath>
</defs>
</svg>
