<svg width="64" height="64" viewBox="0 0 64 64" fill="none" xmlns="http://www.w3.org/2000/svg">
<g clip-path="url(#clip0_801_70)">
<path d="M32 64C25.671 64 19.4841 62.1232 14.2218 58.607C8.95939 55.0908 4.85787 50.0931 2.43587 44.2459C0.013865 38.3986 -0.619842 31.9645 0.614885 25.7571C1.84961 19.5497 4.89732 13.8479 9.3726 9.3726C13.8479 4.89732 19.5497 1.84961 25.7571 0.614885C31.9645 -0.619842 38.3986 0.013865 44.2459 2.43587C50.0931 4.85787 55.0908 8.95939 58.607 14.2218C62.1232 19.4841 64 25.671 64 32C64 40.4869 60.6286 48.6263 54.6274 54.6274C48.6263 60.6286 40.4869 64 32 64Z" fill="url(#paint0_linear_801_70)"/>
<g opacity="0.4">
<path d="M32 2.5C37.8346 2.5 43.5381 4.23014 48.3893 7.47165C53.2406 10.7131 57.0217 15.3204 59.2545 20.7108C61.4872 26.1013 62.0714 32.0327 60.9332 37.7552C59.7949 43.4776 56.9853 48.734 52.8597 52.8596C48.734 56.9853 43.4776 59.7949 37.7552 60.9332C32.0327 62.0714 26.1013 61.4872 20.7109 59.2544C15.3204 57.0217 10.7132 53.2406 7.47166 48.3893C4.23016 43.5381 2.50001 37.8345 2.50001 32C2.50796 24.1786 5.61853 16.6797 11.1491 11.1491C16.6797 5.61852 24.1786 2.50794 32 2.5ZM32 0C25.671 0 19.4841 1.87677 14.2218 5.39297C8.95939 8.90918 4.85787 13.9069 2.43587 19.7541C0.013865 25.6014 -0.619842 32.0355 0.614885 38.2429C1.84961 44.4503 4.89732 50.1521 9.3726 54.6274C13.8479 59.1027 19.5497 62.1504 25.7571 63.3851C31.9645 64.6199 38.3986 63.9861 44.2459 61.5641C50.0931 59.1421 55.0908 55.0406 58.607 49.7782C62.1232 44.5159 64 38.329 64 32C64 23.5131 60.6286 15.3737 54.6274 9.37258C48.6263 3.37142 40.4869 0 32 0Z" fill="#BA9A63"/>
</g>
<path d="M35.9834 17.5596C35.9834 19.3456 35.4324 23.7156 34.3304 30.6696C33.2284 37.5856 32.6774 42.3166 32.6774 44.8626C32.6774 45.4706 32.8484 46.3446 33.1904 47.4846C33.5324 48.6246 33.7034 49.4416 33.7034 49.9356C33.7034 50.3916 33.4184 50.6196 32.8484 50.6196C30.7204 50.6196 29.5614 50.1636 29.3714 49.2516C29.2954 48.9856 29.0674 48.1876 28.6874 46.8576C27.9654 44.3876 27.6044 42.3926 27.6044 40.8726C27.6044 32.3986 29.2764 22.8226 32.6204 12.1446C33.0004 10.9666 33.3234 10.3776 33.5894 10.3776C33.7034 10.3776 33.9314 10.5486 34.2734 10.8906C35.4134 12.0686 35.9834 14.2916 35.9834 17.5596Z" fill="white"/>
</g>
<defs>
<linearGradient id="paint0_linear_801_70" x1="9.38001" y1="54.62" x2="54.62" y2="9.38001" gradientUnits="userSpaceOnUse">
<stop stop-color="#BA9A63"/>
<stop offset="1" stop-color="#F1EBE0"/>
</linearGradient>
<clipPath id="clip0_801_70">
<rect width="64" height="64" fill="white"/>
</clipPath>
</defs>
</svg>
