<svg width="64" height="64" viewBox="0 0 64 64" fill="none" xmlns="http://www.w3.org/2000/svg">
<g clip-path="url(#clip0_801_123)">
<path d="M32 64C25.671 64 19.4841 62.1232 14.2218 58.607C8.95939 55.0908 4.85787 50.0931 2.43587 44.2459C0.013865 38.3986 -0.619842 31.9645 0.614885 25.7571C1.84961 19.5497 4.89732 13.8479 9.3726 9.3726C13.8479 4.89732 19.5497 1.84961 25.7571 0.614885C31.9645 -0.619842 38.3986 0.013865 44.2459 2.43587C50.0931 4.85787 55.0908 8.95939 58.607 14.2218C62.1232 19.4841 64 25.671 64 32C64 40.4869 60.6286 48.6263 54.6274 54.6274C48.6263 60.6286 40.4869 64 32 64Z" fill="url(#paint0_linear_801_123)"/>
<g opacity="0.4">
<path d="M32 2.5C37.8346 2.5 43.5381 4.23014 48.3893 7.47165C53.2406 10.7131 57.0217 15.3204 59.2545 20.7108C61.4872 26.1013 62.0714 32.0327 60.9332 37.7552C59.7949 43.4776 56.9853 48.734 52.8597 52.8596C48.734 56.9853 43.4776 59.7949 37.7552 60.9332C32.0327 62.0714 26.1013 61.4872 20.7109 59.2544C15.3204 57.0217 10.7132 53.2406 7.47166 48.3893C4.23016 43.5381 2.50001 37.8345 2.50001 32C2.50796 24.1786 5.61853 16.6797 11.1491 11.1491C16.6797 5.61852 24.1786 2.50794 32 2.5ZM32 0C25.671 0 19.4841 1.87677 14.2218 5.39297C8.95939 8.90918 4.85787 13.9069 2.43587 19.7541C0.013865 25.6014 -0.619842 32.0355 0.614885 38.2429C1.84961 44.4503 4.89732 50.1521 9.3726 54.6274C13.8479 59.1027 19.5497 62.1504 25.7571 63.3851C31.9645 64.6199 38.3986 63.9861 44.2459 61.5641C50.0931 59.1421 55.0908 55.0406 58.607 49.7782C62.1232 44.5159 64 38.329 64 32C64 23.5131 60.6286 15.3737 54.6274 9.37258C48.6263 3.37142 40.4869 0 32 0Z" fill="#BA9A63"/>
</g>
<path d="M25.7973 40.0746C25.7973 41.7466 26.3103 42.7156 27.3363 42.9816C27.1843 42.2216 27.1083 41.3476 27.1083 40.3596C27.1083 37.6236 27.7923 35.0016 29.1603 32.4936C30.5663 29.9476 32.4093 27.8386 34.6893 26.1666C35.5253 25.5966 36.3233 25.3116 37.0833 25.3116C38.6033 25.3116 39.8573 26.0146 40.8453 27.4206C41.8713 28.7886 42.3843 30.2516 42.3843 31.8096V32.4366C41.8523 39.1626 39.4013 44.7296 35.0313 49.1376C33.6253 50.6196 32.2003 51.3606 30.7563 51.3606C29.3503 51.3606 28.2293 51.0566 27.3933 50.4486C27.1273 50.2586 26.6713 49.8026 26.0253 49.0806C23.4793 46.1546 22.2063 41.5376 22.2063 35.2296C22.2063 31.0496 22.8903 27.2496 24.2583 23.8296C25.6263 20.4096 27.6973 16.9516 30.4713 13.4556C31.2313 12.5056 32.1813 11.6316 33.3213 10.8336C34.4993 10.0356 35.5443 9.63658 36.4563 9.63658C37.4063 9.63658 38.0713 9.99758 38.4513 10.7196C38.8693 11.4416 39.0783 12.3916 39.0783 13.5696C39.0783 14.7476 38.7173 15.9636 37.9953 17.2176C37.3113 18.4716 36.3233 19.0986 35.0313 19.0986C34.9173 19.0986 34.6703 19.0606 34.2903 18.9846C29.6163 24.1906 26.8043 30.9166 25.8543 39.1626L25.7973 40.0746ZM37.4253 33.6336C37.4253 33.0256 37.0643 32.7216 36.3423 32.7216C35.9623 32.7216 35.6203 32.8736 35.3163 33.1776C34.0623 34.3936 32.7893 35.9516 31.4973 37.8516C30.2433 39.7136 29.4263 41.3666 29.0463 42.8106C30.3003 42.2786 31.7253 41.1386 33.3213 39.3906C34.9553 37.6426 36.2283 36.0086 37.1403 34.4886C37.3303 34.1846 37.4253 33.8996 37.4253 33.6336Z" fill="white"/>
</g>
<defs>
<linearGradient id="paint0_linear_801_123" x1="9.38001" y1="54.62" x2="54.62" y2="9.38001" gradientUnits="userSpaceOnUse">
<stop stop-color="#BA9A63"/>
<stop offset="1" stop-color="#F1EBE0"/>
</linearGradient>
<clipPath id="clip0_801_123">
<rect width="64" height="64" fill="white"/>
</clipPath>
</defs>
</svg>
