<svg width="64" height="64" viewBox="0 0 64 64" fill="none" xmlns="http://www.w3.org/2000/svg">
<g clip-path="url(#clip0_801_129)">
<path d="M32 64C25.671 64 19.4841 62.1232 14.2218 58.607C8.95939 55.0908 4.85787 50.0931 2.43587 44.2459C0.013865 38.3986 -0.619842 31.9645 0.614885 25.7571C1.84961 19.5497 4.89732 13.8479 9.3726 9.3726C13.8479 4.89732 19.5497 1.84961 25.7571 0.614885C31.9645 -0.619842 38.3986 0.013865 44.2459 2.43587C50.0931 4.85787 55.0908 8.95939 58.607 14.2218C62.1232 19.4841 64 25.671 64 32C64 40.4869 60.6286 48.6263 54.6274 54.6274C48.6263 60.6286 40.4869 64 32 64Z" fill="url(#paint0_linear_801_129)"/>
<g opacity="0.4">
<path d="M32 2.5C37.8346 2.5 43.5381 4.23014 48.3893 7.47165C53.2406 10.7131 57.0217 15.3204 59.2545 20.7108C61.4872 26.1013 62.0714 32.0327 60.9332 37.7552C59.7949 43.4776 56.9853 48.734 52.8597 52.8596C48.734 56.9853 43.4776 59.7949 37.7552 60.9332C32.0327 62.0714 26.1013 61.4872 20.7109 59.2544C15.3204 57.0217 10.7132 53.2406 7.47166 48.3893C4.23016 43.5381 2.50001 37.8345 2.50001 32C2.50796 24.1786 5.61853 16.6797 11.1491 11.1491C16.6797 5.61852 24.1786 2.50794 32 2.5ZM32 0C25.671 0 19.4841 1.87677 14.2218 5.39297C8.95939 8.90918 4.85787 13.9069 2.43587 19.7541C0.013865 25.6014 -0.619842 32.0355 0.614885 38.2429C1.84961 44.4503 4.89732 50.1521 9.3726 54.6274C13.8479 59.1027 19.5497 62.1504 25.7571 63.3851C31.9645 64.6199 38.3986 63.9861 44.2459 61.5641C50.0931 59.1421 55.0908 55.0406 58.607 49.7782C62.1232 44.5159 64 38.329 64 32C64 23.5131 60.6286 15.3737 54.6274 9.37258C48.6263 3.37142 40.4869 0 32 0Z" fill="#BA9A63"/>
</g>
<path d="M28.9736 38.0796C28.6696 40.5116 28.5176 41.8036 28.5176 41.9556C28.5176 42.5636 28.7266 42.8676 29.1446 42.8676C30.3986 42.8676 31.5386 41.6326 32.5646 39.1626C33.6286 36.6546 34.1606 34.6596 34.1606 33.1776C34.1606 32.8736 34.0846 32.7216 33.9326 32.7216C33.8186 32.7216 33.6286 32.8926 33.3626 33.2346C33.0966 33.5386 32.8116 33.8996 32.5076 34.3176C32.2036 34.6976 31.7666 35.0586 31.1966 35.4006C30.6646 35.7046 30.1516 35.8566 29.6576 35.8566C29.1636 35.8566 28.6126 35.7426 28.0046 35.5146C26.2946 34.8686 25.0216 33.6336 24.1856 31.8096C23.3876 29.9476 22.9886 28.0476 22.9886 26.1096C22.9886 24.1716 23.2926 22.4616 23.9006 20.9796C25.5726 16.9516 28.0996 13.5696 31.4816 10.8336C32.2796 10.2256 33.0396 9.92157 33.7616 9.92157C34.4836 9.92157 35.1106 10.1306 35.6426 10.5486C39.3286 13.0566 41.1716 17.9396 41.1716 25.1976C41.1716 34.2036 38.2646 42.3356 32.4506 49.5936C31.6526 50.5816 30.7026 51.0756 29.6006 51.0756C28.4986 51.0756 27.6626 50.5436 27.0926 49.4796C26.6366 48.6816 26.1996 47.4656 25.7816 45.8316C25.3636 44.1596 25.1546 42.8486 25.1546 41.8986C25.1546 40.9486 25.6676 40.3216 26.6936 40.0176C27.0356 39.9036 27.3586 39.7326 27.6626 39.5046C28.0046 39.2386 28.1946 39.0676 28.2326 38.9916C28.3086 38.9156 28.5556 38.6116 28.9736 38.0796ZM35.8706 18.9846C35.8706 16.2486 35.6236 14.8806 35.1296 14.8806C34.9016 14.8806 34.6546 15.0136 34.3886 15.2796C32.3746 17.1796 30.0946 21.2266 27.5486 27.4206C27.3966 27.8766 27.3206 28.1426 27.3206 28.2186C27.3206 28.2566 27.3586 28.2756 27.4346 28.2756C27.5486 28.2756 27.9856 28.1426 28.7456 27.8766C29.5056 27.6106 30.3986 26.9456 31.4246 25.8816C32.4886 24.8176 33.2676 23.9056 33.7616 23.1456C34.2936 22.3476 34.9966 21.2266 35.8706 19.7826V18.9846Z" fill="white"/>
</g>
<defs>
<linearGradient id="paint0_linear_801_129" x1="9.38001" y1="54.62" x2="54.62" y2="9.38001" gradientUnits="userSpaceOnUse">
<stop stop-color="#BA9A63"/>
<stop offset="1" stop-color="#F1EBE0"/>
</linearGradient>
<clipPath id="clip0_801_129">
<rect width="64" height="64" fill="white"/>
</clipPath>
</defs>
</svg>
