<svg width="64" height="64" viewBox="0 0 64 64" fill="none" xmlns="http://www.w3.org/2000/svg">
<g clip-path="url(#clip0_801_147)">
<path d="M32 64C25.671 64 19.4841 62.1232 14.2218 58.607C8.95939 55.0908 4.85787 50.0931 2.43587 44.2459C0.013865 38.3986 -0.619842 31.9645 0.614885 25.7571C1.84961 19.5497 4.89732 13.8479 9.3726 9.3726C13.8479 4.89732 19.5497 1.84961 25.7571 0.614885C31.9645 -0.619842 38.3986 0.013865 44.2459 2.43587C50.0931 4.85787 55.0908 8.95939 58.607 14.2218C62.1232 19.4841 64 25.671 64 32C64 40.4869 60.6286 48.6263 54.6274 54.6274C48.6263 60.6286 40.4869 64 32 64Z" fill="url(#paint0_linear_801_147)"/>
<g opacity="0.4">
<path d="M32 2.5C37.8346 2.5 43.5381 4.23014 48.3893 7.47165C53.2406 10.7131 57.0217 15.3204 59.2545 20.7108C61.4872 26.1013 62.0714 32.0327 60.9332 37.7552C59.7949 43.4776 56.9853 48.734 52.8597 52.8596C48.734 56.9853 43.4776 59.7949 37.7552 60.9332C32.0327 62.0714 26.1013 61.4872 20.7109 59.2544C15.3204 57.0217 10.7132 53.2406 7.47166 48.3893C4.23016 43.5381 2.50001 37.8345 2.50001 32C2.50796 24.1786 5.61853 16.6797 11.1491 11.1491C16.6797 5.61852 24.1786 2.50794 32 2.5ZM32 0C25.671 0 19.4841 1.87677 14.2218 5.39297C8.95939 8.90918 4.85787 13.9069 2.43587 19.7541C0.013865 25.6014 -0.619842 32.0355 0.614885 38.2429C1.84961 44.4503 4.89732 50.1521 9.3726 54.6274C13.8479 59.1027 19.5497 62.1504 25.7571 63.3851C31.9645 64.6199 38.3986 63.9861 44.2459 61.5641C50.0931 59.1421 55.0908 55.0406 58.607 49.7782C62.1232 44.5159 64 38.329 64 32C64 23.5131 60.6286 15.3737 54.6274 9.37258C48.6263 3.37142 40.4869 0 32 0Z" fill="#BA9A63"/>
</g>
<path d="M30.4053 17.5596C30.4053 19.3456 29.8543 23.7156 28.7523 30.6696C27.6503 37.5856 27.0993 42.3166 27.0993 44.8626C27.0993 45.4706 27.2703 46.3446 27.6123 47.4846C27.9543 48.6246 28.1253 49.4416 28.1253 49.9356C28.1253 50.3916 27.8403 50.6196 27.2703 50.6196C25.1423 50.6196 23.9833 50.1636 23.7933 49.2516C23.7173 48.9856 23.4893 48.1876 23.1093 46.8576C22.3873 44.3876 22.0263 42.3926 22.0263 40.8726C22.0263 32.3986 23.6983 22.8226 27.0423 12.1446C27.4223 10.9666 27.7453 10.3776 28.0113 10.3776C28.1253 10.3776 28.3533 10.5486 28.6953 10.8906C29.8353 12.0686 30.4053 14.2916 30.4053 17.5596ZM42.0948 17.5596C42.0948 19.3456 41.5438 23.7156 40.4418 30.6696C39.3398 37.5856 38.7888 42.3166 38.7888 44.8626C38.7888 45.4706 38.9598 46.3446 39.3018 47.4846C39.6438 48.6246 39.8148 49.4416 39.8148 49.9356C39.8148 50.3916 39.5298 50.6196 38.9598 50.6196C36.8318 50.6196 35.6728 50.1636 35.4828 49.2516C35.4068 48.9856 35.1788 48.1876 34.7988 46.8576C34.0768 44.3876 33.7158 42.3926 33.7158 40.8726C33.7158 32.3986 35.3878 22.8226 38.7318 12.1446C39.1118 10.9666 39.4348 10.3776 39.7008 10.3776C39.8148 10.3776 40.0428 10.5486 40.3848 10.8906C41.5248 12.0686 42.0948 14.2916 42.0948 17.5596Z" fill="white"/>
</g>
<defs>
<linearGradient id="paint0_linear_801_147" x1="9.38001" y1="54.62" x2="54.62" y2="9.38001" gradientUnits="userSpaceOnUse">
<stop stop-color="#BA9A63"/>
<stop offset="1" stop-color="#F1EBE0"/>
</linearGradient>
<clipPath id="clip0_801_147">
<rect width="64" height="64" fill="white"/>
</clipPath>
</defs>
</svg>
