<svg width="64" height="65" viewBox="0 0 64 65" fill="none" xmlns="http://www.w3.org/2000/svg">
<g clip-path="url(#clip0_801_165)">
<path d="M32 64.5352C25.671 64.5352 19.4841 62.6584 14.2218 59.1422C8.95939 55.626 4.85787 50.6283 2.43587 44.781C0.013865 38.9338 -0.619842 32.4997 0.614885 26.2923C1.84961 20.0849 4.89732 14.383 9.3726 9.90775C13.8479 5.43247 19.5497 2.38477 25.7571 1.15004C31.9645 -0.0846854 38.3986 0.549021 44.2459 2.97103C50.0931 5.39303 55.0908 9.49455 58.607 14.7569C62.1232 20.0193 64 26.2062 64 32.5352C64 41.0221 60.6286 49.1614 54.6274 55.1626C48.6263 61.1638 40.4869 64.5352 32 64.5352Z" fill="url(#paint0_linear_801_165)"/>
<g opacity="0.4">
<path d="M32 3.03516C37.8346 3.03516 43.5381 4.7653 48.3893 8.0068C53.2406 11.2483 57.0217 15.8556 59.2545 21.246C61.4872 26.6364 62.0714 32.5679 60.9332 38.2903C59.7949 44.0128 56.9853 49.2692 52.8597 53.3948C48.734 57.5205 43.4776 60.3301 37.7552 61.4683C32.0327 62.6066 26.1013 62.0224 20.7109 59.7896C15.3204 57.5568 10.7132 53.7757 7.47166 48.9245C4.23016 44.0732 2.50001 38.3697 2.50001 32.5352C2.50796 24.7137 5.61853 17.2149 11.1491 11.6843C16.6797 6.15368 24.1786 3.0431 32 3.03516ZM32 0.535156C25.671 0.535156 19.4841 2.41192 14.2218 5.92813C8.95939 9.44433 4.85787 14.442 2.43587 20.2893C0.013865 26.1365 -0.619842 32.5707 0.614885 38.778C1.84961 44.9854 4.89732 50.6873 9.3726 55.1626C13.8479 59.6379 19.5497 62.6856 25.7571 63.9203C31.9645 65.155 38.3986 64.5213 44.2459 62.0993C50.0931 59.6773 55.0908 55.5758 58.607 50.3134C62.1232 45.051 64 38.8642 64 32.5352C64 24.0482 60.6286 15.9089 54.6274 9.90774C48.6263 3.90658 40.4869 0.535156 32 0.535156Z" fill="#BA9A63"/>
</g>
<path d="M26.5455 41.2937C27.5715 41.2937 28.0845 42.1677 28.0845 43.9157C28.0845 44.7517 27.7425 45.5117 27.0585 46.1957C24.2085 49.2357 20.6555 50.7557 16.3995 50.7557C15.6015 50.7557 15.0125 50.4707 14.6325 49.9007C13.6065 48.2287 13.0935 46.2147 13.0935 43.8587C13.0935 41.4647 13.2645 39.9447 13.6065 39.2987C13.9865 38.6147 14.3475 38.1017 14.6895 37.7597C17.6155 34.9477 20.0475 32.2117 21.9855 29.5517C23.9615 26.8537 25.5385 23.9087 26.7165 20.7167C26.8685 20.3747 26.9445 20.0137 26.9445 19.6337C26.9445 19.2157 26.9065 18.8737 26.8305 18.6077C26.7545 18.3417 26.6025 18.1327 26.3745 17.9807C26.1845 17.7907 26.0135 17.6387 25.8615 17.5247C25.7095 17.4107 25.4625 17.3157 25.1205 17.2397C24.8165 17.1637 24.5885 17.1067 24.4365 17.0687C23.2205 16.9547 22.1755 16.8977 21.3015 16.8977C20.4275 16.8977 19.8765 17.3537 19.6485 18.2657C19.1165 20.5837 17.8245 22.5217 15.7725 24.0797C15.2025 24.4977 14.6895 24.7067 14.2335 24.7067C13.4735 24.7067 12.8845 24.0227 12.4665 22.6547C12.0485 21.2487 11.8395 20.0327 11.8395 19.0067C11.8395 16.8787 13.2265 14.9597 16.0005 13.2497C15.9245 12.6417 16.1145 12.3377 16.5705 12.3377C16.7225 12.3377 16.9125 12.4137 17.1405 12.5657C19.0405 11.7297 20.7315 11.3117 22.2135 11.3117C23.6955 11.3117 25.1015 11.8627 26.4315 12.9647C26.6975 13.1927 27.0965 13.5347 27.6285 13.9907C28.1985 14.4087 28.7495 14.8647 29.2815 15.3587C29.8135 15.8147 30.3075 16.6507 30.7635 17.8667C31.2195 19.0827 31.4475 20.4317 31.4475 21.9137C31.4475 23.3957 30.8775 25.3907 29.7375 27.8987C27.6475 32.4967 24.9115 36.6957 21.5295 40.4957C21.2635 40.9137 21.1305 41.1417 21.1305 41.1797C21.1305 41.4457 21.8145 41.5787 23.1825 41.5787L26.5455 41.2937ZM47.6421 41.2937C48.6681 41.2937 49.1811 42.1677 49.1811 43.9157C49.1811 44.7517 48.8391 45.5117 48.1551 46.1957C45.3051 49.2357 41.7521 50.7557 37.4961 50.7557C36.6981 50.7557 36.1091 50.4707 35.7291 49.9007C34.7031 48.2287 34.1901 46.2147 34.1901 43.8587C34.1901 41.4647 34.3611 39.9447 34.7031 39.2987C35.0831 38.6147 35.4441 38.1017 35.7861 37.7597C38.7121 34.9477 41.1441 32.2117 43.0821 29.5517C45.0581 26.8537 46.6351 23.9087 47.8131 20.7167C47.9651 20.3747 48.0411 20.0137 48.0411 19.6337C48.0411 19.2157 48.0031 18.8737 47.9271 18.6077C47.8511 18.3417 47.6991 18.1327 47.4711 17.9807C47.2811 17.7907 47.1101 17.6387 46.9581 17.5247C46.8061 17.4107 46.5591 17.3157 46.2171 17.2397C45.9131 17.1637 45.6851 17.1067 45.5331 17.0687C44.3171 16.9547 43.2721 16.8977 42.3981 16.8977C41.5241 16.8977 40.9731 17.3537 40.7451 18.2657C40.2131 20.5837 38.9211 22.5217 36.8691 24.0797C36.2991 24.4977 35.7861 24.7067 35.3301 24.7067C34.5701 24.7067 33.9811 24.0227 33.5631 22.6547C33.1451 21.2487 32.9361 20.0327 32.9361 19.0067C32.9361 16.8787 34.3231 14.9597 37.0971 13.2497C37.0211 12.6417 37.2111 12.3377 37.6671 12.3377C37.8191 12.3377 38.0091 12.4137 38.2371 12.5657C40.1371 11.7297 41.8281 11.3117 43.3101 11.3117C44.7921 11.3117 46.1981 11.8627 47.5281 12.9647C47.7941 13.1927 48.1931 13.5347 48.7251 13.9907C49.2951 14.4087 49.8461 14.8647 50.3781 15.3587C50.9101 15.8147 51.4041 16.6507 51.8601 17.8667C52.3161 19.0827 52.5441 20.4317 52.5441 21.9137C52.5441 23.3957 51.9741 25.3907 50.8341 27.8987C48.7441 32.4967 46.0081 36.6957 42.6261 40.4957C42.3601 40.9137 42.2271 41.1417 42.2271 41.1797C42.2271 41.4457 42.9111 41.5787 44.2791 41.5787L47.6421 41.2937Z" fill="white"/>
</g>
<defs>
<linearGradient id="paint0_linear_801_165" x1="9.38001" y1="55.1552" x2="54.62" y2="9.91517" gradientUnits="userSpaceOnUse">
<stop stop-color="#BA9A63"/>
<stop offset="1" stop-color="#F1EBE0"/>
</linearGradient>
<clipPath id="clip0_801_165">
<rect width="64" height="64" fill="white" transform="translate(0 0.535156)"/>
</clipPath>
</defs>
</svg>
