<svg width="65" height="65" viewBox="0 0 65 65" fill="none" xmlns="http://www.w3.org/2000/svg">
<g clip-path="url(#clip0_801_135)">
<path d="M32.4561 64.5352C26.1271 64.5352 19.9402 62.6584 14.6778 59.1422C9.41545 55.626 5.31393 50.6283 2.89192 44.781C0.46992 38.9338 -0.163787 32.4997 1.07094 26.2923C2.30567 20.0849 5.35337 14.383 9.82865 9.90775C14.3039 5.43247 20.0058 2.38477 26.2132 1.15004C32.4206 -0.0846854 38.8547 0.549021 44.7019 2.97103C50.5492 5.39303 55.5469 9.49455 59.0631 14.7569C62.5793 20.0193 64.4561 26.2062 64.4561 32.5352C64.4561 41.0221 61.0847 49.1614 55.0835 55.1626C49.0823 61.1638 40.943 64.5352 32.4561 64.5352Z" fill="url(#paint0_linear_801_135)"/>
<g opacity="0.4">
<path d="M32.4561 3.03516C38.2906 3.03516 43.9941 4.7653 48.8454 8.0068C53.6966 11.2483 57.4777 15.8556 59.7105 21.246C61.9433 26.6364 62.5275 32.5679 61.3892 38.2903C60.251 44.0128 57.4414 49.2692 53.3157 53.3948C49.1901 57.5205 43.9337 60.3301 38.2112 61.4683C32.4888 62.6066 26.5573 62.0224 21.1669 59.7896C15.7765 57.5568 11.1692 53.7757 7.92772 48.9245C4.68621 44.0732 2.95607 38.3697 2.95607 32.5352C2.96401 24.7137 6.07459 17.2149 11.6052 11.6843C17.1358 6.15368 24.6346 3.0431 32.4561 3.03516ZM32.4561 0.535156C26.1271 0.535156 19.9402 2.41192 14.6778 5.92813C9.41545 9.44433 5.31393 14.442 2.89192 20.2893C0.46992 26.1365 -0.163787 32.5707 1.07094 38.778C2.30567 44.9854 5.35337 50.6873 9.82865 55.1626C14.3039 59.6379 20.0058 62.6856 26.2132 63.9203C32.4206 65.155 38.8547 64.5213 44.7019 62.0993C50.5492 59.6773 55.5469 55.5758 59.0631 50.3134C62.5793 45.051 64.4561 38.8642 64.4561 32.5352C64.4561 24.0482 61.0847 15.9089 55.0835 9.90774C49.0823 3.90658 40.943 0.535156 32.4561 0.535156Z" fill="#BA9A63"/>
</g>
<path d="M38.3882 14.9027C40.2502 16.9547 41.1812 19.1587 41.1812 21.5147C41.1812 23.8327 39.4712 27.0627 36.0512 31.2047C38.9772 34.2447 40.4402 38.0447 40.4402 42.6047C40.4402 45.5687 39.6802 47.8297 38.1602 49.3877C36.6782 50.9077 34.4742 51.6677 31.5482 51.6677C27.5582 51.6677 24.8222 49.9387 23.3402 46.4807C22.6182 44.6947 22.2572 43.1557 22.2572 41.8637C22.2572 40.5717 22.4852 39.3367 22.9412 38.1587C23.3972 36.9807 24.1192 35.7837 25.1072 34.5677C26.3612 32.9717 28.0522 31.1097 30.1802 28.9817C28.0522 26.2837 26.9882 23.8517 26.9882 21.6857C26.9882 18.9877 28.3752 16.0807 31.1492 12.9647C32.7072 11.2547 34.2082 10.3997 35.6522 10.3997C36.4122 10.3997 37.0772 10.6847 37.6472 11.2547C37.9892 11.5967 38.1982 12.0907 38.2742 12.7367C38.3502 13.3447 38.4262 13.9907 38.5022 14.6747L38.3882 14.9027ZM37.8182 18.7787C37.8182 18.2087 37.3622 17.6387 36.4502 17.0687C33.6762 19.3867 31.9852 20.9257 31.3772 21.6857C30.9972 22.0657 30.8072 22.5597 30.8072 23.1677C30.8072 23.7757 31.3582 24.9537 32.4602 26.7017C34.9302 24.1557 36.6592 21.7617 37.6472 19.5197C37.7612 19.2917 37.8182 19.0447 37.8182 18.7787ZM35.8232 41.6927C36.7732 41.0847 37.2482 40.2297 37.2482 39.1277C37.2482 37.9877 36.1462 36.1257 33.9422 33.5417C33.1442 34.4157 31.8712 35.6887 30.1232 37.3607C28.4132 39.0327 27.2732 40.1917 26.7032 40.8377C26.1332 41.4837 25.8482 41.9587 25.8482 42.2627C25.8482 42.9467 27.1972 43.2887 29.8952 43.2887C32.2512 43.2887 34.2272 42.7567 35.8232 41.6927Z" fill="white"/>
</g>
<defs>
<linearGradient id="paint0_linear_801_135" x1="9.83607" y1="55.1552" x2="55.0761" y2="9.91517" gradientUnits="userSpaceOnUse">
<stop stop-color="#BA9A63"/>
<stop offset="1" stop-color="#F1EBE0"/>
</linearGradient>
<clipPath id="clip0_801_135">
<rect width="64" height="64" fill="white" transform="translate(0.456055 0.535156)"/>
</clipPath>
</defs>
</svg>
