<svg width="65" height="64" viewBox="0 0 65 64" fill="none" xmlns="http://www.w3.org/2000/svg">
<g clip-path="url(#clip0_801_77)">
<path d="M32.4561 64C26.1271 64 19.9402 62.1232 14.6778 58.607C9.41545 55.0908 5.31393 50.0931 2.89192 44.2459C0.46992 38.3986 -0.163787 31.9645 1.07094 25.7571C2.30567 19.5497 5.35337 13.8479 9.82865 9.3726C14.3039 4.89732 20.0058 1.84961 26.2132 0.614885C32.4206 -0.619842 38.8547 0.013865 44.7019 2.43587C50.5492 4.85787 55.5469 8.95939 59.0631 14.2218C62.5793 19.4841 64.4561 25.671 64.4561 32C64.4561 40.4869 61.0847 48.6263 55.0835 54.6274C49.0823 60.6286 40.943 64 32.4561 64Z" fill="url(#paint0_linear_801_77)"/>
<g opacity="0.4">
<path d="M32.4561 2.5C38.2906 2.5 43.9941 4.23014 48.8454 7.47165C53.6966 10.7131 57.4777 15.3204 59.7105 20.7108C61.9433 26.1013 62.5275 32.0327 61.3892 37.7552C60.251 43.4776 57.4414 48.734 53.3157 52.8596C49.1901 56.9853 43.9337 59.7949 38.2112 60.9332C32.4888 62.0714 26.5573 61.4872 21.1669 59.2544C15.7765 57.0217 11.1692 53.2406 7.92772 48.3893C4.68621 43.5381 2.95607 37.8345 2.95607 32C2.96401 24.1786 6.07459 16.6797 11.6052 11.1491C17.1358 5.61852 24.6346 2.50794 32.4561 2.5ZM32.4561 0C26.1271 0 19.9402 1.87677 14.6778 5.39297C9.41545 8.90918 5.31393 13.9069 2.89192 19.7541C0.46992 25.6014 -0.163787 32.0355 1.07094 38.2429C2.30567 44.4503 5.35337 50.1521 9.82865 54.6274C14.3039 59.1027 20.0058 62.1504 26.2132 63.3851C32.4206 64.6199 38.8547 63.9861 44.7019 61.5641C50.5492 59.1421 55.5469 55.0406 59.0631 49.7782C62.5793 44.5159 64.4561 38.329 64.4561 32C64.4561 23.5131 61.0847 15.3737 55.0835 9.37258C49.0823 3.37142 40.943 0 32.4561 0Z" fill="#BA9A63"/>
</g>
<path d="M38.8912 40.7586C39.9172 40.7586 40.4302 41.6326 40.4302 43.3806C40.4302 44.2166 40.0882 44.9766 39.4042 45.6606C36.5542 48.7006 33.0012 50.2206 28.7452 50.2206C27.9472 50.2206 27.3582 49.9356 26.9782 49.3656C25.9522 47.6936 25.4392 45.6796 25.4392 43.3236C25.4392 40.9296 25.6102 39.4096 25.9522 38.7636C26.3322 38.0796 26.6932 37.5666 27.0352 37.2246C29.9612 34.4126 32.3932 31.6766 34.3312 29.0166C36.3072 26.3186 37.8842 23.3736 39.0622 20.1816C39.2142 19.8396 39.2902 19.4786 39.2902 19.0986C39.2902 18.6806 39.2522 18.3386 39.1762 18.0726C39.1002 17.8066 38.9482 17.5976 38.7202 17.4456C38.5302 17.2556 38.3592 17.1036 38.2072 16.9896C38.0552 16.8756 37.8082 16.7806 37.4662 16.7046C37.1622 16.6286 36.9342 16.5716 36.7822 16.5336C35.5662 16.4196 34.5212 16.3626 33.6472 16.3626C32.7732 16.3626 32.2222 16.8186 31.9942 17.7306C31.4622 20.0486 30.1702 21.9866 28.1182 23.5446C27.5482 23.9626 27.0352 24.1716 26.5792 24.1716C25.8192 24.1716 25.2302 23.4876 24.8122 22.1196C24.3942 20.7136 24.1852 19.4976 24.1852 18.4716C24.1852 16.3436 25.5722 14.4246 28.3462 12.7146C28.2702 12.1066 28.4602 11.8026 28.9162 11.8026C29.0682 11.8026 29.2582 11.8786 29.4862 12.0306C31.3862 11.1946 33.0772 10.7766 34.5592 10.7766C36.0412 10.7766 37.4472 11.3276 38.7772 12.4296C39.0432 12.6576 39.4422 12.9996 39.9742 13.4556C40.5442 13.8736 41.0952 14.3296 41.6272 14.8236C42.1592 15.2796 42.6532 16.1156 43.1092 17.3316C43.5652 18.5476 43.7932 19.8966 43.7932 21.3786C43.7932 22.8606 43.2232 24.8556 42.0832 27.3636C39.9932 31.9616 37.2572 36.1606 33.8752 39.9606C33.6092 40.3786 33.4762 40.6066 33.4762 40.6446C33.4762 40.9106 34.1602 41.0436 35.5282 41.0436L38.8912 40.7586Z" fill="white"/>
</g>
<defs>
<linearGradient id="paint0_linear_801_77" x1="9.83607" y1="54.62" x2="55.0761" y2="9.38001" gradientUnits="userSpaceOnUse">
<stop stop-color="#BA9A63"/>
<stop offset="1" stop-color="#F1EBE0"/>
</linearGradient>
<clipPath id="clip0_801_77">
<rect width="64" height="64" fill="white" transform="translate(0.456055)"/>
</clipPath>
</defs>
</svg>
