<svg width="64" height="64" viewBox="0 0 64 64" fill="none" xmlns="http://www.w3.org/2000/svg">
<g clip-path="url(#clip0_801_83)">
<path d="M32 64C25.671 64 19.4841 62.1232 14.2218 58.607C8.95939 55.0908 4.85787 50.0931 2.43587 44.2459C0.013865 38.3986 -0.619842 31.9645 0.614885 25.7571C1.84961 19.5497 4.89732 13.8479 9.3726 9.3726C13.8479 4.89732 19.5497 1.84961 25.7571 0.614885C31.9645 -0.619842 38.3986 0.013865 44.2459 2.43587C50.0931 4.85787 55.0908 8.95939 58.607 14.2218C62.1232 19.4841 64 25.671 64 32C64 40.4869 60.6286 48.6263 54.6274 54.6274C48.6263 60.6286 40.4869 64 32 64Z" fill="url(#paint0_linear_801_83)"/>
<g opacity="0.4">
<path d="M32 2.5C37.8346 2.5 43.5381 4.23014 48.3893 7.47165C53.2406 10.7131 57.0217 15.3204 59.2545 20.7108C61.4872 26.1013 62.0714 32.0327 60.9332 37.7552C59.7949 43.4776 56.9853 48.734 52.8597 52.8596C48.734 56.9853 43.4776 59.7949 37.7552 60.9332C32.0327 62.0714 26.1013 61.4872 20.7109 59.2544C15.3204 57.0217 10.7132 53.2406 7.47166 48.3893C4.23016 43.5381 2.50001 37.8345 2.50001 32C2.50796 24.1786 5.61853 16.6797 11.1491 11.1491C16.6797 5.61852 24.1786 2.50794 32 2.5ZM32 0C25.671 0 19.4841 1.87677 14.2218 5.39297C8.95939 8.90918 4.85787 13.9069 2.43587 19.7541C0.013865 25.6014 -0.619842 32.0355 0.614885 38.2429C1.84961 44.4503 4.89732 50.1521 9.3726 54.6274C13.8479 59.1027 19.5497 62.1504 25.7571 63.3851C31.9645 64.6199 38.3986 63.9861 44.2459 61.5641C50.0931 59.1421 55.0908 55.0406 58.607 49.7782C62.1232 44.5159 64 38.329 64 32C64 23.5131 60.6286 15.3737 54.6274 9.37258C48.6263 3.37142 40.4869 0 32 0Z" fill="#BA9A63"/>
</g>
<path d="M26.5221 26.8506C26.5221 26.5466 26.5791 26.3566 26.6931 26.2806C26.8451 26.1666 27.0161 26.0716 27.2061 25.9956C27.4341 25.8816 27.5671 25.8056 27.6051 25.7676C31.0251 23.9436 33.4761 21.2076 34.9581 17.5596C35.0721 17.3316 35.1291 17.0276 35.1291 16.6476C35.1291 16.0776 34.6351 15.7926 33.6471 15.7926C33.1911 15.7926 32.8301 15.8116 32.5641 15.8496C32.4881 16.9896 31.4241 17.9966 29.3721 18.8706C27.3581 19.7066 26.2181 20.1246 25.9521 20.1246C24.7361 20.1246 24.1281 18.9086 24.1281 16.4766L24.2991 13.7406C24.3371 12.9426 24.7171 12.3726 25.4391 12.0306C26.6931 11.5366 28.0421 11.0996 29.4861 10.7196C29.3721 10.4156 29.3151 10.1116 29.3151 9.80758C29.3151 9.50358 29.4101 9.35158 29.6001 9.35158C29.8281 9.35158 30.0181 9.40858 30.1701 9.52258C30.3221 9.59858 30.4931 9.76958 30.6831 10.0356C30.8731 10.2636 31.0061 10.4156 31.0821 10.4916C31.4621 10.4156 32.0321 10.3776 32.7921 10.3776C34.2361 10.3776 35.6801 11.0996 37.1241 12.5436C37.3521 12.7716 37.6371 13.1706 37.9791 13.7406C38.3591 14.3106 38.6631 14.7286 38.8911 14.9946C39.7651 15.9826 40.2021 17.2556 40.2021 18.8136C40.2021 20.3336 39.7651 21.9296 38.8911 23.6016C38.0171 25.2736 37.1241 26.6606 36.2121 27.7626C35.3381 28.8266 34.9011 29.4536 34.9011 29.6436C34.9011 29.8336 35.3951 30.4226 36.3831 31.4106C37.4091 32.3986 38.4351 33.7096 39.4611 35.3436C40.4871 36.9776 41.0001 38.5736 41.0001 40.1316C41.0001 41.6896 40.6201 43.2286 39.8601 44.7486C38.1121 48.2446 34.8821 50.5056 30.1701 51.5316C29.6001 51.6456 29.0681 51.7026 28.5741 51.7026C28.1181 51.7026 27.6621 51.6456 27.2061 51.5316C26.7881 51.4176 26.4271 51.2086 26.1231 50.9046C25.8191 50.6006 25.5341 50.3346 25.2681 50.1066C25.0401 49.8786 24.8501 49.4986 24.6981 48.9666C24.5461 48.4346 24.4131 48.0356 24.2991 47.7696C24.1851 47.5036 24.0901 47.0286 24.0141 46.3446C23.9381 45.6606 23.9001 45.2236 23.9001 45.0336C23.7861 43.9696 23.7291 43.0576 23.7291 42.2976V41.9556C23.7291 41.0056 24.2801 40.3976 25.3821 40.1316C26.0661 39.9796 27.0351 39.8276 28.2891 39.6756C29.5431 39.4856 30.3221 39.3526 30.6261 39.2766C30.9681 39.2006 31.2151 39.1626 31.3671 39.1626C31.5191 39.1626 31.5951 39.3146 31.5951 39.6186C31.5951 39.8846 31.2341 40.5306 30.5121 41.5566C29.7901 42.5826 29.4291 43.1526 29.4291 43.2666C29.4291 43.3426 29.4861 43.3806 29.6001 43.3806C29.7521 43.3806 29.9991 43.3236 30.3411 43.2096C33.5711 42.0696 35.1861 40.3026 35.1861 37.9086C35.1861 36.7686 34.7301 35.7426 33.8181 34.8306C32.9441 33.8806 31.9371 33.4056 30.7971 33.4056C30.3791 33.4056 29.7711 33.5766 28.9731 33.9186C28.1751 34.2226 27.6051 34.3746 27.2631 34.3746C26.9211 34.3746 26.7121 34.1276 26.6361 33.6336C26.5981 33.1396 26.5791 32.3036 26.5791 31.1256L26.5221 26.8506Z" fill="white"/>
</g>
<defs>
<linearGradient id="paint0_linear_801_83" x1="9.38001" y1="54.62" x2="54.62" y2="9.38001" gradientUnits="userSpaceOnUse">
<stop stop-color="#BA9A63"/>
<stop offset="1" stop-color="#F1EBE0"/>
</linearGradient>
<clipPath id="clip0_801_83">
<rect width="64" height="64" fill="white"/>
</clipPath>
</defs>
</svg>
