<svg width="64" height="64" viewBox="0 0 64 64" fill="none" xmlns="http://www.w3.org/2000/svg">
<g clip-path="url(#clip0_801_171)">
<path d="M32 64C25.671 64 19.4841 62.1232 14.2218 58.607C8.95939 55.0908 4.85787 50.0931 2.43587 44.2459C0.013865 38.3986 -0.619842 31.9645 0.614885 25.7571C1.84961 19.5497 4.89732 13.8479 9.3726 9.3726C13.8479 4.89732 19.5497 1.84961 25.7571 0.614885C31.9645 -0.619842 38.3986 0.013865 44.2459 2.43587C50.0931 4.85787 55.0908 8.95939 58.607 14.2218C62.1232 19.4841 64 25.671 64 32C64 40.4869 60.6286 48.6263 54.6274 54.6274C48.6263 60.6286 40.4869 64 32 64Z" fill="url(#paint0_linear_801_171)"/>
<g opacity="0.4">
<path d="M32 2.5C37.8346 2.5 43.5381 4.23014 48.3893 7.47165C53.2406 10.7131 57.0217 15.3204 59.2545 20.7108C61.4872 26.1013 62.0714 32.0327 60.9332 37.7552C59.7949 43.4776 56.9853 48.734 52.8597 52.8596C48.734 56.9853 43.4776 59.7949 37.7552 60.9332C32.0327 62.0714 26.1013 61.4872 20.7109 59.2544C15.3204 57.0217 10.7132 53.2406 7.47166 48.3893C4.23016 43.5381 2.50001 37.8345 2.50001 32C2.50796 24.1786 5.61853 16.6797 11.1491 11.1491C16.6797 5.61852 24.1786 2.50794 32 2.5ZM32 0C25.671 0 19.4841 1.87677 14.2218 5.39297C8.95939 8.90918 4.85787 13.9069 2.43587 19.7541C0.013865 25.6014 -0.619842 32.0355 0.614885 38.2429C1.84961 44.4503 4.89732 50.1521 9.3726 54.6274C13.8479 59.1027 19.5497 62.1504 25.7571 63.3851C31.9645 64.6199 38.3986 63.9861 44.2459 61.5641C50.0931 59.1421 55.0908 55.0406 58.607 49.7782C62.1232 44.5159 64 38.329 64 32C64 23.5131 60.6286 15.3737 54.6274 9.37258C48.6263 3.37142 40.4869 0 32 0Z" fill="#BA9A63"/>
</g>
<path d="M16.0231 26.8506C16.0231 26.5466 16.0801 26.3566 16.1941 26.2806C16.3461 26.1666 16.5171 26.0716 16.7071 25.9956C16.9351 25.8816 17.0681 25.8056 17.1061 25.7676C20.5261 23.9436 22.9771 21.2076 24.4591 17.5596C24.5731 17.3316 24.6301 17.0276 24.6301 16.6476C24.6301 16.0776 24.1361 15.7926 23.1481 15.7926C22.6921 15.7926 22.3311 15.8116 22.0651 15.8496C21.9891 16.9896 20.9251 17.9966 18.8731 18.8706C16.8591 19.7066 15.7191 20.1246 15.4531 20.1246C14.2371 20.1246 13.6291 18.9086 13.6291 16.4766L13.8001 13.7406C13.8381 12.9426 14.2181 12.3726 14.9401 12.0306C16.1941 11.5366 17.5431 11.0996 18.9871 10.7196C18.8731 10.4156 18.8161 10.1116 18.8161 9.80758C18.8161 9.50358 18.9111 9.35158 19.1011 9.35158C19.3291 9.35158 19.5191 9.40858 19.6711 9.52258C19.8231 9.59858 19.9941 9.76958 20.1841 10.0356C20.3741 10.2636 20.5071 10.4156 20.5831 10.4916C20.9631 10.4156 21.5331 10.3776 22.2931 10.3776C23.7371 10.3776 25.1811 11.0996 26.6251 12.5436C26.8531 12.7716 27.1381 13.1706 27.4801 13.7406C27.8601 14.3106 28.1641 14.7286 28.3921 14.9946C29.2661 15.9826 29.7031 17.2556 29.7031 18.8136C29.7031 20.3336 29.2661 21.9296 28.3921 23.6016C27.5181 25.2736 26.6251 26.6606 25.7131 27.7626C24.8391 28.8266 24.4021 29.4536 24.4021 29.6436C24.4021 29.8336 24.8961 30.4226 25.8841 31.4106C26.9101 32.3986 27.9361 33.7096 28.9621 35.3436C29.9881 36.9776 30.5011 38.5736 30.5011 40.1316C30.5011 41.6896 30.1211 43.2286 29.3611 44.7486C27.6131 48.2446 24.3831 50.5056 19.6711 51.5316C19.1011 51.6456 18.5691 51.7026 18.0751 51.7026C17.6191 51.7026 17.1631 51.6456 16.7071 51.5316C16.2891 51.4176 15.9281 51.2086 15.6241 50.9046C15.3201 50.6006 15.0351 50.3346 14.7691 50.1066C14.5411 49.8786 14.3511 49.4986 14.1991 48.9666C14.0471 48.4346 13.9141 48.0356 13.8001 47.7696C13.6861 47.5036 13.5911 47.0286 13.5151 46.3446C13.4391 45.6606 13.4011 45.2236 13.4011 45.0336C13.2871 43.9696 13.2301 43.0576 13.2301 42.2976V41.9556C13.2301 41.0056 13.7811 40.3976 14.8831 40.1316C15.5671 39.9796 16.5361 39.8276 17.7901 39.6756C19.0441 39.4856 19.8231 39.3526 20.1271 39.2766C20.4691 39.2006 20.7161 39.1626 20.8681 39.1626C21.0201 39.1626 21.0961 39.3146 21.0961 39.6186C21.0961 39.8846 20.7351 40.5306 20.0131 41.5566C19.2911 42.5826 18.9301 43.1526 18.9301 43.2666C18.9301 43.3426 18.9871 43.3806 19.1011 43.3806C19.2531 43.3806 19.5001 43.3236 19.8421 43.2096C23.0721 42.0696 24.6871 40.3026 24.6871 37.9086C24.6871 36.7686 24.2311 35.7426 23.3191 34.8306C22.4451 33.8806 21.4381 33.4056 20.2981 33.4056C19.8801 33.4056 19.2721 33.5766 18.4741 33.9186C17.6761 34.2226 17.1061 34.3746 16.7641 34.3746C16.4221 34.3746 16.2131 34.1276 16.1371 33.6336C16.0991 33.1396 16.0801 32.3036 16.0801 31.1256L16.0231 26.8506ZM36.5631 26.8506C36.5631 26.5466 36.6201 26.3566 36.7341 26.2806C36.8861 26.1666 37.0571 26.0716 37.2471 25.9956C37.4751 25.8816 37.6081 25.8056 37.6461 25.7676C41.0661 23.9436 43.5171 21.2076 44.9991 17.5596C45.1131 17.3316 45.1701 17.0276 45.1701 16.6476C45.1701 16.0776 44.6761 15.7926 43.6881 15.7926C43.2321 15.7926 42.8711 15.8116 42.6051 15.8496C42.5291 16.9896 41.4651 17.9966 39.4131 18.8706C37.3991 19.7066 36.2591 20.1246 35.9931 20.1246C34.7771 20.1246 34.1691 18.9086 34.1691 16.4766L34.3401 13.7406C34.3781 12.9426 34.7581 12.3726 35.4801 12.0306C36.7341 11.5366 38.0831 11.0996 39.5271 10.7196C39.4131 10.4156 39.3561 10.1116 39.3561 9.80758C39.3561 9.50358 39.4511 9.35158 39.6411 9.35158C39.8691 9.35158 40.0591 9.40858 40.2111 9.52258C40.3631 9.59858 40.5341 9.76958 40.7241 10.0356C40.9141 10.2636 41.0471 10.4156 41.1231 10.4916C41.5031 10.4156 42.0731 10.3776 42.8331 10.3776C44.2771 10.3776 45.7211 11.0996 47.1651 12.5436C47.3931 12.7716 47.6781 13.1706 48.0201 13.7406C48.4001 14.3106 48.7041 14.7286 48.9321 14.9946C49.8061 15.9826 50.2431 17.2556 50.2431 18.8136C50.2431 20.3336 49.8061 21.9296 48.9321 23.6016C48.0581 25.2736 47.1651 26.6606 46.2531 27.7626C45.3791 28.8266 44.9421 29.4536 44.9421 29.6436C44.9421 29.8336 45.4361 30.4226 46.4241 31.4106C47.4501 32.3986 48.4761 33.7096 49.5021 35.3436C50.5281 36.9776 51.0411 38.5736 51.0411 40.1316C51.0411 41.6896 50.6611 43.2286 49.9011 44.7486C48.1531 48.2446 44.9231 50.5056 40.2111 51.5316C39.6411 51.6456 39.1091 51.7026 38.6151 51.7026C38.1591 51.7026 37.7031 51.6456 37.2471 51.5316C36.8291 51.4176 36.4681 51.2086 36.1641 50.9046C35.8601 50.6006 35.5751 50.3346 35.3091 50.1066C35.0811 49.8786 34.8911 49.4986 34.7391 48.9666C34.5871 48.4346 34.4541 48.0356 34.3401 47.7696C34.2261 47.5036 34.1311 47.0286 34.0551 46.3446C33.9791 45.6606 33.9411 45.2236 33.9411 45.0336C33.8271 43.9696 33.7701 43.0576 33.7701 42.2976V41.9556C33.7701 41.0056 34.3211 40.3976 35.4231 40.1316C36.1071 39.9796 37.0761 39.8276 38.3301 39.6756C39.5841 39.4856 40.3631 39.3526 40.6671 39.2766C41.0091 39.2006 41.2561 39.1626 41.4081 39.1626C41.5601 39.1626 41.6361 39.3146 41.6361 39.6186C41.6361 39.8846 41.2751 40.5306 40.5531 41.5566C39.8311 42.5826 39.4701 43.1526 39.4701 43.2666C39.4701 43.3426 39.5271 43.3806 39.6411 43.3806C39.7931 43.3806 40.0401 43.3236 40.3821 43.2096C43.6121 42.0696 45.2271 40.3026 45.2271 37.9086C45.2271 36.7686 44.7711 35.7426 43.8591 34.8306C42.9851 33.8806 41.9781 33.4056 40.8381 33.4056C40.4201 33.4056 39.8121 33.5766 39.0141 33.9186C38.2161 34.2226 37.6461 34.3746 37.3041 34.3746C36.9621 34.3746 36.7531 34.1276 36.6771 33.6336C36.6391 33.1396 36.6201 32.3036 36.6201 31.1256L36.5631 26.8506Z" fill="white"/>
</g>
<defs>
<linearGradient id="paint0_linear_801_171" x1="9.38001" y1="54.62" x2="54.62" y2="9.38001" gradientUnits="userSpaceOnUse">
<stop stop-color="#BA9A63"/>
<stop offset="1" stop-color="#F1EBE0"/>
</linearGradient>
<clipPath id="clip0_801_171">
<rect width="64" height="64" fill="white"/>
</clipPath>
</defs>
</svg>
