<svg width="40" height="40" viewBox="0 0 30 31" fill="none" xmlns="http://www.w3.org/2000/svg">
<g clip-path="url(#clip0_844_48)">
<path d="M15.0001 24.0021C19.4695 24.0021 23.1057 20.366 23.1057 15.8966C23.1057 11.4272 19.4695 7.79102 15.0001 7.79102C10.5307 7.79102 6.89453 11.4272 6.89453 15.8966C6.89453 20.366 10.5306 24.0021 15.0001 24.0021ZM13.1078 11.2677C13.7837 11.2677 14.4351 11.4532 15.0001 11.7995C15.5651 11.4532 16.2166 11.2677 16.8925 11.2677C18.8928 11.2677 20.5202 12.8951 20.5202 14.8954C20.5202 15.9741 20.1295 16.8542 19.3257 17.5861C18.7305 18.1281 15.0001 21.4734 15.0001 21.4734C15.0001 21.4734 11.2698 18.1281 10.6745 17.5862C9.87074 16.8544 9.48004 15.9742 9.48004 14.8954C9.48004 12.8951 11.1074 11.2677 13.1078 11.2677Z" fill="#BA9A63"/>
<path d="M11.8578 16.2863C12.289 16.6788 14.0626 18.2709 15 19.112C15.9375 18.2709 17.7111 16.6788 18.1422 16.2863C18.5827 15.8852 18.7623 15.4822 18.7623 14.8953C18.7623 13.8642 17.9235 13.0254 16.8924 13.0254C16.4112 13.0254 15.9541 13.2078 15.6052 13.539L15 14.1137L14.3948 13.539C14.0461 13.2078 13.5889 13.0254 13.1077 13.0254C12.0766 13.0254 11.2378 13.8643 11.2378 14.8954C11.2378 15.4823 11.4174 15.8853 11.8578 16.2863Z" fill="#BA9A63"/>
<path d="M20.6712 23.9627L21.653 25.6632L20.1307 26.5421L19.1502 24.8438C18.1403 25.3142 17.0381 25.6183 15.8788 25.7212V27.6814H14.121V25.7212C12.9617 25.6183 11.8596 25.3142 10.8496 24.8438L9.8691 26.5421L8.34684 25.6632L9.32863 23.9627C7.35402 22.5701 5.91168 20.4716 5.37109 18.0373V27.6748C5.37109 29.4518 6.81678 30.8974 8.59375 30.8974H21.4063C23.1832 30.8974 24.6289 29.4518 24.6289 27.6748V18.0371C24.0883 20.4714 22.6459 22.57 20.6712 23.9627Z" fill="#BA9A63"/>
<path d="M9.32863 7.83123L8.34684 6.13072L9.8691 5.25182L10.8496 6.95016C11.8596 6.47977 12.9617 6.17561 14.121 6.07271V4.11246H15.8788V6.07266C17.0381 6.17555 18.1403 6.47971 19.1502 6.9501L20.1307 5.25176L21.653 6.13066L20.6712 7.83117C22.6459 9.22383 24.0883 11.3224 24.6288 13.7568V4.11914C24.6288 2.34217 23.1831 0.896484 21.4062 0.896484H8.59375C6.81678 0.896484 5.37109 2.34217 5.37109 4.11914V13.7566C5.91168 11.3224 7.35402 9.22383 9.32863 7.83123Z" fill="#BA9A63"/>
</g>
<defs>
<clipPath id="clip0_844_48">
<rect width="30" height="30" fill="white" transform="translate(0 0.896484)"/>
</clipPath>
</defs>
</svg>
