<svg width="40" height="40" viewBox="0 0 40 40" fill="none" xmlns="http://www.w3.org/2000/svg">
<path d="M3.0625 34.9375H36.9375V39.375H3.0625V34.9375Z" stroke="black" stroke-miterlimit="10" stroke-linecap="round" stroke-linejoin="round"/>
<path d="M34.6875 34.9375H5.3125V32.3125C5.3125 31.3125 6.125 30.5625 7.0625 30.5625H32.8125C33.8125 30.5625 34.5625 31.375 34.5625 32.3125V34.9375H34.6875Z" stroke="black" stroke-miterlimit="10" stroke-linecap="round" stroke-linejoin="round"/>
<path d="M32.125 27.25V30.125H7.875V27.25C7.875 26.375 8.5625 25.6875 9.4375 25.6875H30.5625C31.4375 25.6875 32.125 26.4375 32.125 27.25Z" stroke="black" stroke-miterlimit="10" stroke-linecap="round" stroke-linejoin="round"/>
<path d="M34.6875 15.125C34.6875 19.3125 32.9375 23.0625 30.0625 25.75H10.3125C7.4375 23.125 5.6875 19.3125 5.6875 15.125C5.6875 7.125 12.1875 0.625 20.1875 0.625C28.1875 0.625 34.6875 7.125 34.6875 15.125Z" stroke="black" stroke-miterlimit="10" stroke-linecap="round" stroke-linejoin="round"/>
<path d="M8.8125 15.125C8.8125 8.875 13.875 3.75 20.1875 3.75" stroke="black" stroke-miterlimit="10" stroke-linecap="round" stroke-linejoin="round"/>
<path d="M26.5 10.25L27.6875 12.6875L30.375 13.125L28.4375 15L28.9375 17.6875L26.5 16.4375L24.125 17.6875L24.5625 15L22.625 13.125L25.3125 12.6875L26.5 10.25Z" stroke="black" stroke-miterlimit="10" stroke-linecap="round" stroke-linejoin="round"/>
<path d="M15.5 14L16.75 16.4375L19.4375 16.8125L17.4375 18.6875L17.9375 21.375L15.5 20.125L13.125 21.375L13.5625 18.6875L11.625 16.8125L14.3125 16.4375L15.5 14Z" stroke="black" stroke-miterlimit="10" stroke-linecap="round" stroke-linejoin="round"/>
</svg>
