<svg width="40" height="40" viewBox="0 0 30 31" fill="none" xmlns="http://www.w3.org/2000/svg">
<path d="M25.3526 8.75072H19.1254L15.9947 3.69575C15.5648 3.00024 14.4365 2.99947 14.0054 3.69575L10.8744 8.75072H4.64754C3.73792 8.75072 3.17512 9.74558 3.64065 10.5319L6.64213 15.5923L3.6831 20.3702C3.19738 21.1539 3.75599 22.1704 4.67799 22.1704H10.5407L13.9933 27.9922C14.448 28.7585 15.5516 28.7594 16.0068 27.9922L19.4594 22.1704H25.3221C26.2417 22.1704 26.8038 21.1555 26.317 20.3702L23.358 15.5923L26.3595 10.5319C26.8247 9.74614 26.2629 8.75072 25.3526 8.75072ZM4.67799 21.3455C4.39934 21.3455 4.235 21.039 4.37948 20.8059L7.11488 16.3899L10.0518 21.3455H4.67799ZM7.12967 14.8036L4.34585 10.11C4.20602 9.87398 4.37509 9.57545 4.64754 9.57545H10.3636L7.12967 14.8036ZM14.7018 4.13166C14.8395 3.90985 15.1605 3.90964 15.2983 4.13166L18.1588 8.75072H11.8409L14.7018 4.13166ZM15.3016 27.57C15.1654 27.7995 14.8349 27.8 14.6985 27.57L11.4963 22.1704H18.5038L15.3016 27.57ZM19.0173 15.687C16.9002 18.1232 13.1216 18.1356 10.9828 15.687C10.7043 15.3715 10.7043 14.8829 10.9828 14.5674C13.1205 12.1306 16.8921 12.1325 19.0173 14.5674C19.2957 14.8829 19.2957 15.3715 19.0173 15.687ZM25.6206 20.8059C25.7662 21.0408 25.5984 21.3455 25.3221 21.3455H19.9483L22.8853 16.3899L25.6206 20.8059ZM25.6543 10.11L22.8704 14.8036L19.6362 9.57545H25.3526C25.6249 9.57545 25.7939 9.87363 25.6543 10.11Z" fill="white"/>
<path d="M14.9822 13.3711C14.0405 13.3711 13.271 14.1396 13.271 15.0911C13.271 16.0427 14.0405 16.8111 14.9822 16.8111C15.9289 16.8111 16.6933 16.0427 16.6933 15.0911C16.6933 14.1396 15.9289 13.3711 14.9822 13.3711ZM14.9822 15.6508C14.6784 15.6508 14.4253 15.4016 14.4253 15.0911C14.4253 14.7807 14.6784 14.5314 14.9822 14.5314C15.291 14.5314 15.539 14.7807 15.539 15.0911C15.539 15.4016 15.291 15.6508 14.9822 15.6508Z" fill="white"/>
<path d="M6.57852 10.6617C6.89057 10.5044 7.30935 10.4938 7.30935 10.8285C7.30935 11.0965 7.07441 11.2619 6.43709 11.9429C6.34166 12.0434 6.27842 12.1399 6.27842 12.2763C6.27842 12.4814 6.3798 12.5638 6.57129 12.5638C7.74472 12.5445 7.88675 12.6128 8.00134 12.4947C8.09129 12.4018 8.09149 12.1938 8.00134 12.1023C7.89126 11.9926 7.73219 12.0517 7.09835 12.0351L7.49968 11.6339C7.60825 11.5252 7.6944 11.4229 7.75931 11.327C8.00179 10.9687 7.98301 10.5818 7.84224 10.3548C7.57693 9.9253 6.807 9.94771 6.37334 10.1898C6.05367 10.3562 6.27078 10.8085 6.57852 10.6617Z" fill="white"/>
<path d="M15.9658 7.62923C15.8612 7.52764 15.7035 7.57313 15.4874 7.56181V5.82651C15.4874 5.50969 15.1249 5.48461 14.8695 5.65622L14.3787 5.96135C14.0632 6.13699 14.3066 6.62175 14.6223 6.42613L14.8343 6.294V7.56181H14.5234C14.2016 7.56181 14.207 7.90272 14.3206 8.0198C14.3663 8.06707 14.434 8.09071 14.5234 8.09071H15.7663C16.0802 8.09071 16.0816 7.74319 15.9658 7.62923Z" fill="white"/>
<path d="M15.2825 24.5978C15.3116 24.5606 15.3229 24.5083 15.3426 24.4632V24.5285C15.3426 24.7525 15.2956 24.9955 15.1078 25.1141C14.921 25.2315 14.6618 25.1986 14.4423 25.1C14.1851 24.9931 14.0188 25.255 14.1157 25.4636C14.1949 25.6389 14.7863 25.8476 15.2877 25.6357C15.4276 25.5768 15.5474 25.4904 15.6459 25.3766C16.0212 24.9462 16.0107 24.1486 15.8298 23.721C15.4416 22.8096 14.0645 22.9976 14.0645 24.0069C14.0645 24.8021 14.9126 25.0699 15.2825 24.5978ZM15.2613 23.9819C15.2613 24.4543 14.6575 24.4375 14.6575 23.9819C14.6575 23.515 15.2613 23.5209 15.2613 23.9819Z" fill="white"/>
<path d="M23.1675 10.9461C23.0618 10.9461 22.9632 10.9634 22.8726 10.9977C22.842 11.0091 22.8239 11.0333 22.7969 11.0486V10.5912C23.5137 10.5739 23.6611 10.6341 23.773 10.5236C23.8825 10.4172 23.9026 10.0625 23.5698 10.0625H22.4616C22.2857 10.0625 22.1859 10.1612 22.1859 10.3355V11.4109C22.1859 11.6687 22.4703 11.6992 22.6767 11.5671C22.9429 11.3849 23.3511 11.4359 23.3511 11.7693C23.3511 12.1461 22.8369 12.1227 22.5 11.9538C22.1744 11.7906 21.9599 12.2821 22.2849 12.4402C22.9548 12.7998 23.9689 12.6054 23.9689 11.7515C23.9689 11.275 23.6495 10.9461 23.1675 10.9461Z" fill="white"/>
<path d="M6.29203 18.3954C6.02704 18.5243 6.10889 18.8359 6.31169 18.892C6.47755 18.9397 6.5666 18.7751 6.89589 18.7751C7.00648 18.7751 7.09022 18.7962 7.1467 18.8389C7.24978 18.9167 7.25235 19.0688 7.19079 19.1547C7.0386 19.3655 6.73285 19.1837 6.57131 19.3339C6.52404 19.3776 6.50038 19.441 6.50038 19.5239C6.50038 20.0392 7.30537 19.5401 7.30537 20.0241C7.30537 20.3729 6.78571 20.3242 6.46154 20.1877C6.26809 20.1033 6.1055 20.2127 6.0857 20.395C6.02958 20.913 7.92359 21.1388 7.92359 20.0881C7.92359 19.7786 7.7692 19.5602 7.45542 19.4801C7.59272 19.4309 7.70869 19.3775 7.7946 19.1936C7.87798 19.0151 7.87041 18.7462 7.74328 18.5601C7.46735 18.1582 6.73066 18.1684 6.29203 18.3954Z" fill="white"/>
<path d="M22.1241 18.8165C22.2449 18.9319 22.3911 18.8673 23.2163 18.8855L22.3412 20.4829C22.1056 20.9139 22.7442 21.0458 22.9379 20.6813C23.8108 19.0471 23.8527 18.9997 23.9247 18.8198C24.0208 18.5819 23.9296 18.3535 23.6547 18.3535H22.3272C22.0136 18.3535 21.997 18.6942 22.1241 18.8165Z" fill="white"/>
</svg>
