<svg width="40" height="40" viewBox="0 0 40 40" fill="none" xmlns="http://www.w3.org/2000/svg">
<g clip-path="url(#clip0_961_17214)">
<path d="M23.125 6.875H19.375V15.625H18.125V4.375H14.375V15.625H13.125V9.375H9.375V16.875H23.125V6.875ZM11.875 15.625H10.625V10.625H11.875V15.625ZM15.625 5.625H16.875V15.625H15.625V5.625ZM21.875 15.625H20.625V8.125H21.875V15.625Z" fill="black"/>
<path d="M28.125 3.125H29.375V4.375H28.125V3.125Z" fill="black"/>
<path d="M30.625 3.125H31.875V4.375H30.625V3.125Z" fill="black"/>
<path d="M33.125 3.125H34.375V4.375H33.125V3.125Z" fill="black"/>
<path d="M26.8755 25.3667L26.0673 24.5586L25.1836 25.4423L26.8755 27.1342L29.8173 24.1923L28.9336 23.3086L26.8755 25.3667Z" fill="black"/>
<path d="M33.75 10.625C32.7162 10.625 31.875 11.4662 31.875 12.5C31.875 13.5338 32.7162 14.375 33.75 14.375C34.7838 14.375 35.625 13.5338 35.625 12.5C35.625 11.4662 34.7838 10.625 33.75 10.625ZM33.75 13.125C33.405 13.125 33.125 12.845 33.125 12.5C33.125 12.155 33.405 11.875 33.75 11.875C34.095 11.875 34.375 12.155 34.375 12.5C34.375 12.845 34.095 13.125 33.75 13.125Z" fill="black"/>
<path d="M39.375 10.625H38.2769L39.0531 9.84875L36.4013 7.19688L35.625 7.97312V6.875H31.875V7.97312L31.0987 7.19688L28.4469 9.84875L29.2231 10.625H28.125V14.375H29.2231L28.4469 15.1513L31.0987 17.8031L31.875 17.0269V18.125H32.415L29.7875 21.2781C29.1212 20.8669 28.3388 20.625 27.5 20.625C26.675 20.625 25.905 20.8588 25.2456 21.2575L23.4394 19.05C25.5456 17.1075 26.875 14.3344 26.875 11.25C26.875 5.39125 22.1087 0.625 16.25 0.625C11.3281 0.625 7.18937 3.99375 5.9875 8.54312C2.67563 10.5837 0.625 14.2287 0.625 18.125C0.625 23.4681 4.3725 27.9444 9.375 29.085V36.875C9.375 38.2538 10.4962 39.375 11.875 39.375C13.2538 39.375 14.375 38.2538 14.375 36.875V29.0894C18.6656 28.1294 22.0238 24.7531 22.8981 20.3625L24.2788 22.0494C23.565 22.8287 23.125 23.8625 23.125 25C23.125 27.4119 25.0881 29.375 27.5 29.375C29.9119 29.375 31.875 27.4119 31.875 25C31.875 23.8769 31.4456 22.855 30.7475 22.0794L34.0431 18.125H35.625V17.0269L36.4013 17.8031L39.0531 15.1513L38.2769 14.375H39.375V10.625ZM16.25 1.875C21.4194 1.875 25.625 6.08063 25.625 11.25C25.625 16.4194 21.4194 20.625 16.25 20.625C11.0806 20.625 6.875 16.4194 6.875 11.25C6.875 6.08063 11.0806 1.875 16.25 1.875ZM16.25 21.875C17.0256 21.875 17.78 21.7862 18.5081 21.6281C17.2275 24.06 14.6956 25.625 11.875 25.625C7.73937 25.625 4.375 22.2606 4.375 18.125C4.375 16.4631 4.91375 14.9 5.8975 13.6063C6.97312 18.3331 11.2019 21.875 16.25 21.875ZM13.125 36.875C13.125 37.5644 12.5644 38.125 11.875 38.125C11.1856 38.125 10.625 37.5644 10.625 36.875V29.3012C11.0362 29.3469 11.4519 29.375 11.875 29.375C12.2981 29.375 12.7138 29.3456 13.125 29.3012V36.875ZM11.875 28.125C6.36125 28.125 1.875 23.6387 1.875 18.125C1.875 15.0587 3.30313 12.1656 5.67375 10.2838C5.645 10.6025 5.625 10.9237 5.625 11.25C5.625 11.4956 5.64563 11.7369 5.66188 11.9781C4.02938 13.6263 3.125 15.7931 3.125 18.125C3.125 22.95 7.05 26.875 11.875 26.875C15.5594 26.875 18.8169 24.5838 20.0806 21.1494C20.6106 20.9438 21.1181 20.6975 21.6031 20.4125C20.5694 24.8919 16.6113 28.125 11.875 28.125ZM27.5 28.125C25.7769 28.125 24.375 26.7231 24.375 25C24.375 23.2769 25.7769 21.875 27.5 21.875C29.2231 21.875 30.625 23.2769 30.625 25C30.625 26.7231 29.2231 28.125 27.5 28.125ZM38.125 13.125H36.8637L36.3931 14.2594L37.2856 15.1513L36.4013 16.0356L35.5094 15.1431L34.375 15.6138V16.875H33.125V15.6131L31.9919 15.1425L31.0987 16.0356L30.2144 15.1513L31.1063 14.2594L30.6369 13.125H29.375V11.875H30.6363L31.1069 10.7406L30.2144 9.84875L31.0987 8.96438L31.9906 9.85687L33.125 9.38625V8.125H34.375V9.38625L35.5094 9.85687L36.4013 8.96438L37.2856 9.84875L36.3931 10.7406L36.8637 11.875H38.125V13.125Z" fill="black"/>
</g>
<defs>
<clipPath id="clip0_961_17214">
<rect width="40" height="40" fill="white"/>
</clipPath>
</defs>
</svg>
