<svg width="41" height="41" viewBox="0 0 41 41" fill="none" xmlns="http://www.w3.org/2000/svg">
<g clip-path="url(#clip0_963_17439)">
<path d="M23.7744 7.34375H20.0244V16.0938H18.7744V4.84375H15.0244V16.0938H13.7744V9.84375H10.0244V17.3438H23.7744V7.34375ZM12.5244 16.0938H11.2744V11.0938H12.5244V16.0938ZM16.2744 6.09375H17.5244V16.0938H16.2744V6.09375ZM22.5244 16.0938H21.2744V8.59375H22.5244V16.0938Z" fill="white"/>
<path d="M28.7744 3.59375H30.0244V4.84375H28.7744V3.59375Z" fill="white"/>
<path d="M31.2744 3.59375H32.5244V4.84375H31.2744V3.59375Z" fill="white"/>
<path d="M33.7744 3.59375H35.0244V4.84375H33.7744V3.59375Z" fill="white"/>
<path d="M27.5249 25.8355L26.7168 25.0273L25.833 25.9111L27.5249 27.603L30.4668 24.6611L29.583 23.7773L27.5249 25.8355Z" fill="white"/>
<path d="M34.3994 11.0938C33.3657 11.0938 32.5244 11.935 32.5244 12.9688C32.5244 14.0025 33.3657 14.8438 34.3994 14.8438C35.4332 14.8438 36.2744 14.0025 36.2744 12.9688C36.2744 11.935 35.4332 11.0938 34.3994 11.0938ZM34.3994 13.5938C34.0544 13.5938 33.7744 13.3137 33.7744 12.9688C33.7744 12.6238 34.0544 12.3438 34.3994 12.3438C34.7444 12.3438 35.0244 12.6238 35.0244 12.9688C35.0244 13.3137 34.7444 13.5938 34.3994 13.5938Z" fill="white"/>
<path d="M40.0244 11.0938H38.9263L39.7025 10.3175L37.0507 7.66563L36.2744 8.44187V7.34375H32.5244V8.44187L31.7482 7.66563L29.0963 10.3175L29.8725 11.0938H28.7744V14.8438H29.8725L29.0963 15.62L31.7482 18.2719L32.5244 17.4956V18.5938H33.0644L30.4369 21.7469C29.7707 21.3356 28.9882 21.0938 28.1494 21.0938C27.3244 21.0938 26.5544 21.3275 25.895 21.7263L24.0888 19.5187C26.195 17.5762 27.5244 14.8031 27.5244 11.7188C27.5244 5.86 22.7582 1.09375 16.8994 1.09375C11.9775 1.09375 7.83879 4.4625 6.63691 9.01187C3.32504 11.0525 1.27441 14.6975 1.27441 18.5938C1.27441 23.9369 5.02191 28.4131 10.0244 29.5537V37.3438C10.0244 38.7225 11.1457 39.8438 12.5244 39.8438C13.9032 39.8438 15.0244 38.7225 15.0244 37.3438V29.5581C19.315 28.5981 22.6732 25.2219 23.5475 20.8313L24.9282 22.5181C24.2144 23.2975 23.7744 24.3312 23.7744 25.4688C23.7744 27.8806 25.7375 29.8438 28.1494 29.8438C30.5613 29.8438 32.5244 27.8806 32.5244 25.4688C32.5244 24.3456 32.095 23.3237 31.3969 22.5481L34.6925 18.5938H36.2744V17.4956L37.0507 18.2719L39.7025 15.62L38.9263 14.8438H40.0244V11.0938ZM16.8994 2.34375C22.0688 2.34375 26.2744 6.54938 26.2744 11.7188C26.2744 16.8881 22.0688 21.0938 16.8994 21.0938C11.73 21.0938 7.52441 16.8881 7.52441 11.7188C7.52441 6.54938 11.73 2.34375 16.8994 2.34375ZM16.8994 22.3438C17.675 22.3438 18.4294 22.255 19.1575 22.0969C17.8769 24.5287 15.345 26.0938 12.5244 26.0938C8.38879 26.0938 5.02441 22.7294 5.02441 18.5938C5.02441 16.9319 5.56316 15.3688 6.54691 14.075C7.62254 18.8019 11.8513 22.3438 16.8994 22.3438ZM13.7744 37.3438C13.7744 38.0331 13.2138 38.5938 12.5244 38.5938C11.835 38.5938 11.2744 38.0331 11.2744 37.3438V29.77C11.6857 29.8156 12.1013 29.8438 12.5244 29.8438C12.9475 29.8438 13.3632 29.8144 13.7744 29.77V37.3438ZM12.5244 28.5938C7.01066 28.5938 2.52441 24.1075 2.52441 18.5938C2.52441 15.5275 3.95254 12.6344 6.32316 10.7525C6.29441 11.0713 6.27441 11.3925 6.27441 11.7188C6.27441 11.9644 6.29504 12.2056 6.31129 12.4469C4.67879 14.095 3.77441 16.2619 3.77441 18.5938C3.77441 23.4187 7.69941 27.3438 12.5244 27.3438C16.2088 27.3438 19.4663 25.0525 20.73 21.6181C21.26 21.4125 21.7675 21.1662 22.2525 20.8812C21.2188 25.3606 17.2607 28.5938 12.5244 28.5938ZM28.1494 28.5938C26.4263 28.5938 25.0244 27.1919 25.0244 25.4688C25.0244 23.7456 26.4263 22.3438 28.1494 22.3438C29.8725 22.3438 31.2744 23.7456 31.2744 25.4688C31.2744 27.1919 29.8725 28.5938 28.1494 28.5938ZM38.7744 13.5938H37.5132L37.0425 14.7281L37.935 15.62L37.0507 16.5044L36.1588 15.6119L35.0244 16.0825V17.3438H33.7744V16.0819L32.6413 15.6113L31.7482 16.5044L30.8638 15.62L31.7557 14.7281L31.2863 13.5938H30.0244V12.3438H31.2857L31.7563 11.2094L30.8638 10.3175L31.7482 9.43313L32.64 10.3256L33.7744 9.855V8.59375H35.0244V9.855L36.1588 10.3256L37.0507 9.43313L37.935 10.3175L37.0425 11.2094L37.5132 12.3438H38.7744V13.5938Z" fill="white"/>
</g>
<defs>
<clipPath id="clip0_963_17439">
<rect width="40" height="40" fill="white" transform="translate(0.649414 0.46875)"/>
</clipPath>
</defs>
</svg>
