<svg width="41" height="40" viewBox="0 0 41 40" fill="none" xmlns="http://www.w3.org/2000/svg">
<g clip-path="url(#clip0_965_17768)">
<path d="M19.0869 32.1875C18.6557 32.1875 18.3057 32.5375 18.3057 32.9688C18.3057 33.4 18.6557 33.75 19.0869 33.75C19.5182 33.75 19.8682 33.4 19.8682 32.9688C19.8682 32.5375 19.5182 32.1875 19.0869 32.1875Z" fill="white"/>
<path d="M37.524 17.6563H32.9827L37.3479 12.4973C38.1978 12.8779 39.248 12.7307 39.9624 12.0144C40.8784 11.0984 40.8784 9.61609 39.9624 8.70015L35.5422 4.27992C34.6346 3.37461 33.1565 3.35523 32.2287 4.2807C31.5232 4.98617 31.363 6.03305 31.7469 6.89422L19.028 17.6563H3.77441C2.05129 17.6563 0.649414 19.0582 0.649414 20.7813C0.649414 22.0897 1.46379 23.2555 2.68184 23.7023C2.72871 29.5179 6.54004 34.6013 12.0556 36.2909V37.6562C12.0556 38.9485 13.107 39.9999 14.3993 39.9999H26.8992C28.1915 39.9999 29.2429 38.9485 29.2429 37.6562V36.2909C34.7585 34.6011 38.5698 29.5178 38.6167 23.7022C39.8347 23.2555 40.6491 22.0897 40.6491 20.7813C40.649 19.0582 39.2471 17.6563 37.524 17.6563ZM33.3329 5.38625C33.6421 5.07789 34.1338 5.08203 34.4381 5.38547L38.8575 9.805C39.1587 10.1062 39.1671 10.5998 38.8567 10.9102C38.553 11.2148 38.0574 11.2148 37.7538 10.9102C37.7536 10.9101 37.7536 10.91 37.7534 10.9098C37.7532 10.9097 37.7532 10.9096 37.753 10.9095L33.3336 6.49C33.3335 6.48992 33.3334 6.48992 33.3334 6.48984C33.0291 6.18531 33.0292 5.68992 33.3329 5.38625ZM32.7371 8.10312L36.14 11.5061L30.9359 17.6563H21.4468L32.7371 8.10312ZM27.6804 37.6562C27.6804 38.087 27.33 38.4374 26.8992 38.4374H14.3993C13.9685 38.4374 13.618 38.087 13.618 37.6562V36.667C14.3889 36.8041 15.1736 36.875 15.9618 36.875H25.3367C26.1249 36.875 26.9095 36.8042 27.6804 36.667V37.6562ZM28.2671 34.9434C27.3149 35.1883 26.3289 35.3125 25.3367 35.3125H15.9618C14.9695 35.3125 13.9836 35.1883 13.0313 34.9434C7.95809 33.6387 4.38488 29.1187 4.2473 23.8984H37.0513C36.9136 29.1187 33.3404 33.6387 28.2671 34.9434ZM38.0506 22.2459C38.044 22.2482 38.0375 22.2505 38.031 22.253C37.8633 22.3159 37.707 22.3439 37.524 22.3439H3.77441C2.95293 22.3439 2.21191 21.678 2.21191 20.7814C2.21191 19.9198 2.91285 19.2189 3.77441 19.2189H37.5241C38.3857 19.2188 39.0866 19.9198 39.0866 20.7813C39.0865 21.4437 38.6702 22.0323 38.0506 22.2459Z" fill="white"/>
<path d="M15.9622 32.1876C12.3303 32.1876 9.07416 29.885 7.85963 26.458C7.71541 26.0512 7.26869 25.8385 6.86229 25.9826C6.45557 26.1266 6.24275 26.5731 6.3869 26.9798C7.82197 31.0293 11.6699 33.7501 15.9622 33.7501C16.3936 33.7501 16.7435 33.4003 16.7435 32.9688C16.7435 32.5373 16.3936 32.1876 15.9622 32.1876Z" fill="white"/>
<path d="M19.6393 12.7287L18.3056 11.3951V8.59375C18.3056 3.85516 14.4504 0 9.71191 0H6.58691C6.15551 0 5.80566 0.349766 5.80566 0.78125V3.90625C5.80566 8.64477 9.66082 12.4999 14.3993 12.4999H17.2007L18.5343 13.8336C18.8395 14.1387 19.334 14.1387 19.6393 13.8336C19.9443 13.5285 19.9443 13.0338 19.6393 12.7287ZM16.7431 9.8325L10.2643 3.35375C9.95918 3.04867 9.46465 3.04867 9.15941 3.35375C8.85434 3.65883 8.85434 4.15352 9.15941 4.45867L15.6382 10.9374H14.3993C10.5223 10.9374 7.36816 7.7832 7.36816 3.90625V1.5625H9.71191C13.5889 1.5625 16.7431 4.71672 16.7431 8.59367V9.8325Z" fill="white"/>
<path d="M22.2119 0C20.9196 0 19.8682 1.05141 19.8682 2.34375C19.8682 3.63609 20.9196 4.6875 22.2119 4.6875C23.5043 4.6875 24.5557 3.63609 24.5557 2.34375C24.5557 1.05141 23.5043 0 22.2119 0ZM22.2119 3.125C21.7811 3.125 21.4307 2.77453 21.4307 2.34375C21.4307 1.91297 21.7811 1.5625 22.2119 1.5625C22.6427 1.5625 22.9932 1.91297 22.9932 2.34375C22.9932 2.77453 22.6427 3.125 22.2119 3.125Z" fill="white"/>
</g>
<defs>
<clipPath id="clip0_965_17768">
<rect width="40" height="40" fill="white" transform="translate(0.649414)"/>
</clipPath>
</defs>
</svg>
