<svg width="40" height="40" viewBox="0 0 40 40" fill="none" xmlns="http://www.w3.org/2000/svg">
<g clip-path="url(#clip0_965_17536)">
<path d="M18.4375 32.1875C18.0063 32.1875 17.6562 32.5375 17.6562 32.9688C17.6562 33.4 18.0063 33.75 18.4375 33.75C18.8687 33.75 19.2188 33.4 19.2188 32.9688C19.2188 32.5375 18.8687 32.1875 18.4375 32.1875Z" fill="black"/>
<path d="M36.8746 17.6563H32.3333L36.6985 12.4973C37.5484 12.8779 38.5986 12.7307 39.313 12.0144C40.229 11.0984 40.229 9.61609 39.313 8.70015L34.8928 4.27992C33.9852 3.37461 32.5071 3.35523 31.5793 4.2807C30.8738 4.98617 30.7136 6.03305 31.0975 6.89422L18.3786 17.6563H3.125C1.40188 17.6563 0 19.0582 0 20.7813C0 22.0897 0.814375 23.2555 2.03242 23.7023C2.0793 29.5179 5.89062 34.6013 11.4062 36.2909V37.6562C11.4062 38.9485 12.4576 39.9999 13.7499 39.9999H26.2498C27.5421 39.9999 28.5935 38.9485 28.5935 37.6562V36.2909C34.1091 34.6011 37.9204 29.5178 37.9673 23.7022C39.1853 23.2555 39.9997 22.0897 39.9997 20.7813C39.9996 19.0582 38.5977 17.6563 36.8746 17.6563ZM32.6834 5.38625C32.9927 5.07789 33.4844 5.08203 33.7887 5.38547L38.208 9.805C38.5093 10.1062 38.5177 10.5998 38.2073 10.9102C37.9036 11.2148 37.408 11.2148 37.1044 10.9102C37.1042 10.9101 37.1041 10.91 37.104 10.9098C37.1038 10.9097 37.1037 10.9096 37.1036 10.9095L32.6841 6.49C32.6841 6.48992 32.684 6.48992 32.684 6.48984C32.3797 6.18531 32.3798 5.68992 32.6834 5.38625ZM32.0877 8.10312L35.4906 11.5061L30.2865 17.6563H20.7973L32.0877 8.10312ZM27.031 37.6562C27.031 38.087 26.6805 38.4374 26.2498 38.4374H13.7498C13.3191 38.4374 12.9686 38.087 12.9686 37.6562V36.667C13.7395 36.8041 14.5241 36.875 15.3123 36.875H24.6873C25.4755 36.875 26.2601 36.8042 27.031 36.667V37.6562ZM27.6177 34.9434C26.6655 35.1883 25.6795 35.3125 24.6873 35.3125H15.3123C14.3201 35.3125 13.3341 35.1883 12.3819 34.9434C7.30867 33.6387 3.73547 29.1187 3.59789 23.8984H36.4019C36.2641 29.1187 32.6909 33.6387 27.6177 34.9434ZM37.4012 22.2459C37.3946 22.2482 37.388 22.2505 37.3816 22.253C37.2139 22.3159 37.0576 22.3439 36.8746 22.3439H3.125C2.30352 22.3439 1.5625 21.678 1.5625 20.7814C1.5625 19.9198 2.26344 19.2189 3.125 19.2189H36.8747C37.7363 19.2188 38.4372 19.9198 38.4372 20.7813C38.4371 21.4437 38.0208 22.0323 37.4012 22.2459Z" fill="black"/>
<path d="M15.3128 32.1876C11.6808 32.1876 8.42475 29.885 7.21022 26.458C7.066 26.0512 6.61928 25.8385 6.21287 25.9826C5.80615 26.1266 5.59334 26.5731 5.73748 26.9798C7.17256 31.0293 11.0205 33.7501 15.3128 33.7501C15.7442 33.7501 16.094 33.4003 16.094 32.9688C16.094 32.5373 15.7442 32.1876 15.3128 32.1876Z" fill="black"/>
<path d="M18.9898 12.7287L17.6562 11.3951V8.59375C17.6562 3.85516 13.801 0 9.0625 0H5.9375C5.50609 0 5.15625 0.349766 5.15625 0.78125V3.90625C5.15625 8.64477 9.01141 12.4999 13.7499 12.4999H16.5512L17.8849 13.8336C18.1901 14.1387 18.6846 14.1387 18.9898 13.8336C19.2949 13.5285 19.2949 13.0338 18.9898 12.7287ZM16.0937 9.8325L9.61492 3.35375C9.30977 3.04867 8.81523 3.04867 8.51 3.35375C8.20492 3.65883 8.20492 4.15352 8.51 4.45867L14.9887 10.9374H13.7499C9.87289 10.9374 6.71875 7.7832 6.71875 3.90625V1.5625H9.0625C12.9395 1.5625 16.0937 4.71672 16.0937 8.59367V9.8325Z" fill="black"/>
<path d="M21.5625 0C20.2702 0 19.2188 1.05141 19.2188 2.34375C19.2188 3.63609 20.2702 4.6875 21.5625 4.6875C22.8548 4.6875 23.9063 3.63609 23.9063 2.34375C23.9063 1.05141 22.8548 0 21.5625 0ZM21.5625 3.125C21.1317 3.125 20.7813 2.77453 20.7813 2.34375C20.7813 1.91297 21.1317 1.5625 21.5625 1.5625C21.9933 1.5625 22.3438 1.91297 22.3438 2.34375C22.3438 2.77453 21.9933 3.125 21.5625 3.125Z" fill="black"/>
</g>
<defs>
<clipPath id="clip0_965_17536">
<rect width="40" height="40" fill="white"/>
</clipPath>
</defs>
</svg>
