<svg width="40" height="40" viewBox="0 0 40 40" fill="none" xmlns="http://www.w3.org/2000/svg">
<g clip-path="url(#clip0_961_17207)">
<path d="M39.6294 8.29825C39.2165 7.48286 38.5109 6.87708 37.6424 6.59247L22.9681 1.78325C22.0996 1.49856 21.1723 1.56919 20.3569 1.98208C19.5415 2.39489 18.9357 3.1006 18.6511 3.96911L18.4561 4.56403C18.2406 4.56841 18.0257 4.59255 17.8135 4.63771L11.7698 5.92505C11.4527 5.99255 11.2504 6.30442 11.3179 6.62153C11.3767 6.89739 11.6203 7.08638 11.8915 7.08638C11.9321 7.08638 11.9731 7.08216 12.0144 7.07341L18.0554 5.78661L14.5994 16.3318L12.7538 14.2837C12.4565 13.9538 11.896 14.074 11.7593 14.4956L10.6953 17.775L7.3233 18.4932C6.89002 18.5854 6.71205 19.1304 7.00955 19.4604L9.3176 22.0215L8.25361 25.3009C8.11666 25.7227 8.50049 26.1488 8.93432 26.0562L11.5985 25.4887L11.0839 27.0586C10.7993 27.9272 10.8699 28.8545 11.2828 29.6699C11.6956 30.4853 12.4013 31.0911 13.2698 31.3757L22.2744 34.3268L8.95314 37.1643C7.74103 37.4225 6.54486 36.6463 6.28674 35.4343L5.46408 31.5719C5.3965 31.2548 5.08447 31.0525 4.7676 31.12C4.45049 31.1875 4.24822 31.4994 4.31572 31.8165L5.13838 35.6789C5.48049 37.285 6.90408 38.3881 8.48416 38.3881C8.71955 38.3881 8.95854 38.3636 9.19775 38.3126L24.301 35.0956C24.3613 35.0827 24.4225 35.0677 24.484 35.0509L27.9441 36.1849C28.2967 36.3004 28.6547 36.3554 29.0072 36.3554C30.4464 36.3554 31.7892 35.4392 32.2612 33.999L37.2877 18.6618C37.3873 18.3578 37.2167 18.0208 36.9127 17.9211C36.6086 17.8215 36.2716 17.9921 36.172 18.2961L31.1455 33.6333C30.7595 34.811 29.4874 35.4551 28.3098 35.0692L13.6356 30.26C13.065 30.073 12.6016 29.675 12.3303 29.1395C12.0592 28.604 12.0128 27.9947 12.1997 27.4243L19.7669 4.33481C19.9538 3.76427 20.3517 3.30083 20.8874 3.02958C21.4229 2.75841 22.0321 2.71208 22.6026 2.89895L37.2768 7.70817C37.8473 7.89513 38.3108 8.2931 38.582 8.82864C38.8531 9.36419 38.8995 9.97341 38.7126 10.5438L36.9042 16.0617C36.8032 16.3698 36.9711 16.7015 37.2792 16.8024C37.5871 16.9033 37.9188 16.7354 38.0199 16.4274L39.8283 10.9095C40.1128 10.041 40.0422 9.11364 39.6294 8.29825ZM12.5623 15.825L13.7358 17.1272L12.0213 17.4924L12.5623 15.825ZM8.56236 19.4297L10.2769 19.0645L9.73588 20.7319L8.56236 19.4297ZM9.68416 24.696L10.2251 23.0286L11.3986 24.3308L9.68416 24.696ZM10.6435 21.739L11.6029 18.7821L13.961 18.2798L12.2449 23.5161L10.6435 21.739Z" fill="black"/>
<path d="M23.6388 5.47475C23.3306 5.37358 22.9991 5.54162 22.8981 5.84975L22.5659 6.86334L21.5523 6.53115C21.244 6.43014 20.9125 6.59811 20.8116 6.90615C20.7106 7.21428 20.8785 7.54592 21.1866 7.64686L22.2002 7.97904L21.868 8.99264C21.7722 9.2849 21.9257 9.61006 22.2121 9.72217C22.522 9.8435 22.8802 9.67428 22.9837 9.35834L23.3159 8.34475L24.3295 8.67694C24.6461 8.78076 24.9932 8.59147 25.0795 8.27037C25.1593 7.9735 24.987 7.65686 24.6952 7.56123L23.6816 7.22905L24.0138 6.21545C24.1148 5.90733 23.9469 5.57576 23.6388 5.47475Z" fill="black"/>
<path d="M27.2733 32.4932C27.5775 32.5928 27.9144 32.4221 28.014 32.1182L28.3462 31.1046L29.3598 31.4368C29.6765 31.5406 30.0236 31.3512 30.1098 31.0301C30.1896 30.7332 30.0173 30.4166 29.7255 30.321L28.7119 29.9888L29.0441 28.9752C29.1451 28.6671 28.9772 28.3354 28.6691 28.2345C28.3608 28.1334 28.0294 28.3014 27.9284 28.6095L27.5962 29.6231L26.5826 29.2909C26.2786 29.191 25.9415 29.3619 25.8419 29.6659C25.7423 29.9699 25.913 30.307 26.2169 30.4066L27.2305 30.7388L26.8983 31.7524C26.7973 32.0606 26.9652 32.3921 27.2733 32.4932Z" fill="black"/>
<path d="M28.3338 16.3649C29.2029 15.9176 30.1839 15.836 31.0954 16.1347L31.1312 16.1467C31.5358 16.2839 31.9691 16.1392 32.2096 15.7867C32.4508 15.4331 32.4275 14.9752 32.1513 14.6475C31.3638 13.7127 30.3308 13.0164 29.164 12.6341C27.4924 12.0863 25.7036 12.2252 24.127 13.0252C22.5504 13.8253 21.382 15.1872 20.8372 16.8599C19.7128 20.3121 21.605 24.0405 25.0551 25.1712C25.726 25.391 26.4195 25.5003 27.1112 25.5003C28.0336 25.5003 28.9529 25.306 29.8109 24.9206C30.2 24.7457 30.4185 24.3448 30.3547 23.9228C30.2909 23.5 29.963 23.181 29.539 23.1288C29.3077 23.1003 29.0772 23.0488 28.8539 22.9756C26.9923 22.3655 25.9542 20.3487 26.5399 18.4799C26.8272 17.5634 27.4643 16.8123 28.3338 16.3649ZM28.4883 24.0912C28.5199 24.1016 28.5517 24.1116 28.5835 24.1214C27.5519 24.4136 26.4536 24.3939 25.4208 24.0555C22.5847 23.126 21.0293 20.0612 21.9536 17.2235C22.4011 15.8493 23.3617 14.7301 24.6583 14.0721C25.4341 13.6785 26.2722 13.4793 27.1143 13.4793C27.6797 13.4793 28.2468 13.569 28.7983 13.7498C29.5039 13.981 30.1499 14.3517 30.6996 14.8371C29.7165 14.6868 28.7091 14.8514 27.7966 15.3209C26.6456 15.9131 25.8014 16.9103 25.4195 18.1289C24.6429 20.6074 26.0194 23.2821 28.4883 24.0912Z" fill="black"/>
<path d="M7.80307 12.4331C7.73549 12.116 7.42369 11.9136 7.10658 11.9812L6.06338 12.2034L5.84119 11.1602C5.77361 10.8431 5.4619 10.6407 5.14471 10.7083C4.8276 10.7758 4.62533 11.0877 4.69283 11.4048L4.91502 12.448L3.87174 12.6702C3.56315 12.7359 3.35736 13.0461 3.41775 13.3559C3.47971 13.6739 3.79885 13.8862 4.11635 13.8186L5.15963 13.5964L5.38182 14.6397C5.44932 14.9565 5.77338 15.1628 6.089 15.089C6.39635 15.0173 6.59596 14.7041 6.53018 14.3951L6.30799 13.3518L7.35119 13.1296C7.6683 13.0621 7.87057 12.7502 7.80307 12.4331Z" fill="black"/>
<path d="M4.55754 30.1348C4.87464 30.0673 5.07699 29.7554 5.00941 29.4383L1.22457 11.6689C0.966363 10.4568 1.74246 9.26066 2.95457 9.00246L9.70886 7.56378C10.026 7.49621 10.2283 7.18441 10.1607 6.8673C10.0932 6.55019 9.78136 6.34761 9.46425 6.41542L2.70996 7.8541C1.81605 8.04449 1.0498 8.5716 0.552379 9.33832C0.0549567 10.105 -0.114184 11.0196 0.0762067 11.9135L3.86113 29.6829C3.92777 29.9957 4.24457 30.2015 4.55754 30.1348Z" fill="black"/>
</g>
<defs>
<clipPath id="clip0_961_17207">
<rect width="40" height="40" fill="white"/>
</clipPath>
</defs>
</svg>
