<svg width="41" height="41" viewBox="0 0 41 41" fill="none" xmlns="http://www.w3.org/2000/svg">
<g clip-path="url(#clip0_963_17432)">
<path d="M40.2788 8.767C39.8659 7.95161 39.1603 7.34583 38.2918 7.06122L23.6176 2.252C22.749 1.96731 21.8217 2.03794 21.0063 2.45083C20.1909 2.86364 19.5851 3.56935 19.3005 4.43786L19.1055 5.03278C18.8901 5.03716 18.6751 5.0613 18.4629 5.10646L12.4192 6.3938C12.1021 6.4613 11.8998 6.77317 11.9673 7.09028C12.0261 7.36614 12.2697 7.55513 12.5409 7.55513C12.5815 7.55513 12.6226 7.55091 12.6638 7.54216L18.7048 6.25536L15.2488 16.8006L13.4032 14.7525C13.1059 14.4225 12.5454 14.5427 12.4087 14.9643L11.3447 18.2437L7.97271 18.9619C7.53943 19.0542 7.36146 19.5991 7.65896 19.9291L9.96701 22.4903L8.90303 25.7697C8.76607 26.1915 9.1499 26.6175 9.58373 26.525L12.2479 25.9575L11.7333 27.5274C11.4487 28.3959 11.5193 29.3233 11.9322 30.1386C12.3451 30.954 13.0507 31.5598 13.9192 31.8444L22.9238 34.7955L9.60256 37.633C8.39045 37.8913 7.19428 37.115 6.93615 35.903L6.1135 32.0407C6.04592 31.7236 5.73389 31.5213 5.41701 31.5888C5.0999 31.6563 4.89764 31.9682 4.96514 32.2853L5.78779 36.1476C6.1299 37.7537 7.5535 38.8568 9.13357 38.8568C9.36896 38.8568 9.60795 38.8323 9.84717 38.7814L24.9504 35.5643C25.0108 35.5515 25.0719 35.5365 25.1334 35.5197L28.5935 36.6536C28.9462 36.7692 29.3041 36.8241 29.6566 36.8241C31.0958 36.8241 32.4386 35.9079 32.9106 34.4678L37.9371 19.1306C38.0367 18.8265 37.8661 18.4896 37.5621 18.3899C37.258 18.2902 36.921 18.4608 36.8214 18.7649L31.7949 34.1021C31.4089 35.2797 30.1368 35.9238 28.9592 35.5379L14.285 30.7287C13.7144 30.5418 13.251 30.1438 12.9797 29.6083C12.7086 29.0727 12.6622 28.4635 12.8491 27.8931L20.4163 4.80356C20.6033 4.23302 21.0012 3.76958 21.5368 3.49833C22.0723 3.22716 22.6815 3.18083 23.252 3.3677L37.9262 8.17692C38.4967 8.36388 38.9602 8.76185 39.2314 9.29739C39.5026 9.83294 39.549 10.4422 39.362 11.0125L37.5536 16.5304C37.4526 16.8386 37.6205 17.1702 37.9286 17.2711C38.2365 17.372 38.5683 17.2042 38.6693 16.8961L40.4777 11.3783C40.7622 10.5097 40.6916 9.58239 40.2788 8.767ZM13.2117 16.2938L14.3852 17.596L12.6708 17.9611L13.2117 16.2938ZM9.21178 19.8984L10.9263 19.5333L10.3853 21.2007L9.21178 19.8984ZM10.3336 25.1647L10.8745 23.4974L12.048 24.7996L10.3336 25.1647ZM11.2929 22.2078L12.2523 19.2508L14.6104 18.7486L12.8944 23.9848L11.2929 22.2078Z" fill="white"/>
<path d="M24.2882 5.9435C23.98 5.84233 23.6485 6.01037 23.5475 6.3185L23.2153 7.33209L22.2017 6.9999C21.8934 6.89889 21.5619 7.06686 21.461 7.3749C21.36 7.68303 21.528 8.01467 21.836 8.11561L22.8496 8.44779L22.5174 9.46139C22.4216 9.75365 22.5751 10.0788 22.8615 10.1909C23.1714 10.3122 23.5296 10.143 23.6331 9.82709L23.9653 8.8135L24.9789 9.14569C25.2955 9.24951 25.6426 9.06022 25.7289 8.73912C25.8087 8.44225 25.6364 8.12561 25.3446 8.02998L24.331 7.6978L24.6632 6.6842C24.7642 6.37608 24.5963 6.04451 24.2882 5.9435Z" fill="white"/>
<path d="M27.9228 32.9619C28.2269 33.0616 28.5638 32.8908 28.6635 32.5869L28.9956 31.5733L30.0092 31.9055C30.3259 32.0093 30.673 31.82 30.7592 31.4989C30.839 31.202 30.6667 30.8853 30.3749 30.7897L29.3614 30.4575L29.6935 29.4439C29.7946 29.1358 29.6266 28.8042 29.3185 28.7032C29.0103 28.6021 28.6788 28.7701 28.5778 29.0782L28.2456 30.0918L27.2321 29.7596C26.928 29.6598 26.591 29.8307 26.4914 30.1346C26.3917 30.4386 26.5624 30.7757 26.8664 30.8753L27.8799 31.2075L27.5478 32.2211C27.4467 32.5293 27.6146 32.8609 27.9228 32.9619Z" fill="white"/>
<path d="M28.9832 16.8336C29.8524 16.3863 30.8333 16.3047 31.7448 16.6035L31.7806 16.6154C32.1852 16.7527 32.6185 16.6079 32.859 16.2554C33.1002 15.9018 33.0769 15.4439 32.8007 15.1163C32.0132 14.1814 30.9802 13.4852 29.8134 13.1028C28.1418 12.555 26.353 12.6939 24.7764 13.4939C23.1998 14.294 22.0314 15.656 21.4866 17.3287C20.3622 20.7808 22.2544 24.5092 25.7045 25.6399C26.3754 25.8598 27.0689 25.9691 27.7606 25.9691C28.683 25.9691 29.6024 25.7748 30.4603 25.3893C30.8494 25.2145 31.0679 24.8135 31.0041 24.3916C30.9403 23.9688 30.6124 23.6497 30.1884 23.5975C29.9571 23.5691 29.7266 23.5175 29.5033 23.4443C27.6417 22.8342 26.6036 20.8174 27.1893 18.9487C27.4766 18.0321 28.1137 17.281 28.9832 16.8336ZM29.1377 24.5599C29.1693 24.5703 29.2011 24.5803 29.2329 24.5901C28.2013 24.8824 27.1031 24.8627 26.0702 24.5242C23.2342 23.5948 21.6788 20.5299 22.603 17.6923C23.0506 16.3181 24.0111 15.1988 25.3077 14.5409C26.0835 14.1472 26.9216 13.9481 27.7638 13.9481C28.3291 13.9481 28.8963 14.0378 29.4477 14.2185C30.1533 14.4498 30.7993 14.8205 31.349 15.3059C30.3659 15.1556 29.3585 15.3201 28.446 15.7896C27.295 16.3818 26.4508 17.3791 26.0689 18.5976C25.2923 21.0761 26.6688 23.7508 29.1377 24.5599Z" fill="white"/>
<path d="M8.45248 12.9019C8.3849 12.5848 8.07311 12.3823 7.756 12.45L6.71279 12.6722L6.49061 11.629C6.42303 11.3119 6.11131 11.1094 5.79412 11.1771C5.47701 11.2446 5.27475 11.5565 5.34225 11.8736L5.56443 12.9168L4.52115 13.139C4.21256 13.2047 4.00678 13.5148 4.06717 13.8247C4.12912 14.1426 4.44826 14.355 4.76576 14.2873L5.80904 14.0651L6.03123 15.1084C6.09873 15.4253 6.42279 15.6315 6.73842 15.5578C7.04576 15.486 7.24537 15.1729 7.17959 14.8638L6.9574 13.8205L8.00061 13.5983C8.31772 13.5308 8.51998 13.219 8.45248 12.9019Z" fill="white"/>
<path d="M5.20695 30.6035C5.52406 30.536 5.7264 30.2242 5.65882 29.9071L1.87398 12.1376C1.61578 10.9256 2.39187 9.72941 3.60398 9.47121L10.3583 8.03253C10.6754 7.96496 10.8777 7.65316 10.8102 7.33605C10.7426 7.01894 10.4308 6.81636 10.1137 6.88417L3.35937 8.32285C2.46546 8.51324 1.69921 9.04035 1.20179 9.80707C0.704371 10.5738 0.53523 11.4883 0.725621 12.3822L4.51054 30.1517C4.57718 30.4645 4.89398 30.6703 5.20695 30.6035Z" fill="white"/>
</g>
<defs>
<clipPath id="clip0_963_17432">
<rect width="40" height="40" fill="white" transform="translate(0.649414 0.46875)"/>
</clipPath>
</defs>
</svg>
