<svg width="40" height="40" viewBox="0 0 40 40" fill="none" xmlns="http://www.w3.org/2000/svg">
<path d="M37.8558 9.0732H25.2386L20.0002 0L14.7617 9.0732H2.14453L8.45312 20L2.14453 30.9268H14.7617L20.0002 40L25.2386 30.9268H37.8558L31.5472 20L37.8558 9.0732ZM35.828 10.2439L30.8712 18.8293L25.9144 10.2439H35.828ZM20.0002 2.34148L23.8867 9.0732H16.1136L20.0002 2.34148ZM4.17234 10.2439H14.0859L9.12906 18.8293L4.17234 10.2439ZM4.17234 29.7561L9.12914 21.1707L14.0859 29.7561H4.17234ZM20.0002 37.6585L16.1136 30.9268H23.8867L20.0002 37.6585ZM24.5627 29.7561H15.4377L9.80492 20L15.4377 10.2439H24.5627L30.1954 20L24.5627 29.7561ZM35.828 29.7561H25.9145L30.8712 21.1707L35.828 29.7561Z" fill="black"/>
<path d="M27.3512 19.1861C27.2157 18.9844 23.9846 14.2441 19.8408 14.2441C15.697 14.2441 12.466 18.9843 12.3305 19.1861L12.1113 19.5124L12.3305 19.8387C12.4659 20.0405 15.697 24.7807 19.8408 24.7807C23.9846 24.7807 27.2156 20.0405 27.3512 19.8387L27.5703 19.5124L27.3512 19.1861ZM19.8408 23.61C16.8932 23.61 14.3153 20.5345 13.5398 19.512C14.3142 18.4884 16.8865 15.4148 19.8408 15.4148C22.7877 15.4148 25.3653 18.489 26.1415 19.5124C25.3653 20.5359 22.7877 23.61 19.8408 23.61Z" fill="black"/>
<path d="M19.8413 16C17.9046 16 16.3291 17.5755 16.3291 19.5122C16.3291 21.4488 17.9046 23.0244 19.8413 23.0244C21.7779 23.0244 23.3535 21.4488 23.3535 19.5122C23.3535 17.5755 21.7779 16 19.8413 16ZM19.8413 21.8537C18.5502 21.8537 17.4998 20.8033 17.4998 19.5122C17.4998 18.2211 18.5502 17.1707 19.8413 17.1707C21.1324 17.1707 22.1828 18.2211 22.1828 19.5122C22.1828 20.8033 21.1324 21.8537 19.8413 21.8537Z" fill="black"/>
<path d="M20.427 18.9271V18.3418H19.2562V18.9271H18.6709V20.0979H19.2562V20.6832H20.427V20.0979H21.0123V18.9271H20.427Z" fill="black"/>
<path d="M20.4266 6.04883H19.2559V7.21953H20.4266V6.04883Z" fill="black"/>
<path d="M20.4266 32.9766H19.2559V34.1473H20.4266V32.9766Z" fill="black"/>
<path d="M31.5477 26.5371H30.377V27.7078H31.5477V26.5371Z" fill="black"/>
<path d="M9.30449 26.5371H8.13379V27.7078H9.30449V26.5371Z" fill="black"/>
<path d="M31.5477 12.4883H30.377V13.659H31.5477V12.4883Z" fill="black"/>
<path d="M9.30449 12.4883H8.13379V13.659H9.30449V12.4883Z" fill="black"/>
<path d="M13.8874 4.49L13.0597 3.66211L12.2318 4.49L11.404 3.66211L10.5762 4.49L11.404 5.31781L10.5762 6.14555L11.404 6.97344L12.2318 6.14555L13.0597 6.97344L13.8874 6.14555L13.0597 5.31781L13.8874 4.49Z" fill="black"/>
<path d="M29.1824 4.49L28.3546 3.66211L27.5268 4.48992L26.699 3.66211L25.8711 4.49L26.6989 5.31781L25.8711 6.14555L26.699 6.97344L27.5268 6.14562L28.3546 6.97344L29.1824 6.14555L28.3547 5.31781L29.1824 4.49Z" fill="black"/>
<path d="M13.8874 33.9742L13.0597 33.1465L12.2318 33.9742L11.404 33.1465L10.5762 33.9742L11.404 34.8021L10.5762 35.63L11.404 36.4577L12.2318 35.63L13.0597 36.4577L13.8874 35.63L13.0597 34.8021L13.8874 33.9742Z" fill="black"/>
<path d="M37.3768 19.0485L36.5489 18.2207L35.7211 19.0485L34.8934 18.2207L34.0654 19.0485L34.8933 19.8764L34.0654 20.7042L34.8934 21.532L35.7211 20.7042L36.5489 21.532L37.3768 20.7042L36.549 19.8764L37.3768 19.0485Z" fill="black"/>
<path d="M6.34844 18.902L5.52063 18.0742L4.69273 18.9021L3.865 18.0742L3.03711 18.902L3.865 19.7298L3.03711 20.5577L3.865 21.3855L4.69273 20.5577L5.52063 21.3855L6.34844 20.5577L5.52063 19.7298L6.34844 18.902Z" fill="black"/>
<path d="M29.1824 33.9742L28.3546 33.1465L27.5268 33.9742L26.699 33.1465L25.8711 33.9742L26.6989 34.8021L25.8711 35.63L26.699 36.4577L27.5268 35.63L28.3546 36.4577L29.1824 35.63L28.3547 34.8021L29.1824 33.9742Z" fill="black"/>
</svg>
