<svg width="41" height="41" viewBox="0 0 41 41" fill="none" xmlns="http://www.w3.org/2000/svg">
<g clip-path="url(#clip0_963_17448)">
<path d="M38.5052 9.54195H25.888L20.6496 0.46875L15.4111 9.54195H2.79395L9.10254 20.4688L2.79395 31.3955H15.4111L20.6496 40.4688L25.888 31.3955H38.5052L32.1966 20.4688L38.5052 9.54195ZM36.4774 10.7127L31.5206 19.298L26.5638 10.7127H36.4774ZM20.6496 2.81023L24.5361 9.54195H16.763L20.6496 2.81023ZM4.82176 10.7127H14.7353L9.77848 19.298L4.82176 10.7127ZM4.82176 30.2248L9.77855 21.6395L14.7354 30.2248H4.82176ZM20.6496 38.1273L16.763 31.3955H24.5361L20.6496 38.1273ZM25.2121 30.2248H16.0871L10.4543 20.4688L16.0871 10.7127H25.2121L30.8448 20.4688L25.2121 30.2248ZM36.4774 30.2248H26.5639L31.5207 21.6395L36.4774 30.2248Z" fill="white"/>
<path d="M28.0006 19.6548C27.8651 19.4531 24.634 14.7129 20.4902 14.7129C16.3464 14.7129 13.1154 19.453 12.9799 19.6548L12.7607 19.9812L12.9799 20.3075C13.1154 20.5092 16.3464 25.2495 20.4902 25.2495C24.634 25.2495 27.865 20.5093 28.0006 20.3075L28.2197 19.9812L28.0006 19.6548ZM20.4902 24.0787C17.5426 24.0787 14.9647 21.0033 14.1892 19.9808C14.9636 18.9572 17.5359 15.8836 20.4902 15.8836C23.4371 15.8836 26.0147 18.9577 26.7909 19.9812C26.0147 21.0046 23.4371 24.0787 20.4902 24.0787Z" fill="white"/>
<path d="M20.4907 16.4688C18.5541 16.4688 16.9785 18.0443 16.9785 19.9809C16.9785 21.9176 18.5541 23.4931 20.4907 23.4931C22.4273 23.4931 24.0029 21.9176 24.0029 19.9809C24.0029 18.0443 22.4273 16.4688 20.4907 16.4688ZM20.4907 22.3224C19.1996 22.3224 18.1492 21.272 18.1492 19.9809C18.1492 18.6898 19.1996 17.6395 20.4907 17.6395C21.7818 17.6395 22.8322 18.6898 22.8322 19.9809C22.8322 21.272 21.7818 22.3224 20.4907 22.3224Z" fill="white"/>
<path d="M21.0764 19.3959V18.8105H19.9056V19.3959H19.3203V20.5666H19.9056V21.152H21.0764V20.5666H21.6617V19.3959H21.0764Z" fill="white"/>
<path d="M21.076 6.51758H19.9053V7.68828H21.076V6.51758Z" fill="white"/>
<path d="M21.076 33.4453H19.9053V34.616H21.076V33.4453Z" fill="white"/>
<path d="M32.1971 27.0059H31.0264V28.1766H32.1971V27.0059Z" fill="white"/>
<path d="M9.95391 27.0059H8.7832V28.1766H9.95391V27.0059Z" fill="white"/>
<path d="M32.1971 12.957H31.0264V14.1277H32.1971V12.957Z" fill="white"/>
<path d="M9.95391 12.957H8.7832V14.1277H9.95391V12.957Z" fill="white"/>
<path d="M14.5368 4.95875L13.7091 4.13086L12.8812 4.95875L12.0534 4.13086L11.2256 4.95875L12.0534 5.78656L11.2256 6.6143L12.0534 7.44219L12.8812 6.6143L13.7091 7.44219L14.5368 6.6143L13.7091 5.78656L14.5368 4.95875Z" fill="white"/>
<path d="M29.8318 4.95875L29.004 4.13086L28.1762 4.95867L27.3484 4.13086L26.5205 4.95875L27.3483 5.78656L26.5205 6.6143L27.3484 7.44219L28.1762 6.61437L29.004 7.44219L29.8318 6.6143L29.0041 5.78656L29.8318 4.95875Z" fill="white"/>
<path d="M14.5368 34.443L13.7091 33.6152L12.8812 34.443L12.0534 33.6152L11.2256 34.443L12.0534 35.2709L11.2256 36.0988L12.0534 36.9265L12.8812 36.0988L13.7091 36.9265L14.5368 36.0988L13.7091 35.2709L14.5368 34.443Z" fill="white"/>
<path d="M38.0263 19.5173L37.1984 18.6895L36.3705 19.5173L35.5428 18.6895L34.7148 19.5173L35.5427 20.3452L34.7148 21.173L35.5428 22.0008L36.3705 21.173L37.1984 22.0008L38.0263 21.173L37.1984 20.3452L38.0263 19.5173Z" fill="white"/>
<path d="M6.99785 19.3708L6.17004 18.543L5.34215 19.3709L4.51441 18.543L3.68652 19.3708L4.51441 20.1986L3.68652 21.0265L4.51441 21.8543L5.34215 21.0265L6.17004 21.8543L6.99785 21.0265L6.17004 20.1986L6.99785 19.3708Z" fill="white"/>
<path d="M29.8318 34.443L29.004 33.6152L28.1762 34.443L27.3484 33.6152L26.5205 34.443L27.3483 35.2709L26.5205 36.0988L27.3484 36.9265L28.1762 36.0988L29.004 36.9265L29.8318 36.0988L29.0041 35.2709L29.8318 34.443Z" fill="white"/>
</g>
<defs>
<clipPath id="clip0_963_17448">
<rect width="40" height="40" fill="white" transform="translate(0.649414 0.46875)"/>
</clipPath>
</defs>
</svg>
