<svg width="40" height="40" viewBox="0 0 30 31" fill="none" xmlns="http://www.w3.org/2000/svg">
<g clip-path="url(#clip0_844_2)">
<path d="M14.9999 8.7793L4.30051 17.5998C4.30051 17.6122 4.29738 17.6305 4.29112 17.6555C4.285 17.6803 4.28174 17.6983 4.28174 17.711V26.6427C4.28174 26.9652 4.39964 27.2447 4.63538 27.48C4.87105 27.7155 5.15013 27.834 5.47268 27.834H12.6178V20.6884H17.3819V27.8342H24.527C24.8495 27.8342 25.129 27.716 25.3643 27.48C25.6001 27.2449 25.7184 26.9653 25.7184 26.6427V17.711C25.7184 17.6615 25.7116 17.6241 25.6996 17.5998L14.9999 8.7793Z" fill="white"/>
<path d="M29.793 15.5891L25.7182 12.2025V4.61041C25.7182 4.43685 25.6624 4.29412 25.5504 4.1824C25.4393 4.07083 25.2966 4.01504 25.1227 4.01504H21.55C21.3763 4.01504 21.2336 4.07083 21.1218 4.1824C21.0103 4.29412 20.9546 4.43691 20.9546 4.61041V8.23891L16.4143 4.44278C16.0178 4.12023 15.5463 3.95898 15.0004 3.95898C14.4546 3.95898 13.9832 4.12023 13.5863 4.44278L0.206772 15.5891C0.0827436 15.6882 0.0147659 15.8215 0.00212194 15.989C-0.0104569 16.1564 0.0328846 16.3026 0.132277 16.4265L1.28594 17.8036C1.38533 17.9151 1.51542 17.9834 1.67673 18.0083C1.82566 18.0209 1.97458 17.9773 2.12351 17.8781L15 7.14103L27.8767 17.8781C27.9762 17.9646 28.1062 18.0078 28.2675 18.0078H28.3234C28.4845 17.9833 28.6143 17.9146 28.7142 17.8033L29.868 16.4265C29.9672 16.3022 30.0107 16.1563 29.9978 15.9888C29.985 15.8217 29.9168 15.6884 29.793 15.5891Z" fill="white"/>
</g>
<defs>
<clipPath id="clip0_844_2">
<rect width="30" height="29.9999" fill="white" transform="translate(0 0.896484)"/>
</clipPath>
</defs>
</svg>
