<svg width="64" height="53" viewBox="0 0 64 53" fill="none" xmlns="http://www.w3.org/2000/svg">
<circle cx="30.8916" cy="28.6037" r="22.2611" stroke="#21212C" stroke-width="2.0065"/>
<g clip-path="url(#clip0_333_4217)">
<path d="M37.5835 11.2207L32.5522 8.31597C31.5253 7.72313 30.2602 7.72313 29.2332 8.31597L14.1533 17.0223C13.1264 17.6151 12.4938 18.7109 12.4938 19.8966V37.3094C12.4938 38.4951 13.1265 39.5909 14.1533 40.1837L29.2332 48.8901C30.2601 49.483 31.5252 49.483 32.5522 48.8901L47.632 40.1838C48.6589 39.591 49.2915 38.4952 49.2915 37.3095V19.8967C49.2915 18.711 48.6588 17.6152 47.632 17.0224L40.1145 12.6821" stroke="#21212C" stroke-width="1.89579" stroke-miterlimit="10" stroke-linecap="round" stroke-linejoin="round"/>
<path d="M48.615 17.8891L30.8929 15.4844" stroke="#21212C" stroke-width="1.89579" stroke-miterlimit="10" stroke-linecap="round" stroke-linejoin="round"/>
<path d="M48.9076 38.8569L42.4493 32.666L49.0158 18.5737" stroke="#21212C" stroke-width="1.89579" stroke-miterlimit="10" stroke-linecap="round" stroke-linejoin="round"/>
<path d="M12.7703 18.5737L19.3367 32.666L12.8786 38.8569" stroke="#21212C" stroke-width="1.89579" stroke-miterlimit="10" stroke-linecap="round" stroke-linejoin="round"/>
<path d="M30.8925 7.87134V15.4839L13.1703 17.8887" stroke="#21212C" stroke-width="1.89579" stroke-miterlimit="10" stroke-linecap="round" stroke-linejoin="round"/>
<path d="M41.0089 20.0452H42.1707V25.4806" stroke="#21212C" stroke-width="1.89579" stroke-miterlimit="10" stroke-linecap="round" stroke-linejoin="round"/>
<path d="M19.1838 20.0452H22.1741L19.7846 25.4806" stroke="#21212C" stroke-width="1.89579" stroke-miterlimit="10" stroke-linecap="round" stroke-linejoin="round"/>
<path d="M29.5276 38.1435C29.6532 37.5043 30.2165 37.0222 30.8924 37.0222C31.6605 37.0222 32.2832 37.6449 32.2832 38.413C32.2832 39.1812 31.6605 39.8039 30.8924 39.8039" stroke="#21212C" stroke-width="1.89579" stroke-miterlimit="10" stroke-linecap="round" stroke-linejoin="round"/>
<path d="M30.8938 39.8037C31.6619 39.8037 32.2846 40.4264 32.2846 41.1945C32.2846 41.9626 31.6619 42.5854 30.8938 42.5854C30.1915 42.5854 29.6108 42.0648 29.5164 41.3885C29.5076 41.3251 29.503 41.2604 29.503 41.1945" stroke="#21212C" stroke-width="1.89579" stroke-miterlimit="10" stroke-linecap="round" stroke-linejoin="round"/>
<path d="M31.272 23.4714C31.272 23.4714 29.6069 24.7099 29.3383 27.0486" stroke="#21212C" stroke-width="1.89579" stroke-miterlimit="10" stroke-linecap="round" stroke-linejoin="round"/>
<path d="M30.8934 28.8484C31.7615 28.8484 32.4652 28.1447 32.4652 27.2766C32.4652 26.4085 31.7615 25.7048 30.8934 25.7048C30.0254 25.7048 29.3217 26.4085 29.3217 27.2766C29.3217 28.1447 30.0254 28.8484 30.8934 28.8484Z" stroke="#21212C" stroke-width="1.89579" stroke-miterlimit="10" stroke-linecap="round" stroke-linejoin="round"/>
<path d="M27.3166 32.6664H42.4481L30.8922 15.4844L19.3361 32.6664H24.3966" stroke="#21212C" stroke-width="1.89579" stroke-miterlimit="10" stroke-linecap="round" stroke-linejoin="round"/>
<path d="M31.2532 49.3141L42.4498 32.6665" stroke="#21212C" stroke-width="1.89579" stroke-miterlimit="10" stroke-linecap="round" stroke-linejoin="round"/>
<path d="M19.3361 32.6665L30.5327 49.3141" stroke="#21212C" stroke-width="1.89579" stroke-miterlimit="10" stroke-linecap="round" stroke-linejoin="round"/>
</g>
<rect x="9.59847" y="7.30978" width="42.5885" height="42.5885" stroke="#21212C" stroke-width="0.126386"/>
<mask id="path-18-inside-1_333_4217" fill="white">
<path d="M51.4732 6.86479C53.163 6.86479 54.5377 5.5814 54.5377 4.00442C54.5377 2.42743 53.163 1.14404 51.4732 1.14404C49.7983 1.14404 48.4355 2.42743 48.4355 4.00442C48.4355 5.5814 49.7983 6.86479 51.4732 6.86479ZM51.4732 2.09394C52.6014 2.09394 53.5198 2.95108 53.5198 4.00442C53.5198 5.05775 52.6014 5.91489 51.4732 5.91489C50.3599 5.91489 49.4534 5.05775 49.4534 4.00442C49.4534 2.95108 50.3599 2.09394 51.4732 2.09394Z"/>
</mask>
<path d="M51.4732 6.86479C53.163 6.86479 54.5377 5.5814 54.5377 4.00442C54.5377 2.42743 53.163 1.14404 51.4732 1.14404C49.7983 1.14404 48.4355 2.42743 48.4355 4.00442C48.4355 5.5814 49.7983 6.86479 51.4732 6.86479ZM51.4732 2.09394C52.6014 2.09394 53.5198 2.95108 53.5198 4.00442C53.5198 5.05775 52.6014 5.91489 51.4732 5.91489C50.3599 5.91489 49.4534 5.05775 49.4534 4.00442C49.4534 2.95108 50.3599 2.09394 51.4732 2.09394Z" fill="#21212C"/>
<path d="M51.4732 10.5338C54.9473 10.5338 58.2067 7.84164 58.2067 4.00442H50.8686C50.8686 3.69113 51.0114 3.45969 51.1355 3.34387C51.2556 3.23172 51.3827 3.19576 51.4732 3.19576V10.5338ZM58.2067 4.00442C58.2067 0.167193 54.9473 -2.52499 51.4732 -2.52499V4.81307C51.3827 4.81307 51.2556 4.77711 51.1355 4.66496C51.0114 4.54915 50.8686 4.3177 50.8686 4.00442H58.2067ZM51.4732 -2.52499C47.9828 -2.52499 44.7665 0.196479 44.7665 4.00442H52.1046C52.1046 4.30642 51.9681 4.53484 51.8416 4.65398C51.7186 4.76985 51.5811 4.81307 51.4732 4.81307V-2.52499ZM44.7665 4.00442C44.7665 7.81235 47.9828 10.5338 51.4732 10.5338V3.19576C51.5811 3.19576 51.7186 3.23898 51.8416 3.35485C51.9681 3.47399 52.1046 3.70241 52.1046 4.00442H44.7665ZM51.4732 5.76298C50.8173 5.76298 49.8508 5.21151 49.8508 4.00442H57.1889C57.1889 0.690657 54.3854 -1.57509 51.4732 -1.57509V5.76298ZM49.8508 4.00442C49.8508 2.79732 50.8173 2.24586 51.4732 2.24586V9.58392C54.3854 9.58392 57.1889 7.31818 57.1889 4.00442H49.8508ZM51.4732 2.24586C52.1908 2.24586 53.1224 2.84132 53.1224 4.00442H45.7844C45.7844 7.27418 48.529 9.58392 51.4732 9.58392V2.24586ZM53.1224 4.00442C53.1224 5.16751 52.1908 5.76298 51.4732 5.76298V-1.57509C48.529 -1.57509 45.7844 0.734655 45.7844 4.00442H53.1224Z" fill="#21212C" mask="url(#path-18-inside-1_333_4217)"/>
<mask id="path-20-inside-2_333_4217" fill="white">
<path d="M38.2436 2.58434H39.3672V3.70848C39.3672 3.97752 39.5849 4.19521 39.854 4.19521C40.123 4.19521 40.3407 3.97752 40.3407 3.70848V2.58434H41.4653C41.7344 2.58434 41.9521 2.36664 41.9521 2.09761C41.9521 1.82857 41.7344 1.61088 41.4653 1.61088H40.3407V0.486732C40.3407 0.217699 40.123 0 39.854 0C39.5849 0 39.3672 0.217699 39.3672 0.486732V1.61088H38.2436C37.9745 1.61088 37.7568 1.82857 37.7568 2.09761C37.7568 2.36664 37.9745 2.58434 38.2436 2.58434Z"/>
</mask>
<path d="M38.2436 2.58434H39.3672V3.70848C39.3672 3.97752 39.5849 4.19521 39.854 4.19521C40.123 4.19521 40.3407 3.97752 40.3407 3.70848V2.58434H41.4653C41.7344 2.58434 41.9521 2.36664 41.9521 2.09761C41.9521 1.82857 41.7344 1.61088 41.4653 1.61088H40.3407V0.486732C40.3407 0.217699 40.123 0 39.854 0C39.5849 0 39.3672 0.217699 39.3672 0.486732V1.61088H38.2436C37.9745 1.61088 37.7568 1.82857 37.7568 2.09761C37.7568 2.36664 37.9745 2.58434 38.2436 2.58434Z" fill="#21212C"/>
<path d="M39.3672 2.58434H43.0363V-1.08469H39.3672V2.58434ZM40.3407 2.58434V-1.08469H36.6717V2.58434H40.3407ZM40.3407 1.61088H36.6717V5.27991H40.3407V1.61088ZM39.3672 1.61088V5.27991H43.0363V1.61088H39.3672ZM38.2436 6.25337H39.3672V-1.08469H38.2436V6.25337ZM35.6982 2.58434V3.70848H43.0363V2.58434H35.6982ZM35.6982 3.70848C35.6982 6.00387 37.5586 7.86424 39.854 7.86424V0.526184C41.6113 0.526184 43.0363 1.95117 43.0363 3.70848H35.6982ZM39.854 7.86424C42.1494 7.86424 44.0097 6.00387 44.0097 3.70848H36.6717C36.6717 1.95117 38.0967 0.526184 39.854 0.526184V7.86424ZM44.0097 3.70848V2.58434H36.6717V3.70848H44.0097ZM40.3407 6.25337H41.4653V-1.08469H40.3407V6.25337ZM41.4653 6.25337C43.7607 6.25337 45.6211 4.39299 45.6211 2.09761H38.283C38.283 0.340292 39.708 -1.08469 41.4653 -1.08469V6.25337ZM45.6211 2.09761C45.6211 -0.197776 43.7607 -2.05816 41.4653 -2.05816V5.27991C39.708 5.27991 38.283 3.85492 38.283 2.09761H45.6211ZM41.4653 -2.05816H40.3407V5.27991H41.4653V-2.05816ZM44.0097 1.61088V0.486732H36.6717V1.61088H44.0097ZM44.0097 0.486732C44.0097 -1.80865 42.1494 -3.66903 39.854 -3.66903V3.66903C38.0967 3.66903 36.6717 2.24405 36.6717 0.486732H44.0097ZM39.854 -3.66903C37.5586 -3.66903 35.6982 -1.80865 35.6982 0.486732H43.0363C43.0363 2.24405 41.6113 3.66903 39.854 3.66903V-3.66903ZM35.6982 0.486732V1.61088H43.0363V0.486732H35.6982ZM39.3672 -2.05816H38.2436V5.27991H39.3672V-2.05816ZM38.2436 -2.05816C35.9482 -2.05816 34.0878 -0.197776 34.0878 2.09761H41.4259C41.4259 3.85492 40.0009 5.27991 38.2436 5.27991V-2.05816ZM34.0878 2.09761C34.0878 4.39299 35.9482 6.25337 38.2436 6.25337V-1.08469C40.0009 -1.08469 41.4259 0.340292 41.4259 2.09761H34.0878Z" fill="#21212C" mask="url(#path-20-inside-2_333_4217)"/>
<path d="M4.37193 12.4229L4.37201 12.4229L4.37193 12.4229ZM4.37193 12.4229L4.19949 11.8788L4.37193 12.4229ZM3.68549 14.6224L3.68554 14.6224L3.68549 14.6224ZM3.68549 14.6224L3.6854 14.6225L3.68549 14.6224ZM1.99999 11.1923L2.00002 11.1924L1.99999 11.1923Z" fill="#21212C" stroke="#21212C" stroke-width="3.66903"/>
<mask id="path-23-inside-3_333_4217" fill="white">
<path d="M9.46408 6.84855L10.1226 5.57908L11.3927 6.23793C11.6966 6.3956 12.0701 6.27725 12.2278 5.97331C12.3855 5.66937 12.2671 5.29583 11.9632 5.13816L10.6932 4.47931L11.3523 3.20877C11.51 2.90483 11.3916 2.5313 11.0877 2.37362C10.7837 2.21594 10.4102 2.3343 10.2525 2.63824L9.59341 3.90878L8.32341 3.24993C8.01947 3.09226 7.64593 3.21061 7.48826 3.51455C7.33058 3.81849 7.44893 4.19203 7.75287 4.34971L9.02288 5.00855L8.36431 6.27801C8.20663 6.58196 8.32499 6.95549 8.62893 7.11317C8.93287 7.27084 9.30641 7.15249 9.46408 6.84855Z"/>
</mask>
<path d="M9.46408 6.84855L10.1226 5.57908L11.3927 6.23793C11.6966 6.3956 12.0701 6.27725 12.2278 5.97331C12.3855 5.66937 12.2671 5.29583 11.9632 5.13816L10.6932 4.47931L11.3523 3.20877C11.51 2.90483 11.3916 2.5313 11.0877 2.37362C10.7837 2.21594 10.4102 2.3343 10.2525 2.63824L9.59341 3.90878L8.32341 3.24993C8.01947 3.09226 7.64593 3.21061 7.48826 3.51455C7.33058 3.81849 7.44893 4.19203 7.75287 4.34971L9.02288 5.00855L8.36431 6.27801C8.20663 6.58196 8.32499 6.95549 8.62893 7.11317C8.93287 7.27084 9.30641 7.15249 9.46408 6.84855Z" fill="#21212C"/>
<path d="M10.1226 5.57908L11.8122 2.32223L8.55537 0.632651L6.86579 3.88951L10.1226 5.57908ZM10.6932 4.47931L7.43633 2.78974L5.74675 6.04659L9.00361 7.73617L10.6932 4.47931ZM9.59341 3.90878L7.90384 7.16563L11.1607 8.85521L12.8503 5.59835L9.59341 3.90878ZM9.02288 5.00855L12.2797 6.69812L13.9693 3.44127L10.7125 1.75169L9.02288 5.00855ZM12.7209 8.53812L13.3795 7.26866L6.86579 3.88951L6.20723 5.15897L12.7209 8.53812ZM8.43307 8.83594L9.70308 9.49479L13.0822 2.98107L11.8122 2.32223L8.43307 8.83594ZM9.70308 9.49479C11.8057 10.5856 14.3939 9.76554 15.4847 7.66288L8.97095 4.28373C9.7464 2.78896 11.5875 2.20562 13.0822 2.98107L9.70308 9.49479ZM15.4847 7.66288C16.5755 5.56023 15.7554 2.9721 13.6528 1.8813L10.2736 8.39501C8.77884 7.61956 8.1955 5.77851 8.97095 4.28373L15.4847 7.66288ZM13.6528 1.8813L12.3828 1.22245L9.00361 7.73617L10.2736 8.39501L13.6528 1.8813ZM13.95 6.16889L14.6092 4.89835L8.09545 1.5192L7.43633 2.78974L13.95 6.16889ZM14.6092 4.89835C15.7 2.79569 14.8799 0.207563 12.7773 -0.88324L9.39811 5.63048C7.90334 4.85503 7.32 3.01397 8.09545 1.5192L14.6092 4.89835ZM12.7773 -0.88324C10.6746 -1.97404 8.08648 -1.15399 6.99568 0.948663L13.5094 4.32781C12.7339 5.82258 10.8929 6.40593 9.39811 5.63048L12.7773 -0.88324ZM6.99568 0.948663L6.33655 2.2192L12.8503 5.59835L13.5094 4.32781L6.99568 0.948663ZM11.283 0.651918L10.013 -0.00692585L6.63383 6.50679L7.90384 7.16563L11.283 0.651918ZM10.013 -0.00692585C7.91033 -1.09773 5.3222 -0.277677 4.2314 1.82498L10.7451 5.20413C9.96966 6.6989 8.12861 7.28224 6.63383 6.50679L10.013 -0.00692585ZM4.2314 1.82498C3.14059 3.92763 3.96065 6.51576 6.0633 7.60656L9.44245 1.09285C10.9372 1.8683 11.5206 3.70935 10.7451 5.20413L4.2314 1.82498ZM6.0633 7.60656L7.3333 8.26541L10.7125 1.75169L9.44245 1.09285L6.0633 7.60656ZM5.76602 3.31897L5.10745 4.58844L11.6212 7.96759L12.2797 6.69812L5.76602 3.31897ZM5.10745 4.58844C4.01665 6.69109 4.8367 9.27922 6.93936 10.37L10.3185 3.85631C11.8133 4.63176 12.3966 6.47282 11.6212 7.96759L5.10745 4.58844ZM6.93936 10.37C9.04201 11.4608 11.6301 10.6408 12.7209 8.53812L6.20723 5.15897C6.98268 3.6642 8.82373 3.08086 10.3185 3.85631L6.93936 10.37Z" fill="#21212C" mask="url(#path-23-inside-3_333_4217)"/>
<mask id="path-25-inside-4_333_4217" fill="white">
<path d="M9.03393 45.9235L8.19641 46.761L7.35889 45.9235C7.15865 45.7232 6.83425 45.7232 6.63401 45.9235C6.43376 46.1237 6.43376 46.4481 6.63401 46.6484L7.47153 47.4859L6.63401 48.3235C6.43376 48.5237 6.43376 48.8481 6.63401 49.0484C6.83425 49.2486 7.15864 49.2486 7.35889 49.0484L8.19641 48.2108L9.03393 49.0484C9.23417 49.2486 9.55856 49.2486 9.75881 49.0484C9.95905 48.8481 9.95905 48.5237 9.75881 48.3235L8.92129 47.4859L9.75881 46.6484C10.2386 46.1686 9.51338 45.444 9.03393 45.9235Z"/>
</mask>
<path d="M9.03393 45.9235L8.19641 46.761L7.35889 45.9235C7.15865 45.7232 6.83425 45.7232 6.63401 45.9235C6.43376 46.1237 6.43376 46.4481 6.63401 46.6484L7.47153 47.4859L6.63401 48.3235C6.43376 48.5237 6.43376 48.8481 6.63401 49.0484C6.83425 49.2486 7.15864 49.2486 7.35889 49.0484L8.19641 48.2108L9.03393 49.0484C9.23417 49.2486 9.55856 49.2486 9.75881 49.0484C9.95905 48.8481 9.95905 48.5237 9.75881 48.3235L8.92129 47.4859L9.75881 46.6484C10.2386 46.1686 9.51338 45.444 9.03393 45.9235Z" fill="#21212C"/>
<path d="M9.03393 45.9235L11.6284 48.5179L11.6284 48.5179L9.03393 45.9235ZM8.19641 46.761L5.60198 49.3554L8.19641 51.9499L10.7908 49.3554L8.19641 46.761ZM7.35889 45.9235L4.76446 48.5179L7.35889 45.9235ZM7.47153 47.4859L10.066 50.0803L12.6603 47.4859L10.066 44.8916L7.47153 47.4859ZM6.63401 48.3235L9.22844 50.9178L9.22844 50.9178L6.63401 48.3235ZM6.63401 49.0484L4.03958 51.6427L4.0396 51.6428L6.63401 49.0484ZM7.35889 49.0484L4.76446 46.454L4.76445 46.454L7.35889 49.0484ZM8.19641 48.2108L10.7908 45.6165L8.19641 43.022L5.60198 45.6165L8.19641 48.2108ZM9.03393 49.0484L6.4395 51.6427L6.43951 51.6428L9.03393 49.0484ZM9.75881 49.0484L7.16438 46.454L7.16437 46.454L9.75881 49.0484ZM9.75881 48.3235L7.16438 50.9178L7.16438 50.9178L9.75881 48.3235ZM8.92129 47.4859L6.32686 44.8916L3.73256 47.4859L6.32686 50.0803L8.92129 47.4859ZM9.75881 46.6484L7.16438 44.054L7.16438 44.054L9.75881 46.6484ZM6.4395 43.3291L5.60198 44.1667L10.7908 49.3554L11.6284 48.5179L6.4395 43.3291ZM10.7908 44.1667L9.95332 43.3291L4.76446 48.5179L5.60198 49.3554L10.7908 44.1667ZM9.95332 43.3291C8.32022 41.696 5.67268 41.696 4.03958 43.3291L9.22844 48.5179C7.99583 49.7505 5.99707 49.7505 4.76446 48.5179L9.95332 43.3291ZM4.03958 43.3291C2.40653 44.9622 2.40653 47.6097 4.03958 49.2428L9.22844 44.054C10.461 45.2866 10.461 47.2853 9.22844 48.5179L4.03958 43.3291ZM4.03958 49.2428L4.8771 50.0803L10.066 44.8916L9.22844 44.054L4.03958 49.2428ZM4.8771 44.8916L4.03958 45.7291L9.22844 50.9178L10.066 50.0803L4.8771 44.8916ZM4.03958 45.7291C2.40653 47.3622 2.40653 50.0097 4.03958 51.6427L9.22844 46.454C10.461 47.6866 10.461 49.6852 9.22844 50.9178L4.03958 45.7291ZM4.0396 51.6428C5.67259 53.2758 8.32014 53.276 9.95333 51.6427L4.76445 46.454C5.99714 45.2213 7.9959 45.2215 9.22842 46.454L4.0396 51.6428ZM9.95332 51.6427L10.7908 50.8052L5.60198 45.6165L4.76446 46.454L9.95332 51.6427ZM5.60198 50.8052L6.4395 51.6427L11.6284 46.454L10.7908 45.6165L5.60198 50.8052ZM6.43951 51.6428C8.07251 53.2758 10.7201 53.276 12.3533 51.6427L7.16437 46.454C8.39706 45.2213 10.3958 45.2215 11.6283 46.454L6.43951 51.6428ZM12.3532 51.6427C13.9863 50.0097 13.9863 47.3622 12.3532 45.7291L7.16438 50.9178C5.93182 49.6852 5.93182 47.6866 7.16438 46.454L12.3532 51.6427ZM12.3532 45.7291L11.5157 44.8916L6.32686 50.0803L7.16438 50.9178L12.3532 45.7291ZM11.5157 50.0803L12.3532 49.2428L7.16438 44.054L6.32686 44.8916L11.5157 50.0803ZM12.3532 49.2428C13.1838 48.4122 13.654 47.2615 13.5772 46.0359C13.5063 44.9031 12.9882 43.9693 12.35 43.3313C11.7117 42.6933 10.7782 42.176 9.64601 42.1051C8.42127 42.0285 7.2705 42.4981 6.43949 43.3291L11.6284 48.5179C11.0371 49.1091 10.1568 49.4895 9.18785 49.4289C8.31151 49.3741 7.61916 48.9779 7.16219 48.5211C6.7052 48.0643 6.30845 47.3717 6.25351 46.4947C6.19278 45.5249 6.57368 44.6447 7.16438 44.054L12.3532 49.2428Z" fill="#21212C" mask="url(#path-25-inside-4_333_4217)"/>
<mask id="path-27-inside-5_333_4217" fill="white">
<path d="M62.1907 42.5467L61.3414 41.8109L62.0773 40.9616C62.2534 40.7583 62.2315 40.4512 62.0282 40.275C61.8248 40.0989 61.5177 40.1208 61.3416 40.3242L60.6057 41.1734L59.7558 40.4369C59.5525 40.2608 59.2454 40.2827 59.0692 40.4861C58.893 40.6894 58.915 40.9965 59.1183 41.1726L59.9683 41.9091L59.2318 42.759C59.0556 42.9624 59.0776 43.2695 59.2809 43.4456C59.4843 43.6218 59.7913 43.5998 59.9675 43.3965L60.704 42.5466L61.5532 43.2824C61.7565 43.4586 62.0636 43.4366 62.2398 43.2333C62.416 43.03 62.394 42.7229 62.1907 42.5467Z"/>
</mask>
<path d="M62.1907 42.5467L61.3414 41.8109L62.0773 40.9616C62.2534 40.7583 62.2315 40.4512 62.0282 40.275C61.8248 40.0989 61.5177 40.1208 61.3416 40.3242L60.6057 41.1734L59.7558 40.4369C59.5525 40.2608 59.2454 40.2827 59.0692 40.4861C58.893 40.6894 58.915 40.9965 59.1183 41.1726L59.9683 41.9091L59.2318 42.759C59.0556 42.9624 59.0776 43.2695 59.2809 43.4456C59.4843 43.6218 59.7913 43.5998 59.9675 43.3965L60.704 42.5466L61.5532 43.2824C61.7565 43.4586 62.0636 43.4366 62.2398 43.2333C62.416 43.03 62.394 42.7229 62.1907 42.5467Z" fill="#21212C"/>
<path d="M61.3414 41.8109L58.5685 39.4082L56.1659 42.1811L58.9388 44.5838L61.3414 41.8109ZM60.6057 41.1734L58.2031 43.9463L60.976 46.349L63.3786 43.576L60.6057 41.1734ZM59.9683 41.9091L62.7412 44.3117L65.1438 41.5388L62.3709 39.1362L59.9683 41.9091ZM60.704 42.5466L63.1066 39.7737L60.3337 37.371L57.9311 40.1439L60.704 42.5466ZM64.5933 39.7738L63.7441 39.0379L58.9388 44.5838L59.788 45.3196L64.5933 39.7738ZM64.1144 44.2135L64.8502 43.3643L59.3044 38.559L58.5685 39.4082L64.1144 44.2135ZM64.8502 43.3643C66.3533 41.6295 66.1656 39.0053 64.4308 37.5021L59.6255 43.048C58.2974 41.8972 58.1536 39.8871 59.3044 38.559L64.8502 43.3643ZM64.4308 37.5021C62.696 35.999 60.0718 36.1867 58.5687 37.9215L64.1145 42.7268C62.9637 44.0549 60.9536 44.1987 59.6255 43.048L64.4308 37.5021ZM58.5687 37.9215L57.8328 38.7707L63.3786 43.576L64.1145 42.7268L58.5687 37.9215ZM63.0084 38.4005L62.1584 37.664L57.3531 43.2098L58.2031 43.9463L63.0084 38.4005ZM62.1584 37.664C60.4237 36.1609 57.7994 36.3486 56.2963 38.0834L61.8421 42.8887C60.6913 44.2168 58.6813 44.3606 57.3531 43.2098L62.1584 37.664ZM56.2963 38.0834C54.7932 39.8182 54.9809 42.4424 56.7157 43.9456L61.521 38.3997C62.8491 39.5505 62.9929 41.5606 61.8421 42.8887L56.2963 38.0834ZM56.7157 43.9456L57.5656 44.682L62.3709 39.1362L61.521 38.3997L56.7157 43.9456ZM57.1954 39.5064L56.4589 40.3564L62.0047 45.1617L62.7412 44.3117L57.1954 39.5064ZM56.4589 40.3564C54.9558 42.0911 55.1435 44.7154 56.8783 46.2185L61.6836 40.6727C63.0117 41.8235 63.1555 43.8336 62.0047 45.1617L56.4589 40.3564ZM56.8783 46.2185C58.613 47.7217 61.2373 47.5339 62.7404 45.7992L57.1946 40.9939C58.3454 39.6657 60.3555 39.5219 61.6836 40.6727L56.8783 46.2185ZM62.7404 45.7992L63.4769 44.9492L57.9311 40.1439L57.1946 40.9939L62.7404 45.7992ZM58.3013 45.3195L59.1505 46.0553L63.9559 40.5095L63.1066 39.7737L58.3013 45.3195ZM59.1505 46.0553C60.8853 47.5584 63.5096 47.3707 65.0127 45.6359L59.4669 40.8306C60.6176 39.5025 62.6277 39.3587 63.9559 40.5095L59.1505 46.0553ZM65.0127 45.6359C66.5158 43.9012 66.3281 41.2769 64.5933 39.7738L59.788 45.3196C58.4599 44.1688 58.3161 42.1587 59.4669 40.8306L65.0127 45.6359Z" fill="#21212C" mask="url(#path-27-inside-5_333_4217)"/>
<mask id="path-29-inside-6_333_4217" fill="white">
<path d="M54.4775 46.3476C53.2117 45.2508 51.3415 45.3281 50.3087 46.5202C49.2758 47.7122 49.4655 49.5743 50.7313 50.6711C52.0084 51.7777 53.8876 51.7081 54.9204 50.5161C55.9533 49.3241 55.7546 47.4541 54.4775 46.3476ZM51.3534 49.9531C50.5121 49.2241 50.3883 47.9825 51.0779 47.1867C51.7675 46.3908 53.014 46.3366 53.8554 47.0656C54.708 47.8044 54.8407 49.0537 54.1512 49.8496C53.4616 50.6454 52.2061 50.6919 51.3534 49.9531Z"/>
</mask>
<path d="M54.4775 46.3476C53.2117 45.2508 51.3415 45.3281 50.3087 46.5202C49.2758 47.7122 49.4655 49.5743 50.7313 50.6711C52.0084 51.7777 53.8876 51.7081 54.9204 50.5161C55.9533 49.3241 55.7546 47.4541 54.4775 46.3476ZM51.3534 49.9531C50.5121 49.2241 50.3883 47.9825 51.0779 47.1867C51.7675 46.3908 53.014 46.3366 53.8554 47.0656C54.708 47.8044 54.8407 49.0537 54.1512 49.8496C53.4616 50.6454 52.2061 50.6919 51.3534 49.9531Z" fill="#21212C"/>
<path d="M56.8802 43.5747C54.2424 41.2892 50.0297 41.2393 47.5357 44.1175L53.0816 48.9228C52.884 49.1509 52.6313 49.2343 52.4574 49.2415C52.2884 49.2485 52.1562 49.191 52.0748 49.1205L56.8802 43.5747ZM47.5357 44.1175C45.0418 46.9957 45.6909 51.1585 48.3286 53.444L53.1339 47.8982C53.2153 47.9687 53.291 48.0914 53.3081 48.2597C53.3258 48.4328 53.2792 48.6947 53.0816 48.9228L47.5357 44.1175ZM48.3286 53.444C50.954 55.7189 55.1802 55.8191 57.6933 52.9188L52.1475 48.1135C52.3525 47.8769 52.6119 47.7953 52.7818 47.7891C52.9462 47.783 53.0657 47.8391 53.1339 47.8982L48.3286 53.444ZM57.6933 52.9188C60.2064 50.0184 59.5055 45.8495 56.8802 43.5747L52.0748 49.1205C52.0066 49.0614 51.9341 48.951 51.9167 48.7875C51.8987 48.6185 51.9425 48.3501 52.1475 48.1135L57.6933 52.9188ZM53.7561 47.1802C54.2984 47.6501 54.6127 48.7101 53.8508 49.5893L48.305 44.784C46.164 47.255 46.7257 50.798 48.9508 52.726L53.7561 47.1802ZM53.8508 49.5893C53.089 50.4686 51.995 50.3084 51.4527 49.8385L56.258 44.2927C54.0329 42.3647 50.446 42.3131 48.305 44.784L53.8508 49.5893ZM51.4527 49.8385C50.957 49.409 50.5876 48.3594 51.3782 47.4469L56.9241 52.2522C59.0939 49.748 58.459 46.1998 56.258 44.2927L51.4527 49.8385ZM51.3782 47.4469C52.1689 46.5344 53.2604 46.7507 53.7561 47.1802L48.9508 52.726C51.1517 54.6331 54.7542 54.7564 56.9241 52.2522L51.3782 47.4469Z" fill="#21212C" mask="url(#path-29-inside-6_333_4217)"/>
<defs>
<clipPath id="clip0_333_4217">
<rect x="9.53528" y="7.24658" width="42.7149" height="42.7149" fill="white"/>
</clipPath>
</defs>
</svg>
