<svg width="52" height="45" viewBox="0 0 52 45" fill="none" xmlns="http://www.w3.org/2000/svg">
<path d="M49.6367 24.8184C48.9276 24.8184 48.4549 25.2911 48.4549 26.0001V41.3638C48.4549 42.0729 47.9821 42.5456 47.2731 42.5456H4.72759C4.01848 42.5456 3.54581 42.0728 3.54581 41.3638V26.0001C3.54581 25.291 3.07304 24.8184 2.36403 24.8184C1.65502 24.8184 1.18225 25.2911 1.18225 26.0001V41.3638C1.18225 43.3729 2.71859 44.9093 4.7277 44.9093H47.2731C49.2822 44.9093 50.8186 43.3729 50.8186 41.3638V26.0001C50.8186 25.291 50.3458 24.8184 49.6367 24.8184Z" fill="#21212C"/>
<path d="M48.4546 8.27295H3.54545C1.53634 8.27295 0 9.80928 0 11.8184V19.3821C0 21.0365 1.18178 22.4547 2.71822 22.8093L21.2728 26.9456V30.7274C21.2728 31.4365 21.7455 31.9092 22.4546 31.9092H29.5454C30.2546 31.9092 30.7272 31.4364 30.7272 30.7274V26.9456L49.2818 22.8093C50.8182 22.4547 52 21.0365 52 19.382V11.8183C52 9.80929 50.4637 8.27295 48.4546 8.27295ZM28.3637 29.5456H23.6364V24.8184H28.3637V29.5456ZM49.6363 19.382C49.6363 19.9728 49.2818 20.4456 48.6909 20.5637L30.7272 24.582V23.6365C30.7272 22.9274 30.2545 22.4547 29.5454 22.4547H22.4546C21.7454 22.4547 21.2728 22.9275 21.2728 23.6365V24.582L3.30911 20.5638C2.71822 20.4456 2.36366 19.9729 2.36366 19.3821V11.8184C2.36366 11.1093 2.83644 10.6366 3.54545 10.6366H48.4546C49.1637 10.6366 49.6363 11.1094 49.6363 11.8184V19.382Z" fill="#21212C"/>
<path d="M31.9094 0H20.0912C18.0821 0 16.5458 1.53634 16.5458 3.54545V4.72723C16.5458 5.43634 17.0185 5.90901 17.7276 5.90901C18.4366 5.90901 18.9093 5.43623 18.9093 4.72723V3.54545C18.9093 2.83634 19.3821 2.36366 20.0911 2.36366H31.9093C32.6184 2.36366 33.0911 2.83644 33.0911 3.54545V4.72723C33.0911 5.43634 33.5639 5.90901 34.2729 5.90901C34.982 5.90901 35.4547 5.43623 35.4547 4.72723V3.54545C35.4549 1.53634 33.9186 0 31.9094 0Z" fill="#21212C"/>
</svg>
