<svg width="88" height="113" viewBox="0 0 88 113" fill="none" xmlns="http://www.w3.org/2000/svg">
<path d="M62.6274 19.6115C62.1256 20.2023 61.8677 20.8173 61.8538 21.4563C61.8642 22.0978 62.1332 22.7402 62.6608 23.3836C63.3422 24.2146 64.1786 24.5375 65.1699 24.3522C66.1746 24.156 67.4946 23.3874 69.1297 22.0466C68.4481 22.09 67.7558 21.9292 67.0529 21.5641C66.361 21.2124 65.7513 20.7148 65.2237 20.0715C64.5203 19.2137 64.0571 18.2934 63.8341 17.3107C63.6354 16.3304 63.7197 15.3534 64.087 14.3798C64.4676 13.3952 65.1606 12.4907 66.1658 11.6664C67.6536 10.4464 69.1957 9.92153 70.7923 10.0917C72.4023 10.251 73.8338 11.0945 75.0868 12.6225C76.6475 14.5258 77.1367 16.3662 76.5545 18.1437C75.9832 19.9347 74.4712 21.8358 72.0184 23.8471C70.276 25.2759 68.7222 26.2923 67.3569 26.8963C66.0027 27.5137 64.7351 27.6901 63.5543 27.4255C62.3844 27.1743 61.2829 26.4188 60.2498 25.1589C59.4365 24.167 58.9317 23.1688 58.7355 22.1641C58.5527 21.1484 58.6156 20.2001 58.9244 19.3192C59.2576 18.4407 59.7776 17.667 60.4842 16.9979L62.6274 19.6115ZM67.9938 18.7751C68.5653 19.4721 69.2304 19.8457 69.989 19.8961C70.7476 19.9465 71.4888 19.675 72.2126 19.0815C73.0034 18.433 73.4374 17.7185 73.5146 16.9379C73.6162 16.1597 73.3702 15.4087 72.7767 14.6849C72.1832 13.9611 71.4828 13.5716 70.6754 13.5164C69.8923 13.4636 69.1322 13.7395 68.3951 14.344C67.6847 14.9265 67.2665 15.6056 67.1405 16.3814C67.0389 17.1596 67.3234 17.9575 67.9938 18.7751Z" fill="white"/>
<path d="M57.1783 27.3662L46.1133 20.9778C43.8549 19.6741 41.0725 19.6741 38.814 20.9778L5.64955 40.1252C3.39113 41.429 2 43.8388 2 46.4465V84.7414C2 87.3492 3.39131 89.759 5.64955 91.0628L38.8139 110.21C41.0723 111.514 43.8547 111.514 46.1131 110.21L79.2774 91.063C81.5359 89.7592 82.927 87.3494 82.927 84.7416V46.4467C82.927 43.839 81.5357 41.4292 79.2774 40.1254L62.7446 30.5801" stroke="white" stroke-width="2.75216" stroke-miterlimit="10" stroke-linecap="round" stroke-linejoin="round"/>
<path d="M81.4381 42.0307L42.4629 36.7422" stroke="white" stroke-width="2.75216" stroke-miterlimit="10" stroke-linecap="round" stroke-linejoin="round"/>
<path d="M82.0821 88.1447L67.8789 74.5294L82.3202 43.5371" stroke="white" stroke-width="2.75216" stroke-miterlimit="10" stroke-linecap="round" stroke-linejoin="round"/>
<path d="M2.60742 43.5371L17.0486 74.5294L2.84558 88.1447" stroke="white" stroke-width="2.75216" stroke-miterlimit="10" stroke-linecap="round" stroke-linejoin="round"/>
<path d="M42.4635 20V36.742L3.48828 42.0305" stroke="white" stroke-width="2.75216" stroke-miterlimit="10" stroke-linecap="round" stroke-linejoin="round"/>
<path d="M64.7129 46.7725H67.268V58.7264" stroke="white" stroke-width="2.75216" stroke-miterlimit="10" stroke-linecap="round" stroke-linejoin="round"/>
<path d="M16.7109 46.7725H23.2873L18.0323 58.7264" stroke="white" stroke-width="2.75216" stroke-miterlimit="10" stroke-linecap="round" stroke-linejoin="round"/>
<path d="M39.4629 86.5753C39.739 85.1697 40.9779 84.1094 42.4642 84.1094C44.1535 84.1094 45.523 85.4789 45.523 87.1681C45.523 88.8574 44.1535 90.2269 42.4642 90.2269" stroke="white" stroke-width="2.75216" stroke-miterlimit="10" stroke-linecap="round" stroke-linejoin="round"/>
<path d="M42.4631 90.2275C44.1523 90.2275 45.5218 91.597 45.5218 93.2863C45.5218 94.9756 44.1523 96.345 42.4631 96.345C40.9185 96.345 39.6414 95.2003 39.4338 93.7129C39.4144 93.5734 39.4043 93.4311 39.4043 93.2863" stroke="white" stroke-width="2.75216" stroke-miterlimit="10" stroke-linecap="round" stroke-linejoin="round"/>
<path d="M43.2976 54.3086C43.2976 54.3086 39.6355 57.0323 39.0449 62.1757" stroke="white" stroke-width="2.75216" stroke-miterlimit="10" stroke-linecap="round" stroke-linejoin="round"/>
<path d="M42.4645 66.1341C44.3736 66.1341 45.9212 64.5865 45.9212 62.6774C45.9212 60.7683 44.3736 59.2207 42.4645 59.2207C40.5554 59.2207 39.0078 60.7683 39.0078 62.6774C39.0078 64.5865 40.5554 66.1341 42.4645 66.1341Z" stroke="white" stroke-width="2.75216" stroke-miterlimit="10" stroke-linecap="round" stroke-linejoin="round"/>
<path d="M34.5997 74.5298H67.8778L42.4634 36.7422L17.0488 74.5298H28.178" stroke="white" stroke-width="2.75216" stroke-miterlimit="10" stroke-linecap="round" stroke-linejoin="round"/>
<path d="M43.2539 111.142L67.8779 74.5303" stroke="white" stroke-width="2.75216" stroke-miterlimit="10" stroke-linecap="round" stroke-linejoin="round"/>
<path d="M17.0488 74.5303L41.6728 111.142" stroke="white" stroke-width="2.75216" stroke-miterlimit="10" stroke-linecap="round" stroke-linejoin="round"/>
</svg>
