<svg width="93" height="93" viewBox="0 0 93 93" fill="none" xmlns="http://www.w3.org/2000/svg">
<path d="M92.2534 45.1915C89.6438 43.7869 87.2949 41.9447 85.3089 39.7452C82.6685 37.1106 80.143 34.636 76.1179 34.2233C78.6768 31.0874 78.7117 27.552 78.716 23.8218C78.5647 20.8624 78.923 17.899 79.7754 15.0609C79.8415 14.8057 79.8398 14.5376 79.7705 14.2833C79.7012 14.0289 79.5667 13.797 79.3803 13.6106C79.1938 13.4241 78.962 13.2896 78.7076 13.2203C78.4532 13.151 78.1851 13.1493 77.9299 13.2155C75.0924 14.0707 72.1289 14.432 69.169 14.2835C65.4388 14.2835 61.9034 14.3227 58.7675 16.8817C58.3607 12.8565 55.886 10.331 53.2457 7.69068C51.0492 5.70395 49.21 3.35504 47.8081 0.74619C47.6747 0.517638 47.4838 0.328024 47.2543 0.196243C47.0249 0.0644627 46.7649 -0.00488281 46.5003 -0.00488281C46.2356 -0.00488281 45.9757 0.0644627 45.7462 0.196243C45.5167 0.328024 45.3258 0.517638 45.1924 0.74619C43.7879 3.35571 41.9457 5.70467 39.7461 7.69068C37.1116 10.331 34.6369 12.8565 34.2243 16.8817C31.0971 14.3227 27.5617 14.2879 23.8315 14.2835C20.872 14.4344 17.9086 14.0756 15.0706 13.2227C14.8154 13.1566 14.5473 13.1583 14.2929 13.2276C14.0386 13.2969 13.8067 13.4314 13.6203 13.6178C13.4338 13.8043 13.2993 14.0361 13.23 14.2905C13.1607 14.5449 13.159 14.813 13.2252 15.0682C14.0777 17.9067 14.436 20.8706 14.2845 23.8305C14.2845 27.5607 14.3237 31.0962 16.8827 34.232C12.8575 34.6389 10.332 37.1135 7.69165 39.7539C5.70493 41.9503 3.35601 43.7896 0.747167 45.1915C0.518615 45.3248 0.329001 45.5157 0.19722 45.7452C0.0654393 45.9747 -0.00390625 46.2347 -0.00390625 46.4993C-0.00390625 46.7639 0.0654393 47.0239 0.19722 47.2534C0.329001 47.4828 0.518615 47.6737 0.747167 47.8071C3.35668 49.2116 5.70564 51.0538 7.69165 53.2534C10.332 55.8879 12.8575 58.3626 16.8827 58.7753C14.3252 61.9024 14.2888 65.4379 14.2845 69.168C14.4354 72.1275 14.0765 75.091 13.2237 77.9289C13.1576 78.1842 13.1593 78.4522 13.2286 78.7066C13.2979 78.961 13.4324 79.1929 13.6188 79.3793C13.8052 79.5657 14.0371 79.7002 14.2915 79.7695C14.5459 79.8388 14.8139 79.8405 15.0692 79.7744C17.9077 78.9219 20.8716 78.5636 23.8315 78.7151C27.5617 78.7151 31.0971 78.6744 34.233 76.1169C34.6399 80.142 37.1145 82.6676 39.7549 85.3079C41.9513 87.2946 43.7905 89.6435 45.1924 92.2524C45.3258 92.4809 45.5167 92.6705 45.7462 92.8023C45.9757 92.9341 46.2356 93.0035 46.5003 93.0035C46.7649 93.0035 47.0249 92.9341 47.2543 92.8023C47.4838 92.6705 47.6747 92.4809 47.8081 92.2524C49.2126 89.6429 51.0548 87.2939 53.2544 85.3079C55.8889 82.6676 58.3636 80.142 58.7763 76.1169C61.9121 78.6744 65.4476 78.7107 69.1777 78.7151C72.1371 78.5637 75.1006 78.922 77.9386 79.7744C78.1938 79.8405 78.4619 79.8388 78.7163 79.7695C78.9707 79.7002 79.2026 79.5657 79.389 79.3793C79.5754 79.1929 79.7099 78.961 79.7792 78.7066C79.8485 78.4522 79.8502 78.1842 79.7841 77.9289C78.9288 75.0914 78.5675 72.128 78.716 69.168C78.716 65.4379 78.6754 61.9024 76.1179 58.7666C80.143 58.3597 82.6685 55.885 85.3089 53.2447C87.2956 51.0482 89.6445 49.209 92.2534 47.8071C92.4819 47.6737 92.6715 47.4828 92.8033 47.2534C92.9351 47.0239 93.0044 46.7639 93.0044 46.4993C93.0044 46.2347 92.9351 45.9747 92.8033 45.7452C92.6715 45.5157 92.4819 45.3248 92.2534 45.1915ZM69.169 17.1912C71.5698 17.2605 73.9714 17.0828 76.3358 16.6608C75.9138 19.0253 75.7361 21.4268 75.8054 23.8276C75.8054 27.3892 75.772 30.2359 73.6519 32.6452C70.7206 26.9283 66.0684 22.276 60.3515 19.3447C62.7636 17.2246 65.6103 17.1941 69.169 17.1912ZM41.8067 9.74394C43.5541 8.09558 45.1269 6.27147 46.5003 4.30053C47.8736 6.27147 49.4464 8.09558 51.1939 9.74394C53.7049 12.2593 55.6985 14.2908 55.9034 17.4818C49.7938 15.4843 43.2067 15.4843 37.0971 17.4818C37.3078 14.2908 39.2957 12.2593 41.8067 9.74394ZM16.6676 16.6608C19.032 17.0828 21.4336 17.2605 23.8344 17.1912C27.396 17.1912 30.2427 17.2246 32.652 19.3447C26.9351 22.276 22.2828 26.9283 19.3515 32.6452C17.2314 30.2359 17.2009 27.3892 17.198 23.8276C17.2654 21.4266 17.0857 19.0251 16.6618 16.6608H16.6676ZM9.74492 51.1929C8.09655 49.4455 6.27244 47.8726 4.30151 46.4993C6.27244 45.126 8.09655 43.5531 9.74492 41.8057C12.2603 39.2947 14.2917 37.301 17.4828 37.0961C15.4853 43.2058 15.4853 49.7928 17.4828 55.9025C14.2917 55.6918 12.2603 53.7039 9.74492 51.1929ZM23.8315 75.8074C21.4307 75.738 19.0291 75.9158 16.6647 76.3378C17.0867 73.9733 17.2644 71.5717 17.1951 69.1709C17.1951 65.6093 17.2285 62.7627 19.3486 60.3534C22.2799 66.0703 26.9322 70.7225 32.6491 73.6538C30.2369 75.7739 27.3902 75.8045 23.8315 75.8074ZM51.1939 83.2546C49.4464 84.903 47.8736 86.7271 46.5003 88.698C45.1269 86.7271 43.5541 84.903 41.8067 83.2546C39.2957 80.7393 37.302 78.7078 37.0971 75.5167C43.2067 77.5143 49.7938 77.5143 55.9034 75.5167C55.6927 78.7078 53.7049 80.7393 51.1939 83.2546ZM46.5003 74.1087C41.0396 74.1087 35.7017 72.4894 31.1613 69.4556C26.621 66.4219 23.0822 62.1099 20.9925 57.0649C18.9028 52.02 18.3561 46.4687 19.4214 41.113C20.4867 35.7573 23.1162 30.8377 26.9775 26.9765C30.8387 23.1153 35.7582 20.4857 41.1139 19.4204C46.4696 18.3551 52.021 18.9019 57.0659 20.9915C62.1109 23.0812 66.4229 26.62 69.4566 31.1603C72.4904 35.7007 74.1096 41.0387 74.1096 46.4993C74.1016 53.8193 71.1901 60.8371 66.0141 66.0131C60.8381 71.1892 53.8202 74.1006 46.5003 74.1087ZM76.3387 76.3378C73.9743 75.9158 71.5727 75.738 69.1719 75.8074C65.6103 75.8074 62.7636 75.7739 60.3544 73.6538C66.0713 70.7225 70.7235 66.0703 73.6548 60.3534C75.7749 62.7627 75.8054 65.6093 75.8083 69.1709C75.739 71.5717 75.9167 73.9733 76.3387 76.3378ZM83.2556 51.1987C80.7402 53.7097 78.7088 55.7034 75.5177 55.9083C77.5153 49.7986 77.5153 43.2116 75.5177 37.1019C78.7146 37.3126 80.7402 39.3005 83.2556 41.8115C84.9043 43.5569 86.7284 45.1278 88.699 46.4993C86.7281 47.8726 84.904 49.4455 83.2556 51.1929V51.1987Z" fill="white"/>
</svg>
