<svg width="68" height="111" viewBox="0 0 68 111" fill="none" xmlns="http://www.w3.org/2000/svg">
<path fill-rule="evenodd" clip-rule="evenodd" d="M13.6529 18.6667H13.2757C10.44 18.6667 8.14084 20.9311 8.14084 23.7239V27.4821C6.17626 29.4451 5.07325 32.0918 5.07325 34.8505V37.6236H3.45931C1.54882 37.6236 0 39.1485 0 41.03V48.2983C0 50.1799 1.54882 51.7048 3.45931 51.7048H5.07325V59.2952H3.45931C1.54882 59.2952 0 60.8201 0 62.7017V69.97C0 71.8515 1.54882 73.3764 3.45931 73.3764H5.07325V76.1495C5.07325 78.9082 6.17626 81.5549 8.14084 83.5179V87.2761C8.14084 90.0689 10.44 92.3333 13.2757 92.3333H13.6529L14.5305 106.374C14.6933 108.973 16.8813 111 19.5261 111H48.4739C51.1187 111 53.3067 108.973 53.4695 106.374L54.3471 92.3333H54.7243C57.56 92.3333 59.8591 90.0689 59.8591 87.2761V83.5179C61.8237 81.5549 62.9267 78.9082 62.9267 76.1495V73.3764H64.5407C66.4512 73.3764 68 71.8515 68 69.97C68 67.893 68 64.7786 68 62.7017C68 60.8201 66.4512 59.2952 64.5407 59.2952H62.9267V51.7048H64.5407C66.4512 51.7048 68 50.1799 68 48.2983C68 46.2214 68 43.107 68 41.03C68 39.1485 66.4512 37.6236 64.5407 37.6236H62.9267V34.8505C62.9262 32.0918 61.8237 29.4451 59.8591 27.4821V23.7239C59.8591 20.9311 57.56 18.6667 54.7243 18.6667H54.3471L53.4695 4.62599C53.3067 2.02661 51.1187 0 48.4739 0C41.5843 0 26.4157 0 19.5261 0C16.8813 0 14.6933 2.02661 14.5305 4.62599L13.6529 18.6667ZM51.8375 92.3333H16.1625L17.0306 106.223C17.1117 107.521 18.2047 108.533 19.5261 108.533H48.4739C49.7953 108.533 50.8883 107.521 50.9694 106.223L51.8375 92.3333ZM23.863 102.187H21.7857C21.0945 102.187 20.5334 102.739 20.5334 103.42C20.5334 104.101 21.0945 104.653 21.7857 104.653H23.863C24.5543 104.653 25.1153 104.101 25.1153 103.42C25.1153 102.739 24.5543 102.187 23.863 102.187ZM46.2143 102.187H28.513C27.8217 102.187 27.2607 102.739 27.2607 103.42C27.2607 104.101 27.8217 104.653 28.513 104.653H46.2143C46.9055 104.653 47.4666 104.101 47.4666 103.42C47.4666 102.739 46.9055 102.187 46.2143 102.187ZM44.137 98.68H46.2143C46.9055 98.68 47.4666 98.1274 47.4666 97.4466C47.4666 96.7659 46.9055 96.2133 46.2143 96.2133H44.137C43.4457 96.2133 42.8847 96.7659 42.8847 97.4466C42.8847 98.1274 43.4457 98.68 44.137 98.68ZM21.7857 98.68H39.487C40.1783 98.68 40.7393 98.1274 40.7393 97.4466C40.7393 96.7659 40.1783 96.2133 39.487 96.2133H21.7857C21.0945 96.2133 20.5334 96.7659 20.5334 97.4466C20.5334 98.1274 21.0945 98.68 21.7857 98.68ZM57.3546 85.3738C55.8073 86.2016 54.0611 86.6461 52.2688 86.6461H15.7312C13.9389 86.6461 12.1927 86.2016 10.6454 85.3738V87.2761C10.6454 88.7068 11.8231 89.8666 13.2757 89.8666H54.7243C56.1769 89.8666 57.3546 88.7068 57.3546 87.2761V85.3738ZM60.4222 34.8505V76.1495C60.4222 78.2792 59.5631 80.3216 58.0338 81.8277C56.505 83.3334 54.4312 84.1794 52.2688 84.1794H15.7312C13.5687 84.1794 11.495 83.3334 9.96617 81.8277C8.43688 80.3216 7.57782 78.2792 7.57782 76.1495V34.8505C7.57782 32.7208 8.43688 30.6784 9.96617 29.1723C11.495 27.6666 13.5687 26.8206 15.7312 26.8206H52.2688C54.4312 26.8206 56.505 27.6666 58.0338 29.1723C59.5631 30.6784 60.4222 32.7208 60.4222 34.8505ZM57.2138 35.2112C57.2138 33.969 56.7129 32.7781 55.8213 31.8999C54.9297 31.0223 53.7205 30.5289 52.4597 30.5289C44.2357 30.5289 23.7643 30.5289 15.5403 30.5289C14.2795 30.5289 13.0703 31.0223 12.1787 31.8999C11.2871 32.7781 10.7862 33.969 10.7862 35.2112V75.7888C10.7862 77.031 11.2871 78.2219 12.1787 79.1001C13.0703 79.9777 14.2795 80.4711 15.5403 80.4711H52.4597C53.7205 80.4711 54.9297 79.9777 55.8213 79.1001C56.7129 78.2219 57.2138 77.031 57.2138 75.7888V35.2112ZM54.7093 35.2112V75.7888C54.7093 76.3769 54.4723 76.9403 54.0501 77.3557C53.6283 77.771 53.0562 78.0044 52.4597 78.0044H15.5403C14.9438 78.0044 14.3717 77.771 13.9499 77.3557C13.5277 76.9403 13.2907 76.3769 13.2907 75.7888C13.2907 67.0253 13.2907 43.9747 13.2907 35.2112C13.2907 34.6231 13.5277 34.0597 13.9499 33.6443C14.3717 33.229 14.9438 32.9956 15.5403 32.9956H52.4597C53.0562 32.9956 53.6283 33.229 54.0501 33.6443C54.4723 34.0597 54.7093 34.6231 54.7093 35.2112ZM5.07325 61.7619H3.45931C2.93185 61.7619 2.50457 62.1827 2.50457 62.7017V69.97C2.50457 70.4889 2.93185 70.9098 3.45931 70.9098H5.07325V61.7619ZM62.9267 61.7619V70.9098H64.5407C65.0682 70.9098 65.4954 70.4889 65.4954 69.97V62.7017C65.4954 62.1827 65.0682 61.7619 64.5407 61.7619H62.9267ZM16.9689 67.0213H51.0311C51.7223 67.0213 52.2833 66.4688 52.2833 65.788C52.2833 65.1072 51.7223 64.5546 51.0311 64.5546H16.9689C16.2777 64.5546 15.7167 65.1072 15.7167 65.788C15.7167 66.4688 16.2777 67.0213 16.9689 67.0213ZM48.0075 46.4454L37.3301 56.9617L29.2388 48.9934C28.7499 48.5114 27.957 48.5114 27.4681 48.9934L16.0833 60.2054C15.5949 60.6869 15.5949 61.4683 16.0833 61.9493C16.5722 62.4308 17.3657 62.4308 17.8546 61.9493L28.3532 51.6096L36.4445 59.5779C36.9333 60.0599 37.7263 60.0599 38.2152 59.5779L49.7788 48.1898V53.7018C49.7788 54.3821 50.3398 54.9351 51.0311 54.9351C51.7223 54.9351 52.2833 54.3821 52.2833 53.7018V45.212C52.2833 44.5307 51.7228 43.9787 51.0311 43.9787H42.4113C41.7201 43.9787 41.1591 44.5312 41.1591 45.212C41.1591 45.8928 41.7201 46.4454 42.4113 46.4454H48.0075ZM5.07325 40.0902H3.45931C2.93185 40.0902 2.50457 40.5111 2.50457 41.03V48.2983C2.50457 48.8173 2.93185 49.2381 3.45931 49.2381H5.07325V40.0902ZM62.9267 40.0902V49.2381H64.5407C65.0682 49.2381 65.4954 48.8173 65.4954 48.2983V41.03C65.4954 40.5111 65.0682 40.0902 64.5407 40.0902H62.9267ZM57.3546 25.6262V23.7239C57.3546 22.2932 56.1769 21.1334 54.7243 21.1334C45.523 21.1334 22.477 21.1334 13.2757 21.1334C11.8231 21.1334 10.6454 22.2932 10.6454 23.7239V25.6262C12.1927 24.7984 13.9389 24.3539 15.7312 24.3539H52.2688C54.0611 24.3539 55.8073 24.7984 57.3546 25.6262ZM51.8375 18.6667L50.9694 4.77744C50.8883 3.47899 49.7953 2.46667 48.4739 2.46667H19.5261C18.2047 2.46667 17.1117 3.47899 17.0306 4.77744L16.1625 18.6667H51.8375ZM23.863 12.32H21.7857C21.0945 12.32 20.5334 12.8725 20.5334 13.5533C20.5334 14.2341 21.0945 14.7867 21.7857 14.7867H23.863C24.5543 14.7867 25.1153 14.2341 25.1153 13.5533C25.1153 12.8725 24.5543 12.32 23.863 12.32ZM46.2143 12.32H28.513C27.8217 12.32 27.2607 12.8725 27.2607 13.5533C27.2607 14.2341 27.8217 14.7867 28.513 14.7867H46.2143C46.9055 14.7867 47.4666 14.2341 47.4666 13.5533C47.4666 12.8725 46.9055 12.32 46.2143 12.32ZM44.137 8.8134H46.2143C46.9055 8.8134 47.4666 8.26087 47.4666 7.58007C47.4666 6.89927 46.9055 6.34673 46.2143 6.34673H44.137C43.4457 6.34673 42.8847 6.89927 42.8847 7.58007C42.8847 8.26087 43.4457 8.8134 44.137 8.8134ZM21.7857 8.8134H39.487C40.1783 8.8134 40.7393 8.26087 40.7393 7.58007C40.7393 6.89927 40.1783 6.34673 39.487 6.34673H21.7857C21.0945 6.34673 20.5334 6.89927 20.5334 7.58007C20.5334 8.26087 21.0945 8.8134 21.7857 8.8134Z" fill="white"/>
</svg>
