<svg width="102" height="102" viewBox="0 0 102 102" fill="none" xmlns="http://www.w3.org/2000/svg">
<mask id="mask0_411_3295" style="mask-type:luminance" maskUnits="userSpaceOnUse" x="0" y="0" width="102" height="102">
<path d="M101.235 101.235V0.0989609H0.0989585V101.235H101.235Z" fill="white" stroke="white" stroke-width="0.197917"/>
</mask>
<g mask="url(#mask0_411_3295)">
<path d="M81.8497 19.6874C89.7448 27.6331 94.6219 38.5801 94.6219 50.6697C94.6219 52.8086 92.8749 54.5613 90.7302 54.5613C88.5913 54.5613 86.8388 52.8086 86.8388 50.6697C86.8388 30.6848 70.6454 14.4911 50.6667 14.4911C49.8717 14.4911 49.8772 14.4911 49.8772 15.4036V18.7969C49.8772 19.9282 49.4796 19.917 48.6454 19.2842L39.2776 12.1671C38.0457 11.2322 38.0515 9.96667 39.2776 9.03152L48.6454 1.91442C49.4796 1.28168 49.8827 1.27059 49.8827 2.40169V5.80052C49.8827 6.71331 49.8772 6.70757 50.6667 6.70757C60.3201 6.70757 69.2456 9.821 76.5022 15.0957M22.1658 84.138C29.8427 90.6782 39.7927 94.6259 50.6667 94.6259C51.4619 94.6259 51.4564 94.6259 51.4564 95.5331V98.9319C51.4564 100.063 51.8593 100.052 52.6882 99.419L62.0558 92.3021C63.2877 91.367 63.2877 90.1015 62.0558 89.1663L52.6882 82.0494C51.8538 81.4167 51.4506 81.4054 51.4506 82.5365V85.9355C51.4506 86.8426 51.4619 86.8426 50.6667 86.8426C30.6882 86.8426 14.4948 70.6486 14.4948 50.6697C14.4948 48.5251 12.7422 46.7778 10.6033 46.7778C8.45871 46.7778 6.7115 48.5251 6.7115 50.6697C6.7115 61.3424 10.5135 71.1301 16.8464 78.7456" stroke="white" stroke-width="2.96875" stroke-miterlimit="10" stroke-linecap="round" stroke-linejoin="round"/>
<path d="M58.0523 46.145C56.507 47.6906 54.0039 47.6906 52.4586 46.145C50.913 44.6053 50.913 42.0967 52.4586 40.5511C54.0039 39.0056 56.507 39.0056 58.0523 40.5511C59.5978 42.0967 59.5978 44.6053 58.0523 46.145Z" stroke="white" stroke-width="2.96875" stroke-miterlimit="10" stroke-linecap="round" stroke-linejoin="round"/>
<path d="M37.049 63.845C34.7477 66.1519 31.0074 66.1519 28.706 63.845C26.3989 61.5381 26.3989 57.8032 28.706 55.5016C31.0074 53.1947 34.7477 53.1947 37.049 55.5016C39.356 57.8032 39.356 61.5381 37.049 63.845Z" stroke="white" stroke-width="2.96875" stroke-miterlimit="10" stroke-linecap="round" stroke-linejoin="round"/>
<path d="M39.5744 37.208C37.2675 39.5094 33.5326 39.5094 31.2257 37.208C28.9243 34.9009 28.9243 31.1662 31.2257 28.8591C33.5326 26.5577 37.2675 26.5577 39.5744 28.8591C41.8756 31.1662 41.8756 34.9009 39.5744 37.208Z" stroke="white" stroke-width="2.96875" stroke-miterlimit="10" stroke-linecap="round" stroke-linejoin="round"/>
<path d="M73.9042 71.5335C70.6117 74.8261 65.2754 74.8261 61.9831 71.5335C58.6907 68.241 58.6907 62.9047 61.9831 59.6122C65.2754 56.3196 70.6117 56.3196 73.9042 59.6122C77.1966 62.9047 77.1966 68.241 73.9042 71.5335Z" stroke="white" stroke-width="2.96875" stroke-miterlimit="10" stroke-linecap="round" stroke-linejoin="round"/>
<path d="M59.9449 68.2351C57.75 69.0471 55.3758 69.4893 52.9008 69.4893C46.9376 69.4893 41.579 66.9246 37.8609 62.8371M41.2766 32.4988C44.5691 30.1976 48.5781 28.8424 52.9008 28.8424C64.1219 28.8424 73.2211 37.9415 73.2211 49.1687C73.2211 52.2653 72.5267 55.205 71.2893 57.8312M33.1016 53.777C32.76 52.2932 32.5807 50.7532 32.5807 49.1687C32.5807 45.4338 33.5831 41.9396 35.3412 38.9327" stroke="white" stroke-width="2.96875" stroke-miterlimit="10" stroke-linecap="round" stroke-linejoin="round"/>
</g>
</svg>
