<svg width="85" height="84" viewBox="0 0 85 84" fill="none" xmlns="http://www.w3.org/2000/svg">
<path d="M35.0302 5.60449C18.7937 5.60449 5.63153 18.7667 5.63153 35.0031C5.63153 51.2396 18.7937 64.4018 35.0302 64.4018C51.2666 64.4018 64.4288 51.2396 64.4288 35.0031C64.4112 18.774 51.2593 5.62217 35.0302 5.60449ZM35.0302 8.40436C43.6776 8.41119 51.7809 12.6257 56.7516 19.7018L53.2518 23.2017C52.4001 22.6863 51.425 22.4105 50.4295 22.4037C47.3369 22.4037 44.8297 24.9108 44.8297 28.0035C44.8346 29 45.1088 29.9767 45.6235 30.8299L36.4567 39.9967C34.721 38.9384 32.5395 38.9384 30.8038 39.9967L24.4369 33.6298C24.9515 32.7766 25.2257 31.7999 25.2306 30.8033C25.2345 27.7168 22.7356 25.2116 19.6491 25.2078C17.0965 25.2046 14.8662 26.9313 14.2299 29.4034H9.03618C11.6868 17.1632 22.5064 8.42274 35.0302 8.40436ZM53.2294 28.0035C53.2294 29.5499 51.9759 30.8033 50.4295 30.8033C48.8831 30.8033 47.6296 29.5499 47.6296 28.0035C47.6296 26.4571 48.8831 25.2036 50.4295 25.2036C51.9759 25.2036 53.2294 26.4571 53.2294 28.0035ZM36.4301 44.8027C36.4301 46.3491 35.1767 47.6026 33.6303 47.6026C32.0838 47.6026 30.8304 46.3491 30.8304 44.8027C30.8304 43.2563 32.0838 42.0028 33.6303 42.0028C35.1767 42.0028 36.4301 43.2563 36.4301 44.8027ZM22.4308 30.8033C22.4308 32.3497 21.1773 33.6032 19.6309 33.6032C18.0845 33.6032 16.831 32.3497 16.831 30.8033C16.831 29.2569 18.0845 28.0035 19.6309 28.0035C21.1773 28.0035 22.4308 29.2569 22.4308 30.8033ZM47.954 58.2606C44.0006 60.4557 39.5523 61.6058 35.0302 61.6018C20.3501 61.6117 8.44138 49.7195 8.4314 35.0394C8.4307 34.092 8.48075 33.1451 8.5812 32.2031H14.2299C14.8664 34.6679 17.0853 36.3933 19.6309 36.4029C20.6275 36.398 21.6041 36.1238 22.4574 35.6091L28.8243 41.9761C28.3096 42.8293 28.0354 43.806 28.0305 44.8025C28.0305 47.8952 30.5376 50.4023 33.6303 50.4023C36.7229 50.4023 39.23 47.8952 39.23 44.8025C39.2251 43.806 38.9509 42.8293 38.4362 41.9761L47.603 32.8093C48.4563 33.3239 49.4329 33.5981 50.4295 33.603C53.5221 33.603 56.0292 31.0959 56.0292 28.0033C56.0243 27.0067 55.7501 26.0301 55.2355 25.1768L58.2873 22.1264C65.4121 34.9582 60.7857 51.136 47.954 58.2606Z" fill="white"/>
<path d="M70.0286 14.0039C72.5742 13.9942 74.7931 12.269 75.4296 9.80405H84.028V7.00418H75.4296C74.7931 4.53924 72.5742 2.81399 70.0286 2.80437C66.936 2.80437 64.4289 5.31148 64.4289 8.40411C64.4338 9.40069 64.708 10.3773 65.2226 11.2306L62.7629 13.6903C50.9938 -1.6427 29.0232 -4.53182 13.6903 7.23727C-1.6427 19.0064 -4.53182 40.9771 7.23727 56.3101C18.3465 70.7832 38.7105 74.294 54.0245 64.3764L58.2495 68.6014L60.229 70.5809L71.4985 81.8504C74.3647 84.7165 79.0115 84.7165 81.8777 81.8504C84.7439 78.9842 84.7439 74.3374 81.8777 71.4712L70.6082 60.2017L68.6287 58.2222L64.4037 53.9972C71.9036 42.445 71.9036 27.561 64.4037 16.0086L67.2035 13.2087C68.0563 13.7235 69.0325 13.9983 70.0286 14.0039ZM70.0286 5.60424C71.575 5.60424 72.8285 6.85771 72.8285 8.40411C72.8285 9.95052 71.575 11.204 70.0286 11.204C68.4822 11.204 67.2287 9.95052 67.2287 8.40411C67.2287 6.85771 68.4824 5.60424 70.0286 5.60424ZM79.8981 73.4507C81.6911 75.2035 81.7238 78.0779 79.9711 79.8708C78.2184 81.6638 75.344 81.6965 73.551 79.9438C73.5263 79.9198 73.5022 79.8955 73.478 79.8708L62.2086 68.6014L68.6287 62.1813L79.8981 73.4507ZM66.6492 60.2017L60.229 66.6218L56.354 62.7468C56.5514 62.5956 56.7362 62.429 56.9308 62.2737C57.1254 62.1183 57.3508 61.9321 57.5594 61.7571C57.866 61.4995 58.1683 61.2391 58.4651 60.9717C58.6177 60.8317 58.7633 60.6917 58.9131 60.5517C59.4871 60.0142 60.0429 59.4584 60.5804 58.8844C60.7204 58.7346 60.8604 58.589 61.0004 58.4364C61.2678 58.1396 61.5282 57.8373 61.7858 57.5307C61.9613 57.3235 62.1335 57.114 62.3024 56.9021C62.4563 56.7089 62.6229 56.5241 62.7741 56.3267L66.6492 60.2017ZM61.2202 53.699C60.7792 54.315 60.3242 54.9184 59.8441 55.4994C59.7041 55.6688 59.5543 55.8325 59.4101 55.9991C58.9817 56.4975 58.5393 56.981 58.0829 57.4495C57.8842 57.6547 57.682 57.8569 57.4768 58.0556C57.0101 58.512 56.5267 58.9544 56.0264 59.3828C55.8598 59.5228 55.6961 59.6754 55.5267 59.8168C54.9457 60.2969 54.3423 60.7519 53.7263 61.1929C39.2342 71.5463 19.0928 68.1912 8.7394 53.699C-1.614 39.2069 1.74112 19.0655 16.2333 8.7121C30.7254 -1.6413 50.8668 1.71364 61.2202 16.206C69.2315 27.4198 69.2315 42.4852 61.2202 53.699Z" fill="white"/>
</svg>
