<svg width="103" height="79" viewBox="0 0 103 79" fill="none" xmlns="http://www.w3.org/2000/svg">
<path d="M51.4925 78.818C51.0452 78.818 50.616 78.6401 50.2997 78.3238L0.498274 28.505C-0.160725 27.846 -0.160725 26.7785 0.497451 26.1195L26.107 0.49425C26.4241 0.17793 26.8533 0 27.3006 0H75.7017C76.149 0 76.5781 0.17793 76.8953 0.49425L102.505 26.1195C103.163 26.7785 103.163 27.846 102.504 28.505L52.6853 78.3238C52.369 78.6401 51.9398 78.818 51.4925 78.818ZM4.07664 27.3122L51.4925 74.7454L98.9256 27.3122L75.0023 3.37408H28L4.07664 27.3122Z" fill="white"/>
<path d="M51.5 78.8112C50.5683 78.8112 49.813 78.0566 49.813 77.1241V1.69339C49.813 0.760902 50.5683 0.00634766 51.5 0.00634766C52.4317 0.00634766 53.187 0.760902 53.187 1.69339V77.1241C53.187 78.0566 52.4317 78.8112 51.5 78.8112Z" fill="white"/>
<path d="M101.313 28.9976H1.68704C0.755378 28.9976 0 28.2431 0 27.3106C0 26.3781 0.755378 25.6235 1.68704 25.6235H101.313C102.245 25.6235 103 26.3781 103 27.3106C103 28.2431 102.245 28.9976 101.313 28.9976Z" fill="white"/>
<path d="M51.4926 78.8112C50.8402 78.8112 50.2463 78.4355 49.9678 77.8457L26.4168 28.0336C26.1994 27.574 26.201 27.0435 26.4193 26.5855L38.6503 0.96684C38.9304 0.38033 39.5227 0.00634766 40.1726 0.00634766H62.8299C63.4798 0.00634766 64.0721 0.38033 64.3521 0.96684L76.5832 26.5855C76.8023 27.0435 76.8031 27.5756 76.5857 28.0336L53.0174 77.8457C52.7389 78.4355 52.145 78.8112 51.4926 78.8112ZM29.809 27.3153L51.4934 73.1784L73.1926 27.3153L61.7656 3.38043H41.2369L29.809 27.3153Z" fill="white"/>
</svg>
