<svg width="109" height="109" viewBox="0 0 109 109" fill="none" xmlns="http://www.w3.org/2000/svg">
<g clip-path="url(#clip0_183_646)">
<mask id="mask0_183_646" style="mask-type:luminance" maskUnits="userSpaceOnUse" x="0" y="0" width="110" height="109">
<path d="M0.00378418 7.62939e-06H109.004V109H0.00378418V7.62939e-06Z" fill="white"/>
</mask>
<g mask="url(#mask0_183_646)">
<path d="M54.5029 66.4458C52.618 66.4458 51.0898 64.9177 51.0898 63.0327V59.6197C51.0898 58.677 51.8539 57.9129 52.7964 57.9129H56.2094C57.1519 57.9129 57.916 58.677 57.916 59.6197V63.0327C57.916 64.9177 56.3878 66.4458 54.5029 66.4458Z" stroke="white" stroke-width="3.47656" stroke-miterlimit="10" stroke-linecap="round" stroke-linejoin="round"/>
<path d="M39.1426 61.3262H45.9687" stroke="white" stroke-width="3.47656" stroke-miterlimit="10" stroke-linecap="round" stroke-linejoin="round"/>
<path d="M63.0333 61.3262H69.8595" stroke="white" stroke-width="3.47656" stroke-miterlimit="10" stroke-linecap="round" stroke-linejoin="round"/>
<path d="M66.4475 86.9248V77.0552C66.4475 75.6812 66.9442 74.3785 67.7289 73.2506C69.0718 71.3201 69.8606 68.976 69.8606 66.446V49.3805C69.8606 47.4955 68.3324 45.9674 66.4475 45.9674C64.5626 45.9674 63.0344 47.4955 63.0344 49.3805V66.446C63.0344 69.2736 60.7422 71.5656 57.9146 71.5656H51.0885C48.2609 71.5656 45.9689 69.2736 45.9689 66.446V49.3805C45.9689 47.4955 44.4408 45.9674 42.5556 45.9674C40.6707 45.9674 39.1426 47.4955 39.1426 49.3805V66.446C39.1426 68.976 39.9315 71.3201 41.2745 73.2506C42.0592 74.3785 42.5556 75.6812 42.5556 77.0554V86.9248" stroke="white" stroke-width="3.47656" stroke-miterlimit="10" stroke-linecap="round" stroke-linejoin="round"/>
<path d="M74.9798 25.9466C68.5092 20.6695 59.9629 17.8406 50.7539 18.8727C35.75 20.5545 23.7117 32.7864 22.2372 47.8122C20.8688 61.7574 28.3517 74.0918 39.7234 79.9257C41.447 80.8102 42.5549 82.5549 42.5549 84.4922V95.4576C42.5549 98.285 44.8471 100.577 47.6747 100.577H61.3271C64.1545 100.577 66.4467 98.285 66.4467 95.4576V84.4907C66.4467 82.5581 67.5476 80.8128 69.2673 79.9314C79.746 74.5606 86.9255 63.6713 86.9255 51.0869C86.9255 43.5846 84.3774 36.6774 80.0998 31.1835" stroke="white" stroke-width="3.47656" stroke-miterlimit="10" stroke-linecap="round" stroke-linejoin="round"/>
<path d="M59.6203 100.577V103.99C59.6203 105.875 58.0921 107.403 56.2072 107.403H52.7941C50.909 107.403 49.3809 105.875 49.3809 103.99V100.577" stroke="white" stroke-width="3.47656" stroke-miterlimit="10" stroke-linecap="round" stroke-linejoin="round"/>
<path d="M42.5566 93.751H66.4484" stroke="white" stroke-width="3.47656" stroke-miterlimit="10" stroke-linecap="round" stroke-linejoin="round"/>
<path d="M54.5 86.9248H66.4459" stroke="white" stroke-width="3.47656" stroke-miterlimit="10" stroke-linecap="round" stroke-linejoin="round"/>
<path d="M42.5566 86.9248H47.6762" stroke="white" stroke-width="3.47656" stroke-miterlimit="10" stroke-linecap="round" stroke-linejoin="round"/>
<path d="M15.2492 51.0869H5.00977" stroke="white" stroke-width="3.47656" stroke-miterlimit="10" stroke-linecap="round" stroke-linejoin="round"/>
<path d="M103.993 51.0869H93.7539" stroke="white" stroke-width="3.47656" stroke-miterlimit="10" stroke-linecap="round" stroke-linejoin="round"/>
<path d="M54.5 11.8359V1.59654" stroke="white" stroke-width="3.47656" stroke-miterlimit="10" stroke-linecap="round" stroke-linejoin="round"/>
<path d="M26.7481 23.3325L19.5079 16.0923" stroke="white" stroke-width="3.47656" stroke-miterlimit="10" stroke-linecap="round" stroke-linejoin="round"/>
<path d="M89.498 86.082L82.2578 78.8418" stroke="white" stroke-width="3.47656" stroke-miterlimit="10" stroke-linecap="round" stroke-linejoin="round"/>
<path d="M82.2578 23.3325L89.498 16.0923" stroke="white" stroke-width="3.47656" stroke-miterlimit="10" stroke-linecap="round" stroke-linejoin="round"/>
<path d="M19.5079 86.082L26.7481 78.8418" stroke="white" stroke-width="3.47656" stroke-miterlimit="10" stroke-linecap="round" stroke-linejoin="round"/>
<path d="M39.4798 14.8242L36.8674 8.51755" stroke="white" stroke-width="3.47656" stroke-miterlimit="10" stroke-linecap="round" stroke-linejoin="round"/>
<path d="M90.7656 36.0664L97.0723 33.454" stroke="white" stroke-width="3.47656" stroke-miterlimit="10" stroke-linecap="round" stroke-linejoin="round"/>
<path d="M11.9316 68.7197L18.2383 66.1073" stroke="white" stroke-width="3.47656" stroke-miterlimit="10" stroke-linecap="round" stroke-linejoin="round"/>
<path d="M69.5234 14.8237L72.1358 8.51706" stroke="white" stroke-width="3.47656" stroke-miterlimit="10" stroke-linecap="round" stroke-linejoin="round"/>
<path d="M90.7656 66.1078L97.0723 68.7202" stroke="white" stroke-width="3.47656" stroke-miterlimit="10" stroke-linecap="round" stroke-linejoin="round"/>
<path d="M11.9316 33.454L18.2383 36.0664" stroke="white" stroke-width="3.47656" stroke-miterlimit="10" stroke-linecap="round" stroke-linejoin="round"/>
</g>
</g>
<defs>
<clipPath id="clip0_183_646">
<rect width="109" height="109" fill="white"/>
</clipPath>
</defs>
</svg>
