<svg width="51" height="51" viewBox="0 0 51 51" fill="none" xmlns="http://www.w3.org/2000/svg">
<path d="M35.2915 18.2528C34.9667 17.7973 34.2765 18.2591 34.5843 18.7339C39.6004 25.8254 34.4592 36.2377 25.7613 36.529C25.2199 36.5602 25.2341 37.3789 25.7839 37.3842C35.1459 37.0899 40.6904 25.882 35.2915 18.2528Z" fill="white"/>
<path d="M32.6108 16.5165L32.3182 17.4726C32.1717 17.9364 32.8279 18.2449 33.0887 17.8261L34.3849 15.7751C34.6825 15.3047 35.1867 15.0374 35.6495 15.1042L36.9995 15.5294C37.4477 15.6764 37.7673 15.0564 37.3829 14.7781C36.5811 14.1175 35.538 13.8009 35.9234 12.4915L36.7038 9.95173C36.8514 9.48702 36.1919 9.17935 35.9334 9.59809L34.5158 11.8452C34.1713 12.3914 33.6405 12.6091 33.0316 12.4607L31.9264 12.1629C31.4796 12.0364 31.1823 12.6526 31.5642 12.9219C32.7113 13.7824 33.498 13.9544 32.8834 15.6273C26.8678 10.4713 16.7494 12.9625 13.8481 20.3603C13.6399 20.8776 14.4028 21.2107 14.6356 20.6936C17.4332 13.6611 27.0075 11.4474 32.6108 16.5165Z" fill="white"/>
<path d="M25.5701 8.18982V0.421374C25.5612 -0.138264 24.7246 -0.142647 24.7148 0.421374V8.18982C24.7237 8.74946 25.5603 8.75395 25.5701 8.18982Z" fill="white"/>
<path d="M25.1425 50.2832C25.2559 50.2832 25.3646 50.2382 25.4448 50.158C25.525 50.0778 25.5701 49.969 25.5701 49.8556V42.0873C25.5701 41.9739 25.525 41.8651 25.4448 41.7849C25.3646 41.7047 25.2559 41.6597 25.1425 41.6597C25.029 41.6597 24.9203 41.7047 24.8401 41.7849C24.7599 41.8651 24.7148 41.9739 24.7148 42.0873V49.8556C24.7148 49.969 24.7599 50.0778 24.8401 50.158C24.9203 50.2382 25.029 50.2832 25.1425 50.2832Z" fill="white"/>
<path d="M41.6641 25.1386C41.6641 25.252 41.7091 25.3607 41.7893 25.4409C41.8695 25.5211 41.9783 25.5662 42.0917 25.5662H49.8601C49.9735 25.5662 50.0823 25.5211 50.1625 25.4409C50.2427 25.3607 50.2877 25.252 50.2877 25.1386C50.2877 25.0251 50.2427 24.9164 50.1625 24.8362C50.0823 24.756 49.9735 24.7109 49.8601 24.7109H42.0917C41.9783 24.7109 41.8695 24.756 41.7893 24.8362C41.7091 24.9164 41.6641 25.0251 41.6641 25.1386Z" fill="white"/>
<path d="M5.3596 25.1386C5.3596 25.0251 5.31454 24.9164 5.23435 24.8362C5.15416 24.756 5.04539 24.7109 4.93198 24.7109H0.427613C0.314203 24.7109 0.205438 24.756 0.125245 24.8362C0.045052 24.9164 0 25.0251 0 25.1386C0 25.252 0.045052 25.3607 0.125245 25.4409C0.205438 25.5211 0.314203 25.5662 0.427613 25.5662H4.93198C5.04539 25.5662 5.15416 25.5211 5.23435 25.4409C5.31454 25.3607 5.3596 25.252 5.3596 25.1386Z" fill="white"/>
<path d="M37.9925 12.2934C38.0322 12.3331 38.0793 12.3646 38.1312 12.3861C38.1831 12.4076 38.2387 12.4187 38.2949 12.4187C38.351 12.4187 38.4066 12.4076 38.4585 12.3861C38.5104 12.3646 38.5575 12.3331 38.5972 12.2934L42.9277 7.96286C42.9681 7.92333 43.0003 7.87616 43.0224 7.82409C43.0445 7.77202 43.056 7.71609 43.0563 7.65954C43.0567 7.60298 43.0458 7.54692 43.0243 7.49461C43.0028 7.44229 42.9711 7.39476 42.9311 7.35476C42.8912 7.31477 42.8436 7.2831 42.7913 7.2616C42.739 7.2401 42.6829 7.22919 42.6264 7.2295C42.5698 7.22981 42.5139 7.24134 42.4618 7.26341C42.4098 7.28549 42.3626 7.31768 42.323 7.35811L37.9925 11.6886C37.9528 11.7283 37.9213 11.7754 37.8998 11.8273C37.8783 11.8792 37.8672 11.9348 37.8672 11.991C37.8672 12.0471 37.8783 12.1028 37.8998 12.1547C37.9213 12.2066 37.9528 12.2537 37.9925 12.2934Z" fill="white"/>
<path d="M7.66586 43.0437C7.72203 43.0438 7.77765 43.0327 7.82953 43.0112C7.88141 42.9897 7.92853 42.9582 7.96819 42.9184L13.4614 37.4254C13.8508 37.0239 13.2626 36.4284 12.8567 36.8207L7.36354 42.3137C7.30509 42.374 7.26556 42.4501 7.24982 42.5326C7.23408 42.6151 7.24281 42.7004 7.27494 42.778C7.30708 42.8556 7.36121 42.9221 7.43067 42.9693C7.50013 43.0165 7.58189 43.0424 7.66586 43.0437Z" fill="white"/>
<path d="M42.3206 42.9183C42.723 43.308 43.3171 42.7189 42.9253 42.3135L37.4322 36.8204C37.0304 36.4313 36.4353 37.0193 36.8275 37.4253L42.3206 42.9183Z" fill="white"/>
<path d="M31.9966 40.5001C31.7734 39.9853 31 40.3038 31.2066 40.8274L32.358 43.6076C32.3792 43.6598 32.4106 43.7074 32.4503 43.7475C32.4899 43.7876 32.5371 43.8195 32.5892 43.8413C32.6412 43.8631 32.6971 43.8743 32.7535 43.8744C32.8099 43.8746 32.8658 43.8635 32.9179 43.8419C32.97 43.8203 33.0174 43.7886 33.0572 43.7487C33.097 43.7087 33.1285 43.6613 33.1499 43.6091C33.1713 43.5569 33.1822 43.5009 33.1819 43.4445C33.1816 43.3881 33.1701 43.3323 33.1482 43.2803L31.9966 40.5001Z" fill="white"/>
<path d="M33.3178 45.6669C33.8183 45.937 34.2326 45.1993 33.7416 44.9126C33.2409 44.6421 32.8268 45.3797 33.3178 45.6669Z" fill="white"/>
<path d="M34.1069 47.5759C34.6074 47.846 35.0216 47.1083 34.5305 46.8216C34.03 46.5516 33.6159 47.2892 34.1069 47.5759Z" fill="white"/>
<path d="M9.95344 31.3543C9.91005 31.2495 9.82681 31.1663 9.72204 31.1229C9.61727 31.0795 9.49954 31.0795 9.39477 31.1229L6.61453 32.2744C6.56225 32.2956 6.51469 32.327 6.47457 32.3667C6.43446 32.4063 6.4026 32.4535 6.38081 32.5056C6.35903 32.5576 6.34776 32.6135 6.34766 32.6699C6.34755 32.7263 6.35861 32.7822 6.3802 32.8343C6.40179 32.8864 6.43347 32.9338 6.47344 32.9736C6.5134 33.0134 6.56085 33.0449 6.61305 33.0663C6.66525 33.0877 6.72117 33.0986 6.77758 33.0983C6.834 33.098 6.8898 33.0865 6.94176 33.0646L9.722 31.913C9.82677 31.8696 9.91002 31.7864 9.95342 31.6816C9.99683 31.5768 9.99683 31.4591 9.95344 31.3543Z" fill="white"/>
<path d="M5.30918 33.6555C5.57921 33.155 4.84158 32.7409 4.55476 33.2319C4.28472 33.7324 5.02236 34.1466 5.30918 33.6555Z" fill="white"/>
<path d="M2.64436 34.0228C2.37432 34.5234 3.11195 34.9376 3.39878 34.4466C3.66871 33.9461 2.93118 33.5319 2.64436 34.0228Z" fill="white"/>
<path d="M32.9202 6.29621C32.8154 6.25282 32.6977 6.25283 32.5929 6.29623C32.4881 6.33963 32.4049 6.42288 32.3615 6.52765L31.21 9.30778C31.1685 9.4122 31.1696 9.52879 31.2134 9.63233C31.2571 9.73588 31.3398 9.81805 31.4436 9.86107C31.5475 9.9041 31.664 9.90451 31.7682 9.86222C31.8723 9.81994 31.9556 9.73835 32.0001 9.63512L33.1516 6.85489C33.195 6.75011 33.195 6.63239 33.1516 6.52762C33.1082 6.42284 33.025 6.3396 32.9202 6.29621Z" fill="white"/>
<path d="M33.3178 4.46858C32.8268 4.75551 33.2411 5.49304 33.7415 5.22289C34.2325 4.93607 33.8182 4.19855 33.3178 4.46858Z" fill="white"/>
<path d="M34.5306 3.31323C35.0217 3.0263 34.6073 2.28889 34.1069 2.55892C33.6158 2.84585 34.0301 3.58338 34.5306 3.31323Z" fill="white"/>
<path d="M17.3695 43.8321C17.4742 43.8754 17.5919 43.8753 17.6966 43.8319C17.8013 43.7886 17.8846 43.7054 17.9281 43.6008L19.0796 40.8205C19.1022 40.7685 19.1142 40.7124 19.1149 40.6557C19.1156 40.5989 19.105 40.5426 19.0838 40.49C19.0625 40.4373 19.0309 40.3895 18.991 40.3492C18.951 40.3089 18.9034 40.2769 18.851 40.2552C18.7985 40.2335 18.7423 40.2224 18.6855 40.2227C18.6288 40.2229 18.5726 40.2344 18.5204 40.2566C18.4681 40.2788 18.4208 40.3111 18.3812 40.3517C18.3415 40.3924 18.3104 40.4405 18.2896 40.4933L17.138 43.2734C17.0946 43.3782 17.0946 43.4959 17.138 43.6007C17.1814 43.7055 17.2647 43.7887 17.3695 43.8321Z" fill="white"/>
<path d="M17.1939 45.1724C17.0309 44.6272 16.2165 44.8563 16.3608 45.4063C16.5238 45.9511 17.3383 45.7225 17.1939 45.1724Z" fill="white"/>
<path d="M23.3468 36.456C22.8016 36.6191 23.0306 37.4335 23.5806 37.289C24.1255 37.1261 23.8968 36.3116 23.3468 36.456Z" fill="white"/>
<path d="M16.1039 47.6152C16.6491 47.4522 16.42 46.6378 15.8701 46.7822C15.3252 46.9452 15.5539 47.7596 16.1039 47.6152Z" fill="white"/>
<path d="M43.5326 33.0973C43.9869 33.1059 44.1268 32.4452 43.6964 32.2741L40.9169 31.1226C40.395 30.9162 40.0734 31.6885 40.5898 31.9127L43.3693 33.0643C43.421 33.0859 43.4766 33.0971 43.5326 33.0973Z" fill="white"/>
<path d="M45.1655 33.0662C44.6744 33.3532 45.0887 34.0907 45.5892 33.8206C46.0803 33.5333 45.6659 32.7963 45.1655 33.0662Z" fill="white"/>
<path d="M47.0717 33.8574C46.5806 34.1443 46.995 34.8819 47.4954 34.6118C47.9864 34.3246 47.5722 33.5869 47.0717 33.8574Z" fill="white"/>
<path d="M13.1726 27.8045C14.0806 31.8485 17.068 35.3411 21.0319 36.6675C21.4952 36.6752 21.6252 35.9972 21.1805 35.8388C19.4368 35.1865 17.878 34.1198 16.6385 32.7309C15.3989 31.3419 14.5158 29.6723 14.0653 27.8659C15.6663 27.9105 17.2583 27.6115 18.734 26.989C20.2097 26.3665 21.5349 25.435 22.6203 24.2573C22.9422 23.9112 22.5212 23.3657 22.1057 23.5898C17.0599 26.3642 10.5671 22.4579 10.6645 16.6914C10.567 10.9263 17.0604 7.01798 22.1057 9.79351C22.5165 10.0219 22.9453 9.46681 22.6203 9.12589C15.8395 1.66907 3.1601 6.59827 3.21109 16.6918C3.21459 19.4448 4.23241 22.1001 6.07004 24.1501C7.90767 26.2001 10.4362 27.5011 13.1726 27.8045Z" fill="white"/>
<path d="M29.4723 27.9752C29.3257 28.4391 29.9819 28.7476 30.2427 28.3288L31.539 26.2778C31.8366 25.8074 32.3415 25.5402 32.8036 25.6071L34.1536 26.0321C34.6026 26.1789 34.9212 25.5592 34.5369 25.2809L33.5311 24.5342C33.0525 24.2055 32.8823 23.6292 33.0774 22.9948L33.8578 20.4551C34.0056 19.9887 33.3447 19.6837 33.0873 20.1015L31.6699 22.3485C30.9996 23.4141 30.0286 22.9024 29.0806 22.6662C28.6338 22.5394 28.3364 23.1563 28.7183 23.4252L29.8566 24.2503C30.2164 24.5548 30.3475 25.1177 30.1829 25.6555L29.4723 27.9752Z" fill="white"/>
<path d="M43.7759 16.1612C43.9234 15.6964 43.2638 15.3888 43.0054 15.8076L41.5879 18.0546C41.2434 18.6008 40.713 18.8186 40.1037 18.6702L38.9985 18.3723C38.5508 18.246 38.2548 18.862 38.6363 19.1313L39.7746 19.9563C40.1342 20.261 40.2655 20.8238 40.1009 21.3616L39.3907 23.6814C39.2478 24.1479 39.895 24.4541 40.1611 24.035L41.4574 21.984C41.7551 21.5137 42.2592 21.247 42.722 21.3132L44.072 21.7383C44.5217 21.8853 44.8388 21.2651 44.4554 20.987C44.4455 20.98 43.4492 20.2395 43.4398 20.2334C42.9682 19.9036 42.8023 19.3306 42.9959 18.7004L43.7759 16.1612Z" fill="white"/>
</svg>
