<svg width="33" height="54" viewBox="0 0 33 54" fill="none" xmlns="http://www.w3.org/2000/svg">
<path d="M15.5726 5.43839H20.9117C21.439 5.43839 21.8655 5.86492 21.8655 6.39217C21.8655 6.91942 21.439 7.34594 20.9117 7.34594H15.5726C15.0453 7.34594 14.6188 6.91942 14.6188 6.39217C14.6188 5.86492 15.0453 5.43839 15.5726 5.43839Z" fill="#21212C" stroke="#21212C" stroke-width="0.762039"/>
<path d="M5.33915 0.989174H26.6959C29.4291 0.989174 31.654 3.21413 31.654 5.94733V48.6608C31.654 51.394 29.4291 53.6189 26.6959 53.6189H5.33915C2.60594 53.6189 0.380989 51.394 0.380989 48.6608V5.94733C0.380989 3.21413 2.60594 0.989174 5.33915 0.989174ZM26.6959 51.7114C28.3808 51.7114 29.7465 50.3457 29.7465 48.6608V5.94733C29.7465 4.26237 28.3808 2.89672 26.6959 2.89672H5.33915C3.65419 2.89672 2.28854 4.26237 2.28854 5.94733V48.6608C2.28854 50.3457 3.65419 51.7114 5.33915 51.7114H26.6959Z" fill="#21212C" stroke="#21212C" stroke-width="0.762039"/>
<path d="M18.3058 46.881C18.3058 48.145 17.2812 49.1696 16.0172 49.1696C14.7533 49.1696 13.7286 48.145 13.7286 46.881C13.7286 45.6171 14.7533 44.5924 16.0172 44.5924C17.2812 44.5924 18.3058 45.6171 18.3058 46.881Z" fill="#21212C" stroke="#21212C" stroke-width="0.762039"/>
<path d="M12.0771 6.39217C12.0771 6.91892 11.6501 7.34594 11.1233 7.34594C10.5966 7.34594 10.1696 6.91892 10.1696 6.39217C10.1696 5.86541 10.5966 5.43839 11.1233 5.43839C11.6501 5.43839 12.0771 5.86541 12.0771 6.39217Z" fill="#21212C" stroke="#21212C" stroke-width="0.762039"/>
</svg>
