<svg width="55" height="62" viewBox="0 0 55 62" fill="none" xmlns="http://www.w3.org/2000/svg">
<path d="M47.7455 48.8572L53.1322 45.7473V16.2263L37.8008 7.37476" stroke="#21212c" stroke-width="2.15394" stroke-miterlimit="10" stroke-linecap="round" stroke-linejoin="round"/>
<path d="M43.2766 51.4377L40.3388 53.1342" stroke="#21212c" stroke-width="2.15394" stroke-miterlimit="10" stroke-linecap="round" stroke-linejoin="round"/>
<path d="M36.7362 55.2131L27.5663 60.5078L13.5411 52.4106" stroke="#21212c" stroke-width="2.15394" stroke-miterlimit="10" stroke-linecap="round" stroke-linejoin="round"/>
<path d="M7.69863 49.0368L1.99995 45.7473V16.2263L17.1489 7.48047" stroke="#21212c" stroke-width="2.15394" stroke-miterlimit="10" stroke-linecap="round" stroke-linejoin="round"/>
<path d="M20.7507 5.40037L27.5661 1.46582L33.999 5.17941" stroke="#21212c" stroke-width="2.15394" stroke-miterlimit="10" stroke-linecap="round" stroke-linejoin="round"/>
<path d="M16.1097 31.4315L27.5664 11.5876L44.6102 41.1087H10.5227L14.0307 35.0322" stroke="#21212c" stroke-width="2.15394" stroke-miterlimit="10" stroke-linecap="round" stroke-linejoin="round"/>
<path d="M27.5664 1.46582V11.5875" stroke="#21212c" stroke-width="2.15394" stroke-miterlimit="10" stroke-linecap="round" stroke-linejoin="round"/>
<path d="M27.5663 11.5876C27.5663 11.5876 2.46166 15.9601 2.00037 16.2264L10.5227 41.1079" stroke="#21212c" stroke-width="2.15394" stroke-miterlimit="10" stroke-linecap="round" stroke-linejoin="round"/>
<path d="M7.31842 19.2874C10.5474 18.6934 15.1821 17.8661 19.7425 17.0608L11.466 31.3962L7.31842 19.2874Z" stroke="#21212c" stroke-width="2.15394" stroke-miterlimit="10" stroke-linecap="round" stroke-linejoin="round"/>
<path d="M46.5832 22.8825L47.8139 19.2877C44.585 18.6938 39.9507 17.8657 35.3901 17.0603L43.6667 31.3967L45.2348 26.8171" stroke="#21212c" stroke-width="2.15394" stroke-miterlimit="10" stroke-linecap="round" stroke-linejoin="round"/>
<path d="M53.1324 45.7474L44.6099 41.1079L53.1324 16.2264L27.5664 11.5876" stroke="#21212c" stroke-width="2.15394" stroke-miterlimit="10" stroke-linecap="round" stroke-linejoin="round"/>
<path d="M10.5231 41.1082L27.5666 60.5081L44.6102 41.1082" stroke="#21212c" stroke-width="2.15394" stroke-miterlimit="10" stroke-linecap="round" stroke-linejoin="round"/>
<path d="M19.4483 45.147H35.6855L27.5668 54.3881L19.4483 45.147Z" stroke="#21212c" stroke-width="2.15394" stroke-miterlimit="10" stroke-linecap="round" stroke-linejoin="round"/>
<path d="M24.4983 25.4099H30.6345L25.7313 36.564" stroke="#21212c" stroke-width="2.15394" stroke-miterlimit="10" stroke-linecap="round" stroke-linejoin="round"/>
<path d="M39.1028 6.52674C37.1133 7.35084 36.4453 8.01883 35.6212 10.0083C34.7971 8.01883 34.1292 7.35084 32.1397 6.52674C34.1292 5.70265 34.7971 5.03466 35.6212 3.04517C36.4452 5.03466 37.1133 5.70265 39.1028 6.52674Z" stroke="#21212c" stroke-width="2.15394" stroke-miterlimit="10" stroke-linecap="round" stroke-linejoin="round"/>
<path d="M50.1475 50.6607C47.8151 51.6268 47.032 52.41 46.066 54.7423C45.0999 52.41 44.3167 51.6269 41.9844 50.6607C44.3167 49.6947 45.0998 48.9114 46.066 46.5791C47.032 48.9114 47.8153 49.6945 50.1475 50.6607Z" stroke="#21212c" stroke-width="2.15394" stroke-miterlimit="10" stroke-linecap="round" stroke-linejoin="round"/>
<path d="M14.6173 51.6195C11.6219 52.8602 10.616 53.866 9.3753 56.8615C8.13459 53.866 7.12874 52.8602 4.13327 51.6195C7.12874 50.3788 8.13459 49.3729 9.3753 46.3774C10.616 49.3729 11.6219 50.3788 14.6173 51.6195Z" stroke="#21212c" stroke-width="2.15394" stroke-miterlimit="10" stroke-linecap="round" stroke-linejoin="round"/>
<path d="M2.00037 45.7476L10.5227 41.1082" stroke="#21212c" stroke-width="2.15394" stroke-miterlimit="10" stroke-linecap="round" stroke-linejoin="round"/>
</svg>
