<svg width="83" height="83" viewBox="0 0 83 83" fill="none" xmlns="http://www.w3.org/2000/svg">
<path fill-rule="evenodd" clip-rule="evenodd" d="M60.9586 9.53552C57.344 8.35244 52.4209 8.30015 41.4998 8.30015C35.6421 8.30015 31.4566 8.30239 28.1582 8.52745C24.897 8.74993 22.8072 9.1763 21.1092 9.87964C16.0249 11.9856 11.9854 16.0251 9.87944 21.1094C9.1761 22.8074 8.74977 24.8973 8.52725 28.1584C8.3022 31.4569 8.29996 35.6424 8.29996 41.5001C8.29996 47.3578 8.3022 51.5435 8.52725 54.8419C8.74977 58.103 9.1761 60.1929 9.87944 61.8907C11.9854 66.9752 16.0249 71.0144 21.1092 73.1205C22.8072 73.824 24.897 74.2502 28.1582 74.4726C31.4566 74.6979 35.6421 74.7 41.4998 74.7C47.3575 74.7 51.5431 74.6979 54.8415 74.4726C58.1026 74.2502 60.1925 73.824 61.8903 73.1205C66.9748 71.0144 71.014 66.9752 73.1201 61.8907C73.8235 60.1929 74.2497 58.103 74.4722 54.8419C74.6975 51.5435 74.6996 47.3578 74.6996 41.5001C74.6996 38.322 74.6996 35.6229 74.6614 33.2669C74.6245 30.9753 76.4526 29.0875 78.7442 29.0507C81.0358 29.0137 82.9236 30.8416 82.9606 33.1332C82.9996 35.5631 82.9996 38.3266 82.9996 41.4735V41.6528C82.9996 47.3246 82.9996 51.7925 82.7531 55.4067C82.5016 59.0907 81.9803 62.189 80.7885 65.0671C77.8399 72.1851 72.1847 77.8403 65.0667 80.7889C62.1887 81.9808 59.0903 82.502 55.4064 82.7535C51.7921 83 47.3243 83 41.6529 83H41.3466C35.6753 83 31.2073 83 27.5932 82.7535C23.9094 82.502 20.8109 81.9808 17.933 80.7889C10.8149 77.8403 5.15967 72.1851 2.21127 65.0671C1.01923 62.189 0.497873 59.0907 0.246551 55.4067C-4.11078e-05 51.7925 0 47.3246 0 41.6528V41.3474C0 35.6756 -4.11078e-05 31.2075 0.246551 27.5934C0.497873 23.9097 1.01923 20.8111 2.21127 17.9332C5.15967 10.8151 10.8149 5.15986 17.933 2.21145C20.8109 1.01937 23.9094 0.498046 27.5932 0.246723C31.2073 0.000130466 35.6753 0.000130071 41.3471 0.000171571H41.4998C41.8002 0.000171571 42.0978 0.000129958 42.392 8.84584e-05C52.1428 -0.00140554 58.5002 -0.00236017 63.5407 1.64734C65.7186 2.36027 66.9068 4.70406 66.1938 6.88235C65.4808 9.0606 63.1369 10.2485 60.9586 9.53552ZM82.4339 12.4336C83.5889 14.4134 82.9203 16.9545 80.9403 18.1094L80.0207 18.646C65.102 27.3485 53.1156 40.3003 45.5925 55.847C45.0073 57.0559 43.8736 57.9071 42.5493 58.1312C41.2251 58.3553 39.8742 57.9249 38.9239 56.9754L22.2681 40.3373C20.6466 38.7175 20.6452 36.0902 22.265 34.4683C23.8848 32.8469 26.5124 32.8455 28.1339 34.4654L40.7935 47.1117C49.0747 32.354 61.1611 20.0383 75.8384 11.4766L76.7584 10.94C78.7379 9.78519 81.279 10.4539 82.4339 12.4336Z" fill="#EC4400"/>
</svg>
