<svg width="99" height="85" viewBox="0 0 99 85" fill="none" xmlns="http://www.w3.org/2000/svg">
<path d="M93.6498 46.8248C92.3119 46.8248 91.4201 47.7168 91.4201 49.0545V78.0414C91.4201 79.3793 90.5281 80.2711 89.1904 80.2711H8.91898C7.58109 80.2711 6.6893 79.3791 6.6893 78.0414V49.0545C6.6893 47.7166 5.79731 46.8248 4.45961 46.8248C3.12191 46.8248 2.22992 47.7168 2.22992 49.0545V78.0414C2.22992 81.832 5.12855 84.7307 8.91918 84.7307H89.1904C92.9811 84.7307 95.8797 81.832 95.8797 78.0414V49.0545C95.8797 47.7166 94.9877 46.8248 93.6498 46.8248Z" fill="#EC4400"/>
<path d="M91.4201 15.6083H6.68926C2.89863 15.6083 0 18.5069 0 22.2975V36.568C0 39.6895 2.22969 42.3653 5.12851 43.0342L40.1357 50.8383V57.9735C40.1357 59.3114 41.0277 60.2032 42.3654 60.2032H55.7439C57.0818 60.2032 57.9736 59.3112 57.9736 57.9735V50.8383L92.9808 43.0342C95.8797 42.3653 98.1093 39.6895 98.1093 36.5678V22.2973C98.1093 18.5069 95.2107 15.6083 91.4201 15.6083ZM53.5142 55.7438H44.5953V46.8249H53.5142V55.7438ZM93.6498 36.5678C93.6498 37.6827 92.9808 38.5747 91.866 38.7975L57.9736 46.3788V44.595C57.9736 43.2571 57.0816 42.3653 55.7439 42.3653H42.3654C41.0275 42.3653 40.1357 43.2573 40.1357 44.595V46.3788L6.24336 38.7977C5.12851 38.5747 4.45957 37.6829 4.45957 36.568V22.2975C4.45957 20.9596 5.35156 20.0678 6.68926 20.0678H91.4201C92.758 20.0678 93.6498 20.9598 93.6498 22.2975V36.5678Z" fill="#EC4400"/>
<path d="M60.2036 -0.00012207H37.9059C34.1153 -0.00012207 31.2166 2.89851 31.2166 6.68913V8.91882C31.2166 10.2567 32.1086 11.1485 33.4463 11.1485C34.784 11.1485 35.676 10.2565 35.676 8.91882V6.68913C35.676 5.35124 36.568 4.45945 37.9057 4.45945H60.2034C61.5412 4.45945 62.433 5.35144 62.433 6.68913V8.91882C62.433 10.2567 63.325 11.1485 64.6627 11.1485C66.0006 11.1485 66.8924 10.2565 66.8924 8.91882V6.68913C66.8928 2.89851 63.9942 -0.00012207 60.2036 -0.00012207Z" fill="#EC4400"/>
</svg>
