<svg width="121" height="100" viewBox="0 0 121 100" fill="none" xmlns="http://www.w3.org/2000/svg">
<circle cx="58.6178" cy="54.2761" r="42.6975" stroke="#EC4400" stroke-width="2.89474"/>
<g clip-path="url(#clip0_192_1318)">
<path d="M71.3148 21.2915L61.7679 15.7795C59.8193 14.6546 57.4185 14.6546 55.4699 15.7795L26.8553 32.3001C24.9067 33.425 23.7064 35.5042 23.7064 37.7542V70.7954C23.7064 73.0454 24.9069 75.1246 26.8553 76.2496L55.4698 92.7703C57.4184 93.8953 59.8191 93.8953 61.7677 92.7703L90.3822 76.2497C92.3308 75.1248 93.5311 73.0456 93.5311 70.7956V37.7544C93.5311 35.5044 92.3306 33.4252 90.3822 32.3002L76.1175 24.0645" stroke="#EC4400" stroke-width="2.73502" stroke-miterlimit="10" stroke-linecap="round" stroke-linejoin="round"/>
<path d="M92.247 33.9446L58.6188 29.3815" stroke="#EC4400" stroke-width="2.73502" stroke-miterlimit="10" stroke-linecap="round" stroke-linejoin="round"/>
<path d="M92.8026 73.7317L80.548 61.9842L93.0081 35.2438" stroke="#EC4400" stroke-width="2.73502" stroke-miterlimit="10" stroke-linecap="round" stroke-linejoin="round"/>
<path d="M24.2306 35.2438L36.6906 61.9842L24.4361 73.7317" stroke="#EC4400" stroke-width="2.73502" stroke-miterlimit="10" stroke-linecap="round" stroke-linejoin="round"/>
<path d="M58.6177 14.9359V29.381L24.9895 33.944" stroke="#EC4400" stroke-width="2.73502" stroke-miterlimit="10" stroke-linecap="round" stroke-linejoin="round"/>
<path d="M77.8146 38.0355H80.0191V48.3494" stroke="#EC4400" stroke-width="2.73502" stroke-miterlimit="10" stroke-linecap="round" stroke-linejoin="round"/>
<path d="M36.4003 38.0355H42.0744L37.5404 48.3494" stroke="#EC4400" stroke-width="2.73502" stroke-miterlimit="10" stroke-linecap="round" stroke-linejoin="round"/>
<path d="M56.0284 72.3778C56.2667 71.165 57.3356 70.2501 58.618 70.2501C60.0755 70.2501 61.2571 71.4317 61.2571 72.8892C61.2571 74.3468 60.0755 75.5284 58.618 75.5284" stroke="#EC4400" stroke-width="2.73502" stroke-miterlimit="10" stroke-linecap="round" stroke-linejoin="round"/>
<path d="M58.6203 75.5281C60.0779 75.5281 61.2594 76.7097 61.2594 78.1673C61.2594 79.6248 60.0779 80.8064 58.6203 80.8064C57.2877 80.8064 56.1857 79.8187 56.0067 78.5353C55.9899 78.415 55.9812 78.2922 55.9812 78.1673" stroke="#EC4400" stroke-width="2.73502" stroke-miterlimit="10" stroke-linecap="round" stroke-linejoin="round"/>
<path d="M59.3386 44.5374C59.3386 44.5374 56.179 46.8874 55.6694 51.3252" stroke="#EC4400" stroke-width="2.73502" stroke-miterlimit="10" stroke-linecap="round" stroke-linejoin="round"/>
<path d="M58.6199 54.7405C60.2671 54.7405 61.6024 53.4052 61.6024 51.758C61.6024 50.1108 60.2671 48.7755 58.6199 48.7755C56.9728 48.7755 55.6375 50.1108 55.6375 51.758C55.6375 53.4052 56.9728 54.7405 58.6199 54.7405Z" stroke="#EC4400" stroke-width="2.73502" stroke-miterlimit="10" stroke-linecap="round" stroke-linejoin="round"/>
<path d="M51.8327 61.985H80.5453L58.6175 29.3815L36.6896 61.985H46.292" stroke="#EC4400" stroke-width="2.73502" stroke-miterlimit="10" stroke-linecap="round" stroke-linejoin="round"/>
<path d="M59.3026 93.5745L80.5484 61.9851" stroke="#EC4400" stroke-width="2.73502" stroke-miterlimit="10" stroke-linecap="round" stroke-linejoin="round"/>
<path d="M36.6896 61.9851L57.9354 93.5745" stroke="#EC4400" stroke-width="2.73502" stroke-miterlimit="10" stroke-linecap="round" stroke-linejoin="round"/>
</g>
<rect x="18.1842" y="13.8416" width="80.8705" height="80.8705" stroke="#EC4400" stroke-width="0.182335"/>
<mask id="path-18-inside-1_192_1318" fill="white">
<path d="M97.6721 13.0259C100.879 13.0259 103.487 10.5906 103.487 7.59824C103.487 4.60586 100.879 2.17059 97.6721 2.17059C94.494 2.17059 91.9081 4.60586 91.9081 7.59824C91.9081 10.5906 94.494 13.0259 97.6721 13.0259ZM97.6721 3.97306C99.8129 3.97306 101.556 5.59951 101.556 7.59824C101.556 9.59697 99.8129 11.2234 97.6721 11.2234C95.5596 11.2234 93.8395 9.59697 93.8395 7.59824C93.8395 5.59951 95.5596 3.97306 97.6721 3.97306Z"/>
</mask>
<path d="M97.6721 13.0259C100.879 13.0259 103.487 10.5906 103.487 7.59824C103.487 4.60586 100.879 2.17059 97.6721 2.17059C94.494 2.17059 91.9081 4.60586 91.9081 7.59824C91.9081 10.5906 94.494 13.0259 97.6721 13.0259ZM97.6721 3.97306C99.8129 3.97306 101.556 5.59951 101.556 7.59824C101.556 9.59697 99.8129 11.2234 97.6721 11.2234C95.5596 11.2234 93.8395 9.59697 93.8395 7.59824C93.8395 5.59951 95.5596 3.97306 97.6721 3.97306Z" fill="#EC4400"/>
<path d="M97.6721 18.3191C103.453 18.3191 108.78 13.8514 108.78 7.59824H98.1938C98.1938 7.56784 98.2021 7.53693 98.2095 7.52082C98.2145 7.50975 98.2081 7.52929 98.1701 7.56478C98.091 7.63859 97.9258 7.73264 97.6721 7.73264V18.3191ZM108.78 7.59824C108.78 1.34505 103.453 -3.12265 97.6721 -3.12265V7.46384C97.9258 7.46384 98.091 7.55789 98.1701 7.6317C98.2081 7.66718 98.2145 7.68672 98.2095 7.67566C98.2021 7.65954 98.1938 7.62863 98.1938 7.59824H108.78ZM97.6721 -3.12265C91.8748 -3.12265 86.6148 1.3873 86.6148 7.59824H97.2013C97.2013 7.62147 97.1947 7.64685 97.1888 7.65984C97.1852 7.668 97.192 7.64891 97.2271 7.61586C97.2998 7.54742 97.4468 7.46384 97.6721 7.46384V-3.12265ZM86.6148 7.59824C86.6148 13.8092 91.8748 18.3191 97.6721 18.3191V7.73264C97.4468 7.73264 97.2998 7.64906 97.2271 7.58062C97.192 7.54757 97.1852 7.52847 97.1888 7.53664C97.1947 7.54963 97.2013 7.575 97.2013 7.59824H86.6148ZM97.6721 9.26631C97.3927 9.26631 97.0751 9.15793 96.8049 8.90565C96.5288 8.64803 96.2624 8.18882 96.2624 7.59824H106.849C106.849 2.33843 102.387 -1.32019 97.6721 -1.32019V9.26631ZM96.2624 7.59824C96.2624 7.00766 96.5288 6.54845 96.8049 6.29082C97.0751 6.03855 97.3927 5.93017 97.6721 5.93017V16.5167C102.387 16.5167 106.849 12.858 106.849 7.59824H96.2624ZM97.6721 5.93017C98.201 5.93017 99.1327 6.39937 99.1327 7.59824H88.5462C88.5462 12.7946 92.9182 16.5167 97.6721 16.5167V5.93017ZM99.1327 7.59824C99.1327 8.79711 98.201 9.26631 97.6721 9.26631V-1.32019C92.9182 -1.32019 88.5462 2.4019 88.5462 7.59824H99.1327Z" fill="#EC4400" mask="url(#path-18-inside-1_192_1318)"/>
<mask id="path-20-inside-2_192_1318" fill="white">
<path d="M72.5688 4.90368H74.701V7.03677C74.701 7.54727 75.1141 7.96036 75.6246 7.96036C76.1351 7.96036 76.5482 7.54727 76.5482 7.03677V4.90368H78.6822C79.1927 4.90368 79.6057 4.49059 79.6057 3.98009C79.6057 3.46959 79.1927 3.0565 78.6822 3.0565H76.5482V0.923406C76.5482 0.412907 76.1351 -0.000183105 75.6246 -0.000183105C75.1141 -0.000183105 74.701 0.412907 74.701 0.923406V3.0565H72.5688C72.0583 3.0565 71.6452 3.46959 71.6452 3.98009C71.6452 4.49059 72.0583 4.90368 72.5688 4.90368Z"/>
</mask>
<path d="M72.5688 4.90368H74.701V7.03677C74.701 7.54727 75.1141 7.96036 75.6246 7.96036C76.1351 7.96036 76.5482 7.54727 76.5482 7.03677V4.90368H78.6822C79.1927 4.90368 79.6057 4.49059 79.6057 3.98009C79.6057 3.46959 79.1927 3.0565 78.6822 3.0565H76.5482V0.923406C76.5482 0.412907 76.1351 -0.000183105 75.6246 -0.000183105C75.1141 -0.000183105 74.701 0.412907 74.701 0.923406V3.0565H72.5688C72.0583 3.0565 71.6452 3.46959 71.6452 3.98009C71.6452 4.49059 72.0583 4.90368 72.5688 4.90368Z" fill="#EC4400"/>
<path d="M74.701 4.90368H79.9942V-0.389567H74.701V4.90368ZM76.5482 4.90368V-0.389567H71.2549V4.90368H76.5482ZM76.5482 3.0565H71.2549V8.34975H76.5482V3.0565ZM74.701 3.0565V8.34975H79.9942V3.0565H74.701ZM72.5688 10.1969H74.701V-0.389567H72.5688V10.1969ZM69.4077 4.90368V7.03677H79.9942V4.90368H69.4077ZM69.4077 7.03677C69.4077 10.4707 72.1907 13.2536 75.6246 13.2536V2.66712C78.0375 2.66712 79.9942 4.62389 79.9942 7.03677H69.4077ZM75.6246 13.2536C79.0585 13.2536 81.8414 10.4707 81.8414 7.03677H71.2549C71.2549 4.62389 73.2117 2.66712 75.6246 2.66712V13.2536ZM81.8414 7.03677V4.90368H71.2549V7.03677H81.8414ZM76.5482 10.1969H78.6822V-0.389567H76.5482V10.1969ZM78.6822 10.1969C82.116 10.1969 84.899 7.41397 84.899 3.98009H74.3125C74.3125 1.56721 76.2693 -0.389567 78.6822 -0.389567V10.1969ZM84.899 3.98009C84.899 0.546211 82.116 -2.23675 78.6822 -2.23675V8.34975C76.2693 8.34975 74.3125 6.39297 74.3125 3.98009H84.899ZM78.6822 -2.23675H76.5482V8.34975H78.6822V-2.23675ZM81.8414 3.0565V0.923406H71.2549V3.0565H81.8414ZM81.8414 0.923406C81.8414 -2.51047 79.0585 -5.29343 75.6246 -5.29343V5.29306C73.2117 5.29306 71.2549 3.33629 71.2549 0.923406H81.8414ZM75.6246 -5.29343C72.1907 -5.29343 69.4077 -2.51047 69.4077 0.923406H79.9942C79.9942 3.33629 78.0375 5.29306 75.6246 5.29306V-5.29343ZM69.4077 0.923406V3.0565H79.9942V0.923406H69.4077ZM74.701 -2.23675H72.5688V8.34975H74.701V-2.23675ZM72.5688 -2.23675C69.1349 -2.23675 66.352 0.546211 66.352 3.98009H76.9384C76.9384 6.39297 74.9817 8.34975 72.5688 8.34975V-2.23675ZM66.352 3.98009C66.352 7.41397 69.1349 10.1969 72.5688 10.1969V-0.389567C74.9817 -0.389567 76.9384 1.56721 76.9384 3.98009H66.352Z" fill="#EC4400" mask="url(#path-20-inside-2_192_1318)"/>
<path d="M5.96133 28.0733L5.96128 28.0732L5.96133 28.0733Z" fill="#EC4400" stroke="#EC4400" stroke-width="5.29325"/>
<mask id="path-23-inside-3_192_1318" fill="white">
<path d="M17.9582 12.9951L19.2078 10.5863L21.6177 11.8365C22.1944 12.1357 22.9032 11.9111 23.2024 11.3344C23.5016 10.7576 23.277 10.0488 22.7003 9.74963L20.2904 8.49945L21.5411 6.08856C21.8403 5.51183 21.6157 4.80303 21.039 4.50383C20.4623 4.20464 19.7535 4.42922 19.4543 5.00596L18.2036 7.41684L15.7937 6.16667C15.217 5.86747 14.5082 6.09205 14.209 6.66879C13.9098 7.24553 14.1343 7.95432 14.7111 8.25352L17.121 9.5037L15.8713 11.9125C15.5721 12.4893 15.7967 13.1981 16.3734 13.4973C16.9502 13.7965 17.659 13.5719 17.9582 12.9951Z"/>
</mask>
<path d="M17.9582 12.9951L19.2078 10.5863L21.6177 11.8365C22.1944 12.1357 22.9032 11.9111 23.2024 11.3344C23.5016 10.7576 23.277 10.0488 22.7003 9.74963L20.2904 8.49945L21.5411 6.08856C21.8403 5.51183 21.6157 4.80303 21.039 4.50383C20.4623 4.20464 19.7535 4.42922 19.4543 5.00596L18.2036 7.41684L15.7937 6.16667C15.217 5.86747 14.5082 6.09205 14.209 6.66879C13.9098 7.24553 14.1343 7.95432 14.7111 8.25352L17.121 9.5037L15.8713 11.9125C15.5721 12.4893 15.7967 13.1981 16.3734 13.4973C16.9502 13.7965 17.659 13.5719 17.9582 12.9951Z" fill="#EC4400"/>
<path d="M19.2078 10.5863L21.6453 5.88769L16.9467 3.45017L14.5092 8.14878L19.2078 10.5863ZM20.2904 8.49945L15.5918 6.06193L13.1543 10.7605L17.8529 13.1981L20.2904 8.49945ZM18.2036 7.41684L15.766 12.1155L20.4647 14.553L22.9022 9.85436L18.2036 7.41684ZM17.121 9.5037L21.8196 11.9412L24.2571 7.2426L19.5585 4.80508L17.121 9.5037ZM22.6568 15.4327L23.9064 13.0238L14.5092 8.14878L13.2595 10.5576L22.6568 15.4327ZM16.7703 15.2849L19.1802 16.5351L24.0552 7.13787L21.6453 5.88769L16.7703 15.2849ZM19.1802 16.5351C22.3519 18.1805 26.2556 16.9436 27.901 13.7719L18.5038 8.89684C19.5508 6.8786 22.037 6.09086 24.0552 7.13787L19.1802 16.5351ZM27.901 13.7719C29.5464 10.6002 28.3095 6.69642 25.1378 5.05101L20.2628 14.4482C18.2445 13.4012 17.4568 10.9151 18.5038 8.89684L27.901 13.7719ZM25.1378 5.05101L22.7279 3.80084L17.8529 13.1981L20.2628 14.4482L25.1378 5.05101ZM24.989 10.937L26.2397 8.52608L16.8425 3.65104L15.5918 6.06193L24.989 10.937ZM26.2397 8.52608C27.8851 5.35437 26.6482 1.45062 23.4765 -0.194778L18.6015 9.20245C16.5832 8.15544 15.7955 5.66928 16.8425 3.65104L26.2397 8.52608ZM23.4765 -0.194778C20.3048 -1.84018 16.4011 -0.603272 14.7557 2.56844L24.1529 7.44348C23.1059 9.46171 20.6197 10.2495 18.6015 9.20245L23.4765 -0.194778ZM14.7557 2.56844L13.5049 4.97932L22.9022 9.85436L24.1529 7.44348L14.7557 2.56844ZM20.6411 2.71823L18.2312 1.46805L13.3562 10.8653L15.766 12.1155L20.6411 2.71823ZM18.2312 1.46805C15.0595 -0.177349 11.1558 1.05956 9.51035 4.23127L18.9076 9.10631C17.8606 11.1245 15.3744 11.9123 13.3562 10.8653L18.2312 1.46805ZM9.51035 4.23127C7.86495 7.40298 9.10186 11.3067 12.2736 12.9521L17.1486 3.55491C19.1668 4.60191 19.9546 7.08808 18.9076 9.10631L9.51035 4.23127ZM12.2736 12.9521L14.6834 14.2023L19.5585 4.80508L17.1486 3.55491L12.2736 12.9521ZM12.4223 7.06618L11.1727 9.47502L20.5699 14.3501L21.8196 11.9412L12.4223 7.06618ZM11.1727 9.47502C9.52729 12.6467 10.7642 16.5505 13.9359 18.1959L18.8109 8.79866C20.8292 9.84567 21.6169 12.3318 20.5699 14.3501L11.1727 9.47502ZM13.9359 18.1959C17.1076 19.8413 21.0114 18.6044 22.6568 15.4327L13.2595 10.5576C14.3066 8.53939 16.7927 7.75165 18.8109 8.79866L13.9359 18.1959Z" fill="#EC4400" mask="url(#path-23-inside-3_192_1318)"/>
<mask id="path-25-inside-4_192_1318" fill="white">
<path d="M17.1422 87.1408L15.553 88.7301L13.9638 87.1408C13.5838 86.7608 12.9683 86.7608 12.5883 87.1408C12.2084 87.5208 12.2084 88.1363 12.5883 88.5163L14.1775 90.1056L12.5883 91.6948C12.2084 92.0748 12.2084 92.6904 12.5883 93.0704C12.9683 93.4503 13.5838 93.4503 13.9638 93.0704L15.553 91.4811L17.1422 93.0704C17.5222 93.4503 18.1377 93.4503 18.5177 93.0704C18.8977 92.6904 18.8977 92.0748 18.5177 91.6948L16.9285 90.1056L18.5177 88.5163C19.4281 87.6059 18.052 86.231 17.1422 87.1408Z"/>
</mask>
<path d="M17.1422 87.1408L15.553 88.7301L13.9638 87.1408C13.5838 86.7608 12.9683 86.7608 12.5883 87.1408C12.2084 87.5208 12.2084 88.1363 12.5883 88.5163L14.1775 90.1056L12.5883 91.6948C12.2084 92.0748 12.2084 92.6904 12.5883 93.0704C12.9683 93.4503 13.5838 93.4503 13.9638 93.0704L15.553 91.4811L17.1422 93.0704C17.5222 93.4503 18.1377 93.4503 18.5177 93.0704C18.8977 92.6904 18.8977 92.0748 18.5177 91.6948L16.9285 90.1056L18.5177 88.5163C19.4281 87.6059 18.052 86.231 17.1422 87.1408Z" fill="#EC4400"/>
<path d="M17.1422 87.1408L20.8852 90.8836L20.8852 90.8836L17.1422 87.1408ZM15.553 88.7301L11.8101 92.4729L15.553 96.2159L19.296 92.4729L15.553 88.7301ZM13.9638 87.1408L10.2209 90.8836L13.9638 87.1408ZM14.1775 90.1056L17.9205 93.8484L21.6632 90.1056L17.9205 86.3627L14.1775 90.1056ZM12.5883 91.6948L16.3313 95.4377H16.3313L12.5883 91.6948ZM12.5883 93.0704L8.84538 96.8132L8.84541 96.8132L12.5883 93.0704ZM13.9638 93.0704L10.2209 89.3275L10.2209 89.3275L13.9638 93.0704ZM15.553 91.4811L19.296 87.7383L15.553 83.9952L11.8101 87.7383L15.553 91.4811ZM17.1422 93.0704L13.3993 96.8132L13.3993 96.8132L17.1422 93.0704ZM18.5177 93.0704L14.7748 89.3275L14.7748 89.3275L18.5177 93.0704ZM18.5177 91.6948L14.7748 95.4377H14.7748L18.5177 91.6948ZM16.9285 90.1056L13.1856 86.3627L9.44282 90.1056L13.1856 93.8484L16.9285 90.1056ZM18.5177 88.5163L14.7748 84.7735L14.7748 84.7735L18.5177 88.5163ZM13.3993 83.398L11.8101 84.9872L19.296 92.4729L20.8852 90.8836L13.3993 83.398ZM19.296 84.9872L17.7067 83.398L10.2209 90.8836L11.8101 92.4729L19.296 84.9872ZM17.7067 83.398C15.2596 80.9508 11.2925 80.9508 8.84538 83.398L16.3313 90.8836C14.6441 92.5709 11.9081 92.5709 10.2209 90.8836L17.7067 83.398ZM8.84538 83.398C6.39834 85.8451 6.39834 89.8121 8.84538 92.2592L16.3313 84.7735C18.0184 86.4606 18.0184 89.1965 16.3313 90.8836L8.84538 83.398ZM8.84538 92.2592L10.4346 93.8484L17.9205 86.3627L16.3313 84.7735L8.84538 92.2592ZM10.4346 86.3627L8.84538 87.952L16.3313 95.4377L17.9205 93.8484L10.4346 86.3627ZM8.84538 87.952C6.39834 90.3991 6.39834 94.3661 8.84538 96.8132L16.3313 89.3275C18.0184 91.0147 18.0184 93.7505 16.3313 95.4377L8.84538 87.952ZM8.84541 96.8132C11.2924 99.2602 15.2595 99.2605 17.7068 96.8132L10.2209 89.3275C11.9082 87.6402 14.6442 87.6404 16.3312 89.3275L8.84541 96.8132ZM17.7067 96.8132L19.296 95.2239L11.8101 87.7383L10.2209 89.3275L17.7067 96.8132ZM11.8101 95.2239L13.3993 96.8132L20.8852 89.3275L19.296 87.7383L11.8101 95.2239ZM13.3993 96.8132C15.8463 99.2602 19.8134 99.2605 22.2607 96.8132L14.7748 89.3275C16.4621 87.6402 19.1981 87.6404 20.8852 89.3275L13.3993 96.8132ZM22.2607 96.8132C24.7077 94.3661 24.7077 90.3991 22.2607 87.952L14.7748 95.4377C13.0877 93.7505 13.0877 91.0147 14.7748 89.3275L22.2607 96.8132ZM22.2607 87.952L20.6714 86.3627L13.1856 93.8484L14.7748 95.4377L22.2607 87.952ZM20.6714 93.8484L22.2607 92.2592L14.7748 84.7735L13.1856 86.3627L20.6714 93.8484ZM22.2607 92.2592C23.5135 91.0063 24.2121 89.2847 24.0977 87.4585C23.9917 85.7659 23.2167 84.364 22.2547 83.4024C21.2927 82.4407 19.891 81.6668 18.1995 81.561C16.3744 81.4468 14.6527 82.1445 13.3993 83.398L20.8852 90.8836C20.0867 91.6822 18.8782 92.2106 17.5385 92.1268C16.3324 92.0513 15.3884 91.5074 14.7704 90.8896C14.1523 90.2718 13.6075 89.3274 13.5319 88.1203C13.4479 86.7795 13.9771 85.5711 14.7748 84.7735L22.2607 92.2592Z" fill="#EC4400" mask="url(#path-25-inside-4_192_1318)"/>
<mask id="path-27-inside-5_192_1318" fill="white">
<path d="M118.009 80.7333L116.398 79.337L117.794 77.7256C118.128 77.3398 118.087 76.7571 117.701 76.4228C117.315 76.0885 116.732 76.1302 116.398 76.516L115.002 78.1274L113.389 76.73C113.003 76.3957 112.42 76.4374 112.086 76.8232C111.752 77.209 111.794 77.7917 112.179 78.126L113.792 79.5235L112.395 81.1362C112.06 81.5221 112.102 82.1048 112.488 82.4391C112.874 82.7734 113.456 82.7317 113.791 82.3459L115.188 80.7331L116.8 82.1293C117.185 82.4636 117.768 82.4219 118.102 82.0361C118.437 81.6503 118.395 81.0676 118.009 80.7333Z"/>
</mask>
<path d="M118.009 80.7333L116.398 79.337L117.794 77.7256C118.128 77.3398 118.087 76.7571 117.701 76.4228C117.315 76.0885 116.732 76.1302 116.398 76.516L115.002 78.1274L113.389 76.73C113.003 76.3957 112.42 76.4374 112.086 76.8232C111.752 77.209 111.794 77.7917 112.179 78.126L113.792 79.5235L112.395 81.1362C112.06 81.5221 112.102 82.1048 112.488 82.4391C112.874 82.7734 113.456 82.7317 113.791 82.3459L115.188 80.7331L116.8 82.1293C117.185 82.4636 117.768 82.4219 118.102 82.0361C118.437 81.6503 118.395 81.0676 118.009 80.7333Z" fill="#EC4400"/>
<path d="M116.398 79.337L112.397 75.8708L108.931 79.8712L112.932 83.3375L116.398 79.337ZM115.002 78.1274L111.535 82.1279L115.536 85.5941L119.002 81.5937L115.002 78.1274ZM113.792 79.5235L117.793 82.9897L121.259 78.9893L117.258 75.523L113.792 79.5235ZM115.188 80.7331L118.654 76.7326L114.654 73.2664L111.188 77.2668L115.188 80.7331ZM121.475 76.7329L119.864 75.3366L112.932 83.3375L114.543 84.7337L121.475 76.7329ZM120.398 82.8033L121.794 81.1919L113.794 74.2594L112.397 75.8708L120.398 82.8033ZM121.794 81.1919C124.043 78.5967 123.762 74.671 121.167 72.4224L114.235 80.4232C112.411 78.8432 112.214 76.0829 113.794 74.2594L121.794 81.1919ZM121.167 72.4224C118.572 70.1737 114.646 70.4545 112.398 73.0497L120.398 79.9823C118.818 81.8058 116.058 82.0033 114.235 80.4232L121.167 72.4224ZM112.398 73.0497L111.001 74.6612L119.002 81.5937L120.398 79.9823L112.398 73.0497ZM118.468 74.127L116.855 72.7296L109.923 80.7304L111.535 82.1279L118.468 74.127ZM116.855 72.7296C114.26 70.4809 110.334 70.7617 108.086 73.3569L116.087 80.2895C114.507 82.113 111.746 82.3105 109.923 80.7304L116.855 72.7296ZM108.086 73.3569C105.837 75.9521 106.118 79.8778 108.713 82.1264L115.646 74.1256C117.469 75.7056 117.667 78.4659 116.087 80.2895L108.086 73.3569ZM108.713 82.1264L110.326 83.5239L117.258 75.523L115.646 74.1256L108.713 82.1264ZM109.792 76.0572L108.394 77.67L116.395 84.6025L117.793 82.9897L109.792 76.0572ZM108.394 77.67C106.146 80.2652 106.426 84.1908 109.022 86.4395L115.954 78.4386C117.778 80.0187 117.975 82.779 116.395 84.6025L108.394 77.67ZM109.022 86.4395C111.617 88.6882 115.542 88.4073 117.791 85.8121L109.79 78.8796C111.37 77.056 114.131 76.8586 115.954 78.4386L109.022 86.4395ZM117.791 85.8121L119.189 84.1993L111.188 77.2668L109.79 78.8796L117.791 85.8121ZM111.722 84.7335L113.333 86.1298L120.266 78.1289L118.654 76.7326L111.722 84.7335ZM113.333 86.1298C115.929 88.3784 119.854 88.0976 122.103 85.5024L114.102 78.5699C115.682 76.7463 118.442 76.5488 120.266 78.1289L113.333 86.1298ZM122.103 85.5024C124.352 82.9072 124.071 78.9815 121.475 76.7329L114.543 84.7337C112.719 83.1537 112.522 80.3934 114.102 78.5699L122.103 85.5024Z" fill="#EC4400" mask="url(#path-27-inside-5_192_1318)"/>
<mask id="path-29-inside-6_192_1318" fill="white">
<path d="M103.373 87.9453C100.971 85.8641 97.4224 86.0108 95.4625 88.2727C93.5026 90.5346 93.8625 94.0681 96.2645 96.1493C98.6878 98.249 102.254 98.1171 104.213 95.8552C106.173 93.5933 105.796 90.045 103.373 87.9453ZM97.445 94.7868C95.8485 93.4035 95.6137 91.0476 96.9222 89.5375C98.2307 88.0273 100.596 87.9244 102.192 89.3077C103.81 90.7096 104.062 93.0803 102.754 94.5904C101.445 96.1006 99.0629 96.1887 97.445 94.7868Z"/>
</mask>
<path d="M103.373 87.9453C100.971 85.8641 97.4224 86.0108 95.4625 88.2727C93.5026 90.5346 93.8625 94.0681 96.2645 96.1493C98.6878 98.249 102.254 98.1171 104.213 95.8552C106.173 93.5933 105.796 90.045 103.373 87.9453ZM97.445 94.7868C95.8485 93.4035 95.6137 91.0476 96.9222 89.5375C98.2307 88.0273 100.596 87.9244 102.192 89.3077C103.81 90.7096 104.062 93.0803 102.754 94.5904C101.445 96.1006 99.0629 96.1887 97.445 94.7868Z" fill="#EC4400"/>
<path d="M106.839 83.9448C102.458 80.1487 95.5298 80.1119 91.4621 84.8065L99.4629 91.739C99.4479 91.7564 99.4263 91.7712 99.4134 91.7772C99.4052 91.781 99.4228 91.771 99.4709 91.7691C99.5704 91.7649 99.7363 91.798 99.9067 91.9457L106.839 83.9448ZM91.4621 84.8065C87.3944 89.501 88.417 96.3536 92.7982 100.15L99.7307 92.1488C99.5603 92.0011 99.5039 91.8416 99.4938 91.7425C99.489 91.6947 99.4963 91.6759 99.4937 91.6845C99.4896 91.6982 99.478 91.7216 99.4629 91.739L91.4621 84.8065ZM92.7982 100.15C97.1667 103.935 104.118 104.048 108.214 99.3214L100.213 92.3889C100.233 92.3661 100.259 92.3482 100.275 92.3408C100.286 92.3357 100.269 92.3463 100.217 92.3482C100.109 92.3522 99.9227 92.3152 99.7307 92.1488L92.7982 100.15ZM108.214 99.3214C112.309 94.5949 111.208 87.73 106.839 83.9448L99.9067 91.9457C100.099 92.1121 100.162 92.2913 100.173 92.3987C100.179 92.4503 100.171 92.4692 100.174 92.4574C100.179 92.4404 100.193 92.4117 100.213 92.3889L108.214 99.3214ZM100.911 90.7864C101.311 91.1327 101.708 92.0973 100.923 93.0038L92.9218 86.0712C89.5193 89.998 90.386 95.6742 93.9787 98.7873L100.911 90.7864ZM100.923 93.0038C100.137 93.9103 99.1259 93.6545 98.7262 93.3082L105.659 85.3073C102.066 82.1942 96.3242 82.1444 92.9218 86.0712L100.923 93.0038ZM98.7262 93.3082C98.5149 93.125 98.346 92.8351 98.3069 92.4677C98.2671 92.0926 98.3662 91.5709 98.7533 91.1241L106.754 98.0567C110.198 94.0819 109.222 88.3946 105.659 85.3073L98.7262 93.3082ZM98.7533 91.1241C99.1405 90.6773 99.6428 90.5049 100.02 90.491C100.389 90.4773 100.7 90.6033 100.911 90.7864L93.9787 98.7873C97.5418 101.875 103.31 102.031 106.754 98.0567L98.7533 91.1241Z" fill="#EC4400" mask="url(#path-29-inside-6_192_1318)"/>
<defs>
<clipPath id="clip0_192_1318">
<rect x="18.0931" y="13.7504" width="81.0528" height="81.0528" fill="white"/>
</clipPath>
</defs>
</svg>
