<svg width="86" height="99" viewBox="0 0 86 99" fill="none" xmlns="http://www.w3.org/2000/svg">
<path d="M75.7792 78.4335L84.4668 73.4179V25.806L59.7402 11.5301" stroke="#EC4400" stroke-width="2.47979" stroke-miterlimit="10" stroke-linecap="round" stroke-linejoin="round"/>
<path d="M68.571 82.5953L63.8328 85.3313" stroke="#EC4400" stroke-width="2.47979" stroke-miterlimit="10" stroke-linecap="round" stroke-linejoin="round"/>
<path d="M58.0234 88.6843L43.234 97.2238L20.614 84.1646" stroke="#EC4400" stroke-width="2.47979" stroke-miterlimit="10" stroke-linecap="round" stroke-linejoin="round"/>
<path d="M11.1909 78.7232L2 73.4179V25.806L26.4325 11.7006" stroke="#EC4400" stroke-width="2.47979" stroke-miterlimit="10" stroke-linecap="round" stroke-linejoin="round"/>
<path d="M32.2418 8.34576L43.2338 2.00006L53.6087 7.98939" stroke="#EC4400" stroke-width="2.47979" stroke-miterlimit="10" stroke-linecap="round" stroke-linejoin="round"/>
<path d="M24.7563 50.3285L43.2339 18.3241L70.7224 65.936H15.7455L21.4033 56.1358" stroke="#EC4400" stroke-width="2.47979" stroke-miterlimit="10" stroke-linecap="round" stroke-linejoin="round"/>
<path d="M43.2338 2.00006V18.3245" stroke="#EC4400" stroke-width="2.47979" stroke-miterlimit="10" stroke-linecap="round" stroke-linejoin="round"/>
<path d="M43.2335 18.3245C43.2335 18.3245 2.74446 25.3764 2.00049 25.806L15.7455 65.9353" stroke="#EC4400" stroke-width="2.47979" stroke-miterlimit="10" stroke-linecap="round" stroke-linejoin="round"/>
<path d="M10.5776 30.743C15.7854 29.785 23.2602 28.4508 30.6154 27.1519L17.2669 50.2723L10.5776 30.743Z" stroke="#EC4400" stroke-width="2.47979" stroke-miterlimit="10" stroke-linecap="round" stroke-linejoin="round"/>
<path d="M73.9048 36.5411L75.8898 30.7434C70.6822 29.7854 63.208 28.45 55.8525 27.1509L69.2011 50.2729L71.7302 42.8868" stroke="#EC4400" stroke-width="2.47979" stroke-miterlimit="10" stroke-linecap="round" stroke-linejoin="round"/>
<path d="M84.467 73.4179L70.7218 65.9353L84.467 25.806L43.2338 18.3245" stroke="#EC4400" stroke-width="2.47979" stroke-miterlimit="10" stroke-linecap="round" stroke-linejoin="round"/>
<path d="M15.746 65.9352L43.234 97.2238L70.7221 65.9352" stroke="#EC4400" stroke-width="2.47979" stroke-miterlimit="10" stroke-linecap="round" stroke-linejoin="round"/>
<path d="M30.1405 72.4496H56.3282L43.2343 87.3537L30.1405 72.4496Z" stroke="#EC4400" stroke-width="2.47979" stroke-miterlimit="10" stroke-linecap="round" stroke-linejoin="round"/>
<path d="M38.2859 40.6172H48.1825L40.2745 58.6066" stroke="#EC4400" stroke-width="2.47979" stroke-miterlimit="10" stroke-linecap="round" stroke-linejoin="round"/>
<path d="M61.84 10.1623C58.6313 11.4914 57.554 12.5687 56.2249 15.7774C54.8958 12.5687 53.8184 11.4914 50.6097 10.1623C53.8184 8.83315 54.8958 7.7558 56.2249 4.54712C57.5538 7.7558 58.6313 8.83315 61.84 10.1623Z" stroke="#EC4400" stroke-width="2.47979" stroke-miterlimit="10" stroke-linecap="round" stroke-linejoin="round"/>
<path d="M79.6533 81.3425C75.8916 82.9006 74.6286 84.1638 73.0706 87.9254C71.5125 84.1638 70.2493 82.9008 66.4877 81.3425C70.2493 79.7845 71.5123 78.5213 73.0706 74.7596C74.6286 78.5213 75.8918 79.7843 79.6533 81.3425Z" stroke="#EC4400" stroke-width="2.47979" stroke-miterlimit="10" stroke-linecap="round" stroke-linejoin="round"/>
<path d="M22.3493 82.8879C17.5181 84.889 15.8959 86.5112 13.8948 91.3424C11.8938 86.5112 10.2716 84.889 5.44043 82.8879C10.2716 80.8869 11.8938 79.2647 13.8948 74.4335C15.8959 79.2647 17.5181 80.8869 22.3493 82.8879Z" stroke="#EC4400" stroke-width="2.47979" stroke-miterlimit="10" stroke-linecap="round" stroke-linejoin="round"/>
<path d="M2.00049 73.4179L15.7455 65.9352" stroke="#EC4400" stroke-width="2.47979" stroke-miterlimit="10" stroke-linecap="round" stroke-linejoin="round"/>
</svg>
