<svg width="23" height="22" viewBox="0 0 23 22" fill="none" xmlns="http://www.w3.org/2000/svg">
<path d="M10.463 1.32808C10.7516 0.43992 12.0081 0.439918 12.2966 1.32808L14.1935 7.16592C14.3225 7.56311 14.6927 7.83204 15.1103 7.83204H21.2486C22.1824 7.83204 22.5707 9.02705 21.8152 9.57596L16.8493 13.1839C16.5114 13.4294 16.37 13.8646 16.4991 14.2618L18.3959 20.0996C18.6845 20.9877 17.6679 21.7263 16.9124 21.1774L11.9464 17.5694C11.6086 17.3239 11.151 17.3239 10.8132 17.5694L5.84721 21.1774C5.0917 21.7263 4.07516 20.9877 4.36374 20.0996L6.26057 14.2618C6.38963 13.8646 6.24824 13.4294 5.91037 13.1839L0.94441 9.57596C0.188895 9.02705 0.577176 7.83204 1.51104 7.83204H7.64931C8.06695 7.83204 8.43709 7.56311 8.56614 7.16592L10.463 1.32808Z" fill="#EC4400"/>
</svg>
