<svg width="35" height="35" viewBox="0 0 35 35" fill="none" xmlns="http://www.w3.org/2000/svg">
<path d="M17.5 0C7.85041 0 0 7.8504 0 17.5C0 27.1496 7.85041 35 17.5 35C27.1496 35 35 27.1496 35 17.5C35 7.85041 27.1496 0 17.5 0ZM28.123 28.0418C26.7812 25.2824 23.9523 23.3778 20.6789 23.3778H14.3211C11.0477 23.3778 8.21883 25.2824 6.87697 28.0418C4.18932 25.3337 2.52577 21.6078 2.52577 17.5C2.52577 9.24314 9.24332 2.52577 17.5 2.52577C25.7567 2.52577 32.4742 9.24314 32.4742 17.5C32.4742 21.6078 30.8107 25.3337 28.123 28.0418Z" fill="white"/>
<path d="M17.5 20.8642C21.2161 20.8642 24.2285 17.8517 24.2285 14.1357C24.2285 10.4197 21.2161 7.40723 17.5 7.40723C13.784 7.40723 10.7715 10.4197 10.7715 14.1357C10.7715 17.8517 13.784 20.8642 17.5 20.8642Z" fill="white"/>
</svg>
