<svg width="101" height="101" viewBox="0 0 101 101" fill="none" xmlns="http://www.w3.org/2000/svg">
<g clip-path="url(#clip0_183_277)">
<path d="M7.71436 19.1189C9.72542 19.5591 11.2934 21.1493 11.7094 23.1652L12.9843 29.3551C13.1459 30.1415 13.8385 30.7055 14.6404 30.7055C15.4423 30.7055 16.1339 30.1415 16.2964 29.3551L17.5704 23.1662C17.9863 21.1493 19.5553 19.5591 21.5673 19.118L27.9526 17.7173C28.7274 17.547 29.2807 16.8602 29.2807 16.0661C29.2807 15.2719 28.7274 14.5851 27.9526 14.4149L21.5673 13.0142C21.5654 13.0142 21.5654 13.0142 21.5654 13.0142C19.5553 12.5731 17.9863 10.9828 17.5704 8.96789L16.2964 2.77706C16.1339 1.9916 15.4423 1.42668 14.6404 1.42668C13.8385 1.42668 13.1459 1.9916 12.9843 2.77706L11.7094 8.96596C11.2934 10.9838 9.72542 12.5731 7.71339 13.0142L1.32716 14.4149C0.552339 14.5851 0 15.2719 0 16.0661C0 16.8602 0.553306 17.547 1.32716 17.7173L7.71436 19.1189ZM14.6394 10.9596C15.5496 13.3605 17.4959 15.2439 19.9413 16.0661C17.4959 16.8883 15.5496 18.7717 14.6394 21.1725C13.7301 18.7717 11.7839 16.8883 9.33849 16.0661C11.7839 15.2419 13.7301 13.3605 14.6394 10.9596Z" fill="#9F9F9F"/>
<path d="M20.2194 88.7983L15.9816 87.8668H15.9796C14.8633 87.623 13.9918 86.7418 13.7625 85.6207L12.9152 81.5115C12.7536 80.7261 12.062 80.1631 11.2601 80.1631C10.4572 80.1631 9.76558 80.7261 9.60404 81.5115L8.75667 85.6226C8.52741 86.7418 7.65586 87.623 6.5386 87.8668L2.30078 88.7983C1.52596 88.9686 0.972656 89.6554 0.972656 90.4495C0.972656 91.2427 1.52596 91.9295 2.30078 92.0998L6.53957 93.0313C7.65586 93.2751 8.52741 94.1573 8.75667 95.2774L9.60404 99.3866C9.76558 100.172 10.4572 100.735 11.2601 100.735C12.062 100.735 12.7536 100.172 12.9152 99.3866L13.7625 95.2755C13.9918 94.1573 14.8633 93.2751 15.9816 93.0313L20.2194 92.0998C20.9932 91.9295 21.5465 91.2427 21.5465 90.4495C21.5465 89.6554 20.9932 88.9686 20.2194 88.7983ZM11.2591 92.5602C10.7223 91.6935 9.98129 90.9671 9.10006 90.4495C9.98129 89.9301 10.7232 89.2046 11.2591 88.3379C11.796 89.2046 12.5369 89.9311 13.4182 90.4495C12.5369 90.968 11.796 91.6935 11.2591 92.5602Z" fill="#9F9F9F"/>
<path d="M99.6754 9.34422L95.4376 8.4127H95.4357C94.3204 8.16796 93.4488 7.28674 93.2186 6.16562L92.3722 2.05645C92.2107 1.27099 91.5181 0.708008 90.7161 0.708008C89.9142 0.708008 89.2226 1.27099 89.0601 2.05645L88.2137 6.16755C87.9835 7.28674 87.1129 8.16796 85.9947 8.4127L81.7568 9.34422C80.983 9.5135 80.4297 10.2003 80.4297 10.9945C80.4297 11.7886 80.983 12.4754 81.7568 12.6457L85.9966 13.5762C87.1129 13.821 87.9835 14.7022 88.2137 15.8233L89.0601 19.9325C89.2226 20.7179 89.9142 21.2809 90.7161 21.2809C91.5181 21.2809 92.2107 20.7179 92.3722 19.9325L93.2186 15.8214C93.4488 14.7022 94.3204 13.821 95.4376 13.5762L99.6754 12.6457C100.449 12.4754 101.003 11.7886 101.003 10.9945C101.003 10.2003 100.449 9.5135 99.6754 9.34422ZM90.7161 13.1061C90.1793 12.2394 89.4383 11.5129 88.5561 10.9945C89.4383 10.476 90.1793 9.74953 90.7161 8.88281C91.253 9.74953 91.993 10.476 92.8752 10.9945C91.994 11.5129 91.253 12.2394 90.7161 13.1061Z" fill="#9F9F9F"/>
<path d="M55.1412 40.7248C58.2134 40.0806 60.1809 37.0674 59.5366 33.9952C58.8924 30.923 55.8782 28.9555 52.807 29.5997C49.7348 30.2449 47.7663 33.2581 48.4115 36.3293C49.0558 39.4025 52.0689 41.37 55.1412 40.7248Z" fill="#9F9F9F"/>
<path d="M63.7101 46.9771C64.897 46.7284 65.6573 45.5638 65.4087 44.3769C65.1601 43.19 63.9954 42.4297 62.8085 42.6793C61.6207 42.9279 60.8603 44.0925 61.1099 45.2794C61.3585 46.4663 62.5232 47.2266 63.7101 46.9771Z" fill="#9F9F9F"/>
<path d="M38.6421 38.2179C37.0208 38.5584 35.9819 40.1487 36.3224 41.7699C36.662 43.3912 38.2522 44.4301 39.8735 44.0896C41.4947 43.7491 42.5336 42.1588 42.1941 40.5376C41.8536 38.9163 40.2633 37.8774 38.6421 38.2179Z" fill="#9F9F9F"/>
<path d="M82.2451 37.3786C81.3107 37.3873 80.561 38.1515 80.5697 39.084C80.5794 40.0184 81.3736 40.8426 82.2751 40.7594C93.466 40.6095 96.2722 42.6544 96.4357 43.4321C96.5933 44.1808 94.8822 47.0499 85.2128 51.2838C83.7348 51.9319 82.1542 52.5723 80.4943 53.203C80.5223 50.953 80.3114 48.6847 79.8375 46.4289C78.1476 38.3721 73.4203 31.4548 66.5281 26.9548C59.6379 22.4549 51.4031 20.9042 43.3464 22.5961C35.2886 24.287 28.3723 29.0133 23.8723 35.9064C19.3704 42.7985 17.8227 51.0314 19.5145 59.0882C19.945 61.1398 20.5786 63.0987 21.3766 64.954C20.9152 64.9607 20.4548 64.9675 20.0059 64.9685C19.9817 64.9685 19.9566 64.9685 19.9324 64.9685C9.43701 64.9685 6.72949 63.0387 6.57279 62.2919C6.4422 61.668 7.73163 59.2594 15.1732 55.6474C16.0128 55.2392 16.363 54.2293 15.9558 53.3887C15.5485 52.5481 14.5387 52.1999 13.6971 52.6062C5.9953 56.3439 2.58357 59.7392 3.26456 62.9855C4.021 66.5945 9.4728 68.3493 19.9276 68.3493H20.0098C20.9955 68.3483 22.0189 68.327 23.0636 68.2941C28.5348 77.651 38.6752 83.5826 49.6697 83.5816C51.7601 83.5816 53.8814 83.3669 56.0056 82.9219C64.0634 81.231 70.9797 76.5028 75.4797 69.6106C78.0247 65.7133 79.6246 61.3875 80.2302 56.9078C82.486 56.0827 84.6131 55.2382 86.569 54.3812C96.1948 50.1646 100.504 46.3563 99.7449 42.7385C98.9671 39.0308 93.1806 37.2413 82.2451 37.3786ZM22.8228 58.3946C21.3176 51.221 22.696 43.8916 26.7027 37.7549C30.7112 31.6183 36.8673 27.4104 44.0399 25.9053C45.9359 25.5067 47.8405 25.3104 49.7307 25.3104C55.0025 25.3104 60.1651 26.8358 64.6796 29.7862C70.8163 33.7928 75.0241 39.9507 76.5302 47.1224C77.0477 49.5901 77.2073 52.049 77.0583 54.4518C70.0675 56.8856 61.8753 59.123 53.2014 60.9435C43.03 63.0764 33.2359 64.42 25.0263 64.8321C24.0396 62.8104 23.2967 60.6533 22.8228 58.3946ZM55.313 79.6137C48.1375 81.1169 40.81 79.7385 34.6734 75.7318C31.5567 73.6956 28.941 71.1042 26.9203 68.1084C34.9384 67.5967 44.2605 66.2734 53.894 64.2517C62.0514 62.5396 69.7996 60.4588 76.5679 58.1895C74.4505 68.6008 66.353 77.296 55.313 79.6137Z" fill="#9F9F9F"/>
</g>
<defs>
<clipPath id="clip0_183_277">
<rect width="101" height="101" fill="white"/>
</clipPath>
</defs>
</svg>
