<svg width="56" height="56" viewBox="0 0 56 56" fill="none" xmlns="http://www.w3.org/2000/svg">
<path d="M47.5318 8.24549C42.872 3.53284 36.6807 0.64149 30.0759 0.0934663C23.4712 -0.454557 16.8881 1.37686 11.5152 5.25706C6.14233 9.13726 2.33377 14.8105 0.777139 21.2526C-0.779496 27.6947 0.0183715 34.4811 3.02669 40.3865L0.079327 54.6959C0.0477684 54.8388 0.0465455 54.9868 0.0757376 55.1302C0.10493 55.2736 0.163887 55.4093 0.2488 55.5285C0.370402 55.709 0.544226 55.8481 0.747013 55.9271C0.949799 56.0061 1.17188 56.0213 1.38353 55.9706L15.3835 52.6475C21.2727 55.5769 28.0103 56.3216 34.3971 54.749C40.7839 53.1763 46.4055 49.3884 50.2611 44.0594C54.1168 38.7304 55.9565 32.2062 55.4526 25.6479C54.9488 19.0897 52.1342 12.923 47.5097 8.24549H47.5318ZM43.155 43.1496C39.9322 46.3667 35.7822 48.4928 31.2885 49.229C26.7947 49.9651 22.1833 49.2744 18.1024 47.2538L16.1424 46.2812L7.54352 48.3149V48.2043L9.35615 39.5317L8.39826 37.6454C6.31168 33.5535 5.57495 28.9058 6.29376 24.3692C7.01257 19.8326 9.14999 15.6403 12.3993 12.3939C16.4792 8.31821 22.0103 6.02887 27.7772 6.02887C33.5441 6.02887 39.0751 8.31821 43.155 12.3939L43.2508 12.5265C47.2777 16.6152 49.5257 22.1295 49.505 27.8682C49.4843 33.6069 47.1966 39.1049 43.1403 43.1644L43.155 43.1496Z" fill="#2AA81A"/>
<path d="M42.3982 36.8426C41.3445 38.5005 39.6719 40.5268 37.5866 41.0352C33.9024 41.9194 28.295 41.0352 21.273 34.5436L21.1845 34.4626C15.0761 28.7594 13.4551 24.0068 13.8161 20.2416C14.0298 18.0974 15.813 16.1668 17.3161 14.8995C17.5551 14.698 17.8379 14.5551 18.142 14.4824C18.446 14.4097 18.7628 14.4092 19.0671 14.4808C19.3714 14.5524 19.6547 14.6942 19.8945 14.8948C20.1342 15.0954 20.3236 15.3494 20.4477 15.6363L22.7098 20.75C22.8575 21.0792 22.9129 21.4423 22.87 21.8005C22.8272 22.1587 22.6878 22.4986 22.4666 22.7837L21.3172 24.2573C21.0783 24.5632 20.9359 24.9334 20.9084 25.3206C20.8808 25.7078 20.9693 26.0944 21.1624 26.431C22.2543 28.0403 23.5607 29.493 25.0456 30.7489C26.6431 32.2864 28.4549 33.5844 30.4245 34.6026C30.784 34.7475 31.1785 34.7821 31.5577 34.702C31.9369 34.622 32.2837 34.4309 32.554 34.1531L33.8729 32.8121C34.1239 32.5422 34.4447 32.347 34.7997 32.2482C35.1547 32.1493 35.5302 32.1507 35.8845 32.2521L41.2634 33.7921C41.5682 33.8788 41.8483 34.0361 42.0811 34.2511C42.3138 34.4662 42.4926 34.733 42.6031 35.03C42.7136 35.327 42.7526 35.6459 42.717 35.9608C42.6814 36.2757 42.5722 36.5777 42.3982 36.8426Z" fill="#2AA81A"/>
</svg>
