<svg width="74" height="68" viewBox="0 0 74 68" fill="none" xmlns="http://www.w3.org/2000/svg">
<path d="M40.8238 0.5C39.9291 2.18046 38.9444 3.70064 37.8613 5.06112L48.7489 15.9487C50.1439 14.8414 51.6735 13.8623 53.3117 12.9879L40.8238 0.5Z" fill="#B78F3F"/>
<path d="M3.85797 30.5654L0 39.1033L14.3129 53.4163L22.9903 49.6979L3.85797 30.5654Z" fill="#B78F3F"/>
<path d="M70.4812 48.0764C68.8437 46.7742 66.774 45.9923 64.5236 45.9923C62.1215 45.9923 60.1675 47.9463 60.1675 50.3484C60.1675 51.6709 61.2428 52.7462 62.5638 52.7462C63.8863 52.7462 64.9616 51.6709 64.9616 50.3484V49.1271H69.2975V50.3484C69.2975 54.0614 66.2768 57.0821 62.5638 57.0821C58.8522 57.0821 55.8316 54.0614 55.8316 50.3484C55.8316 45.5558 59.7295 41.6563 64.5236 41.6563C66.8043 41.6563 68.9578 42.207 70.8584 43.184L72.7301 18.8653C73.8034 5.62153 60.4159 -0.949995 50.4784 4.02143L58.7336 12.2766C61.3217 13.6358 62.6483 16.9487 61.4928 19.6458L49.8292 48.7817C46.2578 57.666 52.7979 67.5302 62.3456 67.4898C68.7829 67.4898 74.0005 62.2722 74.0005 55.8348C73.9936 52.8054 72.6356 49.9446 70.4812 48.0764Z" fill="#B78F3F"/>
<path d="M42.7808 23.1163C43.5712 21.58 44.5214 20.1948 45.6085 18.9405L34.8656 8.19758C33.5667 9.31972 32.1542 10.2717 30.6175 11.0534C30.5495 6.90273 26.4631 3.48834 22.4387 4.15867C19.1221 4.61698 16.5219 7.37173 16.2558 10.7088L15.8495 15.8019C11.5 18.1108 7.93605 21.7786 5.76953 26.3457L27.2795 47.8556C31.9268 45.7811 35.6699 42.2393 38.0117 37.8767L43.0239 37.4769C46.3611 37.2107 49.116 34.6104 49.574 31.2939C50.2522 27.1638 46.7613 23.2493 42.7808 23.1163ZM26.2719 11.4326L26.2023 12.7373C25.3159 12.9771 24.3968 13.1749 23.4419 13.3287C22.3868 13.4795 21.3527 13.7036 20.3436 13.9921L20.578 11.0534C20.6835 9.72889 21.7156 8.63551 23.032 8.45369C24.8628 8.17778 26.3907 9.84856 26.2719 11.4326ZM45.279 30.7009C45.0972 32.0173 44.0038 33.0493 42.6792 33.1549L39.8341 33.3818C40.1144 32.3994 40.3317 31.3926 40.4784 30.3653C40.6334 29.3751 40.836 28.4301 41.0818 27.526L42.3002 27.4609C44.1481 27.3401 45.5301 29.1316 45.279 30.7009Z" fill="#B78F3F"/>
</svg>
