<svg width="61" height="61" viewBox="0 0 61 61" fill="none" xmlns="http://www.w3.org/2000/svg">
<path d="M31.2199 24.9453C28.7731 30.6939 41.2486 31.1821 46.8757 33.9956C52.5027 36.8091 55.0711 42.6812 56.4123 42.6812C63.3843 33.3839 52.5027 20.6632 52.5027 20.6632C52.5027 20.6632 48.3461 19.4398 47.4835 15.4028C46.6287 11.3659 50.4186 5.37222 49.8069 8.43081C49.201 11.4875 53.6007 13.0795 54.0928 15.1578C54.581 17.2361 53.9712 20.6632 53.9712 20.6632C53.9712 20.6632 65.8351 27.8803 58.4983 44.883C61.3118 56.2606 55.0789 56.2606 55.0789 56.2606C55.0789 56.2606 57.1552 60.2975 51.285 60.2975C45.4129 60.2975 41.9916 60.2975 36.7293 60.2975C31.465 60.2975 35.2569 55.8939 37.5803 55.8939C39.9036 55.8939 41.7967 55.9672 42.7171 55.8939C42.4103 55.9151 35.6641 55.371 37.0998 50.8342C28.4875 51.5405 17.2778 48.0651 17.2778 48.0651C17.2778 48.0651 11.8302 61.1253 7.79329 61.0018C3.75634 60.8822 0.497066 61.2431 0.798101 59.0721C1.46192 54.7303 7.43244 58.8907 7.98047 50.6297C8.34712 45.8614 11.0371 42.3107 11.0371 42.3107C11.0371 42.3107 3.57688 37.2935 6.02375 22.8631C5.17854 22.9326 2.84359 23.3513 2.10837 21.8828C1.37508 20.4162 2.10837 18.7046 2.10837 18.7046C2.10837 18.7046 -1.00811 14.4804 0.336901 12.0336C1.67998 9.58478 7.19701 8.86114 9.76545 8.61606C10.8114 -1.35474 15.2169 -1.18492 22.0673 1.75209C33.3156 0.410944 36.214 17.788 31.2199 24.9453Z" fill="#B78F3F"/>
</svg>
