<svg width="43" height="67" viewBox="0 0 43 67" fill="none" xmlns="http://www.w3.org/2000/svg">
<path d="M38.2589 47.8981C36.9021 47.5358 34.067 46.8239 33.3027 46.6334C32.5406 46.4324 31.6423 42.2823 31.6423 42.2823L31.1879 40.046C31.1879 40.046 34.5465 41.7421 35.6332 42.2823C36.7137 42.8267 38.2945 39.6963 38.7133 39.288C39.13 38.8839 40.4973 39.9413 40.7088 39.288C40.9203 38.6327 39.442 36.8361 38.3532 37.2025C37.2623 37.5669 36.1776 39.3781 34.9946 39.288C33.8178 39.198 31.5481 37.2025 31.5481 37.2025L30.6372 33.3058C30.6372 33.3058 32.7227 35.3013 34.0838 35.4814C35.4448 35.6635 37.3523 32.9436 37.8004 31.3124C38.2548 29.6813 38.6149 26.53 37.0738 26.5991C37.4361 28.8647 35.5034 32.9436 34.536 32.6714C33.5666 32.3992 27.0923 27.6921 25.9155 27.868C29.4521 25.8809 28.0094 22.1538 28.0094 22.1538C28.0094 22.1538 32.5699 23.8771 34.0817 24.3294C35.5955 24.7837 36.7639 22.4009 36.7639 22.4009C36.7639 22.4009 37.8548 22.4365 39.2494 21.065C47.8594 9.09846 33.9916 -0.0580786 31.7219 0.758535C40.2439 8.64618 36.8916 13.7218 36.8916 13.7218C36.8916 13.7218 34.9883 13.2674 35.0804 12.1807C35.1705 11.0918 34.3664 12.4759 31.1837 14.2662C28.001 16.0564 33.9037 22.1538 33.9037 22.1538C33.9037 22.1538 31.2738 21.5759 29.7892 20.6148C28.5978 20.0683 28.7423 20.0913 26.9227 19.526C26.9227 19.526 26.3322 14.2159 24.3786 14.486C24.7869 15.847 25.3167 19.1261 23.5494 19.2622C20.5133 19.3061 21.5435 15.5979 22.6763 14.419C20.4233 13.6024 19.4098 17.92 19.6716 19.0004C18.9513 19.4297 17.831 19.7354 16.6815 20.4012C15.5341 21.065 13.0172 21.4293 13.0172 21.4293C13.0172 21.4293 18.922 15.334 15.7372 13.5417C12.5503 11.7493 11.7483 10.3694 11.8384 11.4562C11.9284 12.5429 10.0251 12.9973 10.0251 12.9973C10.0251 12.9973 6.67066 7.9217 15.1928 0.036146C12.9272 -0.782561 -1.85981 12.4989 7.66944 20.3405C8.8818 20.977 9.00534 21.1257 9.42621 21.3079C10.2784 21.3979 10.0711 23.7891 12.4916 23.8813C14.9143 23.9713 18.9094 21.4293 18.9094 21.4293C18.9094 21.4293 17.2783 25.8704 20.8127 27.8575C19.6339 27.6837 13.3522 31.6705 12.3828 31.9427C11.4133 32.2149 9.48065 28.136 9.84498 25.8704C8.30598 25.8013 8.66613 28.9526 9.11841 30.5838C9.57069 32.2149 11.4761 34.939 12.835 34.759C14.194 34.5747 16.2795 32.5813 16.2795 32.5813L15.3728 36.476C15.3728 36.476 13.1073 38.4714 11.9263 38.5615C10.7474 38.6515 9.66072 36.8382 8.57191 36.476C7.48309 36.1137 6.15557 37.7093 6.21838 38.5615C6.2812 39.4137 7.79508 38.1615 8.21385 38.5615C8.63053 38.9635 10.2135 42.0959 11.296 41.5557C12.3765 41.0092 15.7372 39.3194 15.7372 39.3194L15.2849 41.5557C15.2849 41.5557 14.3866 45.7079 13.6244 45.9047C12.8602 46.1036 10.0251 46.8155 8.66613 47.1715C7.3072 47.5358 6.46756 48.4174 6.76698 48.9743C7.06641 49.5355 7.67154 48.6226 9.66491 49.4371C11.6583 50.2537 14.5604 48.7126 15.287 47.5358C16.0115 46.3591 16.2334 45.2744 16.2334 45.2744C16.2334 45.2744 17.8122 50.2013 20.0945 52.4669C20.6201 53.1872 22.3496 62.3479 17.7264 62.528C16.0952 62.528 12.1503 59.3265 11.7881 56.7887C11.4238 54.2509 4.98718 49.0811 4.98718 49.0811L3.08594 50.528C3.08594 50.528 8.93833 55.7522 9.4304 58.045C9.92246 60.3315 10.4313 64.9444 17.7264 66.8456C25.0214 68.7489 27.4461 52.4983 27.4461 52.4983H27.442C29.3956 50.059 30.6979 45.9989 30.6979 45.9989C30.6979 45.9989 30.9178 47.0857 31.6465 48.2624C32.373 49.4413 35.2668 50.9865 37.2685 50.1657C39.2619 49.347 40.3256 51.1876 40.7151 50.7102C41.0962 50.2328 39.6158 48.2624 38.2589 47.8981Z" fill="#B78F3F"/>
<path d="M34.2475 11.5148C34.2475 11.5148 31.0041 6.83287 31.1842 2.29962C27.3796 4.20296 30.355 13.9625 30.355 13.9625L34.2475 11.5148Z" fill="#B78F3F"/>
<path d="M16.7251 13.1775C16.7251 13.1775 19.5351 4.20314 15.7263 2.2998C15.9085 6.83306 12.8242 10.7298 12.8242 10.7298L16.7251 13.1775Z" fill="#B78F3F"/>
<path d="M4.50184 48.761C5.19492 48.1727 5.07557 46.5855 4.50184 46.0913C3.92603 45.5909 2.35352 44.1817 0 42.873C0.680511 44.4602 0.0900367 46.6357 0.498343 48.0805C0.904556 49.5274 2.35771 50.166 3.08219 49.7598C3.80668 49.3515 3.80667 49.3515 4.50184 48.761Z" fill="#B78F3F"/>
</svg>
