<svg width="67" height="77" viewBox="0 0 67 77" fill="none" xmlns="http://www.w3.org/2000/svg">
<path d="M27.6177 22.7619C27.6885 22.6921 27.7326 22.5997 27.7423 22.5007C27.7856 21.5768 26.2311 21.8931 26.7826 22.7292C26.9714 23.0059 27.3896 22.9695 27.6177 22.7619Z" fill="#B78F3F"/>
<path d="M25.2857 36.7887C25.9475 37.158 26.5115 36.1916 25.8674 35.7935C25.2058 35.4241 24.6416 36.3907 25.2857 36.7887Z" fill="#B78F3F"/>
<path d="M23.6127 34.5453C23.5581 34.4406 23.4829 34.348 23.3916 34.273C23.3003 34.198 23.1948 34.1423 23.0814 34.1091C19.1652 33.0483 16.8964 41.2966 21.5439 40.2555C22.7842 40.1533 24.4149 39.6461 25.0428 38.4841C25.2322 38.0671 24.8413 37.6221 24.4065 37.8479C23.9355 38.0926 23.5652 38.4201 23.1382 38.6862C23.7847 37.6692 24.3864 35.5982 23.6127 34.5453ZM21.3675 38.9475C20.3257 39.0285 20.1783 37.9836 20.3237 37.1644C20.4432 36.5584 20.7053 35.9896 21.0882 35.505C21.5347 35.1894 22.0682 35.0201 22.615 35.0205C23.2363 36.294 22.5404 38.1786 21.3675 38.9475Z" fill="#B78F3F"/>
<path d="M0.998369 23.7212C4.65115 21.0544 7.1188 18.281 11.4825 22.8275C12.0826 23.3728 12.9223 22.4966 12.3383 21.9214C7.80664 17.1382 9.69924 15.7756 13.0719 11.6542C13.5458 11.0888 12.7659 10.2977 12.1943 10.7768C12.1713 10.7959 9.87498 12.6946 8.61101 13.6018C6.11454 15.3855 3.02309 12.6223 1.92613 11.5093C1.35795 10.9305 0.470066 11.7575 1.02002 12.3652C5.52719 16.7146 2.86091 19.1215 0.126381 22.8492C-0.297851 23.4071 0.435947 24.1501 0.998369 23.7212ZM4.34283 14.853C5.83847 15.6401 7.67935 15.6122 9.03851 14.8092C8.23601 16.1674 8.2075 18.0065 8.99302 19.5016L8.99442 19.5046C7.15962 18.7957 5.04563 19.1787 3.4132 20.4342C4.66891 18.8019 5.05186 16.6875 4.34283 14.853Z" fill="#B78F3F"/>
<path d="M56.8251 19.1299C55.9894 19.8028 55.0315 20.3078 54.0042 20.6173C53.2252 20.853 53.5326 22.0107 54.3313 21.82C54.9531 21.6573 55.5827 21.526 56.2177 21.4268C57.8682 21.1775 59.5654 22.3019 60.539 24.2917C61.2123 25.668 62.5252 28.6409 62.5385 28.6707C62.6003 28.8106 62.7114 28.9229 62.8507 28.9862C62.9899 29.0495 63.1476 29.0594 63.2937 29.0139C63.4397 28.9685 63.564 28.8709 63.6427 28.7398C63.7215 28.6086 63.7493 28.4531 63.7208 28.3028C63.7147 28.2707 63.1092 25.0779 62.8828 23.5623C62.5556 21.3715 63.3145 19.4831 64.8159 18.7516C65.395 18.4731 65.9878 18.2239 66.592 18.005C67.3515 17.7204 66.9561 16.5744 66.1783 16.8293C65.1561 17.154 64.0814 17.2815 63.0115 17.2049C61.8393 17.1133 60.6199 16.1732 60.0461 14.9189C59.3282 13.3491 58.1142 10.2678 58.1014 10.2369C57.8194 9.53491 56.7476 9.85787 56.9146 10.6062C56.9222 10.6386 57.6703 13.8648 57.9699 15.565C58.2092 16.9232 57.7386 18.3891 56.8251 19.1299ZM59.2761 16.1025C60.1667 17.4852 61.6131 18.4068 63.1051 18.4603C61.8941 19.663 61.3345 21.5863 61.6458 23.7182C60.6921 21.7864 59.14 20.5201 57.4606 20.2164C58.6592 19.326 59.3274 17.7455 59.2761 16.1025Z" fill="#B78F3F"/>
<path d="M3.73678 42.7523C4.59366 42.9081 4.8473 41.6361 3.99541 41.4516C3.13775 41.2963 2.88505 42.5679 3.73678 42.7523Z" fill="#B78F3F"/>
<path d="M17.095 8.1693C17.2508 7.31164 15.9789 7.05879 15.7945 7.91068C15.6385 8.76833 16.9103 9.02119 17.095 8.1693Z" fill="#B78F3F"/>
<path d="M8.44362 67.0881C9.3005 67.2439 9.55414 65.972 8.7024 65.7876C7.84475 65.6321 7.5922 66.9037 8.44362 67.0881Z" fill="#B78F3F"/>
<path d="M52.7942 66.8077C52.95 65.9509 51.6779 65.6972 51.4936 66.5491C51.3381 67.4068 52.6097 67.6596 52.7942 66.8077Z" fill="#B78F3F"/>
<path d="M65.1887 33.378C65.3445 32.5212 64.0726 32.2675 63.8881 33.1194C63.7328 33.9771 65.0044 34.2299 65.1887 33.378Z" fill="#B78F3F"/>
<path d="M46.2847 28.6342C46.1289 29.4921 47.4008 29.7448 47.5853 28.8929C47.7401 28.0352 46.4691 27.7825 46.2847 28.6342Z" fill="#B78F3F"/>
<path d="M56.4585 56.7652C56.3027 57.622 57.5746 57.8757 57.7589 57.0238C57.9146 56.1661 56.6428 55.9133 56.4585 56.7652Z" fill="#B78F3F"/>
<path d="M33.1974 43.4324C32.6709 43.6137 32.2003 43.7514 31.7753 43.9275C31.0533 44.2412 31.5473 45.3165 32.2548 44.9794C33.2276 44.4341 34.1731 44.2752 35.1288 43.509C36.0405 42.9379 36.8841 42.2726 37.5194 41.3902C39.0194 39.7423 37.3032 39.511 36.0606 38.8225C36.6785 38.2254 37.2181 37.5521 37.6663 36.819C37.7032 36.7541 37.7248 36.6817 37.7297 36.6073C37.7345 36.5328 37.7225 36.4583 37.6943 36.3891C37.6662 36.32 37.6228 36.2582 37.5674 36.2083C37.5119 36.1584 37.4459 36.1217 37.3742 36.1009C36.1829 35.7591 35.2366 35.3623 33.9565 35.4816C32.6842 35.5491 31.5545 36.1402 30.4462 36.7042C30.0296 36.9067 30.3282 37.5338 30.7523 37.4305C32.1069 37.1 33.3309 36.7104 34.6603 36.9648C34.0912 37.9463 33.1269 38.5695 32.2316 39.2195C31.807 39.5622 32.2856 40.2789 32.7692 40.0919C33.8528 40.2435 34.7668 40.6271 35.7013 41.1484C35.134 42.1592 34.2559 42.9601 33.1974 43.4324Z" fill="#B78F3F"/>
<path d="M10.0495 47.3782C8.92781 49.4699 10.0942 51.5223 11.5492 53.0884C12.477 54.1031 13.6087 54.9343 14.8047 54.8719C14.2735 56.1817 15.5837 58.332 14.0438 59.1744C13.4658 59.0873 13.3748 58.354 13.3727 57.8713C13.3543 57.5107 12.8202 57.3859 12.6995 57.7331C12.6474 57.7513 12.6011 57.7828 12.565 57.8245C12.5289 57.8661 12.5043 57.9165 12.4937 57.9706C12.1624 59.5573 12.5599 61.3036 14.1795 61.9976C15.6557 62.6301 17.5914 61.7989 18.6622 60.732C19.8499 59.548 20.1111 57.8536 20.0236 56.2404C20.2522 56.4379 20.5105 56.5982 20.789 56.7153C21.1733 56.8755 21.4888 56.2844 21.1916 56.0236C18.228 53.5097 20.5098 50.0468 23.8331 49.6575C24.3019 49.575 24.7708 49.4923 25.2317 49.3753C27.4851 51.2472 24.7464 54.4432 23.9186 56.4424C22.8846 58.8849 23.1897 61.9438 25.8963 63.0894C25.8993 63.0931 29.1925 64.4077 30.5555 60.8818C31.2806 59.0717 29.2767 57.6135 28.0519 59.4685C27.9776 59.5914 27.8642 59.6857 27.7298 59.7362C27.5953 59.7867 27.4479 59.7904 27.3111 59.7468C27.2219 59.7163 27.1409 59.666 27.0739 59.5997C27.007 59.5334 26.9559 59.4528 26.9245 59.364C26.8932 59.2752 26.8824 59.1804 26.8928 59.0867C26.9033 58.9931 26.9349 58.9031 26.9851 58.8234C27.9958 57.2231 29.5174 57.1 30.5776 57.6873C31.6874 58.3026 32.4503 59.8208 31.6783 61.4228C30.9596 62.9146 29.9334 64.6282 27.3023 64.5738C26.9618 64.5633 26.6288 64.6751 26.3635 64.8888C26.0983 65.1026 25.9183 65.4043 25.8563 65.7393C25.5831 67.2688 25.3099 69.1375 26.304 70.6936C27.5134 72.8107 30.496 73.7908 32.7158 72.5089C33.8487 71.9803 34.9116 71.0336 35.5754 70.3024C35.6839 70.1871 35.7523 70.0399 35.7703 69.8826C35.7884 69.7253 35.7551 69.5664 35.6754 69.4296C35.5957 69.2928 35.474 69.1854 35.3283 69.1234C35.1826 69.0614 35.0208 69.0482 34.867 69.0856C34.0165 69.2614 33.0169 69.9737 32.3825 69.0314C32.245 68.7953 32.1566 68.5339 32.1227 68.2627C32.0887 67.9916 32.1099 67.7165 32.1849 67.4537C32.26 67.191 32.3873 66.9462 32.5594 66.7339C32.7314 66.5216 32.9445 66.3462 33.186 66.2184C34.3303 65.6521 35.7286 65.9314 36.8461 66.4338C40.2466 68.8211 38.6274 71.2732 37.4012 75.3994C37.1675 76.1047 38.1878 76.5523 38.5427 75.8878C41.06 71.4489 41.5748 68.3283 47.8794 70.8726C48.0289 70.94 48.1989 70.9457 48.3526 70.8885C48.5063 70.8313 48.6313 70.7158 48.7004 70.5671C48.7695 70.4184 48.7773 70.2484 48.7219 70.0941C48.6666 69.9397 48.5526 69.8134 48.4047 69.7425C47.5056 69.2981 45.9872 68.6609 45.1486 67.5098C43.5632 65.6337 44.2275 61.8888 45.8621 60.3142C46.1963 59.9923 46.5894 60.4242 46.3647 60.8168C45.7245 61.9904 45.3639 63.2959 45.3109 64.6318C45.306 64.7424 45.336 64.8518 45.3968 64.9445C45.4575 65.0371 45.5459 65.1082 45.6494 65.1477C45.7529 65.1872 45.8662 65.1931 45.9733 65.1646C46.0803 65.136 46.1756 65.0745 46.2457 64.9887C50.426 59.657 52.0961 52.1885 50.6063 45.5445C50.5974 45.3906 50.5432 45.2427 50.4505 45.1196C50.3942 44.9794 50.335 44.8392 50.2691 44.7027C49.9846 44.1127 49.163 44.5368 49.2635 45.1053C49.1925 45.2251 49.1588 45.3633 49.1669 45.5024C49.6874 50.5142 46.4968 56.0518 40.9907 55.9365C37.1676 55.8877 33.1433 53.798 31.4272 50.2917C30.8277 49.0315 30.7789 47.7501 30.4944 46.4158C30.4106 46.0229 29.9622 45.864 29.7007 45.837C29.2828 45.7937 28.8855 46.1444 28.5606 46.3907C27.4782 47.3076 25.8185 48.0422 24.5794 48.3271C15.3114 49.3046 16.4682 57.749 11.6 51.3609C12.7007 51.36 13.4513 49.4412 13.4267 48.522C13.4378 47.5379 12.89 46.2335 11.7536 46.2399C12.5037 44.6145 12.9423 42.8628 13.0467 41.0756C14.9892 30.9131 19.5205 27.6197 29.5299 26.6243C32.1353 26.8209 34.7958 27.7068 37.421 27.3974C37.1061 30.5837 33.7311 33.0126 30.6627 31.7025C29.6355 31.3001 29.0236 30.575 28.313 29.7795C28.2706 29.7311 28.2144 29.6968 28.1519 29.6813C27.5131 29.1622 27.2826 30.1115 27.4232 30.627C28.1323 33.5092 31.557 34.6011 34.1287 33.6278C35.3379 33.1552 36.6757 33.1276 37.9035 33.5499C42.0758 34.9338 43.3096 40.1894 47.5628 41.4271C49.8665 42.0799 52.6534 40.8672 52.9932 38.3112C53.2979 36.021 51.1266 33.8648 48.8302 34.8421C46.9809 35.629 47.3087 38.5344 49.3943 38.6567C49.9613 38.6899 50.1065 37.736 49.5306 37.6501C48.6881 37.5246 48.2928 36.4845 49.0788 35.9507C50.1401 35.23 51.5522 36.2623 51.7725 37.3315C52.07 38.7758 50.9733 40.0139 49.6143 40.3131C44.1601 41.0167 42.5518 32.1233 36.4652 32.1716C38.0261 30.7281 38.9808 28.6629 39.5672 26.593C39.6736 26.2175 39.2908 25.759 38.8881 25.9139C35.8362 27.0872 32.7497 25.5986 29.6715 25.6456C29.7105 24.8292 30.1796 24.0688 31.0436 24.0309C34.6782 23.8421 38.5508 23.9932 41.3277 21.2684C47.6971 20.6901 50.4682 14.1579 49.2226 8.45139C48.6216 5.48083 46.9493 2.97424 45.0327 0.687156C44.6301 0.206838 44.02 0.746514 44.0938 1.23369C44.5034 3.92287 44.5108 6.80385 43.3674 9.29081C42.5663 7.00529 41.1953 5.01734 39.6308 3.1506C39.2282 2.67012 38.6181 3.2098 38.6919 3.69697C39.1936 6.99143 39.0601 10.6143 37.0162 13.3407C36.5788 13.709 36.0874 14.0077 35.5592 14.2266C30.9811 14.3255 27.338 14.2548 23.4241 17.1348C16.4163 18.7252 11.2284 25.353 15.2252 32.2523C13.4632 34.8517 12.5206 38.0231 12.2685 41.1261C11.8938 43.3401 10.9968 45.3497 10.0495 47.3782ZM43.3878 62.9862C42.787 65.0642 43.2008 67.284 44.5333 68.7351C43.6926 68.6593 42.8464 68.7961 42.0723 69.1327C41.2982 69.4693 40.6212 69.9951 40.1033 70.6617C40.2282 69.8269 40.1413 68.9741 39.8505 68.1817C39.5596 67.3893 39.0743 66.6827 38.4389 66.1269C40.4085 66.0892 42.2995 64.8553 43.3878 62.9862ZM45.4074 2.96613C46.4767 4.42391 47.3722 5.99075 47.8865 7.73348C47.8198 7.78215 47.7629 7.84299 47.7187 7.9128C47.31 7.70864 46.8627 7.59337 46.4062 7.57457C45.9497 7.55577 45.4944 7.63388 45.0702 7.80374C45.433 6.21849 45.5468 4.58639 45.4074 2.96613ZM41.1985 13.5275C42.5337 12.6414 43.9971 13.4284 44.6584 14.8286C44.9077 15.295 45.6328 14.9322 45.4715 14.4858C44.9393 13.0115 43.9257 12.5583 42.7009 12.2702C43.4156 11.5205 43.996 10.6534 44.4167 9.70679C44.9866 8.37489 46.8334 8.01718 47.8088 9.11819C49.1577 14.4025 44.4821 18.5871 39.5628 19.2399C39.639 18.4537 39.5434 17.6603 39.2826 16.9147C39.0219 16.1691 38.6021 15.4891 38.0526 14.9217C39.1707 14.633 40.2336 14.162 41.1985 13.5275ZM36.0158 15.2799C38.1431 15.0462 38.849 17.7415 38.5804 19.3653C36.5803 19.5504 34.5297 19.3932 32.6008 19.9116C32.4841 18.0816 31.5638 16.4021 29.9253 15.5529C31.9449 15.2999 33.9896 15.4789 36.0158 15.2799ZM25.9324 20.8174C24.8958 19.9586 23.2041 20.0822 21.9285 20.5639C21.7532 20.4489 21.8048 20.1976 21.9327 19.9284C23.8326 17.4154 26.3012 16.5196 27.4402 16.129C29.7611 15.4556 31.664 18.0753 31.5573 20.2697C27.3577 22.1675 28.8106 24.7939 27.493 25.8589C25.5948 26.1549 22.6938 26.598 21.5974 24.7001C21.2413 23.4096 21.586 21.885 22.8302 21.2258C23.7389 21.0452 24.6809 21.1405 25.535 21.4996C25.913 21.654 26.2316 21.073 25.9324 20.8174Z" fill="#B78F3F"/>
</svg>
